<svg width="414" height="964" viewBox="0 0 414 964" fill="none" xmlns="http://www.w3.org/2000/svg">
<path d="M120.49 956V934.85H127.81C130.19 934.85 132.2 935.26 133.84 936.08C135.5 936.9 136.75 938.1 137.59 939.68C138.45 941.24 138.88 943.15 138.88 945.41C138.88 947.65 138.45 949.56 137.59 951.14C136.75 952.72 135.5 953.93 133.84 954.77C132.2 955.59 130.19 956 127.81 956H120.49ZM123.61 953.39H127.63C130.35 953.39 132.37 952.73 133.69 951.41C135.03 950.09 135.7 948.09 135.7 945.41C135.7 942.73 135.03 940.74 133.69 939.44C132.37 938.12 130.35 937.46 127.63 937.46H123.61V953.39ZM143.107 956V934.85H146.227V956H143.107ZM158.333 956.27C156.633 956.27 155.093 956.06 153.713 955.64C152.333 955.2 151.133 954.58 150.113 953.78L151.163 951.32C151.843 951.84 152.543 952.27 153.263 952.61C154.003 952.95 154.783 953.21 155.603 953.39C156.443 953.55 157.353 953.63 158.333 953.63C160.013 953.63 161.243 953.33 162.023 952.73C162.823 952.13 163.223 951.34 163.223 950.36C163.223 949.52 162.943 948.87 162.383 948.41C161.843 947.95 160.883 947.58 159.503 947.3L156.233 946.64C154.293 946.24 152.843 945.59 151.883 944.69C150.943 943.77 150.473 942.52 150.473 940.94C150.473 939.66 150.813 938.54 151.493 937.58C152.173 936.62 153.113 935.88 154.313 935.36C155.533 934.84 156.953 934.58 158.573 934.58C160.073 934.58 161.453 934.8 162.713 935.24C163.973 935.66 165.033 936.29 165.893 937.13L164.873 939.5C163.973 938.72 163.013 938.15 161.993 937.79C160.973 937.41 159.813 937.22 158.513 937.22C156.973 937.22 155.763 937.54 154.883 938.18C154.023 938.82 153.593 939.69 153.593 940.79C153.593 941.67 153.863 942.36 154.403 942.86C154.963 943.36 155.883 943.74 157.163 944L160.433 944.63C162.453 945.05 163.943 945.7 164.903 946.58C165.863 947.44 166.343 948.63 166.343 950.15C166.343 951.37 166.013 952.44 165.353 953.36C164.713 954.28 163.793 955 162.593 955.52C161.393 956.02 159.973 956.27 158.333 956.27ZM170.178 956V934.85H173.298V943.97H185.178V934.85H188.298V956H185.178V946.58H173.298V956H170.178ZM201.261 956V934.85H204.381V956H201.261ZM209.347 956V934.85H211.747L224.737 951.89H223.987V934.85H226.897V956H224.527L211.567 938.96H212.257V956H209.347ZM238.987 956.27C237.287 956.27 235.747 956.06 234.367 955.64C232.987 955.2 231.787 954.58 230.767 953.78L231.817 951.32C232.497 951.84 233.197 952.27 233.917 952.61C234.657 952.95 235.437 953.21 236.257 953.39C237.097 953.55 238.007 953.63 238.987 953.63C240.667 953.63 241.897 953.33 242.677 952.73C243.477 952.13 243.877 951.34 243.877 950.36C243.877 949.52 243.597 948.87 243.037 948.41C242.497 947.95 241.537 947.58 240.157 947.3L236.887 946.64C234.947 946.24 233.497 945.59 232.537 944.69C231.597 943.77 231.127 942.52 231.127 940.94C231.127 939.66 231.467 938.54 232.147 937.58C232.827 936.62 233.767 935.88 234.967 935.36C236.187 934.84 237.607 934.58 239.227 934.58C240.727 934.58 242.107 934.8 243.367 935.24C244.627 935.66 245.687 936.29 246.547 937.13L245.527 939.5C244.627 938.72 243.667 938.15 242.647 937.79C241.627 937.41 240.467 937.22 239.167 937.22C237.627 937.22 236.417 937.54 235.537 938.18C234.677 938.82 234.247 939.69 234.247 940.79C234.247 941.67 234.517 942.36 235.057 942.86C235.617 943.36 236.537 943.74 237.817 944L241.087 944.63C243.107 945.05 244.597 945.7 245.557 946.58C246.517 947.44 246.997 948.63 246.997 950.15C246.997 951.37 246.667 952.44 246.007 953.36C245.367 954.28 244.447 955 243.247 955.52C242.047 956.02 240.627 956.27 238.987 956.27ZM250.832 956V934.85H253.952V956H250.832ZM268.878 956.27C266.538 956.27 264.568 955.84 262.968 954.98C261.388 954.1 260.198 952.85 259.398 951.23C258.598 949.61 258.198 947.68 258.198 945.44C258.198 943.2 258.618 941.27 259.458 939.65C260.318 938.03 261.538 936.78 263.118 935.9C264.718 935.02 266.638 934.58 268.878 934.58C270.418 934.58 271.758 934.8 272.898 935.24C274.038 935.66 275.058 936.28 275.958 937.1L274.848 939.53C274.208 938.99 273.588 938.56 272.988 938.24C272.388 937.92 271.768 937.69 271.128 937.55C270.488 937.39 269.738 937.31 268.878 937.31C266.458 937.31 264.618 938.02 263.358 939.44C262.098 940.86 261.468 942.87 261.468 945.47C261.468 948.11 262.068 950.12 263.268 951.5C264.488 952.88 266.398 953.57 268.998 953.57C269.898 953.57 270.788 953.49 271.668 953.33C272.548 953.15 273.398 952.89 274.218 952.55L273.618 954.02V947.09H268.398V944.75H276.228V954.74C275.308 955.2 274.178 955.57 272.838 955.85C271.518 956.13 270.198 956.27 268.878 956.27ZM280.978 956V934.85H284.098V943.97H295.978V934.85H299.098V956H295.978V946.58H284.098V956H280.978ZM309.134 956V937.46H301.904V934.85H319.484V937.46H312.254V956H309.134ZM328.812 956.27C327.112 956.27 325.572 956.06 324.192 955.64C322.812 955.2 321.612 954.58 320.592 953.78L321.642 951.32C322.322 951.84 323.022 952.27 323.742 952.61C324.482 952.95 325.262 953.21 326.082 953.39C326.922 953.55 327.832 953.63 328.812 953.63C330.492 953.63 331.722 953.33 332.502 952.73C333.302 952.13 333.702 951.34 333.702 950.36C333.702 949.52 333.422 948.87 332.862 948.41C332.322 947.95 331.362 947.58 329.982 947.3L326.712 946.64C324.772 946.24 323.322 945.59 322.362 944.69C321.422 943.77 320.952 942.52 320.952 940.94C320.952 939.66 321.292 938.54 321.972 937.58C322.652 936.62 323.592 935.88 324.792 935.36C326.012 934.84 327.432 934.58 329.052 934.58C330.552 934.58 331.932 934.8 333.192 935.24C334.452 935.66 335.512 936.29 336.372 937.13L335.352 939.5C334.452 938.72 333.492 938.15 332.472 937.79C331.452 937.41 330.292 937.22 328.992 937.22C327.452 937.22 326.242 937.54 325.362 938.18C324.502 938.82 324.072 939.69 324.072 940.79C324.072 941.67 324.342 942.36 324.882 942.86C325.442 943.36 326.362 943.74 327.642 944L330.912 944.63C332.932 945.05 334.422 945.7 335.382 946.58C336.342 947.44 336.822 948.63 336.822 950.15C336.822 951.37 336.492 952.44 335.832 953.36C335.192 954.28 334.272 955 333.072 955.52C331.872 956.02 330.452 956.27 328.812 956.27Z" fill="black"/>
<rect x="1" y="1" width="412" height="894" fill="white"/>
<rect x="29" y="53" width="57" height="46" fill="white"/>
<path d="M36.9266 74.7141C36.352 75.3109 36.3699 76.2604 36.9667 76.8351L46.691 86.1992C47.2877 86.7739 48.2373 86.7559 48.8119 86.1592C49.3866 85.5625 49.3686 84.6129 48.7719 84.0383L40.1281 75.7146L48.4518 67.0707C49.0264 66.474 49.0085 65.5244 48.4117 64.9498C47.815 64.3751 46.8654 64.3931 46.2908 64.9898L36.9266 74.7141ZM77.9717 73.5003L37.9788 74.2548L38.0354 77.2543L78.0283 76.4997L77.9717 73.5003Z" fill="black"/>
<path d="M358.05 65.7609C357.411 65.1221 356.653 64.6154 355.819 64.2697C354.985 63.924 354.09 63.7461 353.187 63.7461C352.284 63.7461 351.39 63.924 350.555 64.2697C349.721 64.6154 348.963 65.1221 348.325 65.7609L347 67.0859L345.675 65.7609C344.385 64.4713 342.636 63.7468 340.812 63.7468C338.988 63.7468 337.239 64.4713 335.95 65.7609C334.66 67.0505 333.936 68.7996 333.936 70.6234C333.936 72.4472 334.66 74.1963 335.95 75.4859L337.275 76.8109L347 86.5359L356.725 76.8109L358.05 75.4859C358.688 74.8474 359.195 74.0894 359.541 73.2551C359.887 72.4207 360.064 71.5265 360.064 70.6234C360.064 69.7203 359.887 68.826 359.541 67.9917C359.195 67.1574 358.688 66.3993 358.05 65.7609V65.7609Z" stroke="black" stroke-width="2" stroke-linecap="round" stroke-linejoin="round"/>
<rect x="107" y="118" width="200" height="200" rx="10" fill="#C4C4C4"/>
<circle cx="207" cy="359" r="5" fill="#C4C4C4"/>
<circle cx="229" cy="359" r="5" fill="#C4C4C4"/>
<circle cx="185" cy="359" r="5" fill="#C4C4C4"/>
<line x1="172" y1="436" x2="242" y2="436" stroke="#C4C4C4" stroke-width="8"/>
<line x1="107" y1="406" x2="307" y2="406" stroke="#C4C4C4" stroke-width="12"/>
<line x1="57" y1="533" x2="127" y2="533" stroke="#C4C4C4" stroke-width="8"/>
<line x1="57" y1="556" x2="357" y2="556" stroke="#C4C4C4" stroke-width="8"/>
<line x1="57" y1="579" x2="357" y2="579" stroke="#C4C4C4" stroke-width="8"/>
<line x1="57" y1="602" x2="357" y2="602" stroke="#C4C4C4" stroke-width="8"/>
<line x1="57" y1="625" x2="357" y2="625" stroke="#C4C4C4" stroke-width="8"/>
<line x1="57" y1="705" x2="127" y2="705" stroke="#C4C4C4" stroke-width="8"/>
<line x1="57" y1="728" x2="357" y2="728" stroke="#C4C4C4" stroke-width="8"/>
<line x1="57" y1="751" x2="357" y2="751" stroke="#C4C4C4" stroke-width="8"/>
<line x1="57" y1="774" x2="357" y2="774" stroke="#C4C4C4" stroke-width="8"/>
<line x1="57" y1="797" x2="357" y2="797" stroke="#C4C4C4" stroke-width="8"/>
<path d="M20.5336 29.9711C19.7225 29.9944 18.9276 29.7408 18.2798 29.2522C17.6686 28.7857 17.2601 28.1022 17.1386 27.343H18.8549C18.9555 27.6941 19.1739 28 19.4734 28.2091C19.789 28.4255 20.1649 28.5365 20.5473 28.5264C20.8809 28.5333 21.2102 28.4505 21.5007 28.2864C21.7912 28.1224 22.0323 27.8832 22.1986 27.594C22.6364 26.8036 22.8424 25.9057 22.7932 25.0035H22.6791C22.4614 25.4507 22.1143 25.8221 21.6828 26.0694C21.2236 26.327 20.704 26.4574 20.1776 26.4471C19.7557 26.4598 19.3357 26.3853 18.944 26.2282C18.5522 26.0711 18.1971 25.8348 17.9009 25.5342C17.6032 25.2317 17.37 24.8719 17.2154 24.4766C17.0608 24.0814 16.9881 23.6588 17.0016 23.2346C16.9872 22.7802 17.0695 22.3279 17.243 21.9077C17.4165 21.4875 17.6773 21.1089 18.0081 20.797C18.6132 20.2733 19.3645 19.9479 20.1604 19.8649C20.9564 19.7818 21.7586 19.9451 22.4588 20.3326C23.0184 20.6748 23.4704 21.1675 23.7632 21.7545C24.25 22.6951 24.4859 23.7454 24.4479 24.8038C24.5275 26.1503 24.1631 27.4857 23.4106 28.6051C23.0788 29.0502 22.6432 29.4074 22.1418 29.6455C21.6403 29.8836 21.0882 29.9954 20.5336 29.9711V29.9711ZM19.2292 24.5504C19.4092 24.7277 19.6235 24.8664 19.859 24.9578C20.0945 25.0493 20.3462 25.0916 20.5987 25.0822C20.8507 25.0903 21.1018 25.0478 21.337 24.957C21.5722 24.8662 21.7869 24.7291 21.9681 24.5539C22.1462 24.3807 22.2863 24.1724 22.3794 23.9421C22.4726 23.7118 22.5167 23.4647 22.509 23.2164C22.5151 22.9629 22.4696 22.7109 22.3755 22.4755C22.2813 22.2402 22.1404 22.0263 21.9613 21.8469C21.5991 21.5023 21.1168 21.3123 20.6169 21.3174C20.1169 21.3225 19.6386 21.5222 19.2835 21.8742C18.9284 22.2262 18.7245 22.7027 18.715 23.2026C18.7055 23.7025 18.8912 24.1864 19.2327 24.5516L19.2292 24.5504Z" fill="#111111"/>
<path d="M26.4052 22.6421C26.3997 22.495 26.4241 22.3483 26.4771 22.211C26.5301 22.0736 26.6105 21.9485 26.7134 21.8433C26.8215 21.7395 26.9496 21.6588 27.0898 21.606C27.2301 21.5532 27.3796 21.5295 27.5293 21.5363C27.6776 21.5315 27.8253 21.5566 27.9637 21.6101C28.1021 21.6635 28.2284 21.7443 28.3349 21.8475C28.4415 21.9507 28.5263 22.0743 28.5841 22.2109C28.642 22.3475 28.6718 22.4943 28.6718 22.6427C28.6718 22.791 28.642 22.9379 28.5841 23.0745C28.5263 23.2111 28.4415 23.3347 28.3349 23.4379C28.2284 23.5411 28.1021 23.6218 27.9637 23.6753C27.8253 23.7287 27.6776 23.7538 27.5293 23.7491C27.3796 23.7559 27.2301 23.7322 27.0898 23.6794C26.9496 23.6266 26.8215 23.5459 26.7134 23.4421C26.6099 23.337 26.5292 23.2117 26.4762 23.0741C26.4232 22.9365 26.3991 22.7895 26.4052 22.6421V22.6421ZM26.4052 27.6839C26.3992 27.5368 26.4234 27.3899 26.4764 27.2525C26.5294 27.1151 26.6101 26.9901 26.7134 26.8851C26.8213 26.7811 26.9494 26.7002 27.0897 26.6474C27.23 26.5946 27.3796 26.571 27.5293 26.5781C27.6776 26.5733 27.8253 26.5984 27.9637 26.6519C28.1021 26.7053 28.2284 26.7861 28.3349 26.8893C28.4415 26.9925 28.5263 27.1161 28.5841 27.2527C28.642 27.3893 28.6718 27.5361 28.6718 27.6845C28.6718 27.8328 28.642 27.9797 28.5841 28.1163C28.5263 28.2529 28.4415 28.3765 28.3349 28.4797C28.2284 28.5829 28.1021 28.6636 27.9637 28.7171C27.8253 28.7705 27.6776 28.7956 27.5293 28.7909C27.3795 28.7977 27.2299 28.7739 27.0896 28.7209C26.9493 28.668 26.8213 28.5869 26.7134 28.4827C26.6104 28.3775 26.53 28.2524 26.477 28.1151C26.424 27.9777 26.3996 27.831 26.4052 27.6839Z" fill="#111111"/>
<path d="M35.31 29.7426V27.9441H30.5957V26.4057C31.3808 24.9602 32.6917 22.8562 34.5283 20.0938H36.9613V26.4845H38.2657V27.9429H36.9613V29.7426H35.31ZM32.1945 26.4263V26.5267H35.3362V21.4974H35.2415C34.1992 23.038 33.1836 24.681 32.1945 26.4263V26.4263Z" fill="#111111"/>
<path d="M42.2186 29.7426V21.8318H42.1045L39.708 23.5173V21.8592L42.2289 20.0938H43.9476V29.7426H42.2186Z" fill="#111111"/>
<path d="M56.7406 29.7426L55.9258 27.2753H52.3744L51.5458 29.7426H49.7998L53.2234 20.0938H55.1634L58.5927 29.7426H56.7406ZM54.0998 21.9322L52.7761 25.9116H55.5241L54.214 21.9322H54.0998Z" fill="#111111"/>
<path d="M61.8565 29.7421H60.252V20.0933H62.2708L65.1729 27.1173H65.2927L68.1948 20.0898H70.2148V29.7421H68.6102V22.9554H68.5166L65.8485 29.3678H64.6182L61.9455 22.9554H61.8519L61.8565 29.7421Z" fill="#111111"/>
<path d="M358.49 26.8055C358.523 26.7722 358.55 26.7324 358.568 26.6884C358.586 26.6445 358.594 26.5974 358.593 26.55C358.592 26.5026 358.582 26.4558 358.562 26.4127C358.543 26.3695 358.514 26.3308 358.479 26.2988C357.795 25.7203 356.928 25.4029 356.033 25.4029C355.137 25.4029 354.27 25.7203 353.586 26.2988C353.551 26.3304 353.522 26.3688 353.503 26.4119C353.483 26.4549 353.472 26.5015 353.472 26.5488C353.47 26.5963 353.479 26.6436 353.496 26.6878C353.514 26.7319 353.541 26.772 353.574 26.8055L355.787 29.0377C355.819 29.0703 355.857 29.0962 355.899 29.1139C355.941 29.1316 355.986 29.1407 356.032 29.1407C356.078 29.1407 356.123 29.1316 356.165 29.1139C356.207 29.0962 356.245 29.0703 356.277 29.0377L358.49 26.8055ZM356.033 23.7243C357.382 23.7241 358.683 24.2251 359.684 25.1303C359.748 25.1926 359.834 25.2276 359.923 25.2276C360.013 25.2276 360.099 25.1926 360.163 25.1303L361.442 23.8373C361.475 23.8038 361.502 23.764 361.52 23.7202C361.538 23.6764 361.546 23.6295 361.546 23.5822C361.545 23.5348 361.535 23.4881 361.517 23.4447C361.498 23.4013 361.47 23.3621 361.436 23.3294C359.969 21.9647 358.04 21.206 356.037 21.206C354.033 21.206 352.104 21.9647 350.637 23.3294C350.602 23.3616 350.574 23.4005 350.554 23.4439C350.535 23.4872 350.524 23.5341 350.523 23.5816C350.522 23.629 350.531 23.676 350.549 23.7199C350.567 23.7638 350.593 23.8037 350.627 23.8373L351.905 25.1303C351.969 25.1933 352.055 25.2287 352.145 25.2287C352.235 25.2287 352.321 25.1933 352.385 25.1303C353.384 24.2245 354.684 23.7222 356.033 23.7209V23.7243ZM356.033 19.5224C358.486 19.5221 360.846 20.4647 362.624 22.1551C362.688 22.2182 362.774 22.2536 362.864 22.2536C362.954 22.2536 363.04 22.2182 363.105 22.1551L364.384 20.8633C364.417 20.8302 364.444 20.7907 364.462 20.7472C364.479 20.7037 364.488 20.657 364.488 20.61C364.488 20.563 364.479 20.5165 364.46 20.4733C364.442 20.4301 364.415 20.3911 364.38 20.3589C362.134 18.2059 359.143 17.0039 356.031 17.0039C352.92 17.0039 349.929 18.2059 347.682 20.3589C347.649 20.3915 347.622 20.4305 347.603 20.4736C347.585 20.5167 347.575 20.5631 347.575 20.61C347.575 20.6569 347.584 20.7035 347.602 20.747C347.62 20.7905 347.646 20.83 347.679 20.8633L348.961 22.1551C349.025 22.2179 349.111 22.253 349.2 22.253C349.29 22.253 349.376 22.2179 349.44 22.1551C351.218 20.463 353.578 19.5191 356.033 19.519V19.5224Z" fill="#111111"/>
<path d="M339.795 17.3711H340.902C341.047 17.3709 341.191 17.3995 341.326 17.455C341.46 17.5106 341.582 17.5921 341.685 17.6949C341.788 17.7977 341.87 17.9198 341.925 18.0542C341.981 18.1886 342.01 18.3326 342.01 18.4781V28.0744C342.01 28.2199 341.981 28.364 341.926 28.4985C341.87 28.6329 341.788 28.755 341.686 28.8579C341.583 28.9607 341.46 29.0422 341.326 29.0977C341.191 29.1532 341.047 29.1817 340.902 29.1814H339.795C339.501 29.1814 339.22 29.0647 339.012 28.8571C338.804 28.6495 338.688 28.368 338.688 28.0744V18.4781C338.688 18.1845 338.804 17.9029 339.012 17.6953C339.22 17.4877 339.501 17.3711 339.795 17.3711V17.3711ZM334.629 19.9548H335.736C335.881 19.9546 336.025 19.9831 336.159 20.0387C336.294 20.0943 336.416 20.1758 336.519 20.2786C336.622 20.3814 336.704 20.5035 336.759 20.6379C336.815 20.7722 336.844 20.9163 336.844 21.0617V28.0744C336.844 28.2199 336.815 28.3639 336.759 28.4983C336.704 28.6327 336.622 28.7547 336.519 28.8575C336.416 28.9604 336.294 29.0419 336.159 29.0974C336.025 29.153 335.881 29.1815 335.736 29.1814H334.629C334.483 29.1817 334.339 29.1532 334.205 29.0977C334.07 29.0422 333.948 28.9607 333.845 28.8578C333.742 28.755 333.661 28.6328 333.605 28.4984C333.55 28.3639 333.521 28.2199 333.522 28.0744V21.0617C333.521 20.9163 333.55 20.7723 333.606 20.6379C333.661 20.5036 333.743 20.3815 333.845 20.2787C333.948 20.1758 334.07 20.0943 334.205 20.0387C334.339 19.9831 334.483 19.9546 334.629 19.9548V19.9548ZM329.461 22.5384H330.569C330.863 22.5387 331.144 22.6555 331.352 22.863C331.559 23.0705 331.676 23.3519 331.676 23.6454V28.0744C331.676 28.368 331.56 28.6495 331.352 28.8571C331.144 29.0647 330.863 29.1814 330.569 29.1814H329.461C329.316 29.1815 329.172 29.153 329.037 29.0974C328.903 29.0418 328.781 28.9603 328.678 28.8575C328.575 28.7547 328.494 28.6326 328.438 28.4982C328.383 28.3638 328.354 28.2198 328.354 28.0744V23.6454C328.354 23.3518 328.471 23.0703 328.678 22.8627C328.886 22.6551 329.168 22.5384 329.461 22.5384V22.5384ZM324.293 24.7535H325.4C325.693 24.7535 325.975 24.8701 326.182 25.0777C326.39 25.2853 326.507 25.5669 326.507 25.8605V28.0744C326.507 28.2198 326.478 28.3638 326.423 28.4982C326.367 28.6326 326.286 28.7547 326.183 28.8575C326.08 28.9603 325.958 29.0418 325.823 29.0974C325.689 29.153 325.545 29.1815 325.4 29.1814H324.293C324.147 29.1815 324.003 29.153 323.869 29.0974C323.734 29.0419 323.612 28.9604 323.509 28.8575C323.406 28.7547 323.325 28.6327 323.269 28.4983C323.213 28.3639 323.185 28.2199 323.185 28.0744V25.8628C323.184 25.7171 323.213 25.5729 323.269 25.4384C323.324 25.3038 323.406 25.1815 323.509 25.0785C323.612 24.9755 323.734 24.8937 323.868 24.838C324.003 24.7822 324.147 24.7535 324.293 24.7535Z" fill="#111111"/>
<path d="M391.473 18.1081C391.963 18.1087 392.431 18.3034 392.777 18.6493C393.123 18.9953 393.317 19.4643 393.318 19.9534V26.5975C393.317 27.0866 393.123 27.5556 392.777 27.9016C392.431 28.2476 391.963 28.4422 391.473 28.4428H373.016C372.526 28.4422 372.058 28.2476 371.712 27.9016C371.366 27.5556 371.172 27.0866 371.171 26.5975V19.9534C371.172 19.4643 371.366 18.9953 371.712 18.6493C372.058 18.3034 372.526 18.1087 373.016 18.1081H391.473V18.1081ZM391.473 17H373.016C372.628 17.0001 372.244 17.0767 371.886 17.2252C371.528 17.3737 371.202 17.5913 370.928 17.8655C370.654 18.1398 370.437 18.4653 370.289 18.8235C370.141 19.1818 370.064 19.5657 370.064 19.9534V26.5975C370.064 26.9852 370.141 27.3691 370.289 27.7274C370.437 28.0856 370.654 28.4111 370.928 28.6854C371.202 28.9596 371.528 29.1772 371.886 29.3257C372.244 29.4743 372.628 29.5508 373.016 29.5509H391.473C391.861 29.5508 392.245 29.4743 392.603 29.3257C392.961 29.1772 393.287 28.9596 393.561 28.6854C393.835 28.4111 394.052 28.0856 394.2 27.7274C394.348 27.3691 394.425 26.9852 394.425 26.5975V19.9534C394.425 19.5657 394.348 19.1818 394.2 18.8235C394.052 18.4653 393.835 18.1398 393.561 17.8655C393.287 17.5913 392.961 17.3737 392.603 17.2252C392.245 17.0767 391.861 17.0001 391.473 17V17Z" fill="#111111"/>
<path d="M395.532 21.0586V25.4887C395.968 25.3052 396.34 24.9971 396.602 24.6031C396.863 24.2091 397.003 23.7466 397.003 23.2737C397.003 22.8007 396.863 22.3382 396.602 21.9442C396.34 21.5502 395.968 21.2421 395.532 21.0586Z" fill="#111111"/>
<path d="M373.757 19.2148H390.735C390.929 19.2148 391.121 19.253 391.3 19.3273C391.479 19.4015 391.642 19.5102 391.779 19.6474C391.916 19.7845 392.025 19.9473 392.099 20.1264C392.173 20.3056 392.211 20.4976 392.211 20.6916V25.8589C392.211 26.053 392.173 26.2452 392.099 26.4245C392.025 26.6038 391.916 26.7667 391.778 26.9039C391.641 27.0411 391.478 27.15 391.299 27.2243C391.12 27.2985 390.928 27.3368 390.733 27.3368H373.757C373.365 27.3368 372.989 27.1811 372.712 26.9039C372.435 26.6268 372.279 26.2509 372.279 25.8589V20.6927C372.279 20.3007 372.435 19.9248 372.712 19.6477C372.989 19.3705 373.365 19.2148 373.757 19.2148V19.2148Z" fill="#111111"/>
<rect x="1" y="1" width="412" height="894" stroke="#B3B3B3" stroke-width="2"/>
</svg>
