<svg width="842" height="589" viewBox="0 0 842 589" fill="none" xmlns="http://www.w3.org/2000/svg">
<g clip-path="url(#clip0_396_537)">
<path d="M743.208 574.193L729.128 574.192L722.43 519.885L743.21 519.886L743.208 574.193Z" fill="#FFB8B8"/>
<path d="M746.798 587.841L701.399 587.839V587.265C701.4 582.579 703.262 578.084 706.575 574.77C709.889 571.457 714.384 569.595 719.07 569.595H719.071L746.799 569.596L746.798 587.841Z" fill="#2F2E41"/>
<path d="M805.349 539.578L796.21 550.289L750.55 520.133L764.039 504.326L805.349 539.578Z" fill="#FFB8B8"/>
<path d="M818.062 545.706L788.593 580.24L788.156 579.867C784.592 576.825 782.381 572.492 782.011 567.82C781.641 563.148 783.142 558.521 786.184 554.956L786.185 554.955L804.184 533.863L818.062 545.706Z" fill="#2F2E41"/>
<path d="M643.236 307.117L638.853 347.537L816.024 345.01L738.759 219.114L675.673 216.848L643.236 307.117Z" fill="#2F2E41"/>
<path opacity="0.28" d="M643.236 307.117L638.853 347.537L816.024 345.01L738.759 219.114L675.673 216.848L643.236 307.117Z" fill="black"/>
<path d="M678.075 314.056L671.82 351.04V384.098L722.25 400.56C722.25 400.56 716.346 528.964 724.217 537.142L724.023 556.885L746.023 557.885L746.203 543.991L755.53 440.135L761.023 363.885L752.117 306.074L678.075 314.056Z" fill="#2F2E41"/>
<path d="M717.145 345.892L671.82 384.098C671.82 384.098 669.167 453.03 675.904 461.114C681.69 468.057 756.942 527.946 756.942 527.946C756.942 527.946 770.316 540.214 777.811 540.41C785.306 540.605 794.024 524.885 794.024 524.885L776.665 511.696C776.665 511.696 731.696 469.721 718.344 453.03C712.955 446.294 712.955 445.62 712.955 445.62L714.795 417.606L733.321 365.615L717.145 345.892Z" fill="#2F2E41"/>
<path d="M669.024 162.885L649.482 161.079L631.756 164.033L594.222 164.045L591.024 191.249L625.277 198.914L633.624 194.823L668.419 208.08L669.024 162.885Z" fill="#2F2E41"/>
<path d="M692.364 162.8C692.364 162.8 733.838 158.914 743.269 166.324C752.7 173.734 772.91 320.59 772.91 320.59L692.364 325.136L677.925 315.201L682.024 241.885L692.364 162.8Z" fill="#CCCCCC"/>
<path d="M705.024 161.885L659.275 162.889L616.622 355.62L650.305 363.031L705.024 161.885Z" fill="#2F2E41"/>
<path d="M737.546 160.256L773.583 171.535L771.536 250.722L816.024 345.396L763.725 350.905L722.386 248.675L737.546 160.256Z" fill="#2F2E41"/>
<path d="M796.971 355.013C798.234 353.9 799.238 352.525 799.912 350.983C800.586 349.44 800.914 347.769 800.873 346.086C800.831 344.404 800.421 342.751 799.672 341.244C798.922 339.737 797.851 338.412 796.534 337.364L803.784 312.072L789.489 303.918L779.753 339.778C778.138 342.107 777.434 344.947 777.773 347.761C778.113 350.574 779.473 353.165 781.595 355.043C783.717 356.921 786.455 357.955 789.289 357.949C792.122 357.944 794.856 356.899 796.971 355.013V355.013Z" fill="#FFB8B8"/>
<path d="M752.7 173.734L774.023 171.885C774.023 171.885 793.167 191.906 797.522 207.408C801.877 222.911 806.592 271.414 806.592 271.414L804.625 342.369L779.7 325.443L778.028 264.412L752.7 173.734Z" fill="#2F2E41"/>
<path d="M747.557 138.07C755.564 123.422 750.181 105.057 735.533 97.0495C720.885 89.0422 702.519 94.4255 694.512 109.073C686.504 123.721 691.888 142.087 706.536 150.094C721.184 158.102 739.549 152.718 747.557 138.07Z" fill="#FFB8B8"/>
<path d="M717.664 110.953C713.698 110.036 709.581 111.052 705.564 111.71C701.547 112.368 697.121 112.585 693.723 110.344C691.214 108.689 689.671 105.951 688.222 103.317C687.618 102.377 687.215 101.321 687.039 100.217C686.869 98.2686 688.108 96.4914 689.424 95.045C695.536 88.3265 704.467 84.6494 713.475 83.4813C720.903 82.3742 728.492 83.301 735.436 86.1631C742.273 89.162 748.151 94.6538 750.839 101.619C752.077 105.184 752.851 108.894 753.14 112.657C753.546 115.425 753.598 118.234 753.295 121.016C752.933 123.078 752.391 125.105 751.675 127.072L747.222 140.518C746.902 141.789 746.304 142.972 745.471 143.984C745.043 144.479 744.466 144.823 743.826 144.963C743.187 145.103 742.519 145.032 741.923 144.761C742.28 143.301 742.334 141.783 742.083 140.301C741.944 139.562 741.586 138.882 741.057 138.348C740.528 137.814 739.851 137.451 739.113 137.306C737.472 137.132 736.07 138.404 734.513 138.952C733.8 139.163 733.053 139.232 732.314 139.154C731.575 139.077 730.858 138.854 730.205 138.5C729.552 138.145 728.975 137.666 728.507 137.088C728.039 136.511 727.689 135.847 727.478 135.134C727.436 134.991 727.399 134.845 727.368 134.699C727.122 133.161 727.535 131.516 726.952 130.072C726.269 128.381 724.459 127.495 723.099 126.279C721.858 125.134 720.97 123.658 720.539 122.026C720.108 120.393 720.152 118.671 720.666 117.063C721.03 115.944 722.058 115.435 721.852 114.149C721.582 112.463 719.096 111.284 717.664 110.953Z" fill="#2F2E41"/>
<path d="M381.612 238.725H0V0H381.612V238.725Z" fill="white"/>
<path d="M381.612 238.725H0V0H381.612V238.725ZM1.74252 236.983H379.869V1.74252H1.74252V236.983Z" fill="#3F3D56"/>
<path d="M334.999 569.369H117.185V330.644H334.999V569.369Z" fill="white"/>
<path d="M334.999 569.369H117.185V330.644H334.999V569.369ZM118.927 567.626H333.257V332.386H118.927V567.626Z" fill="#3F3D56"/>
<path d="M305.377 546.822H260.071V548.659H305.377V546.822Z" fill="#3F3D56"/>
<path d="M305.377 552.332H260.071V554.169H305.377V552.332Z" fill="#3F3D56"/>
<path d="M305.377 557.842H260.071V559.678H305.377V557.842Z" fill="#3F3D56"/>
<path d="M226.092 373.335V392.503C237.465 392.503 248.582 395.875 258.039 402.194C267.495 408.512 274.865 417.493 279.218 428C283.57 438.508 284.709 450.07 282.49 461.224C280.271 472.379 274.795 482.625 266.753 490.667L280.306 504.22C291.029 493.498 298.331 479.836 301.289 464.964C304.248 450.091 302.729 434.675 296.926 420.665C291.123 406.655 281.296 394.681 268.688 386.256C256.079 377.832 241.256 373.335 226.092 373.335Z" fill="#E6E6E6"/>
<path d="M280.306 504.22L266.753 490.667C256.922 500.5 243.86 506.437 229.987 507.377C216.114 508.318 202.37 504.199 191.302 495.782L179.7 511.048C194.461 522.266 212.786 527.756 231.284 526.501C249.781 525.246 267.197 517.33 280.306 504.22Z" fill="#575A89"/>
<path d="M168.589 450.006C168.589 442.454 170.076 434.977 172.966 428C175.856 421.024 180.091 414.685 185.431 409.345C190.771 404.005 197.11 399.77 204.086 396.88C211.063 393.99 218.54 392.503 226.092 392.503V373.335C210.042 373.335 194.396 378.372 181.361 387.736C168.325 397.099 158.557 410.318 153.433 425.528C148.309 440.739 148.088 457.174 152.8 472.516C157.513 487.859 166.921 501.336 179.7 511.048L191.302 495.782C184.238 490.424 178.511 483.503 174.57 475.561C170.63 467.619 168.582 458.872 168.589 450.006V450.006Z" fill="#FF1557"/>
<path d="M657.366 421.254H439.551V182.529H657.366V421.254Z" fill="white"/>
<path d="M657.366 421.254H439.551V182.529H657.366V421.254ZM441.293 419.512H655.623V184.271H441.293V419.512Z" fill="#3F3D56"/>
<path d="M510.123 328.465H470.916V391.196H510.123V328.465Z" fill="#575A89"/>
<path d="M566.755 285.773H527.548V391.196H566.755V285.773Z" fill="#E6E6E6"/>
<path d="M623.386 236.112H584.18V391.196H623.386V236.112Z" fill="#FF1557"/>
<path d="M636.455 392.939H460.461V210.845H462.203V391.196H636.455V392.939Z" fill="#3F3D56"/>
<path d="M594.023 188.885C600.651 188.885 606.023 183.512 606.023 176.885C606.023 170.257 600.651 164.885 594.023 164.885C587.396 164.885 582.023 170.257 582.023 176.885C582.023 183.512 587.396 188.885 594.023 188.885Z" fill="#FFB8B8"/>
<path d="M840.59 589H653.59C653.325 589 653.071 588.895 652.883 588.707C652.696 588.52 652.59 588.265 652.59 588C652.59 587.735 652.696 587.48 652.883 587.293C653.071 587.105 653.325 587 653.59 587H840.59C840.856 587 841.11 587.105 841.297 587.293C841.485 587.48 841.59 587.735 841.59 588C841.59 588.265 841.485 588.52 841.297 588.707C841.11 588.895 840.856 589 840.59 589Z" fill="#CCCCCC"/>
<path d="M328.615 188.799H52.9968C52.7681 188.799 52.5487 188.708 52.3869 188.546C52.2252 188.384 52.1343 188.165 52.1343 187.936V55.8323C52.1343 55.6035 52.2251 55.3841 52.3869 55.2224C52.5487 55.0606 52.7681 54.9697 52.9968 54.9697C53.2256 54.9697 53.445 55.0606 53.6068 55.2224C53.7685 55.3841 53.8594 55.6035 53.8594 55.8323V187.074H328.615C328.729 187.073 328.841 187.095 328.946 187.138C329.051 187.182 329.146 187.245 329.227 187.325C329.307 187.405 329.371 187.501 329.415 187.605C329.458 187.71 329.481 187.823 329.481 187.936C329.481 188.05 329.458 188.162 329.415 188.267C329.371 188.372 329.307 188.467 329.227 188.547C329.146 188.627 329.051 188.691 328.946 188.734C328.841 188.777 328.729 188.799 328.615 188.799V188.799Z" fill="#3F3D56"/>
<path d="M111.884 179.311H86.8159C86.1371 179.31 85.4862 179.04 85.0062 178.56C84.5262 178.08 84.2562 177.429 84.2554 176.75V142.193C84.2562 141.514 84.5262 140.864 85.0062 140.384C85.4862 139.904 86.1371 139.634 86.8159 139.633H111.884C112.563 139.634 113.214 139.904 113.694 140.384C114.174 140.864 114.444 141.514 114.445 142.193V176.75C114.444 177.429 114.174 178.08 113.694 178.56C113.214 179.04 112.563 179.31 111.884 179.311V179.311Z" fill="#FF1557"/>
<path d="M157.6 179.31H132.532C131.853 179.31 131.202 179.04 130.722 178.56C130.242 178.08 129.972 177.429 129.971 176.75V109.416C129.972 108.737 130.242 108.086 130.722 107.606C131.202 107.126 131.853 106.856 132.532 106.855H157.6C158.279 106.856 158.93 107.126 159.41 107.606C159.89 108.086 160.16 108.737 160.161 109.416V176.75C160.16 177.429 159.89 178.08 159.41 178.56C158.93 179.04 158.279 179.31 157.6 179.31V179.31Z" fill="#FF1557"/>
<path d="M203.316 179.311H178.247C177.568 179.31 176.917 179.04 176.437 178.56C175.957 178.08 175.687 177.429 175.687 176.75V142.193C175.687 141.514 175.957 140.864 176.437 140.384C176.917 139.904 177.568 139.634 178.247 139.633H203.316C203.994 139.634 204.645 139.904 205.125 140.384C205.605 140.864 205.875 141.514 205.876 142.193V176.75C205.875 177.429 205.605 178.08 205.125 178.56C204.645 179.04 203.994 179.31 203.316 179.311V179.311Z" fill="#FF1557"/>
<path d="M249.031 179.31H223.963C223.299 179.325 222.658 179.075 222.178 178.617C221.698 178.159 221.419 177.529 221.402 176.866V96.3614C221.419 95.6981 221.698 95.0684 222.178 94.6102C222.658 94.1521 223.299 93.9028 223.963 93.9171H249.031C249.695 93.9028 250.337 94.1521 250.817 94.6102C251.297 95.0684 251.575 95.6981 251.592 96.3614V176.866C251.575 177.529 251.297 178.159 250.817 178.617C250.337 179.075 249.695 179.325 249.031 179.31V179.31Z" fill="#FF1557"/>
<path d="M294.747 179.31H269.678C268.999 179.31 268.349 179.04 267.869 178.56C267.389 178.08 267.118 177.429 267.118 176.75V73.1882C267.118 72.5094 267.389 71.8586 267.869 71.3786C268.349 70.8987 268.999 70.6287 269.678 70.6279H294.747C295.426 70.6287 296.076 70.8987 296.556 71.3786C297.036 71.8586 297.306 72.5094 297.307 73.1882V176.75C297.306 177.429 297.036 178.08 296.556 178.56C296.076 179.04 295.426 179.31 294.747 179.31V179.31Z" fill="#FF1557"/>
<path d="M99.3502 129.282C102.208 129.282 104.526 126.965 104.526 124.107C104.526 121.248 102.208 118.931 99.3502 118.931C96.4919 118.931 94.1748 121.248 94.1748 124.107C94.1748 126.965 96.4919 129.282 99.3502 129.282Z" fill="#3F3D56"/>
<path d="M145.066 95.6422C147.924 95.6422 150.241 93.3251 150.241 90.4669C150.241 87.6086 147.924 85.2915 145.066 85.2915C142.208 85.2915 139.891 87.6086 139.891 90.4669C139.891 93.3251 142.208 95.6422 145.066 95.6422Z" fill="#3F3D56"/>
<path d="M190.781 129.282C193.64 129.282 195.957 126.965 195.957 124.107C195.957 121.248 193.64 118.931 190.781 118.931C187.923 118.931 185.606 121.248 185.606 124.107C185.606 126.965 187.923 129.282 190.781 129.282Z" fill="#3F3D56"/>
<path d="M236.497 79.2535C239.355 79.2535 241.673 76.9365 241.673 74.0782C241.673 71.2199 239.355 68.9028 236.497 68.9028C233.639 68.9028 231.322 71.2199 231.322 74.0782C231.322 76.9365 233.639 79.2535 236.497 79.2535Z" fill="#3F3D56"/>
<path d="M282.212 60.2772C285.071 60.2772 287.388 57.9601 287.388 55.1019C287.388 52.2436 285.071 49.9265 282.212 49.9265C279.354 49.9265 277.037 52.2436 277.037 55.1019C277.037 57.9601 279.354 60.2772 282.212 60.2772Z" fill="#3F3D56"/>
<path d="M190.89 125.266L145.066 90.9429L99.867 124.797L98.833 123.416L145.066 88.7869L190.672 122.947L235.993 73.3519L236.175 73.2779L281.89 54.8579L282.535 56.4589L237.001 74.8049L190.89 125.266Z" fill="#3F3D56"/>
</g>
<defs>
<clipPath id="clip0_396_537">
<rect width="841.59" height="589" fill="white"/>
</clipPath>
</defs>
</svg>
