<svg width="150" height="150" viewBox="0 0 150 150" fill="none" xmlns="http://www.w3.org/2000/svg">
<path d="M74.6517 60.426C86.5452 60.426 96.1867 50.7844 96.1867 38.891C96.1867 26.9975 86.5452 17.356 74.6517 17.356C62.7583 17.356 53.1167 26.9975 53.1167 38.891C53.1167 50.7844 62.7583 60.426 74.6517 60.426Z" stroke="#FF1557" stroke-width="5"/>
<path d="M83.4483 57.0906C82.096 57.9032 81.6568 59.6571 82.4665 61.011L92.2085 77.3001L92.2117 77.3056C93.0215 78.6533 94.7705 79.0894 96.1182 78.2796C97.4705 77.4671 97.9097 75.7132 97.0999 74.3592L87.358 58.0701L87.3547 58.0646C86.545 56.7169 84.796 56.2809 83.4483 57.0906Z" fill="#FF1557" stroke="#FF1557"/>
<path fill-rule="evenodd" clip-rule="evenodd" d="M61.9491 113.945C59.0175 113.945 56.426 115.709 55.3499 118.438L52.4595 125.776C51.9133 127.164 51.6367 128.621 51.6367 130.108V130.628C51.6367 132.451 52.0692 134.282 52.885 135.911L55.6186 141.378C56.1082 142.356 56.3659 143.456 56.3659 144.551V149.412H61.095V144.551C61.095 142.728 60.6625 140.898 59.8467 139.268L57.1132 133.801C56.6236 132.823 56.3659 131.723 56.3659 130.628V130.108C56.3659 129.217 56.5312 128.342 56.8575 127.51L59.7494 120.17C60.1019 119.276 60.9863 118.673 61.9486 118.673H63.4596H68.1888H71.0072C73.3648 118.673 75.2825 120.591 75.2825 122.949C75.2825 124.914 73.9513 126.616 72.043 127.091L66.354 128.515L63.5803 136.841L68.0636 138.337L70.0191 132.476L73.19 131.681C74.6588 131.315 75.9613 130.593 77.0279 129.633C77.3164 129.91 77.6213 130.17 77.9594 130.397L78.1034 130.487C79.2336 131.203 80.5152 131.553 81.7898 131.553C81.8847 131.553 81.977 131.533 82.0714 131.528C82.2844 132.985 82.9274 134.391 84.0481 135.512L84.4548 135.919C85.8382 137.302 87.6541 137.992 89.47 137.992C91.2859 137.992 93.1018 137.302 94.4852 135.919L103.376 127.028C103.125 128.529 102.712 130.003 102.097 131.421L98.5122 139.695C97.2187 142.681 96.5637 145.843 96.5637 149.096V149.413H101.293V149.099C101.293 146.495 101.818 143.967 102.854 141.577L106.438 133.303C107.732 130.317 108.387 127.156 108.387 123.902V119.157V118.674V118.488C108.387 114.681 105.287 111.581 101.48 111.581H101.293V111.394C101.293 107.587 98.1934 104.487 94.3863 104.487H91.8351V104.3C91.8351 100.493 88.7351 97.3932 84.928 97.3932H82.6841C81.7407 97.3932 80.8513 97.639 80.0122 97.996V86.7526C80.0122 82.1888 76.2999 78.4766 71.7361 78.4766C67.1723 78.4766 63.4601 82.1893 63.4601 86.7526V113.945H61.9491ZM87.1556 132.073C86.233 131.151 86.233 129.652 87.1575 128.73L99.0346 116.853C99.4437 116.441 99.9924 116.214 100.574 116.214H101.243C102.444 116.214 103.421 117.191 103.421 118.392V118.579V119.061C103.421 119.643 103.194 120.191 102.783 120.603L90.9055 132.48C89.9809 133.405 88.4868 133.405 87.5622 132.48L87.1556 132.073ZM80.4521 126.482C79.9461 126.127 79.7192 125.649 79.6189 125.269C79.6095 125.262 79.607 125.252 79.6 125.243C79.7465 124.678 79.8409 124.091 79.8741 123.493L79.898 123.45H79.9029C79.9223 123.45 79.9387 123.41 79.9575 123.386L84.4265 117.439L89.9124 110.128C90.3216 109.587 90.9671 109.263 91.6479 109.263H94.2915C95.4927 109.263 96.4694 110.239 96.4694 111.441V112.11C96.4694 112.692 96.2425 113.24 95.8333 113.652L83.9563 125.529L83.2447 126.24C82.5138 126.971 81.3623 127.085 80.4993 126.512L80.4521 126.482ZM78.7589 118.863C77.7846 116.498 75.7085 115.479 75.711 114.822L81.6225 103.432C82.0053 102.742 82.3201 102.311 83.1097 102.311H85.3536C86.5547 102.311 87.5314 103.288 87.5314 104.489V105.524C87.5314 106.002 87.3825 106.51 87.094 106.896L86.6421 107.671L83.8376 111.639L78.7589 118.863ZM69.7574 114.181H68.521V86.9889C68.521 85.0335 70.1124 83.4421 72.0678 83.4421C74.0233 83.4421 75.6147 85.0335 75.6142 86.9889V103.64L69.7574 114.181Z" fill="#FF1557"/>
<path fill-rule="evenodd" clip-rule="evenodd" d="M134.592 26.8149H129.863V31.5439H125.134V36.2729H129.863V41.0019H134.592V36.2729H139.321V31.5439H134.592V26.8149Z" fill="#FF1557"/>
<path fill-rule="evenodd" clip-rule="evenodd" d="M108.771 17.167V12.438H113.5V7.70898H108.771V2.97998H104.042V7.70898H99.313V12.438H104.042V17.167H108.771Z" fill="#FF1557"/>
<path fill-rule="evenodd" clip-rule="evenodd" d="M18.729 40V44.729H14V49.458H18.729V54.187H23.458V49.458H28.187V44.729H23.458V40H18.729Z" fill="#FF1557"/>
<path fill-rule="evenodd" clip-rule="evenodd" d="M34.2822 13.627V8.89697H29.5532V13.627H24.8232V18.356H29.5532V23.085H34.2822V18.356H39.0112V13.627H34.2822Z" fill="#FF1557"/>
<path fill-rule="evenodd" clip-rule="evenodd" d="M42.1982 72.0239H46.9282V67.2949H42.1982V62.5659H37.4702V67.2949H32.7412V72.0239H37.4702V76.7529H42.1982V72.0239Z" fill="#FF1557"/>
<path fill-rule="evenodd" clip-rule="evenodd" d="M113.973 52.635V57.364H109.244V62.094H113.973V66.822H118.702V62.094H123.431V57.364H118.702V52.635H113.973Z" fill="#FF1557"/>
</svg>
