<svg width="506" height="618" viewBox="0 0 506 618" fill="none" xmlns="http://www.w3.org/2000/svg">
<path d="M428.957 95.0431L360.455 95.7105C357.235 79.8591 346.416 38.2677 356.159 26.9232C356.603 22.6534 358.677 18.7195 361.949 15.9402C365.22 13.1609 369.438 11.7505 373.723 12.0026V12.0026C384.341 -4.6172 402.025 -2.12184 413.978 8.25797C426.008 12.4087 430.543 19.7828 428.957 29.7897C437.865 37.5877 439.509 47.0751 435.51 57.8746L428.957 95.0431Z" fill="#2F2E41"/>
<path d="M422.362 137.242L372.939 130.399L363.055 115.953C376.671 106.921 381.489 94.3057 375.22 77.175L409.436 76.4147C407.833 91.6698 412.877 103.481 426.924 110.63L422.362 137.242Z" fill="#FFB9B9"/>
<path d="M361.255 583.02L359.366 608.855C359.28 610.024 359.446 611.198 359.851 612.298C360.256 613.399 360.892 614.399 361.716 615.234C362.54 616.068 363.533 616.716 364.628 617.135C365.723 617.555 366.895 617.735 368.066 617.664L381.335 616.86C381.95 616.823 382.549 616.65 383.09 616.355C383.631 616.06 384.1 615.65 384.464 615.153C384.828 614.656 385.079 614.085 385.197 613.481C385.316 612.876 385.3 612.253 385.151 611.656L377.785 582.193L361.255 583.02Z" fill="#E6E6E6"/>
<path d="M404.216 582.193L396.85 611.656C396.7 612.253 396.685 612.876 396.803 613.481C396.922 614.085 397.172 614.656 397.536 615.153C397.901 615.65 398.37 616.06 398.91 616.355C399.451 616.65 400.05 616.823 400.665 616.86L413.935 617.664C415.105 617.735 416.277 617.555 417.373 617.135C418.468 616.716 419.46 616.068 420.284 615.234C421.108 614.399 421.744 613.398 422.15 612.298C422.555 611.198 422.72 610.024 422.635 608.854L420.745 583.019L404.216 582.193Z" fill="#E6E6E6"/>
<path d="M421.602 586.606L403.694 584.809L385.866 394.239L379.128 584.195L361.534 583.565L331.881 320.485H445.172L421.602 586.606Z" fill="#FF1457"/>
<path d="M394.229 89.3405C413.126 89.3405 428.445 74.0217 428.445 55.1249C428.445 36.2282 413.126 20.9094 394.229 20.9094C375.332 20.9094 360.014 36.2282 360.014 55.1249C360.014 74.0217 375.332 89.3405 394.229 89.3405Z" fill="#FFB9B9"/>
<path d="M461.9 326.568L323.518 328.089C344.054 249.908 356.339 177.284 334.923 127.358L369.138 110.63C385.636 127.838 404.01 126.064 423.883 109.109L456.578 117.473C450.978 182.944 453.488 253.064 461.9 326.568Z" fill="#FF1457"/>
<path d="M285.5 245.972L371.419 280.187L390.628 285.837C391.488 286.09 392.389 286.166 393.279 286.062C394.168 285.957 395.027 285.674 395.804 285.229C396.582 284.784 397.261 284.187 397.802 283.473C398.342 282.758 398.733 281.942 398.95 281.074C399.331 279.55 399.16 277.941 398.467 276.531C397.775 275.122 396.606 274.003 395.167 273.374L375.221 267.261L315.153 232.285L327.699 199.21L301.467 185.144L285.5 245.972Z" fill="#FFB9B9"/>
<path d="M286.261 183.623C302.608 190.001 315.61 200.885 325.799 215.558L357.733 169.177L334.923 127.358L286.261 183.623Z" fill="#FF1457"/>
<path d="M432.792 49.5797C418.905 46.0016 405.252 45.5103 391.979 50.0488C383.525 54.1436 373.372 53.7663 362.08 50.3925V16.2556L423.039 17.8812L432.792 49.5797Z" fill="#2F2E41"/>
<path d="M371.134 206.106C368.447 206.109 365.871 207.178 363.971 209.078C362.072 210.977 361.003 213.553 361 216.24L365 299.972C365.003 302.659 366.072 305.235 367.971 307.135C369.871 309.034 372.447 310.103 375.134 310.106H420.866C423.553 310.103 426.129 309.034 428.029 307.135C429.928 305.235 430.997 302.659 431 299.972L435 216.24C434.997 213.553 433.928 210.977 432.029 209.078C430.129 207.178 427.553 206.109 424.866 206.106H371.134Z" fill="#3F3D56"/>
<path d="M500.89 239.646L426 269.466L420.35 271.716C420.17 271.786 419.99 271.846 419.8 271.906L400.87 277.476C398.45 278.186 395.1 274.926 393.14 272.676C392.169 271.592 391.619 270.196 391.59 268.741C391.561 267.286 392.054 265.869 392.98 264.746C393.241 264.445 393.529 264.167 393.84 263.916C394.569 263.348 395.428 262.97 396.34 262.816L415.25 259.096C415.928 258.963 416.58 258.72 417.18 258.376L426 253.236L471.79 226.576C473.063 225.836 474.033 224.668 474.525 223.28C475.018 221.891 475.002 220.373 474.48 218.996L465.74 195.946C465.204 194.536 465.199 192.979 465.727 191.565C466.256 190.152 467.28 188.979 468.61 188.266L483.09 180.506C483.917 180.062 484.834 179.811 485.773 179.773C486.711 179.735 487.646 179.91 488.507 180.286C489.367 180.661 490.132 181.227 490.742 181.941C491.352 182.655 491.792 183.497 492.03 184.406L504.6 232.286C504.986 233.754 504.822 235.313 504.139 236.669C503.455 238.025 502.3 239.084 500.89 239.646V239.646Z" fill="#FFB9B9"/>
<path d="M505.24 175.259C488.893 181.637 475.891 192.521 465.702 207.194L433.768 160.813L456.578 117.473L505.24 175.259Z" fill="#FF1457"/>
<path d="M417 85.5786C402.032 91.8048 386.337 91.5519 370 85.5786C374.754 77.4646 367.648 71.1097 364 62.9189L425 61.1061C420.335 68.2217 413.452 76.6287 417 85.5786Z" fill="white"/>
<path d="M424.354 62.46L423.646 61.753L424.646 60.753L430.62 53.781L431.38 54.431L425.38 61.431L424.354 62.46Z" fill="white"/>
<path d="M359.82 58.2219L359.18 58.9905L365.18 63.9905L365.82 63.2219L359.82 58.2219Z" fill="white"/>
<path d="M426.078 68.339L415.575 84.8374L416.419 85.3745L426.921 68.8761L426.078 68.339Z" fill="white"/>
<path d="M360.922 68.3377L360.078 68.8748L370.578 85.3748L371.422 84.8378L360.922 68.3377Z" fill="white"/>
<path d="M428 251.822V269.938L421.694 272.45C421.493 272.528 421.292 272.595 421.08 272.662L399.949 278.879C397.248 279.672 393.509 276.033 391.321 273.521C390.238 272.311 389.624 270.752 389.591 269.128C389.558 267.504 390.109 265.922 391.142 264.669C391.434 264.333 391.755 264.023 392.102 263.743C392.917 263.109 393.875 262.687 394.893 262.515L416.001 258.363C416.758 258.214 417.486 257.943 418.155 257.559L428 251.822Z" fill="white"/>
<path d="M437.14 187.202H433.526C433.526 136.091 423.002 100.473 412.747 100.473L411.844 96.8594C421.041 96.8594 426.904 111.683 430.203 124.12C434.676 140.979 437.14 163.382 437.14 187.202Z" fill="#3F3D56"/>
<path d="M354.025 174.554H350.411C350.411 127.745 361.007 98.6663 376.61 98.6663L375.707 102.28C364.914 102.28 354.025 124.628 354.025 174.554Z" fill="#3F3D56"/>
<path d="M435.333 197.14C440.323 197.14 444.367 193.095 444.367 188.105C444.367 183.116 440.323 179.071 435.333 179.071C430.344 179.071 426.299 183.116 426.299 188.105C426.299 193.095 430.344 197.14 435.333 197.14Z" fill="#3F3D56"/>
<path d="M339.57 196.236H335.956C335.956 183.284 343.251 172.747 352.218 172.747V176.361C345.243 176.361 339.57 185.277 339.57 196.236Z" fill="#3F3D56"/>
<path d="M368.479 196.236H364.866C364.866 185.277 359.192 176.361 352.218 176.361V172.747C361.185 172.747 368.479 183.284 368.479 196.236Z" fill="#3F3D56"/>
<path d="M366.672 200.753C368.668 200.753 370.286 199.135 370.286 197.14C370.286 195.144 368.668 193.526 366.672 193.526C364.677 193.526 363.059 195.144 363.059 197.14C363.059 199.135 364.677 200.753 366.672 200.753Z" fill="#3F3D56"/>
<path d="M337.763 200.753C339.759 200.753 341.377 199.135 341.377 197.14C341.377 195.144 339.759 193.526 337.763 193.526C335.767 193.526 334.149 195.144 334.149 197.14C334.149 199.135 335.767 200.753 337.763 200.753Z" fill="#3F3D56"/>
<path d="M149.767 73.5914L86.3011 84.339C84.7333 84.6065 83.122 84.2829 81.779 83.4308C80.436 82.5787 79.4569 81.2588 79.031 79.7263C74.4457 63.1769 64.859 41.5875 74.1667 30.7497C74.6409 26.1903 76.8553 21.9894 80.3489 19.0216C83.8425 16.0538 88.346 14.5477 92.9221 14.8169C104.26 -2.93044 123.144 -0.265786 135.908 10.8182C148.753 15.2506 153.596 23.1249 151.903 33.8107C157.452 38.6681 160.361 44.1394 160.975 50.1446C161.266 53.4864 160.841 56.8518 159.728 60.0162C158.615 63.1806 156.84 66.0713 154.521 68.4954L149.767 73.5914Z" fill="#2F2E41"/>
<path d="M139.901 123.556L90.7002 120.662C95.5219 109.595 97.448 98.9385 95.5238 88.8267H132.183C132.1 96.5905 135.963 110.021 139.901 123.556Z" fill="#9F616A"/>
<path d="M80.6771 578.183L78.6592 605.771C78.5678 607.019 78.7445 608.273 79.1774 609.448C79.6104 610.623 80.2895 611.692 81.1693 612.583C82.0491 613.473 83.1092 614.166 84.2786 614.613C85.4479 615.061 86.6994 615.253 87.9492 615.178L102.119 614.319C102.776 614.279 103.416 614.095 103.993 613.78C104.571 613.465 105.072 613.027 105.46 612.497C105.849 611.966 106.117 611.356 106.243 610.711C106.37 610.065 106.353 609.4 106.194 608.762L98.3279 577.3L80.6771 578.183Z" fill="#E6E6E6"/>
<path d="M126.552 577.3L118.686 608.762C118.527 609.4 118.51 610.065 118.637 610.711C118.763 611.356 119.031 611.966 119.42 612.497C119.808 613.027 120.309 613.465 120.887 613.78C121.464 614.095 122.104 614.279 122.761 614.319L136.931 615.178C138.181 615.253 139.432 615.061 140.601 614.613C141.771 614.166 142.831 613.473 143.711 612.583C144.59 611.692 145.27 610.623 145.703 609.448C146.135 608.273 146.312 607.019 146.221 605.771L144.203 578.183L126.552 577.3Z" fill="#E6E6E6"/>
<path d="M145.118 582.013L125.996 580.094L106.958 376.595L99.7625 579.438L80.9755 578.765L49.3105 297.838H170.288L145.118 582.013Z" fill="#FF1457"/>
<path d="M114.82 100.538C134.999 100.538 151.357 84.1797 151.357 64.001C151.357 43.8223 134.999 27.4642 114.82 27.4642C94.6413 27.4642 78.2832 43.8223 78.2832 64.001C78.2832 84.1797 94.6413 100.538 114.82 100.538Z" fill="#9F616A"/>
<path d="M155.999 46.547C141.169 43.9644 126.59 43.6098 112.417 46.8856C103.389 49.841 92.5467 49.5687 80.4893 47.1336V22.4948L145.583 23.668L155.999 46.547Z" fill="#2F2E41"/>
<path d="M139.136 93.3171C123.152 99.9656 106.392 99.6957 88.9471 93.3171C94.0232 84.6526 86.4354 77.8666 82.54 69.1201L147.678 67.1843C142.697 74.7827 135.347 83.7599 139.136 93.3171Z" fill="white"/>
<path d="M78.0556 64.1305L77.415 64.8992L83.8218 70.238L84.4623 69.4694L78.0556 64.1305Z" fill="white"/>
<path d="M148.859 74.9253L137.644 92.5432L138.487 93.0803L149.702 75.4624L148.859 74.9253Z" fill="white"/>
<path d="M79.2227 74.9246L78.3789 75.4615L89.5913 93.0811L90.4351 92.5441L79.2227 74.9246Z" fill="white"/>
<path d="M45.3586 230.64L17.3818 213.275L41.241 143.396C43.9021 136.185 48.9991 130.131 55.6508 126.28L63.6881 121.627L64.387 192.122L45.3586 230.64Z" fill="#FF1457"/>
<path d="M166.286 264.578L162.147 229.126C161.926 210.413 165.109 192.321 172.7 175.651L176.559 123.556L134.112 106.192C133.982 107.057 133.871 107.921 133.747 108.786L113.853 118.733L94.4511 114.323L94.5585 108.121L55.97 125.486C68.7312 184.814 61.771 246.423 39.8262 319.195L90.6631 333.096L91.0858 308.685L136.392 305.449C136.859 313.369 137.234 321.148 137.452 328.754C163.017 338.166 163.895 338.01 187.188 324.534C177.912 305.031 170.567 284.736 166.286 264.578Z" fill="#FF1457"/>
<path d="M231.548 221.957L205.501 213.275L163.837 164.772L176.559 123.557L234.442 204.593L231.548 221.957Z" fill="#FF1457"/>
<path d="M149.917 259.507C150.343 261.378 151.493 263.003 153.116 264.026C154.738 265.049 156.7 265.387 158.572 264.966L180.683 259.959L177.487 245.846L155.376 250.852C153.504 251.276 151.878 252.426 150.854 254.049C149.83 255.672 149.493 257.636 149.917 259.507V259.507Z" fill="#E6E6E6"/>
<path d="M169.807 243.181L182.348 266.334C203.442 260.451 221.724 241.903 239.266 220.028L234.443 204.592L204.536 212.31L169.807 243.181Z" fill="#FF1457"/>
<path d="M6.28711 170.555L30.3631 174.854L85.3941 253.101L56.1591 246.222L6.28711 170.555Z" fill="#E6E6E6"/>
<path d="M2.01695 169.597C1.65007 169.603 1.29141 169.707 0.978485 169.898C0.665559 170.09 0.409859 170.362 0.238129 170.686C0.066398 171.01 -0.0150526 171.375 0.0022888 171.741C0.0196302 172.108 0.135137 172.463 0.336716 172.77L51.7761 250.816C52.0631 251.252 52.5065 251.562 53.0149 251.681L76.9482 257.312C77.3517 257.407 77.7745 257.377 78.1606 257.226C78.5468 257.075 78.8779 256.811 79.1101 256.467C79.3423 256.124 79.4646 255.718 79.4607 255.303C79.4569 254.889 79.3271 254.485 79.0886 254.146L22.6113 173.843C22.4582 173.624 22.2634 173.437 22.0381 173.294C21.8129 173.15 21.5616 173.053 21.2985 173.007L2.40274 169.632C2.27541 169.609 2.14632 169.597 2.01695 169.597Z" fill="#3F3D56"/>
<path d="M34.1045 225.399L35.5341 239.799L58.0938 237.56C60.0033 237.37 61.7594 236.43 62.9756 234.946C64.1919 233.462 64.7687 231.555 64.5792 229.645C64.3897 227.736 63.4494 225.98 61.9651 224.763C60.4808 223.547 58.5741 222.97 56.6646 223.16L34.1045 225.399Z" fill="#E6E6E6"/>
<path d="M14.4883 223.731C14.521 228.641 16.4931 233.34 19.9747 236.802C23.4563 240.264 28.1653 242.211 33.0755 242.216H36.785L39.4856 219.711L17.1252 211.661L14.4883 223.731Z" fill="#FF1457"/>
<path d="M145.896 69.6739L145.189 68.9669L146.257 67.8989L152.638 60.4519L153.397 61.1019L146.99 68.5769L145.896 69.6739Z" fill="white"/>
</svg>
