<svg width="421" height="577" viewBox="0 0 421 577" fill="none" xmlns="http://www.w3.org/2000/svg">
<path d="M133.132 136.916H136.298V50.193C136.298 36.881 141.586 24.1142 150.999 14.7012C160.412 5.28817 173.179 0 186.491 0H370.227C383.539 0 396.306 5.28817 405.719 14.7012C415.132 24.1142 420.42 36.881 420.42 50.193V525.964C420.42 539.276 415.132 552.043 405.719 561.456C396.306 570.869 383.539 576.157 370.227 576.157H186.491C173.179 576.157 160.412 570.869 150.999 561.456C141.586 552.043 136.298 539.276 136.298 525.964V198.647H133.132V136.916Z" fill="#3F3D56"/>
<path d="M184.466 13.059H208.45C207.347 15.763 206.926 18.6968 207.224 21.6019C207.522 24.507 208.53 27.2942 210.159 29.718C211.788 32.1419 213.988 34.1279 216.565 35.5012C219.143 36.8745 222.018 37.5928 224.938 37.593H330.197C333.118 37.5928 335.993 36.8745 338.571 35.5012C341.148 34.1279 343.348 32.1419 344.977 29.718C346.606 27.2942 347.614 24.507 347.912 21.6019C348.21 18.6968 347.788 15.763 346.685 13.059H369.085C374.008 13.0588 378.882 14.0283 383.43 15.9119C387.978 17.7955 392.11 20.5564 395.591 24.0371C399.072 27.5177 401.833 31.6498 403.717 36.1975C405.601 40.7453 406.57 45.6195 406.57 50.542V525.616C406.57 535.557 402.621 545.092 395.592 552.121C388.562 559.151 379.028 563.1 369.086 563.1H184.466C174.525 563.1 164.991 559.151 157.961 552.121C150.932 545.092 146.982 535.557 146.982 525.616V50.544C146.982 40.6026 150.932 31.0684 157.961 24.0388C164.991 17.0092 174.525 13.06 184.466 13.06V13.06V13.059Z" fill="white"/>
<path d="M276.776 438.787C300.284 438.787 319.341 419.73 319.341 396.222C319.341 372.714 300.284 353.657 276.776 353.657C253.268 353.657 234.211 372.714 234.211 396.222C234.211 419.73 253.268 438.787 276.776 438.787Z" fill="#CCCCCC"/>
<path d="M276.776 436.665C299.113 436.665 317.22 418.558 317.22 396.221C317.22 373.884 299.113 355.777 276.776 355.777C254.439 355.777 236.332 373.884 236.332 396.221C236.332 418.558 254.439 436.665 276.776 436.665Z" fill="white"/>
<path d="M270.023 413.911L257.284 397.53L264.692 391.768L270.724 399.524L291.103 378.012L297.918 384.468L270.023 413.911Z" fill="#FF1457"/>
<path d="M174.23 478.999L198.841 467.514V474.077H256.267V483.921H198.841V490.484L174.23 478.999Z" fill="#FF1457"/>
<path d="M373.607 478.999L348.996 467.514V474.077H291.57V483.922H348.996V490.485L373.607 478.999Z" fill="#FF1457"/>
<path d="M376.17 88.937H176.793V298.333H376.17V88.937Z" fill="#E6E6E6"/>
<path d="M249.331 265.945L234.211 289.464H245.13L249.331 265.945Z" fill="#E6E6E6"/>
<path d="M266.97 163.591C279.031 163.591 288.809 153.813 288.809 141.752C288.809 129.691 279.031 119.913 266.97 119.913C254.909 119.913 245.131 129.691 245.131 141.752C245.131 153.813 254.909 163.591 266.97 163.591Z" fill="#FEB8B8"/>
<path d="M291.329 159.271C291.329 159.271 281.249 162.631 276.21 168.511C271.171 174.391 259.41 175.231 259.41 175.231C259.41 175.231 249.01 181.085 245.131 191.19C240.992 201.959 243.398 217.122 245.131 220.59C248.491 227.31 248.491 244.109 248.491 244.109L244.291 282.747C244.291 282.747 229.172 297.026 240.931 298.706C252.69 300.386 273.689 297.866 286.289 298.706C298.889 299.546 313.168 301.226 308.968 292.826C304.768 284.426 299.728 278.547 304.768 261.748C308.712 248.602 308.541 199.448 308.28 178.696C308.244 175.846 307.48 173.052 306.059 170.58C304.639 168.108 302.61 166.041 300.165 164.575L291.329 159.271Z" fill="#FF1457"/>
<path d="M258.57 287.784C258.57 287.784 254.749 296.198 254.37 301.223C251.43 340.281 272.849 301.223 272.849 301.223V294.503L258.57 287.784Z" fill="#FEB8B8"/>
<path opacity="0.1" d="M279.149 185.729L281.669 236.966L257.252 286.42L253.11 284.844L278.31 238.644L279.149 185.729Z" fill="black"/>
<path d="M298.888 170.19L305.188 168.93C305.188 168.93 324.088 182.789 318.207 210.508C312.326 238.227 286.289 280.225 286.289 280.225C286.289 280.225 280.409 287.785 278.729 289.465C277.049 291.145 273.689 289.465 275.369 291.985C277.049 294.505 272.849 296.185 272.849 296.185C272.849 296.185 254.37 296.185 256.049 289.465C257.728 282.745 286.288 234.865 286.288 234.865L282.088 190.347C282.088 190.347 278.729 168.51 298.888 170.19Z" fill="#FF1457"/>
<path opacity="0.1" d="M306.868 247.886V242.006L278.312 289.044L306.868 247.886Z" fill="black"/>
<path d="M251.476 121.516L247.866 120.071C247.866 120.071 255.415 111.76 265.918 112.483L262.964 109.231C262.964 109.231 270.185 106.34 276.749 113.931C280.2 117.92 284.192 122.609 286.681 127.891H290.547L288.933 131.444L294.581 134.997L288.781 134.359C289.33 137.426 289.142 140.579 288.233 143.559L288.388 146.367C288.388 146.367 281.668 135.967 281.668 134.525V138.138C281.668 138.138 278.058 134.886 278.058 132.718L276.089 135.247L275.104 131.272L262.96 135.247L264.929 131.995L257.38 133.079L260.334 129.104C260.334 129.104 251.8 133.804 251.472 137.776C251.144 141.748 246.876 146.816 246.876 146.816L244.907 143.203C244.907 143.203 241.955 126.94 251.476 121.516Z" fill="#2F2E41"/>
<path d="M126.517 214.693C123.749 205.87 117.453 197.779 108.747 194.793C100.041 191.807 84.8518 194.598 80.7468 202.877C74.8298 214.809 77.4878 229.42 80.6258 242.377C82.2618 242.29 83.9128 242.222 85.5688 242.16L87.9118 234.352V242.083C100.837 241.683 114.294 241.934 127.758 242.192C128.964 233.022 129.286 223.515 126.517 214.693Z" fill="#2F2E41"/>
<path d="M7.74805 550.873L18.622 555.43L41.372 515.66L25.324 508.934L7.74805 550.873Z" fill="#A0616A"/>
<path d="M0.557617 560.251L35.6166 574.944L35.8026 574.501C37.3183 570.882 37.3347 566.809 35.8482 563.177C34.3617 559.546 31.494 556.653 27.8756 555.136V555.136L6.46262 546.162L0.557617 560.251Z" fill="#2F2E41"/>
<path d="M167.198 363.008C167.877 362.028 168.333 360.911 168.533 359.735C168.734 358.56 168.674 357.355 168.359 356.205C168.044 355.055 167.48 353.989 166.708 353.08C165.935 352.172 164.973 351.443 163.889 350.947L140.519 280.427L124.868 288.775L152.761 355.467C152.046 357.344 152.045 359.418 152.757 361.296C153.47 363.174 154.847 364.725 156.628 365.655C158.408 366.585 160.468 366.829 162.416 366.341C164.365 365.853 166.066 364.666 167.198 363.007V363.008Z" fill="#A0616A"/>
<path d="M138.385 563.516H150.174L155.782 518.043H138.382L138.385 563.516Z" fill="#A0616A"/>
<path d="M135.379 574.944H173.392V574.463C173.392 570.538 171.833 566.775 169.059 563.999C166.284 561.224 162.521 559.664 158.597 559.663H135.378L135.379 574.944Z" fill="#2F2E41"/>
<path d="M91.1173 304.875L88.4453 311.82L88.9793 318.765L140.268 312.355L138.668 306.478L132.792 299.533L91.1173 304.875Z" fill="#A0616A"/>
<path d="M107.647 242.374C117.959 242.374 126.319 234.014 126.319 223.702C126.319 213.39 117.959 205.03 107.647 205.03C97.3343 205.03 88.9746 213.39 88.9746 223.702C88.9746 234.014 97.3343 242.374 107.647 242.374Z" fill="#A0616A"/>
<path d="M88.1612 312.319L139.019 306.909L141.219 299.703C141.904 298.764 148.359 289.616 146.927 280.47C146.572 278.315 145.779 276.257 144.595 274.422C143.411 272.587 141.863 271.015 140.046 269.804L127.685 255.326L116.807 248.851L95.3622 246.707L95.2881 246.723L76.0352 251.08L76.2692 286.372L88.1612 312.319Z" fill="#FF1457"/>
<path d="M137.74 316.059L151.989 314.367L151.952 313.919C151.821 312.346 148.705 275.29 145.513 266.779C142.253 258.085 128.131 255.379 127.532 255.266L127.359 255.234L124.221 257.117L132.881 284.181L137.74 316.059Z" fill="#FF1457"/>
<path d="M87.5954 318.656V330.388C87.5954 330.388 73.8614 348.234 81.2614 361.967C81.2614 361.967 65.4154 391.545 64.3614 402.109L49.5614 450.703C49.5614 450.703 12.5884 487.676 15.7614 514.085L13.6484 522.536L37.9485 533.1L43.2304 525.705L84.4305 454.928L119.29 390.489L125.628 466.548C125.628 466.548 121.403 525.705 133.023 532.048L134.079 541.555H158.737V532.516C158.737 532.516 167.883 500.355 162.601 476.058L164.714 373.59C164.714 373.59 155.207 330.279 143.587 322.884L139.361 312.316L87.5954 318.656Z" fill="#2F2E41"/>
<path d="M106.208 340.632C105.777 340.729 105.354 340.86 104.944 341.023L72.3441 318.585L73.0901 309L58.772 305.984L55.8031 322.824C55.5631 324.185 55.7711 325.587 56.396 326.819C57.0208 328.052 58.0286 329.048 59.2681 329.659L99.647 349.573C99.8003 351.267 100.466 352.874 101.555 354.181C102.643 355.487 104.104 356.431 105.743 356.887C107.381 357.344 109.12 357.29 110.727 356.734C112.335 356.178 113.735 355.146 114.741 353.774C115.748 352.403 116.313 350.758 116.361 349.058C116.41 347.358 115.94 345.683 115.014 344.257C114.087 342.83 112.749 341.719 111.176 341.072C109.603 340.425 107.87 340.272 106.208 340.634V340.632Z" fill="#A0616A"/>
<path d="M72.6533 319.822L79.2883 275.56L84.7343 252.695L76.5973 250.995C76.3763 250.913 69.7503 248.673 64.3973 252.279C60.5473 254.879 58.4143 259.801 58.0583 266.92L55.9043 317.568L72.6533 319.822Z" fill="#FF1457"/>
<path d="M120.477 199.387C116.889 197.2 112.779 196.016 108.578 195.961C104.376 195.906 100.237 196.98 96.5927 199.072C92.9485 201.164 89.9332 204.196 87.8621 207.852C85.7911 211.508 84.7403 215.654 84.8196 219.855C95.2566 220.335 106.22 220.455 117.339 220.482L119.966 214.051L121.515 220.486C124.902 220.486 128.296 220.482 131.697 220.473C131.835 216.284 130.872 212.131 128.903 208.431C126.934 204.731 124.029 201.612 120.477 199.387V199.387Z" fill="#2F2E41"/>
</svg>
