<svg width="428" height="994" viewBox="0 0 428 994" fill="none" xmlns="http://www.w3.org/2000/svg">
<g clip-path="url(#clip0_1304_4343)">
<rect width="428" height="926" fill="white"/>
<rect width="428" height="134" fill="#F3F3F3"/>
<path d="M33.5336 25.9711C32.7225 25.9944 31.9276 25.7408 31.2798 25.2522C30.6686 24.7857 30.2601 24.1022 30.1386 23.343H31.8549C31.9555 23.6941 32.1739 24 32.4734 24.2091C32.789 24.4255 33.1649 24.5365 33.5473 24.5264C33.8809 24.5333 34.2102 24.4505 34.5007 24.2864C34.7912 24.1224 35.0323 23.8832 35.1986 23.594C35.6364 22.8036 35.8424 21.9057 35.7932 21.0035H35.6791C35.4614 21.4507 35.1143 21.8221 34.6828 22.0694C34.2236 22.327 33.704 22.4574 33.1776 22.4471C32.7557 22.4598 32.3357 22.3853 31.944 22.2282C31.5522 22.0711 31.1971 21.8348 30.9009 21.5342C30.6032 21.2317 30.37 20.8719 30.2154 20.4766C30.0608 20.0814 29.9881 19.6588 30.0016 19.2346C29.9872 18.7802 30.0695 18.3279 30.243 17.9077C30.4165 17.4875 30.6773 17.1089 31.0081 16.797C31.6132 16.2733 32.3645 15.9479 33.1604 15.8649C33.9564 15.7818 34.7586 15.9451 35.4588 16.3326C36.0184 16.6748 36.4704 17.1675 36.7632 17.7545C37.25 18.6951 37.4859 19.7454 37.4479 20.8038C37.5275 22.1503 37.1631 23.4857 36.4106 24.6051C36.0788 25.0502 35.6432 25.4074 35.1418 25.6455C34.6403 25.8836 34.0882 25.9954 33.5336 25.9711V25.9711ZM32.2292 20.5504C32.4092 20.7277 32.6235 20.8664 32.859 20.9578C33.0945 21.0493 33.3462 21.0916 33.5987 21.0822C33.8507 21.0903 34.1018 21.0478 34.337 20.957C34.5722 20.8662 34.7869 20.7291 34.9681 20.5539C35.1462 20.3807 35.2863 20.1724 35.3794 19.9421C35.4726 19.7118 35.5167 19.4647 35.509 19.2164C35.5151 18.9629 35.4696 18.7109 35.3755 18.4755C35.2813 18.2402 35.1404 18.0263 34.9613 17.8469C34.5991 17.5023 34.1168 17.3123 33.6169 17.3174C33.1169 17.3225 32.6386 17.5222 32.2835 17.8742C31.9284 18.2262 31.7245 18.7027 31.715 19.2026C31.7055 19.7025 31.8912 20.1864 32.2327 20.5516L32.2292 20.5504Z" fill="#111111"/>
<path d="M39.4052 18.6421C39.3997 18.495 39.4241 18.3483 39.4771 18.211C39.5301 18.0736 39.6105 17.9485 39.7134 17.8433C39.8215 17.7395 39.9496 17.6588 40.0898 17.606C40.2301 17.5532 40.3796 17.5295 40.5293 17.5363C40.6776 17.5315 40.8253 17.5566 40.9637 17.6101C41.1021 17.6635 41.2284 17.7443 41.3349 17.8475C41.4415 17.9507 41.5263 18.0743 41.5841 18.2109C41.642 18.3475 41.6718 18.4943 41.6718 18.6427C41.6718 18.791 41.642 18.9379 41.5841 19.0745C41.5263 19.2111 41.4415 19.3347 41.3349 19.4379C41.2284 19.5411 41.1021 19.6218 40.9637 19.6753C40.8253 19.7287 40.6776 19.7538 40.5293 19.7491C40.3796 19.7559 40.2301 19.7322 40.0898 19.6794C39.9496 19.6266 39.8215 19.5459 39.7134 19.4421C39.6099 19.337 39.5292 19.2117 39.4762 19.0741C39.4232 18.9365 39.3991 18.7895 39.4052 18.6421V18.6421ZM39.4052 23.6839C39.3992 23.5368 39.4234 23.3899 39.4764 23.2525C39.5294 23.1151 39.6101 22.9901 39.7134 22.8851C39.8213 22.7811 39.9494 22.7002 40.0897 22.6474C40.23 22.5946 40.3796 22.571 40.5293 22.5781C40.6776 22.5733 40.8253 22.5984 40.9637 22.6519C41.1021 22.7053 41.2284 22.7861 41.3349 22.8893C41.4415 22.9925 41.5263 23.1161 41.5841 23.2527C41.642 23.3893 41.6718 23.5361 41.6718 23.6845C41.6718 23.8328 41.642 23.9797 41.5841 24.1163C41.5263 24.2529 41.4415 24.3765 41.3349 24.4797C41.2284 24.5829 41.1021 24.6636 40.9637 24.7171C40.8253 24.7705 40.6776 24.7956 40.5293 24.7909C40.3795 24.7977 40.2299 24.7739 40.0896 24.7209C39.9493 24.668 39.8213 24.5869 39.7134 24.4827C39.6104 24.3775 39.53 24.2524 39.477 24.1151C39.424 23.9777 39.3996 23.831 39.4052 23.6839Z" fill="#111111"/>
<path d="M48.31 25.7426V23.9441H43.5957V22.4057C44.3808 20.9602 45.6917 18.8562 47.5283 16.0938H49.9613V22.4845H51.2657V23.9429H49.9613V25.7426H48.31ZM45.1945 22.4263V22.5267H48.3362V17.4974H48.2415C47.1992 19.038 46.1836 20.681 45.1945 22.4263V22.4263Z" fill="#111111"/>
<path d="M55.2186 25.7426V17.8318H55.1045L52.708 19.5173V17.8592L55.2289 16.0938H56.9476V25.7426H55.2186Z" fill="#111111"/>
<path d="M69.7406 25.7426L68.9258 23.2753H65.3744L64.5458 25.7426H62.7998L66.2234 16.0938H68.1634L71.5927 25.7426H69.7406ZM67.0998 17.9322L65.7761 21.9116H68.5241L67.214 17.9322H67.0998Z" fill="#111111"/>
<path d="M74.8565 25.7421H73.252V16.0933H75.2708L78.1729 23.1173H78.2927L81.1948 16.0898H83.2148V25.7421H81.6102V18.9554H81.5166L78.8485 25.3678H77.6182L74.9455 18.9554H74.8519L74.8565 25.7421Z" fill="#111111"/>
<path d="M359.489 22.8055C359.522 22.7722 359.549 22.7324 359.567 22.6884C359.585 22.6445 359.593 22.5974 359.592 22.55C359.591 22.5026 359.581 22.4558 359.561 22.4127C359.542 22.3695 359.513 22.3308 359.478 22.2988C358.794 21.7203 357.927 21.4029 357.032 21.4029C356.136 21.4029 355.269 21.7203 354.585 22.2988C354.55 22.3304 354.521 22.3688 354.502 22.4119C354.482 22.4549 354.471 22.5015 354.471 22.5488C354.469 22.5963 354.478 22.6436 354.496 22.6878C354.513 22.7319 354.54 22.772 354.573 22.8055L356.786 25.0377C356.818 25.0703 356.856 25.0962 356.898 25.1139C356.94 25.1316 356.985 25.1407 357.031 25.1407C357.077 25.1407 357.122 25.1316 357.164 25.1139C357.206 25.0962 357.244 25.0703 357.276 25.0377L359.489 22.8055ZM357.032 19.7243C358.381 19.7241 359.682 20.2251 360.683 21.1303C360.747 21.1926 360.833 21.2276 360.922 21.2276C361.012 21.2276 361.098 21.1926 361.162 21.1303L362.441 19.8373C362.474 19.8038 362.501 19.764 362.519 19.7202C362.537 19.6764 362.545 19.6295 362.545 19.5822C362.544 19.5348 362.534 19.4881 362.516 19.4447C362.497 19.4013 362.469 19.3621 362.435 19.3294C360.968 17.9647 359.039 17.206 357.036 17.206C355.032 17.206 353.103 17.9647 351.636 19.3294C351.601 19.3616 351.573 19.4005 351.553 19.4439C351.534 19.4872 351.523 19.5341 351.522 19.5816C351.521 19.629 351.53 19.676 351.548 19.7199C351.566 19.7638 351.592 19.8037 351.626 19.8373L352.904 21.1303C352.968 21.1933 353.054 21.2287 353.144 21.2287C353.234 21.2287 353.32 21.1933 353.384 21.1303C354.383 20.2245 355.683 19.7222 357.032 19.7209V19.7243ZM357.032 15.5224C359.485 15.5221 361.845 16.4647 363.623 18.1551C363.687 18.2182 363.773 18.2536 363.863 18.2536C363.953 18.2536 364.04 18.2182 364.104 18.1551L365.383 16.8633C365.416 16.8302 365.443 16.7907 365.461 16.7472C365.478 16.7037 365.487 16.657 365.487 16.61C365.487 16.563 365.478 16.5165 365.459 16.4733C365.441 16.4301 365.414 16.3911 365.379 16.3589C363.133 14.2059 360.142 13.0039 357.03 13.0039C353.919 13.0039 350.928 14.2059 348.681 16.3589C348.648 16.3915 348.621 16.4305 348.603 16.4736C348.584 16.5167 348.574 16.5631 348.574 16.61C348.574 16.6569 348.583 16.7035 348.601 16.747C348.619 16.7905 348.645 16.83 348.678 16.8633L349.96 18.1551C350.024 18.2179 350.11 18.253 350.199 18.253C350.289 18.253 350.375 18.2179 350.439 18.1551C352.217 16.463 354.577 15.5191 357.032 15.519V15.5224Z" fill="#111111"/>
<path d="M340.794 13.3711H341.901C342.046 13.3709 342.19 13.3995 342.325 13.455C342.459 13.5106 342.581 13.5921 342.684 13.6949C342.787 13.7977 342.869 13.9198 342.924 14.0542C342.98 14.1886 343.009 14.3326 343.009 14.4781V24.0744C343.009 24.2199 342.98 24.364 342.925 24.4985C342.869 24.6329 342.788 24.755 342.685 24.8579C342.582 24.9607 342.459 25.0422 342.325 25.0977C342.19 25.1532 342.046 25.1817 341.901 25.1814H340.794C340.5 25.1814 340.219 25.0647 340.011 24.8571C339.803 24.6495 339.687 24.368 339.687 24.0744V14.4781C339.687 14.1845 339.803 13.9029 340.011 13.6953C340.219 13.4877 340.5 13.3711 340.794 13.3711V13.3711ZM335.628 15.9548H336.735C336.88 15.9546 337.024 15.9831 337.159 16.0387C337.293 16.0943 337.415 16.1758 337.518 16.2786C337.621 16.3814 337.703 16.5035 337.758 16.6379C337.814 16.7722 337.843 16.9163 337.843 17.0617V24.0744C337.843 24.2199 337.814 24.3639 337.758 24.4983C337.703 24.6327 337.621 24.7547 337.518 24.8575C337.415 24.9604 337.293 25.0419 337.159 25.0974C337.024 25.153 336.88 25.1815 336.735 25.1814H335.628C335.482 25.1817 335.338 25.1532 335.204 25.0977C335.069 25.0422 334.947 24.9607 334.844 24.8578C334.741 24.755 334.66 24.6328 334.604 24.4984C334.549 24.3639 334.52 24.2199 334.521 24.0744V17.0617C334.52 16.9163 334.549 16.7723 334.605 16.6379C334.66 16.5036 334.742 16.3815 334.844 16.2787C334.947 16.1758 335.069 16.0943 335.204 16.0387C335.338 15.9831 335.482 15.9546 335.628 15.9548V15.9548ZM330.46 18.5384H331.568C331.862 18.5387 332.143 18.6555 332.351 18.863C332.558 19.0705 332.675 19.3519 332.675 19.6454V24.0744C332.675 24.368 332.559 24.6495 332.351 24.8571C332.143 25.0647 331.862 25.1814 331.568 25.1814H330.46C330.315 25.1815 330.171 25.153 330.036 25.0974C329.902 25.0418 329.78 24.9603 329.677 24.8575C329.574 24.7547 329.493 24.6326 329.437 24.4982C329.382 24.3638 329.353 24.2198 329.353 24.0744V19.6454C329.353 19.3518 329.47 19.0703 329.677 18.8627C329.885 18.6551 330.167 18.5384 330.46 18.5384V18.5384ZM325.292 20.7535H326.399C326.692 20.7535 326.974 20.8701 327.181 21.0777C327.389 21.2853 327.506 21.5669 327.506 21.8605V24.0744C327.506 24.2198 327.477 24.3638 327.422 24.4982C327.366 24.6326 327.285 24.7547 327.182 24.8575C327.079 24.9603 326.957 25.0418 326.822 25.0974C326.688 25.153 326.544 25.1815 326.399 25.1814H325.292C325.146 25.1815 325.002 25.153 324.868 25.0974C324.733 25.0419 324.611 24.9604 324.508 24.8575C324.405 24.7547 324.324 24.6327 324.268 24.4983C324.212 24.3639 324.184 24.2199 324.184 24.0744V21.8628C324.183 21.7171 324.212 21.5729 324.268 21.4384C324.323 21.3038 324.405 21.1815 324.508 21.0785C324.611 20.9755 324.733 20.8937 324.867 20.838C325.002 20.7822 325.146 20.7535 325.292 20.7535Z" fill="#111111"/>
<path d="M392.472 14.1081C392.962 14.1087 393.43 14.3034 393.776 14.6493C394.122 14.9953 394.316 15.4643 394.317 15.9534V22.5975C394.316 23.0866 394.122 23.5556 393.776 23.9016C393.43 24.2476 392.962 24.4422 392.472 24.4428H374.015C373.526 24.4422 373.057 24.2476 372.711 23.9016C372.365 23.5556 372.171 23.0866 372.17 22.5975V15.9534C372.171 15.4643 372.365 14.9953 372.711 14.6493C373.057 14.3034 373.526 14.1087 374.015 14.1081H392.472V14.1081ZM392.472 13H374.015C373.627 13.0001 373.243 13.0767 372.885 13.2252C372.527 13.3737 372.201 13.5913 371.927 13.8655C371.653 14.1398 371.436 14.4653 371.288 14.8235C371.14 15.1818 371.063 15.5657 371.063 15.9534V22.5975C371.063 22.9852 371.14 23.3691 371.288 23.7274C371.436 24.0856 371.653 24.4111 371.927 24.6854C372.201 24.9596 372.527 25.1772 372.885 25.3257C373.243 25.4743 373.627 25.5508 374.015 25.5509H392.472C392.86 25.5508 393.244 25.4743 393.602 25.3257C393.96 25.1772 394.286 24.9596 394.56 24.6854C394.834 24.4111 395.051 24.0856 395.199 23.7274C395.347 23.3691 395.424 22.9852 395.424 22.5975V15.9534C395.424 15.5657 395.347 15.1818 395.199 14.8235C395.051 14.4653 394.834 14.1398 394.56 13.8655C394.286 13.5913 393.96 13.3737 393.602 13.2252C393.244 13.0767 392.86 13.0001 392.472 13V13Z" fill="#111111"/>
<path d="M396.531 17.0586V21.4887C396.967 21.3052 397.339 20.9971 397.601 20.6031C397.863 20.2091 398.002 19.7466 398.002 19.2737C398.002 18.8007 397.863 18.3382 397.601 17.9442C397.339 17.5502 396.967 17.2421 396.531 17.0586Z" fill="#111111"/>
<path d="M374.756 15.2148H391.734C391.928 15.2148 392.12 15.253 392.299 15.3273C392.478 15.4015 392.641 15.5102 392.778 15.6474C392.915 15.7845 393.024 15.9473 393.098 16.1264C393.172 16.3056 393.21 16.4976 393.21 16.6916V21.8589C393.21 22.053 393.172 22.2452 393.098 22.4245C393.024 22.6038 392.915 22.7667 392.777 22.9039C392.64 23.0411 392.477 23.15 392.298 23.2243C392.119 23.2985 391.927 23.3368 391.732 23.3368H374.756C374.364 23.3368 373.988 23.1811 373.711 22.9039C373.434 22.6268 373.278 22.2509 373.278 21.8589V16.6927C373.278 16.3007 373.434 15.9248 373.711 15.6477C373.988 15.3705 374.364 15.2148 374.756 15.2148V15.2148Z" fill="#111111"/>
<rect x="142" y="50" width="143.996" height="63" fill="#E0E0E0"/>
<line y1="-0.5" x2="157.112" y2="-0.5" transform="matrix(0.916527 0.399972 -0.777969 0.628303 142 50.1602)" stroke="#868686"/>
<line y1="-0.5" x2="157.112" y2="-0.5" transform="matrix(0.916545 -0.399932 0.777932 0.628348 142 112.992)" stroke="#868686"/>
<rect width="378" height="114" rx="7" transform="matrix(1 0 0 -1 25 328)" fill="#EFEFEF"/>
<rect x="34" y="223" width="95.9974" height="96" fill="#E0E0E0"/>
<line y1="-0.5" x2="135.592" y2="-0.5" transform="matrix(0.707997 0.706216 -0.476316 0.879274 34 223.242)" stroke="#868686"/>
<line y1="-0.5" x2="135.586" y2="-0.5" transform="matrix(0.708038 -0.706174 0.476272 0.879298 34 318.992)" stroke="#868686"/>
<rect x="147" y="223" width="105" height="14" fill="#E0E0E0"/>
<rect x="147" y="243" width="59" height="12" fill="#E0E0E0"/>
<rect x="147" y="261" width="91" height="12" fill="#E0E0E0"/>
<rect x="147" y="279" width="78" height="12" fill="#E0E0E0"/>
<rect x="214" y="243" width="90" height="12" fill="#E0E0E0"/>
<rect x="147" y="297" width="78" height="22" rx="5" fill="#E0E0E0"/>
<path d="M164.531 312.099C163.908 312.099 163.343 312.022 162.837 311.868C162.331 311.707 161.891 311.479 161.517 311.186L161.902 310.284C162.151 310.475 162.408 310.632 162.672 310.757C162.943 310.882 163.229 310.977 163.53 311.043C163.838 311.102 164.172 311.131 164.531 311.131C165.147 311.131 165.598 311.021 165.884 310.801C166.177 310.581 166.324 310.291 166.324 309.932C166.324 309.624 166.221 309.386 166.016 309.217C165.818 309.048 165.466 308.913 164.96 308.81L163.761 308.568C163.05 308.421 162.518 308.183 162.166 307.853C161.821 307.516 161.649 307.057 161.649 306.478C161.649 306.009 161.774 305.598 162.023 305.246C162.272 304.894 162.617 304.623 163.057 304.432C163.504 304.241 164.025 304.146 164.619 304.146C165.169 304.146 165.675 304.227 166.137 304.388C166.599 304.542 166.988 304.773 167.303 305.081L166.929 305.95C166.599 305.664 166.247 305.455 165.873 305.323C165.499 305.184 165.074 305.114 164.597 305.114C164.032 305.114 163.589 305.231 163.266 305.466C162.951 305.701 162.793 306.02 162.793 306.423C162.793 306.746 162.892 306.999 163.09 307.182C163.295 307.365 163.633 307.505 164.102 307.6L165.301 307.831C166.042 307.985 166.588 308.223 166.94 308.546C167.292 308.861 167.468 309.298 167.468 309.855C167.468 310.302 167.347 310.695 167.105 311.032C166.87 311.369 166.533 311.633 166.093 311.824C165.653 312.007 165.132 312.099 164.531 312.099ZM170.898 312.099C170.407 312.099 169.978 311.985 169.611 311.758C169.244 311.531 168.958 311.201 168.753 310.768C168.555 310.335 168.456 309.822 168.456 309.228C168.456 308.627 168.555 308.113 168.753 307.688C168.958 307.263 169.244 306.936 169.611 306.709C169.978 306.474 170.407 306.357 170.898 306.357C171.382 306.357 171.804 306.478 172.163 306.72C172.522 306.962 172.761 307.292 172.878 307.71H172.757L172.867 306.456H173.945C173.923 306.683 173.901 306.911 173.879 307.138C173.864 307.358 173.857 307.574 173.857 307.787V312H172.746V310.768H172.867C172.75 311.179 172.508 311.505 172.141 311.747C171.782 311.982 171.367 312.099 170.898 312.099ZM171.173 311.23C171.65 311.23 172.031 311.061 172.317 310.724C172.61 310.387 172.757 309.888 172.757 309.228C172.757 308.568 172.61 308.073 172.317 307.743C172.031 307.406 171.65 307.237 171.173 307.237C170.689 307.237 170.3 307.406 170.007 307.743C169.721 308.073 169.578 308.568 169.578 309.228C169.578 309.888 169.721 310.387 170.007 310.724C170.293 311.061 170.682 311.23 171.173 311.23ZM175.259 314.497L174.995 313.595C175.34 313.522 175.626 313.434 175.853 313.331C176.088 313.228 176.282 313.093 176.436 312.924C176.59 312.763 176.722 312.554 176.832 312.297L177.107 311.648L177.085 312.099L174.676 306.456H175.864L177.734 311.076H177.437L179.307 306.456H180.451L177.91 312.396C177.749 312.763 177.577 313.071 177.393 313.32C177.21 313.569 177.012 313.771 176.799 313.925C176.587 314.079 176.352 314.2 176.095 314.288C175.839 314.376 175.56 314.446 175.259 314.497ZM184.353 312V304.245H185.497V307.589H189.853V304.245H190.997V312H189.853V308.546H185.497V312H184.353ZM195.282 312.099C194.388 312.099 193.684 311.846 193.17 311.34C192.657 310.834 192.4 310.134 192.4 309.239C192.4 308.66 192.51 308.154 192.73 307.721C192.958 307.288 193.269 306.955 193.665 306.72C194.069 306.478 194.534 306.357 195.062 306.357C195.583 306.357 196.019 306.467 196.371 306.687C196.723 306.907 196.991 307.219 197.174 307.622C197.358 308.018 197.449 308.487 197.449 309.03V309.382H193.269V308.744H196.69L196.503 308.887C196.503 308.337 196.379 307.912 196.129 307.611C195.887 307.303 195.535 307.149 195.073 307.149C194.56 307.149 194.164 307.329 193.885 307.688C193.607 308.04 193.467 308.528 193.467 309.151V309.261C193.467 309.914 193.625 310.405 193.94 310.735C194.263 311.065 194.718 311.23 195.304 311.23C195.627 311.23 195.928 311.186 196.206 311.098C196.492 311.003 196.764 310.849 197.02 310.636L197.383 311.395C197.127 311.622 196.815 311.798 196.448 311.923C196.082 312.04 195.693 312.099 195.282 312.099ZM198.724 312V303.904H199.835V312H198.724ZM201.463 312V303.904H202.574V312H201.463ZM206.579 312.099C206.029 312.099 205.552 311.985 205.149 311.758C204.745 311.523 204.434 311.193 204.214 310.768C203.994 310.335 203.884 309.822 203.884 309.228C203.884 308.634 203.994 308.124 204.214 307.699C204.434 307.266 204.745 306.936 205.149 306.709C205.552 306.474 206.029 306.357 206.579 306.357C207.129 306.357 207.605 306.474 208.009 306.709C208.419 306.936 208.735 307.266 208.955 307.699C209.182 308.124 209.296 308.634 209.296 309.228C209.296 309.822 209.182 310.335 208.955 310.768C208.735 311.193 208.419 311.523 208.009 311.758C207.605 311.985 207.129 312.099 206.579 312.099ZM206.579 311.23C207.063 311.23 207.448 311.061 207.734 310.724C208.02 310.387 208.163 309.888 208.163 309.228C208.163 308.568 208.02 308.073 207.734 307.743C207.448 307.406 207.063 307.237 206.579 307.237C206.102 307.237 205.721 307.406 205.435 307.743C205.149 308.073 205.006 308.568 205.006 309.228C205.006 309.888 205.145 310.387 205.424 310.724C205.71 311.061 206.095 311.23 206.579 311.23Z" fill="#353535"/>
<rect width="378" height="114" rx="7" transform="matrix(1 0 0 -1 25 456)" fill="#EFEFEF"/>
<rect x="34" y="351" width="95.9974" height="96" fill="#E0E0E0"/>
<line y1="-0.5" x2="135.592" y2="-0.5" transform="matrix(0.707997 0.706216 -0.476316 0.879274 34 351.242)" stroke="#868686"/>
<line y1="-0.5" x2="135.586" y2="-0.5" transform="matrix(0.708038 -0.706174 0.476272 0.879298 34 446.992)" stroke="#868686"/>
<rect x="147" y="351" width="105" height="14" fill="#E0E0E0"/>
<rect x="147" y="371" width="59" height="12" fill="#E0E0E0"/>
<rect x="147" y="389" width="91" height="12" fill="#E0E0E0"/>
<rect x="147" y="407" width="78" height="12" fill="#E0E0E0"/>
<rect x="214" y="371" width="90" height="12" fill="#E0E0E0"/>
<rect x="147" y="425" width="78" height="22" rx="5" fill="#E0E0E0"/>
<path d="M164.531 440.099C163.908 440.099 163.343 440.022 162.837 439.868C162.331 439.707 161.891 439.479 161.517 439.186L161.902 438.284C162.151 438.475 162.408 438.632 162.672 438.757C162.943 438.882 163.229 438.977 163.53 439.043C163.838 439.102 164.172 439.131 164.531 439.131C165.147 439.131 165.598 439.021 165.884 438.801C166.177 438.581 166.324 438.291 166.324 437.932C166.324 437.624 166.221 437.386 166.016 437.217C165.818 437.048 165.466 436.913 164.96 436.81L163.761 436.568C163.05 436.421 162.518 436.183 162.166 435.853C161.821 435.516 161.649 435.057 161.649 434.478C161.649 434.009 161.774 433.598 162.023 433.246C162.272 432.894 162.617 432.623 163.057 432.432C163.504 432.241 164.025 432.146 164.619 432.146C165.169 432.146 165.675 432.227 166.137 432.388C166.599 432.542 166.988 432.773 167.303 433.081L166.929 433.95C166.599 433.664 166.247 433.455 165.873 433.323C165.499 433.184 165.074 433.114 164.597 433.114C164.032 433.114 163.589 433.231 163.266 433.466C162.951 433.701 162.793 434.02 162.793 434.423C162.793 434.746 162.892 434.999 163.09 435.182C163.295 435.365 163.633 435.505 164.102 435.6L165.301 435.831C166.042 435.985 166.588 436.223 166.94 436.546C167.292 436.861 167.468 437.298 167.468 437.855C167.468 438.302 167.347 438.695 167.105 439.032C166.87 439.369 166.533 439.633 166.093 439.824C165.653 440.007 165.132 440.099 164.531 440.099ZM170.898 440.099C170.407 440.099 169.978 439.985 169.611 439.758C169.244 439.531 168.958 439.201 168.753 438.768C168.555 438.335 168.456 437.822 168.456 437.228C168.456 436.627 168.555 436.113 168.753 435.688C168.958 435.263 169.244 434.936 169.611 434.709C169.978 434.474 170.407 434.357 170.898 434.357C171.382 434.357 171.804 434.478 172.163 434.72C172.522 434.962 172.761 435.292 172.878 435.71H172.757L172.867 434.456H173.945C173.923 434.683 173.901 434.911 173.879 435.138C173.864 435.358 173.857 435.574 173.857 435.787V440H172.746V438.768H172.867C172.75 439.179 172.508 439.505 172.141 439.747C171.782 439.982 171.367 440.099 170.898 440.099ZM171.173 439.23C171.65 439.23 172.031 439.061 172.317 438.724C172.61 438.387 172.757 437.888 172.757 437.228C172.757 436.568 172.61 436.073 172.317 435.743C172.031 435.406 171.65 435.237 171.173 435.237C170.689 435.237 170.3 435.406 170.007 435.743C169.721 436.073 169.578 436.568 169.578 437.228C169.578 437.888 169.721 438.387 170.007 438.724C170.293 439.061 170.682 439.23 171.173 439.23ZM175.259 442.497L174.995 441.595C175.34 441.522 175.626 441.434 175.853 441.331C176.088 441.228 176.282 441.093 176.436 440.924C176.59 440.763 176.722 440.554 176.832 440.297L177.107 439.648L177.085 440.099L174.676 434.456H175.864L177.734 439.076H177.437L179.307 434.456H180.451L177.91 440.396C177.749 440.763 177.577 441.071 177.393 441.32C177.21 441.569 177.012 441.771 176.799 441.925C176.587 442.079 176.352 442.2 176.095 442.288C175.839 442.376 175.56 442.446 175.259 442.497ZM184.353 440V432.245H185.497V435.589H189.853V432.245H190.997V440H189.853V436.546H185.497V440H184.353ZM195.282 440.099C194.388 440.099 193.684 439.846 193.17 439.34C192.657 438.834 192.4 438.134 192.4 437.239C192.4 436.66 192.51 436.154 192.73 435.721C192.958 435.288 193.269 434.955 193.665 434.72C194.069 434.478 194.534 434.357 195.062 434.357C195.583 434.357 196.019 434.467 196.371 434.687C196.723 434.907 196.991 435.219 197.174 435.622C197.358 436.018 197.449 436.487 197.449 437.03V437.382H193.269V436.744H196.69L196.503 436.887C196.503 436.337 196.379 435.912 196.129 435.611C195.887 435.303 195.535 435.149 195.073 435.149C194.56 435.149 194.164 435.329 193.885 435.688C193.607 436.04 193.467 436.528 193.467 437.151V437.261C193.467 437.914 193.625 438.405 193.94 438.735C194.263 439.065 194.718 439.23 195.304 439.23C195.627 439.23 195.928 439.186 196.206 439.098C196.492 439.003 196.764 438.849 197.02 438.636L197.383 439.395C197.127 439.622 196.815 439.798 196.448 439.923C196.082 440.04 195.693 440.099 195.282 440.099ZM198.724 440V431.904H199.835V440H198.724ZM201.463 440V431.904H202.574V440H201.463ZM206.579 440.099C206.029 440.099 205.552 439.985 205.149 439.758C204.745 439.523 204.434 439.193 204.214 438.768C203.994 438.335 203.884 437.822 203.884 437.228C203.884 436.634 203.994 436.124 204.214 435.699C204.434 435.266 204.745 434.936 205.149 434.709C205.552 434.474 206.029 434.357 206.579 434.357C207.129 434.357 207.605 434.474 208.009 434.709C208.419 434.936 208.735 435.266 208.955 435.699C209.182 436.124 209.296 436.634 209.296 437.228C209.296 437.822 209.182 438.335 208.955 438.768C208.735 439.193 208.419 439.523 208.009 439.758C207.605 439.985 207.129 440.099 206.579 440.099ZM206.579 439.23C207.063 439.23 207.448 439.061 207.734 438.724C208.02 438.387 208.163 437.888 208.163 437.228C208.163 436.568 208.02 436.073 207.734 435.743C207.448 435.406 207.063 435.237 206.579 435.237C206.102 435.237 205.721 435.406 205.435 435.743C205.149 436.073 205.006 436.568 205.006 437.228C205.006 437.888 205.145 438.387 205.424 438.724C205.71 439.061 206.095 439.23 206.579 439.23Z" fill="#353535"/>
<rect width="378" height="114" rx="7" transform="matrix(1 0 0 -1 25 584)" fill="#EFEFEF"/>
<rect x="34" y="479" width="95.9974" height="96" fill="#E0E0E0"/>
<line y1="-0.5" x2="135.592" y2="-0.5" transform="matrix(0.707997 0.706216 -0.476316 0.879274 34 479.242)" stroke="#868686"/>
<line y1="-0.5" x2="135.586" y2="-0.5" transform="matrix(0.708038 -0.706174 0.476272 0.879298 34 574.992)" stroke="#868686"/>
<rect x="147" y="479" width="105" height="14" fill="#E0E0E0"/>
<rect x="147" y="499" width="59" height="12" fill="#E0E0E0"/>
<rect x="147" y="517" width="91" height="12" fill="#E0E0E0"/>
<rect x="147" y="535" width="78" height="12" fill="#E0E0E0"/>
<rect x="214" y="499" width="90" height="12" fill="#E0E0E0"/>
<rect x="147" y="553" width="78" height="22" rx="5" fill="#E0E0E0"/>
<path d="M164.531 568.099C163.908 568.099 163.343 568.022 162.837 567.868C162.331 567.707 161.891 567.479 161.517 567.186L161.902 566.284C162.151 566.475 162.408 566.632 162.672 566.757C162.943 566.882 163.229 566.977 163.53 567.043C163.838 567.102 164.172 567.131 164.531 567.131C165.147 567.131 165.598 567.021 165.884 566.801C166.177 566.581 166.324 566.291 166.324 565.932C166.324 565.624 166.221 565.386 166.016 565.217C165.818 565.048 165.466 564.913 164.96 564.81L163.761 564.568C163.05 564.421 162.518 564.183 162.166 563.853C161.821 563.516 161.649 563.057 161.649 562.478C161.649 562.009 161.774 561.598 162.023 561.246C162.272 560.894 162.617 560.623 163.057 560.432C163.504 560.241 164.025 560.146 164.619 560.146C165.169 560.146 165.675 560.227 166.137 560.388C166.599 560.542 166.988 560.773 167.303 561.081L166.929 561.95C166.599 561.664 166.247 561.455 165.873 561.323C165.499 561.184 165.074 561.114 164.597 561.114C164.032 561.114 163.589 561.231 163.266 561.466C162.951 561.701 162.793 562.02 162.793 562.423C162.793 562.746 162.892 562.999 163.09 563.182C163.295 563.365 163.633 563.505 164.102 563.6L165.301 563.831C166.042 563.985 166.588 564.223 166.94 564.546C167.292 564.861 167.468 565.298 167.468 565.855C167.468 566.302 167.347 566.695 167.105 567.032C166.87 567.369 166.533 567.633 166.093 567.824C165.653 568.007 165.132 568.099 164.531 568.099ZM170.898 568.099C170.407 568.099 169.978 567.985 169.611 567.758C169.244 567.531 168.958 567.201 168.753 566.768C168.555 566.335 168.456 565.822 168.456 565.228C168.456 564.627 168.555 564.113 168.753 563.688C168.958 563.263 169.244 562.936 169.611 562.709C169.978 562.474 170.407 562.357 170.898 562.357C171.382 562.357 171.804 562.478 172.163 562.72C172.522 562.962 172.761 563.292 172.878 563.71H172.757L172.867 562.456H173.945C173.923 562.683 173.901 562.911 173.879 563.138C173.864 563.358 173.857 563.574 173.857 563.787V568H172.746V566.768H172.867C172.75 567.179 172.508 567.505 172.141 567.747C171.782 567.982 171.367 568.099 170.898 568.099ZM171.173 567.23C171.65 567.23 172.031 567.061 172.317 566.724C172.61 566.387 172.757 565.888 172.757 565.228C172.757 564.568 172.61 564.073 172.317 563.743C172.031 563.406 171.65 563.237 171.173 563.237C170.689 563.237 170.3 563.406 170.007 563.743C169.721 564.073 169.578 564.568 169.578 565.228C169.578 565.888 169.721 566.387 170.007 566.724C170.293 567.061 170.682 567.23 171.173 567.23ZM175.259 570.497L174.995 569.595C175.34 569.522 175.626 569.434 175.853 569.331C176.088 569.228 176.282 569.093 176.436 568.924C176.59 568.763 176.722 568.554 176.832 568.297L177.107 567.648L177.085 568.099L174.676 562.456H175.864L177.734 567.076H177.437L179.307 562.456H180.451L177.91 568.396C177.749 568.763 177.577 569.071 177.393 569.32C177.21 569.569 177.012 569.771 176.799 569.925C176.587 570.079 176.352 570.2 176.095 570.288C175.839 570.376 175.56 570.446 175.259 570.497ZM184.353 568V560.245H185.497V563.589H189.853V560.245H190.997V568H189.853V564.546H185.497V568H184.353ZM195.282 568.099C194.388 568.099 193.684 567.846 193.17 567.34C192.657 566.834 192.4 566.134 192.4 565.239C192.4 564.66 192.51 564.154 192.73 563.721C192.958 563.288 193.269 562.955 193.665 562.72C194.069 562.478 194.534 562.357 195.062 562.357C195.583 562.357 196.019 562.467 196.371 562.687C196.723 562.907 196.991 563.219 197.174 563.622C197.358 564.018 197.449 564.487 197.449 565.03V565.382H193.269V564.744H196.69L196.503 564.887C196.503 564.337 196.379 563.912 196.129 563.611C195.887 563.303 195.535 563.149 195.073 563.149C194.56 563.149 194.164 563.329 193.885 563.688C193.607 564.04 193.467 564.528 193.467 565.151V565.261C193.467 565.914 193.625 566.405 193.94 566.735C194.263 567.065 194.718 567.23 195.304 567.23C195.627 567.23 195.928 567.186 196.206 567.098C196.492 567.003 196.764 566.849 197.02 566.636L197.383 567.395C197.127 567.622 196.815 567.798 196.448 567.923C196.082 568.04 195.693 568.099 195.282 568.099ZM198.724 568V559.904H199.835V568H198.724ZM201.463 568V559.904H202.574V568H201.463ZM206.579 568.099C206.029 568.099 205.552 567.985 205.149 567.758C204.745 567.523 204.434 567.193 204.214 566.768C203.994 566.335 203.884 565.822 203.884 565.228C203.884 564.634 203.994 564.124 204.214 563.699C204.434 563.266 204.745 562.936 205.149 562.709C205.552 562.474 206.029 562.357 206.579 562.357C207.129 562.357 207.605 562.474 208.009 562.709C208.419 562.936 208.735 563.266 208.955 563.699C209.182 564.124 209.296 564.634 209.296 565.228C209.296 565.822 209.182 566.335 208.955 566.768C208.735 567.193 208.419 567.523 208.009 567.758C207.605 567.985 207.129 568.099 206.579 568.099ZM206.579 567.23C207.063 567.23 207.448 567.061 207.734 566.724C208.02 566.387 208.163 565.888 208.163 565.228C208.163 564.568 208.02 564.073 207.734 563.743C207.448 563.406 207.063 563.237 206.579 563.237C206.102 563.237 205.721 563.406 205.435 563.743C205.149 564.073 205.006 564.568 205.006 565.228C205.006 565.888 205.145 566.387 205.424 566.724C205.71 567.061 206.095 567.23 206.579 567.23Z" fill="#353535"/>
<rect width="378" height="114" rx="7" transform="matrix(1 0 0 -1 25 712)" fill="#EFEFEF"/>
<rect x="34" y="607" width="95.9974" height="96" fill="#E0E0E0"/>
<line y1="-0.5" x2="135.592" y2="-0.5" transform="matrix(0.707997 0.706216 -0.476316 0.879274 34 607.242)" stroke="#868686"/>
<line y1="-0.5" x2="135.586" y2="-0.5" transform="matrix(0.708038 -0.706174 0.476272 0.879298 34 702.992)" stroke="#868686"/>
<rect x="147" y="607" width="105" height="14" fill="#E0E0E0"/>
<rect x="147" y="627" width="59" height="12" fill="#E0E0E0"/>
<rect x="147" y="645" width="91" height="12" fill="#E0E0E0"/>
<rect x="147" y="663" width="78" height="12" fill="#E0E0E0"/>
<rect x="214" y="627" width="90" height="12" fill="#E0E0E0"/>
<rect x="147" y="681" width="78" height="22" rx="5" fill="#E0E0E0"/>
<path d="M164.531 696.099C163.908 696.099 163.343 696.022 162.837 695.868C162.331 695.707 161.891 695.479 161.517 695.186L161.902 694.284C162.151 694.475 162.408 694.632 162.672 694.757C162.943 694.882 163.229 694.977 163.53 695.043C163.838 695.102 164.172 695.131 164.531 695.131C165.147 695.131 165.598 695.021 165.884 694.801C166.177 694.581 166.324 694.291 166.324 693.932C166.324 693.624 166.221 693.386 166.016 693.217C165.818 693.048 165.466 692.913 164.96 692.81L163.761 692.568C163.05 692.421 162.518 692.183 162.166 691.853C161.821 691.516 161.649 691.057 161.649 690.478C161.649 690.009 161.774 689.598 162.023 689.246C162.272 688.894 162.617 688.623 163.057 688.432C163.504 688.241 164.025 688.146 164.619 688.146C165.169 688.146 165.675 688.227 166.137 688.388C166.599 688.542 166.988 688.773 167.303 689.081L166.929 689.95C166.599 689.664 166.247 689.455 165.873 689.323C165.499 689.184 165.074 689.114 164.597 689.114C164.032 689.114 163.589 689.231 163.266 689.466C162.951 689.701 162.793 690.02 162.793 690.423C162.793 690.746 162.892 690.999 163.09 691.182C163.295 691.365 163.633 691.505 164.102 691.6L165.301 691.831C166.042 691.985 166.588 692.223 166.94 692.546C167.292 692.861 167.468 693.298 167.468 693.855C167.468 694.302 167.347 694.695 167.105 695.032C166.87 695.369 166.533 695.633 166.093 695.824C165.653 696.007 165.132 696.099 164.531 696.099ZM170.898 696.099C170.407 696.099 169.978 695.985 169.611 695.758C169.244 695.531 168.958 695.201 168.753 694.768C168.555 694.335 168.456 693.822 168.456 693.228C168.456 692.627 168.555 692.113 168.753 691.688C168.958 691.263 169.244 690.936 169.611 690.709C169.978 690.474 170.407 690.357 170.898 690.357C171.382 690.357 171.804 690.478 172.163 690.72C172.522 690.962 172.761 691.292 172.878 691.71H172.757L172.867 690.456H173.945C173.923 690.683 173.901 690.911 173.879 691.138C173.864 691.358 173.857 691.574 173.857 691.787V696H172.746V694.768H172.867C172.75 695.179 172.508 695.505 172.141 695.747C171.782 695.982 171.367 696.099 170.898 696.099ZM171.173 695.23C171.65 695.23 172.031 695.061 172.317 694.724C172.61 694.387 172.757 693.888 172.757 693.228C172.757 692.568 172.61 692.073 172.317 691.743C172.031 691.406 171.65 691.237 171.173 691.237C170.689 691.237 170.3 691.406 170.007 691.743C169.721 692.073 169.578 692.568 169.578 693.228C169.578 693.888 169.721 694.387 170.007 694.724C170.293 695.061 170.682 695.23 171.173 695.23ZM175.259 698.497L174.995 697.595C175.34 697.522 175.626 697.434 175.853 697.331C176.088 697.228 176.282 697.093 176.436 696.924C176.59 696.763 176.722 696.554 176.832 696.297L177.107 695.648L177.085 696.099L174.676 690.456H175.864L177.734 695.076H177.437L179.307 690.456H180.451L177.91 696.396C177.749 696.763 177.577 697.071 177.393 697.32C177.21 697.569 177.012 697.771 176.799 697.925C176.587 698.079 176.352 698.2 176.095 698.288C175.839 698.376 175.56 698.446 175.259 698.497ZM184.353 696V688.245H185.497V691.589H189.853V688.245H190.997V696H189.853V692.546H185.497V696H184.353ZM195.282 696.099C194.388 696.099 193.684 695.846 193.17 695.34C192.657 694.834 192.4 694.134 192.4 693.239C192.4 692.66 192.51 692.154 192.73 691.721C192.958 691.288 193.269 690.955 193.665 690.72C194.069 690.478 194.534 690.357 195.062 690.357C195.583 690.357 196.019 690.467 196.371 690.687C196.723 690.907 196.991 691.219 197.174 691.622C197.358 692.018 197.449 692.487 197.449 693.03V693.382H193.269V692.744H196.69L196.503 692.887C196.503 692.337 196.379 691.912 196.129 691.611C195.887 691.303 195.535 691.149 195.073 691.149C194.56 691.149 194.164 691.329 193.885 691.688C193.607 692.04 193.467 692.528 193.467 693.151V693.261C193.467 693.914 193.625 694.405 193.94 694.735C194.263 695.065 194.718 695.23 195.304 695.23C195.627 695.23 195.928 695.186 196.206 695.098C196.492 695.003 196.764 694.849 197.02 694.636L197.383 695.395C197.127 695.622 196.815 695.798 196.448 695.923C196.082 696.04 195.693 696.099 195.282 696.099ZM198.724 696V687.904H199.835V696H198.724ZM201.463 696V687.904H202.574V696H201.463ZM206.579 696.099C206.029 696.099 205.552 695.985 205.149 695.758C204.745 695.523 204.434 695.193 204.214 694.768C203.994 694.335 203.884 693.822 203.884 693.228C203.884 692.634 203.994 692.124 204.214 691.699C204.434 691.266 204.745 690.936 205.149 690.709C205.552 690.474 206.029 690.357 206.579 690.357C207.129 690.357 207.605 690.474 208.009 690.709C208.419 690.936 208.735 691.266 208.955 691.699C209.182 692.124 209.296 692.634 209.296 693.228C209.296 693.822 209.182 694.335 208.955 694.768C208.735 695.193 208.419 695.523 208.009 695.758C207.605 695.985 207.129 696.099 206.579 696.099ZM206.579 695.23C207.063 695.23 207.448 695.061 207.734 694.724C208.02 694.387 208.163 693.888 208.163 693.228C208.163 692.568 208.02 692.073 207.734 691.743C207.448 691.406 207.063 691.237 206.579 691.237C206.102 691.237 205.721 691.406 205.435 691.743C205.149 692.073 205.006 692.568 205.006 693.228C205.006 693.888 205.145 694.387 205.424 694.724C205.71 695.061 206.095 695.23 206.579 695.23Z" fill="#353535"/>
<rect width="378" height="114" rx="7" transform="matrix(1 0 0 -1 25 840)" fill="#EFEFEF"/>
<rect x="34" y="735" width="95.9974" height="96" fill="#E0E0E0"/>
<line y1="-0.5" x2="135.592" y2="-0.5" transform="matrix(0.707997 0.706216 -0.476316 0.879274 34 735.242)" stroke="#868686"/>
<line y1="-0.5" x2="135.586" y2="-0.5" transform="matrix(0.708038 -0.706174 0.476272 0.879298 34 830.992)" stroke="#868686"/>
<rect x="147" y="735" width="105" height="14" fill="#E0E0E0"/>
<rect x="147" y="755" width="59" height="12" fill="#E0E0E0"/>
<rect x="147" y="773" width="91" height="12" fill="#E0E0E0"/>
<rect x="147" y="791" width="78" height="12" fill="#E0E0E0"/>
<rect x="214" y="755" width="90" height="12" fill="#E0E0E0"/>
<rect x="147" y="809" width="78" height="22" rx="5" fill="#E0E0E0"/>
<path d="M164.531 824.099C163.908 824.099 163.343 824.022 162.837 823.868C162.331 823.707 161.891 823.479 161.517 823.186L161.902 822.284C162.151 822.475 162.408 822.632 162.672 822.757C162.943 822.882 163.229 822.977 163.53 823.043C163.838 823.102 164.172 823.131 164.531 823.131C165.147 823.131 165.598 823.021 165.884 822.801C166.177 822.581 166.324 822.291 166.324 821.932C166.324 821.624 166.221 821.386 166.016 821.217C165.818 821.048 165.466 820.913 164.96 820.81L163.761 820.568C163.05 820.421 162.518 820.183 162.166 819.853C161.821 819.516 161.649 819.057 161.649 818.478C161.649 818.009 161.774 817.598 162.023 817.246C162.272 816.894 162.617 816.623 163.057 816.432C163.504 816.241 164.025 816.146 164.619 816.146C165.169 816.146 165.675 816.227 166.137 816.388C166.599 816.542 166.988 816.773 167.303 817.081L166.929 817.95C166.599 817.664 166.247 817.455 165.873 817.323C165.499 817.184 165.074 817.114 164.597 817.114C164.032 817.114 163.589 817.231 163.266 817.466C162.951 817.701 162.793 818.02 162.793 818.423C162.793 818.746 162.892 818.999 163.09 819.182C163.295 819.365 163.633 819.505 164.102 819.6L165.301 819.831C166.042 819.985 166.588 820.223 166.94 820.546C167.292 820.861 167.468 821.298 167.468 821.855C167.468 822.302 167.347 822.695 167.105 823.032C166.87 823.369 166.533 823.633 166.093 823.824C165.653 824.007 165.132 824.099 164.531 824.099ZM170.898 824.099C170.407 824.099 169.978 823.985 169.611 823.758C169.244 823.531 168.958 823.201 168.753 822.768C168.555 822.335 168.456 821.822 168.456 821.228C168.456 820.627 168.555 820.113 168.753 819.688C168.958 819.263 169.244 818.936 169.611 818.709C169.978 818.474 170.407 818.357 170.898 818.357C171.382 818.357 171.804 818.478 172.163 818.72C172.522 818.962 172.761 819.292 172.878 819.71H172.757L172.867 818.456H173.945C173.923 818.683 173.901 818.911 173.879 819.138C173.864 819.358 173.857 819.574 173.857 819.787V824H172.746V822.768H172.867C172.75 823.179 172.508 823.505 172.141 823.747C171.782 823.982 171.367 824.099 170.898 824.099ZM171.173 823.23C171.65 823.23 172.031 823.061 172.317 822.724C172.61 822.387 172.757 821.888 172.757 821.228C172.757 820.568 172.61 820.073 172.317 819.743C172.031 819.406 171.65 819.237 171.173 819.237C170.689 819.237 170.3 819.406 170.007 819.743C169.721 820.073 169.578 820.568 169.578 821.228C169.578 821.888 169.721 822.387 170.007 822.724C170.293 823.061 170.682 823.23 171.173 823.23ZM175.259 826.497L174.995 825.595C175.34 825.522 175.626 825.434 175.853 825.331C176.088 825.228 176.282 825.093 176.436 824.924C176.59 824.763 176.722 824.554 176.832 824.297L177.107 823.648L177.085 824.099L174.676 818.456H175.864L177.734 823.076H177.437L179.307 818.456H180.451L177.91 824.396C177.749 824.763 177.577 825.071 177.393 825.32C177.21 825.569 177.012 825.771 176.799 825.925C176.587 826.079 176.352 826.2 176.095 826.288C175.839 826.376 175.56 826.446 175.259 826.497ZM184.353 824V816.245H185.497V819.589H189.853V816.245H190.997V824H189.853V820.546H185.497V824H184.353ZM195.282 824.099C194.388 824.099 193.684 823.846 193.17 823.34C192.657 822.834 192.4 822.134 192.4 821.239C192.4 820.66 192.51 820.154 192.73 819.721C192.958 819.288 193.269 818.955 193.665 818.72C194.069 818.478 194.534 818.357 195.062 818.357C195.583 818.357 196.019 818.467 196.371 818.687C196.723 818.907 196.991 819.219 197.174 819.622C197.358 820.018 197.449 820.487 197.449 821.03V821.382H193.269V820.744H196.69L196.503 820.887C196.503 820.337 196.379 819.912 196.129 819.611C195.887 819.303 195.535 819.149 195.073 819.149C194.56 819.149 194.164 819.329 193.885 819.688C193.607 820.04 193.467 820.528 193.467 821.151V821.261C193.467 821.914 193.625 822.405 193.94 822.735C194.263 823.065 194.718 823.23 195.304 823.23C195.627 823.23 195.928 823.186 196.206 823.098C196.492 823.003 196.764 822.849 197.02 822.636L197.383 823.395C197.127 823.622 196.815 823.798 196.448 823.923C196.082 824.04 195.693 824.099 195.282 824.099ZM198.724 824V815.904H199.835V824H198.724ZM201.463 824V815.904H202.574V824H201.463ZM206.579 824.099C206.029 824.099 205.552 823.985 205.149 823.758C204.745 823.523 204.434 823.193 204.214 822.768C203.994 822.335 203.884 821.822 203.884 821.228C203.884 820.634 203.994 820.124 204.214 819.699C204.434 819.266 204.745 818.936 205.149 818.709C205.552 818.474 206.029 818.357 206.579 818.357C207.129 818.357 207.605 818.474 208.009 818.709C208.419 818.936 208.735 819.266 208.955 819.699C209.182 820.124 209.296 820.634 209.296 821.228C209.296 821.822 209.182 822.335 208.955 822.768C208.735 823.193 208.419 823.523 208.009 823.758C207.605 823.985 207.129 824.099 206.579 824.099ZM206.579 823.23C207.063 823.23 207.448 823.061 207.734 822.724C208.02 822.387 208.163 821.888 208.163 821.228C208.163 820.568 208.02 820.073 207.734 819.743C207.448 819.406 207.063 819.237 206.579 819.237C206.102 819.237 205.721 819.406 205.435 819.743C205.149 820.073 205.006 820.568 205.006 821.228C205.006 821.888 205.145 822.387 205.424 822.724C205.71 823.061 206.095 823.23 206.579 823.23Z" fill="#353535"/>
<g filter="url(#filter0_dddd_1304_4343)">
<rect x="338" y="736" width="60" height="60" rx="30" fill="#EFEFEF"/>
</g>
<rect x="357" y="755" width="21.9994" height="22" fill="#E0E0E0"/>
<line y1="-0.5" x2="31.0731" y2="-0.5" transform="matrix(0.707997 0.706216 -0.476316 0.879274 357 755.055)" stroke="#868686"/>
<line y1="-0.5" x2="31.0718" y2="-0.5" transform="matrix(0.708038 -0.706174 0.476272 0.879298 357 777)" stroke="#868686"/>
<rect width="114" height="38" rx="7" transform="matrix(1 0 0 -1 25 193)" fill="#E0E0E0"/>
<path d="M46.6 179.126C45.592 179.126 44.7333 178.921 44.024 178.51C43.3147 178.099 42.7687 177.516 42.386 176.76C42.0127 175.995 41.826 175.094 41.826 174.058C41.826 173.022 42.0127 172.126 42.386 171.37C42.7687 170.614 43.3147 170.031 44.024 169.62C44.7333 169.209 45.592 169.004 46.6 169.004C47.3 169.004 47.9253 169.107 48.476 169.312C49.0267 169.517 49.5073 169.816 49.918 170.208L49.414 171.37C48.966 170.987 48.5273 170.712 48.098 170.544C47.678 170.376 47.188 170.292 46.628 170.292C45.564 170.292 44.752 170.619 44.192 171.272C43.632 171.925 43.352 172.854 43.352 174.058C43.352 175.262 43.632 176.195 44.192 176.858C44.752 177.511 45.564 177.838 46.628 177.838C47.188 177.838 47.678 177.754 48.098 177.586C48.5273 177.418 48.966 177.138 49.414 176.746L49.918 177.908C49.5073 178.3 49.0267 178.603 48.476 178.818C47.9253 179.023 47.3 179.126 46.6 179.126ZM54.1518 179.126C53.4518 179.126 52.8451 178.981 52.3318 178.692C51.8185 178.393 51.4218 177.973 51.1418 177.432C50.8618 176.881 50.7218 176.228 50.7218 175.472C50.7218 174.716 50.8618 174.067 51.1418 173.526C51.4218 172.975 51.8185 172.555 52.3318 172.266C52.8451 171.967 53.4518 171.818 54.1518 171.818C54.8518 171.818 55.4585 171.967 55.9718 172.266C56.4945 172.555 56.8958 172.975 57.1758 173.526C57.4651 174.067 57.6098 174.716 57.6098 175.472C57.6098 176.228 57.4651 176.881 57.1758 177.432C56.8958 177.973 56.4945 178.393 55.9718 178.692C55.4585 178.981 54.8518 179.126 54.1518 179.126ZM54.1518 178.02C54.7678 178.02 55.2578 177.805 55.6218 177.376C55.9858 176.947 56.1678 176.312 56.1678 175.472C56.1678 174.632 55.9858 174.002 55.6218 173.582C55.2578 173.153 54.7678 172.938 54.1518 172.938C53.5451 172.938 53.0598 173.153 52.6958 173.582C52.3318 174.002 52.1498 174.632 52.1498 175.472C52.1498 176.312 52.3271 176.947 52.6818 177.376C53.0458 177.805 53.5358 178.02 54.1518 178.02ZM59.2626 179V173.638C59.2626 173.367 59.2486 173.092 59.2206 172.812C59.2019 172.523 59.1786 172.233 59.1506 171.944H60.5226L60.6486 173.428H60.4806C60.6952 172.905 61.0266 172.509 61.4746 172.238C61.9226 171.958 62.4406 171.818 63.0286 171.818C63.8592 171.818 64.4846 172.047 64.9046 172.504C65.3339 172.961 65.5486 173.671 65.5486 174.632V179H64.1346V174.716C64.1346 174.091 64.0086 173.643 63.7566 173.372C63.5139 173.092 63.1406 172.952 62.6366 172.952C62.0392 172.952 61.5632 173.139 61.2086 173.512C60.8539 173.876 60.6766 174.371 60.6766 174.996V179H59.2626ZM67.5614 179V173.638C67.5614 173.367 67.5474 173.092 67.5194 172.812C67.5007 172.523 67.4774 172.233 67.4494 171.944H68.8214L68.9474 173.428H68.7794C68.9941 172.905 69.3254 172.509 69.7734 172.238C70.2214 171.958 70.7394 171.818 71.3274 171.818C72.1581 171.818 72.7834 172.047 73.2034 172.504C73.6327 172.961 73.8474 173.671 73.8474 174.632V179H72.4334V174.716C72.4334 174.091 72.3074 173.643 72.0554 173.372C71.8127 173.092 71.4394 172.952 70.9354 172.952C70.3381 172.952 69.8621 173.139 69.5074 173.512C69.1527 173.876 68.9754 174.371 68.9754 174.996V179H67.5614ZM79.1222 179.126C77.9836 179.126 77.0876 178.804 76.4342 178.16C75.7809 177.516 75.4542 176.625 75.4542 175.486C75.4542 174.749 75.5942 174.105 75.8742 173.554C76.1636 173.003 76.5602 172.579 77.0642 172.28C77.5776 171.972 78.1702 171.818 78.8422 171.818C79.5049 171.818 80.0602 171.958 80.5082 172.238C80.9562 172.518 81.2969 172.915 81.5302 173.428C81.7636 173.932 81.8802 174.529 81.8802 175.22V175.668H76.5602V174.856H80.9142L80.6762 175.038C80.6762 174.338 80.5176 173.797 80.2002 173.414C79.8922 173.022 79.4442 172.826 78.8562 172.826C78.2029 172.826 77.6989 173.055 77.3442 173.512C76.9896 173.96 76.8122 174.581 76.8122 175.374V175.514C76.8122 176.345 77.0129 176.97 77.4142 177.39C77.8249 177.81 78.4036 178.02 79.1502 178.02C79.5609 178.02 79.9436 177.964 80.2982 177.852C80.6622 177.731 81.0076 177.535 81.3342 177.264L81.7962 178.23C81.4696 178.519 81.0729 178.743 80.6062 178.902C80.1396 179.051 79.6449 179.126 79.1222 179.126ZM86.5968 179.126C85.8875 179.126 85.2668 178.981 84.7348 178.692C84.2121 178.393 83.8061 177.969 83.5168 177.418C83.2368 176.858 83.0968 176.195 83.0968 175.43C83.0968 174.674 83.2415 174.025 83.5308 173.484C83.8201 172.943 84.2261 172.532 84.7488 172.252C85.2715 171.963 85.8875 171.818 86.5968 171.818C87.0541 171.818 87.4975 171.897 87.9268 172.056C88.3561 172.205 88.7108 172.42 88.9908 172.7L88.5288 173.694C88.2675 173.442 87.9735 173.255 87.6468 173.134C87.3201 173.003 87.0028 172.938 86.6948 172.938C86.0228 172.938 85.4955 173.153 85.1128 173.582C84.7301 174.011 84.5388 174.632 84.5388 175.444C84.5388 176.265 84.7301 176.895 85.1128 177.334C85.4955 177.773 86.0228 177.992 86.6948 177.992C86.9935 177.992 87.3061 177.936 87.6328 177.824C87.9595 177.703 88.2581 177.511 88.5288 177.25L88.9908 178.244C88.7015 178.524 88.3375 178.743 87.8988 178.902C87.4695 179.051 87.0355 179.126 86.5968 179.126ZM93.2468 179.126C92.4815 179.126 91.9028 178.921 91.5108 178.51C91.1188 178.09 90.9228 177.465 90.9228 176.634V173.036H89.5508V171.944H90.9228V170.082L92.3368 169.704V171.944H94.2968V173.036H92.3368V176.508C92.3368 177.031 92.4301 177.404 92.6168 177.628C92.8035 177.852 93.0741 177.964 93.4288 177.964C93.6061 177.964 93.7601 177.95 93.8908 177.922C94.0308 177.885 94.1568 177.843 94.2688 177.796V178.944C94.1288 179 93.9655 179.042 93.7788 179.07C93.5921 179.107 93.4148 179.126 93.2468 179.126ZM95.5887 179V171.944H97.0027V179H95.5887ZM95.4767 170.474V169.004H97.1147V170.474H95.4767ZM102.099 179.126C101.399 179.126 100.792 178.981 100.279 178.692C99.7657 178.393 99.3691 177.973 99.0891 177.432C98.8091 176.881 98.6691 176.228 98.6691 175.472C98.6691 174.716 98.8091 174.067 99.0891 173.526C99.3691 172.975 99.7657 172.555 100.279 172.266C100.792 171.967 101.399 171.818 102.099 171.818C102.799 171.818 103.406 171.967 103.919 172.266C104.442 172.555 104.843 172.975 105.123 173.526C105.412 174.067 105.557 174.716 105.557 175.472C105.557 176.228 105.412 176.881 105.123 177.432C104.843 177.973 104.442 178.393 103.919 178.692C103.406 178.981 102.799 179.126 102.099 179.126ZM102.099 178.02C102.715 178.02 103.205 177.805 103.569 177.376C103.933 176.947 104.115 176.312 104.115 175.472C104.115 174.632 103.933 174.002 103.569 173.582C103.205 173.153 102.715 172.938 102.099 172.938C101.492 172.938 101.007 173.153 100.643 173.582C100.279 174.002 100.097 174.632 100.097 175.472C100.097 176.312 100.274 176.947 100.629 177.376C100.993 177.805 101.483 178.02 102.099 178.02ZM107.21 179V173.638C107.21 173.367 107.196 173.092 107.168 172.812C107.149 172.523 107.126 172.233 107.098 171.944H108.47L108.596 173.428H108.428C108.642 172.905 108.974 172.509 109.422 172.238C109.87 171.958 110.388 171.818 110.976 171.818C111.806 171.818 112.432 172.047 112.852 172.504C113.281 172.961 113.496 173.671 113.496 174.632V179H112.082V174.716C112.082 174.091 111.956 173.643 111.704 173.372C111.461 173.092 111.088 172.952 110.584 172.952C109.986 172.952 109.51 173.139 109.156 173.512C108.801 173.876 108.624 174.371 108.624 174.996V179H107.21ZM117.931 179.126C117.343 179.126 116.801 179.051 116.307 178.902C115.812 178.753 115.401 178.543 115.075 178.272L115.509 177.306C115.854 177.567 116.237 177.763 116.657 177.894C117.077 178.025 117.506 178.09 117.945 178.09C118.458 178.09 118.845 178.001 119.107 177.824C119.368 177.637 119.499 177.385 119.499 177.068C119.499 176.825 119.415 176.629 119.247 176.48C119.088 176.331 118.822 176.219 118.449 176.144L117.105 175.878C116.507 175.747 116.055 175.523 115.747 175.206C115.439 174.889 115.285 174.483 115.285 173.988C115.285 173.568 115.397 173.195 115.621 172.868C115.854 172.541 116.181 172.285 116.601 172.098C117.03 171.911 117.529 171.818 118.099 171.818C118.621 171.818 119.107 171.893 119.555 172.042C120.003 172.191 120.376 172.406 120.675 172.686L120.227 173.624C119.937 173.381 119.611 173.195 119.247 173.064C118.883 172.924 118.514 172.854 118.141 172.854C117.618 172.854 117.231 172.952 116.979 173.148C116.727 173.344 116.601 173.601 116.601 173.918C116.601 174.161 116.675 174.361 116.825 174.52C116.983 174.669 117.231 174.786 117.567 174.87L118.911 175.136C119.545 175.267 120.021 175.481 120.339 175.78C120.656 176.079 120.815 176.48 120.815 176.984C120.815 177.423 120.693 177.805 120.451 178.132C120.208 178.459 119.872 178.706 119.443 178.874C119.013 179.042 118.509 179.126 117.931 179.126Z" fill="#353535"/>
<rect width="114" height="38" rx="7" transform="matrix(1 0 0 -1 157 193)" fill="#EFEFEF"/>
<path d="M186.162 179V169.13H187.618V179H186.162ZM189.809 179V173.638C189.809 173.367 189.795 173.092 189.767 172.812C189.749 172.523 189.725 172.233 189.697 171.944H191.069L191.195 173.428H191.027C191.242 172.905 191.573 172.509 192.021 172.238C192.469 171.958 192.987 171.818 193.575 171.818C194.406 171.818 195.031 172.047 195.451 172.504C195.881 172.961 196.095 173.671 196.095 174.632V179H194.681V174.716C194.681 174.091 194.555 173.643 194.303 173.372C194.061 173.092 193.687 172.952 193.183 172.952C192.586 172.952 192.11 173.139 191.755 173.512C191.401 173.876 191.223 174.371 191.223 174.996V179H189.809ZM200.852 179.126C200.087 179.126 199.508 178.921 199.116 178.51C198.724 178.09 198.528 177.465 198.528 176.634V173.036H197.156V171.944H198.528V170.082L199.942 169.704V171.944H201.902V173.036H199.942V176.508C199.942 177.031 200.036 177.404 200.222 177.628C200.409 177.852 200.68 177.964 201.034 177.964C201.212 177.964 201.366 177.95 201.496 177.922C201.636 177.885 201.762 177.843 201.874 177.796V178.944C201.734 179 201.571 179.042 201.384 179.07C201.198 179.107 201.02 179.126 200.852 179.126ZM206.388 179.126C205.249 179.126 204.353 178.804 203.7 178.16C203.047 177.516 202.72 176.625 202.72 175.486C202.72 174.749 202.86 174.105 203.14 173.554C203.429 173.003 203.826 172.579 204.33 172.28C204.843 171.972 205.436 171.818 206.108 171.818C206.771 171.818 207.326 171.958 207.774 172.238C208.222 172.518 208.563 172.915 208.796 173.428C209.029 173.932 209.146 174.529 209.146 175.22V175.668H203.826V174.856H208.18L207.942 175.038C207.942 174.338 207.783 173.797 207.466 173.414C207.158 173.022 206.71 172.826 206.122 172.826C205.469 172.826 204.965 173.055 204.61 173.512C204.255 173.96 204.078 174.581 204.078 175.374V175.514C204.078 176.345 204.279 176.97 204.68 177.39C205.091 177.81 205.669 178.02 206.416 178.02C206.827 178.02 207.209 177.964 207.564 177.852C207.928 177.731 208.273 177.535 208.6 177.264L209.062 178.23C208.735 178.519 208.339 178.743 207.872 178.902C207.405 179.051 206.911 179.126 206.388 179.126ZM210.74 179V173.694C210.74 173.405 210.731 173.115 210.712 172.826C210.703 172.527 210.684 172.233 210.656 171.944H212.028L212.182 173.764H211.958C212.052 173.325 212.21 172.961 212.434 172.672C212.658 172.383 212.929 172.168 213.246 172.028C213.573 171.888 213.914 171.818 214.268 171.818C214.418 171.818 214.544 171.827 214.646 171.846C214.749 171.855 214.852 171.874 214.954 171.902L214.94 173.162C214.782 173.097 214.642 173.059 214.52 173.05C214.408 173.031 214.268 173.022 214.1 173.022C213.69 173.022 213.34 173.115 213.05 173.302C212.761 173.479 212.542 173.722 212.392 174.03C212.243 174.338 212.168 174.669 212.168 175.024V179H210.74ZM219.212 179.126C218.073 179.126 217.177 178.804 216.524 178.16C215.871 177.516 215.544 176.625 215.544 175.486C215.544 174.749 215.684 174.105 215.964 173.554C216.253 173.003 216.65 172.579 217.154 172.28C217.667 171.972 218.26 171.818 218.932 171.818C219.595 171.818 220.15 171.958 220.598 172.238C221.046 172.518 221.387 172.915 221.62 173.428C221.853 173.932 221.97 174.529 221.97 175.22V175.668H216.65V174.856H221.004L220.766 175.038C220.766 174.338 220.607 173.797 220.29 173.414C219.982 173.022 219.534 172.826 218.946 172.826C218.293 172.826 217.789 173.055 217.434 173.512C217.079 173.96 216.902 174.581 216.902 175.374V175.514C216.902 176.345 217.103 176.97 217.504 177.39C217.915 177.81 218.493 178.02 219.24 178.02C219.651 178.02 220.033 177.964 220.388 177.852C220.752 177.731 221.097 177.535 221.424 177.264L221.886 178.23C221.559 178.519 221.163 178.743 220.696 178.902C220.229 179.051 219.735 179.126 219.212 179.126ZM226.015 179.126C225.427 179.126 224.885 179.051 224.391 178.902C223.896 178.753 223.485 178.543 223.159 178.272L223.593 177.306C223.938 177.567 224.321 177.763 224.741 177.894C225.161 178.025 225.59 178.09 226.029 178.09C226.542 178.09 226.929 178.001 227.191 177.824C227.452 177.637 227.583 177.385 227.583 177.068C227.583 176.825 227.499 176.629 227.331 176.48C227.172 176.331 226.906 176.219 226.533 176.144L225.189 175.878C224.591 175.747 224.139 175.523 223.831 175.206C223.523 174.889 223.369 174.483 223.369 173.988C223.369 173.568 223.481 173.195 223.705 172.868C223.938 172.541 224.265 172.285 224.685 172.098C225.114 171.911 225.613 171.818 226.183 171.818C226.705 171.818 227.191 171.893 227.639 172.042C228.087 172.191 228.46 172.406 228.759 172.686L228.311 173.624C228.021 173.381 227.695 173.195 227.331 173.064C226.967 172.924 226.598 172.854 226.225 172.854C225.702 172.854 225.315 172.952 225.063 173.148C224.811 173.344 224.685 173.601 224.685 173.918C224.685 174.161 224.759 174.361 224.909 174.52C225.067 174.669 225.315 174.786 225.651 174.87L226.995 175.136C227.629 175.267 228.105 175.481 228.423 175.78C228.74 176.079 228.899 176.48 228.899 176.984C228.899 177.423 228.777 177.805 228.535 178.132C228.292 178.459 227.956 178.706 227.527 178.874C227.097 179.042 226.593 179.126 226.015 179.126ZM233.241 179.126C232.476 179.126 231.897 178.921 231.505 178.51C231.113 178.09 230.917 177.465 230.917 176.634V173.036H229.545V171.944H230.917V170.082L232.331 169.704V171.944H234.291V173.036H232.331V176.508C232.331 177.031 232.424 177.404 232.611 177.628C232.798 177.852 233.068 177.964 233.423 177.964C233.6 177.964 233.754 177.95 233.885 177.922C234.025 177.885 234.151 177.843 234.263 177.796V178.944C234.123 179 233.96 179.042 233.773 179.07C233.586 179.107 233.409 179.126 233.241 179.126ZM238.005 179.126C237.417 179.126 236.876 179.051 236.381 178.902C235.886 178.753 235.476 178.543 235.149 178.272L235.583 177.306C235.928 177.567 236.311 177.763 236.731 177.894C237.151 178.025 237.58 178.09 238.019 178.09C238.532 178.09 238.92 178.001 239.181 177.824C239.442 177.637 239.573 177.385 239.573 177.068C239.573 176.825 239.489 176.629 239.321 176.48C239.162 176.331 238.896 176.219 238.523 176.144L237.179 175.878C236.582 175.747 236.129 175.523 235.821 175.206C235.513 174.889 235.359 174.483 235.359 173.988C235.359 173.568 235.471 173.195 235.695 172.868C235.928 172.541 236.255 172.285 236.675 172.098C237.104 171.911 237.604 171.818 238.173 171.818C238.696 171.818 239.181 171.893 239.629 172.042C240.077 172.191 240.45 172.406 240.749 172.686L240.301 173.624C240.012 173.381 239.685 173.195 239.321 173.064C238.957 172.924 238.588 172.854 238.215 172.854C237.692 172.854 237.305 172.952 237.053 173.148C236.801 173.344 236.675 173.601 236.675 173.918C236.675 174.161 236.75 174.361 236.899 174.52C237.058 174.669 237.305 174.786 237.641 174.87L238.985 175.136C239.62 175.267 240.096 175.481 240.413 175.78C240.73 176.079 240.889 176.48 240.889 176.984C240.889 177.423 240.768 177.805 240.525 178.132C240.282 178.459 239.946 178.706 239.517 178.874C239.088 179.042 238.584 179.126 238.005 179.126Z" fill="#353535"/>
<rect width="114" height="38" rx="7" transform="matrix(1 0 0 -1 289 193)" fill="#EFEFEF"/>
<path d="M306.494 179.126C305.701 179.126 304.982 179.028 304.338 178.832C303.694 178.627 303.134 178.337 302.658 177.964L303.148 176.816C303.465 177.059 303.792 177.259 304.128 177.418C304.473 177.577 304.837 177.698 305.22 177.782C305.612 177.857 306.037 177.894 306.494 177.894C307.278 177.894 307.852 177.754 308.216 177.474C308.589 177.194 308.776 176.825 308.776 176.368C308.776 175.976 308.645 175.673 308.384 175.458C308.132 175.243 307.684 175.071 307.04 174.94L305.514 174.632C304.609 174.445 303.932 174.142 303.484 173.722C303.045 173.293 302.826 172.709 302.826 171.972C302.826 171.375 302.985 170.852 303.302 170.404C303.619 169.956 304.058 169.611 304.618 169.368C305.187 169.125 305.85 169.004 306.606 169.004C307.306 169.004 307.95 169.107 308.538 169.312C309.126 169.508 309.621 169.802 310.022 170.194L309.546 171.3C309.126 170.936 308.678 170.67 308.202 170.502C307.726 170.325 307.185 170.236 306.578 170.236C305.859 170.236 305.295 170.385 304.884 170.684C304.483 170.983 304.282 171.389 304.282 171.902C304.282 172.313 304.408 172.635 304.66 172.868C304.921 173.101 305.351 173.279 305.948 173.4L307.474 173.694C308.417 173.89 309.112 174.193 309.56 174.604C310.008 175.005 310.232 175.561 310.232 176.27C310.232 176.839 310.078 177.339 309.77 177.768C309.471 178.197 309.042 178.533 308.482 178.776C307.922 179.009 307.259 179.126 306.494 179.126ZM314.597 179.126C313.972 179.126 313.426 178.981 312.959 178.692C312.493 178.403 312.129 177.983 311.867 177.432C311.615 176.881 311.489 176.228 311.489 175.472C311.489 174.707 311.615 174.053 311.867 173.512C312.129 172.971 312.493 172.555 312.959 172.266C313.426 171.967 313.972 171.818 314.597 171.818C315.213 171.818 315.75 171.972 316.207 172.28C316.665 172.588 316.968 173.008 317.117 173.54H316.963L317.103 171.944H318.475C318.447 172.233 318.419 172.523 318.391 172.812C318.373 173.092 318.363 173.367 318.363 173.638V179H316.949V177.432H317.103C316.954 177.955 316.646 178.37 316.179 178.678C315.722 178.977 315.195 179.126 314.597 179.126ZM314.947 178.02C315.554 178.02 316.039 177.805 316.403 177.376C316.777 176.947 316.963 176.312 316.963 175.472C316.963 174.632 316.777 174.002 316.403 173.582C316.039 173.153 315.554 172.938 314.947 172.938C314.331 172.938 313.837 173.153 313.463 173.582C313.099 174.002 312.917 174.632 312.917 175.472C312.917 176.312 313.099 176.947 313.463 177.376C313.827 177.805 314.322 178.02 314.947 178.02ZM322.43 179L319.406 171.944H320.918L323.298 177.838H322.892L325.314 171.944H326.756L323.718 179H322.43ZM331.017 179.126C329.878 179.126 328.982 178.804 328.329 178.16C327.675 177.516 327.349 176.625 327.349 175.486C327.349 174.749 327.489 174.105 327.769 173.554C328.058 173.003 328.455 172.579 328.959 172.28C329.472 171.972 330.065 171.818 330.737 171.818C331.399 171.818 331.955 171.958 332.403 172.238C332.851 172.518 333.191 172.915 333.425 173.428C333.658 173.932 333.775 174.529 333.775 175.22V175.668H328.455V174.856H332.809L332.571 175.038C332.571 174.338 332.412 173.797 332.095 173.414C331.787 173.022 331.339 172.826 330.751 172.826C330.097 172.826 329.593 173.055 329.239 173.512C328.884 173.96 328.707 174.581 328.707 175.374V175.514C328.707 176.345 328.907 176.97 329.309 177.39C329.719 177.81 330.298 178.02 331.045 178.02C331.455 178.02 331.838 177.964 332.193 177.852C332.557 177.731 332.902 177.535 333.229 177.264L333.691 178.23C333.364 178.519 332.967 178.743 332.501 178.902C332.034 179.051 331.539 179.126 331.017 179.126ZM338.099 179.126C337.483 179.126 336.937 178.981 336.461 178.692C335.995 178.403 335.631 177.983 335.369 177.432C335.117 176.881 334.991 176.228 334.991 175.472C334.991 174.707 335.117 174.053 335.369 173.512C335.631 172.971 335.995 172.555 336.461 172.266C336.937 171.967 337.483 171.818 338.099 171.818C338.706 171.818 339.238 171.972 339.695 172.28C340.162 172.579 340.47 172.989 340.619 173.512H340.451V168.696H341.865V179H340.465V177.404H340.633C340.475 177.936 340.167 178.356 339.709 178.664C339.252 178.972 338.715 179.126 338.099 179.126ZM338.449 178.02C339.056 178.02 339.546 177.805 339.919 177.376C340.293 176.947 340.479 176.312 340.479 175.472C340.479 174.632 340.293 174.002 339.919 173.582C339.546 173.153 339.056 172.938 338.449 172.938C337.833 172.938 337.339 173.153 336.965 173.582C336.601 174.002 336.419 174.632 336.419 175.472C336.419 176.312 336.601 176.947 336.965 177.376C337.339 177.805 337.833 178.02 338.449 178.02ZM347.787 179V169.13H351.973C353.028 169.13 353.835 169.387 354.395 169.9C354.964 170.404 355.249 171.104 355.249 172C355.249 172.896 354.964 173.601 354.395 174.114C353.835 174.627 353.028 174.884 351.973 174.884H349.243V179H347.787ZM349.243 173.722H351.819C352.482 173.722 352.981 173.573 353.317 173.274C353.653 172.975 353.821 172.551 353.821 172C353.821 171.459 353.653 171.039 353.317 170.74C352.981 170.441 352.482 170.292 351.819 170.292H349.243V173.722ZM356.711 179V173.694C356.711 173.405 356.702 173.115 356.683 172.826C356.674 172.527 356.655 172.233 356.627 171.944H357.999L358.153 173.764H357.929C358.022 173.325 358.181 172.961 358.405 172.672C358.629 172.383 358.9 172.168 359.217 172.028C359.544 171.888 359.884 171.818 360.239 171.818C360.388 171.818 360.514 171.827 360.617 171.846C360.72 171.855 360.822 171.874 360.925 171.902L360.911 173.162C360.752 173.097 360.612 173.059 360.491 173.05C360.379 173.031 360.239 173.022 360.071 173.022C359.66 173.022 359.31 173.115 359.021 173.302C358.732 173.479 358.512 173.722 358.363 174.03C358.214 174.338 358.139 174.669 358.139 175.024V179H356.711ZM364.945 179.126C364.245 179.126 363.638 178.981 363.125 178.692C362.611 178.393 362.215 177.973 361.935 177.432C361.655 176.881 361.515 176.228 361.515 175.472C361.515 174.716 361.655 174.067 361.935 173.526C362.215 172.975 362.611 172.555 363.125 172.266C363.638 171.967 364.245 171.818 364.945 171.818C365.645 171.818 366.251 171.967 366.765 172.266C367.287 172.555 367.689 172.975 367.969 173.526C368.258 174.067 368.403 174.716 368.403 175.472C368.403 176.228 368.258 176.881 367.969 177.432C367.689 177.973 367.287 178.393 366.765 178.692C366.251 178.981 365.645 179.126 364.945 179.126ZM364.945 178.02C365.561 178.02 366.051 177.805 366.415 177.376C366.779 176.947 366.961 176.312 366.961 175.472C366.961 174.632 366.779 174.002 366.415 173.582C366.051 173.153 365.561 172.938 364.945 172.938C364.338 172.938 363.853 173.153 363.489 173.582C363.125 174.002 362.943 174.632 362.943 175.472C362.943 176.312 363.12 176.947 363.475 177.376C363.839 177.805 364.329 178.02 364.945 178.02ZM370.407 179V173.036H369.035V171.944H370.799L370.407 172.308V171.188C370.407 170.357 370.613 169.727 371.023 169.298C371.443 168.859 372.05 168.64 372.843 168.64C373.03 168.64 373.231 168.654 373.445 168.682C373.66 168.71 373.842 168.757 373.991 168.822V169.97C373.879 169.923 373.739 169.886 373.571 169.858C373.403 169.821 373.24 169.802 373.081 169.802C372.671 169.802 372.353 169.923 372.129 170.166C371.915 170.399 371.807 170.768 371.807 171.272V172.224L371.597 171.944H376.287V179H374.873V173.036H371.821V179H370.407ZM374.761 170.474V169.004H376.399V170.474H374.761ZM378.354 179V168.696H379.768V179H378.354ZM385.103 179.126C383.964 179.126 383.068 178.804 382.415 178.16C381.761 177.516 381.435 176.625 381.435 175.486C381.435 174.749 381.575 174.105 381.855 173.554C382.144 173.003 382.541 172.579 383.045 172.28C383.558 171.972 384.151 171.818 384.823 171.818C385.485 171.818 386.041 171.958 386.489 172.238C386.937 172.518 387.277 172.915 387.511 173.428C387.744 173.932 387.861 174.529 387.861 175.22V175.668H382.541V174.856H386.895L386.657 175.038C386.657 174.338 386.498 173.797 386.181 173.414C385.873 173.022 385.425 172.826 384.837 172.826C384.183 172.826 383.679 173.055 383.325 173.512C382.97 173.96 382.793 174.581 382.793 175.374V175.514C382.793 176.345 382.993 176.97 383.395 177.39C383.805 177.81 384.384 178.02 385.131 178.02C385.541 178.02 385.924 177.964 386.279 177.852C386.643 177.731 386.988 177.535 387.315 177.264L387.777 178.23C387.45 178.519 387.053 178.743 386.587 178.902C386.12 179.051 385.625 179.126 385.103 179.126Z" fill="#353535"/>
<rect y="826" width="428" height="100" fill="#EFEFEF"/>
<path d="M196.996 900V891.54H198.244V895.188H202.996V891.54H204.244V900H202.996V896.232H198.244V900H196.996ZM205.942 895.764C205.942 894.876 206.098 894.108 206.41 893.46C206.722 892.812 207.174 892.312 207.766 891.96C208.366 891.608 209.078 891.432 209.902 891.432C210.718 891.432 211.422 891.608 212.014 891.96C212.606 892.312 213.062 892.812 213.382 893.46C213.71 894.108 213.874 894.872 213.874 895.752C213.874 896.64 213.71 897.412 213.382 898.068C213.062 898.716 212.602 899.22 212.002 899.58C211.41 899.932 210.71 900.108 209.902 900.108C209.078 900.108 208.37 899.932 207.778 899.58C207.186 899.22 206.73 898.716 206.41 898.068C206.098 897.412 205.942 896.644 205.942 895.764ZM207.25 895.764C207.25 896.788 207.474 897.588 207.922 898.164C208.37 898.74 209.03 899.028 209.902 899.028C210.75 899.028 211.406 898.744 211.87 898.176C212.334 897.6 212.566 896.796 212.566 895.764C212.566 894.732 212.334 893.932 211.87 893.364C211.414 892.796 210.758 892.512 209.902 892.512C209.03 892.512 208.37 892.796 207.922 893.364C207.474 893.932 207.25 894.732 207.25 895.764ZM215.594 900V891.54H216.686L219.95 898.896H219.59L222.854 891.54H223.934V900H222.806V893.232H223.202L220.154 900H219.374L216.326 893.232H216.734V900H215.594ZM225.953 900V891.54H231.497V892.536H227.165V895.2H231.221V896.208H227.165V898.992H231.497V900H225.953Z" fill="#353535"/>
<rect x="204" y="853" width="19.9995" height="20" fill="#CECECE"/>
<line y1="-0.5" x2="28.2483" y2="-0.5" transform="matrix(0.707997 0.706216 -0.476316 0.879274 204 853.051)" stroke="#868686"/>
<line y1="-0.5" x2="28.2471" y2="-0.5" transform="matrix(0.708038 -0.706174 0.476273 0.879298 204 872.996)" stroke="#868686"/>
<path d="M117.996 900V891.54H121.584C122.488 891.54 123.18 891.76 123.66 892.2C124.148 892.632 124.392 893.232 124.392 894C124.392 894.768 124.148 895.372 123.66 895.812C123.18 896.252 122.488 896.472 121.584 896.472H119.244V900H117.996ZM119.244 895.476H121.452C122.02 895.476 122.448 895.348 122.736 895.092C123.024 894.836 123.168 894.472 123.168 894C123.168 893.536 123.024 893.176 122.736 892.92C122.448 892.664 122.02 892.536 121.452 892.536H119.244V895.476ZM125.894 900V891.54H129.47C130.374 891.54 131.074 891.756 131.57 892.188C132.066 892.612 132.314 893.208 132.314 893.976C132.314 894.48 132.202 894.912 131.978 895.272C131.754 895.632 131.438 895.908 131.03 896.1C130.622 896.284 130.142 896.376 129.59 896.376L129.782 896.184H130.106C130.434 896.184 130.726 896.268 130.982 896.436C131.246 896.604 131.462 896.872 131.63 897.24L132.842 900H131.474L130.274 897.228C130.154 896.9 129.966 896.688 129.71 896.592C129.462 896.496 129.154 896.448 128.786 896.448H127.142V900H125.894ZM127.142 895.5H129.266C129.866 895.5 130.318 895.372 130.622 895.116C130.934 894.86 131.09 894.492 131.09 894.012C131.09 893.524 130.934 893.156 130.622 892.908C130.318 892.66 129.866 892.536 129.266 892.536H127.142V895.5ZM133.915 895.764C133.915 894.876 134.071 894.108 134.383 893.46C134.695 892.812 135.147 892.312 135.739 891.96C136.339 891.608 137.051 891.432 137.875 891.432C138.691 891.432 139.395 891.608 139.987 891.96C140.579 892.312 141.035 892.812 141.355 893.46C141.683 894.108 141.847 894.872 141.847 895.752C141.847 896.64 141.683 897.412 141.355 898.068C141.035 898.716 140.575 899.22 139.975 899.58C139.383 899.932 138.683 900.108 137.875 900.108C137.051 900.108 136.343 899.932 135.751 899.58C135.159 899.22 134.703 898.716 134.383 898.068C134.071 897.412 133.915 896.644 133.915 895.764ZM135.223 895.764C135.223 896.788 135.447 897.588 135.895 898.164C136.343 898.74 137.003 899.028 137.875 899.028C138.723 899.028 139.379 898.744 139.843 898.176C140.307 897.6 140.539 896.796 140.539 895.764C140.539 894.732 140.307 893.932 139.843 893.364C139.387 892.796 138.731 892.512 137.875 892.512C137.003 892.512 136.343 892.796 135.895 893.364C135.447 893.932 135.223 894.732 135.223 895.764ZM143.555 900V891.54H148.979V892.536H144.803V895.248H148.703V896.244H144.803V900H143.555ZM150.363 900V891.54H151.611V900H150.363ZM153.598 900V891.54H154.846V898.932H158.998V900H153.598ZM160.219 900V891.54H165.763V892.536H161.431V895.2H165.487V896.208H161.431V898.992H165.763V900H160.219Z" fill="#353535"/>
<rect x="132" y="853" width="19.9995" height="20" fill="#CECECE"/>
<line y1="-0.5" x2="28.2483" y2="-0.5" transform="matrix(0.707997 0.706216 -0.476316 0.879274 132 853.051)" stroke="#868686"/>
<line y1="-0.5" x2="28.2471" y2="-0.5" transform="matrix(0.708038 -0.706174 0.476273 0.879298 132 872.996)" stroke="#868686"/>
<path d="M320.996 900V891.54H326.42V892.536H322.244V895.248H326.144V896.244H322.244V900H320.996ZM327.805 900V891.54H329.053V900H327.805ZM331.039 900V891.54H331.999L337.195 898.356H336.895V891.54H338.059V900H337.111L331.927 893.184H332.203V900H331.039ZM340.039 900V891.54H342.967C343.919 891.54 344.723 891.704 345.379 892.032C346.043 892.36 346.543 892.84 346.879 893.472C347.223 894.096 347.395 894.86 347.395 895.764C347.395 896.66 347.223 897.424 346.879 898.056C346.543 898.688 346.043 899.172 345.379 899.508C344.723 899.836 343.919 900 342.967 900H340.039ZM341.287 898.956H342.895C343.983 898.956 344.791 898.692 345.319 898.164C345.855 897.636 346.123 896.836 346.123 895.764C346.123 894.692 345.855 893.896 345.319 893.376C344.791 892.848 343.983 892.584 342.895 892.584H341.287V898.956ZM352.297 900V891.54H353.389L356.653 898.896H356.293L359.557 891.54H360.637V900H359.509V893.232H359.905L356.857 900H356.077L353.029 893.232H353.437V900H352.297ZM361.78 900L365.548 891.54H366.616L370.444 900H369.16L368.116 897.6L368.644 897.936H363.52L364.084 897.6L363.04 900H361.78ZM366.064 892.908L364.24 897.216L363.952 896.94H368.212L367.972 897.216L366.112 892.908H366.064ZM372.665 900V892.584H369.773V891.54H376.805V892.584H373.913V900H372.665ZM381.249 900.108C380.385 900.108 379.649 899.932 379.041 899.58C378.433 899.228 377.965 898.728 377.637 898.08C377.317 897.424 377.157 896.652 377.157 895.764C377.157 894.876 377.317 894.108 377.637 893.46C377.965 892.812 378.433 892.312 379.041 891.96C379.649 891.608 380.385 891.432 381.249 891.432C381.849 891.432 382.385 891.52 382.857 891.696C383.329 891.872 383.741 892.128 384.093 892.464L383.661 893.46C383.277 893.132 382.901 892.896 382.533 892.752C382.173 892.608 381.753 892.536 381.273 892.536C380.361 892.536 379.665 892.816 379.185 893.376C378.705 893.936 378.465 894.732 378.465 895.764C378.465 896.796 378.705 897.596 379.185 898.164C379.665 898.724 380.361 899.004 381.273 899.004C381.753 899.004 382.173 898.932 382.533 898.788C382.901 898.644 383.277 898.404 383.661 898.068L384.093 899.064C383.741 899.4 383.329 899.66 382.857 899.844C382.385 900.02 381.849 900.108 381.249 900.108ZM385.66 900V891.54H386.908V895.188H391.66V891.54H392.908V900H391.66V896.232H386.908V900H385.66Z" fill="#353535"/>
<rect x="348" y="853" width="19.9995" height="20" fill="#CECECE"/>
<line y1="-0.5" x2="28.2483" y2="-0.5" transform="matrix(0.707997 0.706216 -0.476316 0.879274 348 853.051)" stroke="#868686"/>
<line y1="-0.5" x2="28.2471" y2="-0.5" transform="matrix(0.708038 -0.706174 0.476273 0.879298 348 872.996)" stroke="#868686"/>
<path d="M273.8 900.108C272.936 900.108 272.2 899.932 271.592 899.58C270.984 899.228 270.516 898.728 270.188 898.08C269.868 897.424 269.708 896.652 269.708 895.764C269.708 894.876 269.868 894.108 270.188 893.46C270.516 892.812 270.984 892.312 271.592 891.96C272.2 891.608 272.936 891.432 273.8 891.432C274.4 891.432 274.936 891.52 275.408 891.696C275.88 891.872 276.292 892.128 276.644 892.464L276.212 893.46C275.828 893.132 275.452 892.896 275.084 892.752C274.724 892.608 274.304 892.536 273.824 892.536C272.912 892.536 272.216 892.816 271.736 893.376C271.256 893.936 271.016 894.732 271.016 895.764C271.016 896.796 271.256 897.596 271.736 898.164C272.216 898.724 272.912 899.004 273.824 899.004C274.304 899.004 274.724 898.932 275.084 898.788C275.452 898.644 275.828 898.404 276.212 898.068L276.644 899.064C276.292 899.4 275.88 899.66 275.408 899.844C274.936 900.02 274.4 900.108 273.8 900.108ZM278.211 900V891.54H279.459V895.188H284.211V891.54H285.459V900H284.211V896.232H279.459V900H278.211ZM286.569 900L290.337 891.54H291.405L295.233 900H293.949L292.905 897.6L293.433 897.936H288.309L288.873 897.6L287.829 900H286.569ZM290.853 892.908L289.029 897.216L288.741 896.94H293.001L292.761 897.216L290.901 892.908H290.853ZM297.454 900V892.584H294.562V891.54H301.594V892.584H298.702V900H297.454Z" fill="#353535"/>
<rect x="276" y="853" width="19.9995" height="20" fill="#CECECE"/>
<line y1="-0.5" x2="28.2483" y2="-0.5" transform="matrix(0.707997 0.706216 -0.476316 0.879274 276 853.051)" stroke="#868686"/>
<line y1="-0.5" x2="28.2471" y2="-0.5" transform="matrix(0.708038 -0.706174 0.476273 0.879298 276 872.996)" stroke="#868686"/>
<path d="M52.008 900V891.54H53.1L56.364 898.896H56.004L59.268 891.54H60.348V900H59.22V893.232H59.616L56.568 900H55.788L52.74 893.232H53.148V900H52.008ZM62.3671 900V891.54H67.9111V892.536H63.5791V895.2H67.6351V896.208H63.5791V898.992H67.9111V900H62.3671ZM69.4569 900V891.54H70.4169L75.6129 898.356H75.3129V891.54H76.4769V900H75.5289L70.3449 893.184H70.6209V900H69.4569ZM81.8889 900.108C80.7129 900.108 79.8369 899.812 79.2609 899.22C78.6929 898.628 78.4089 897.752 78.4089 896.592V891.54H79.6569V896.568C79.6569 897.384 79.8329 898 80.1849 898.416C80.5449 898.824 81.1129 899.028 81.8889 899.028C82.6249 899.028 83.1809 898.824 83.5569 898.416C83.9329 898 84.1209 897.384 84.1209 896.568V891.54H85.3449V896.592C85.3449 897.752 85.0529 898.628 84.4689 899.22C83.8849 899.812 83.0249 900.108 81.8889 900.108Z" fill="#353535"/>
<rect x="60" y="853" width="19.9995" height="20" fill="#CECECE"/>
<line y1="-0.5" x2="28.2483" y2="-0.5" transform="matrix(0.707997 0.706216 -0.476316 0.879274 60 853.051)" stroke="#868686"/>
<line y1="-0.5" x2="28.2471" y2="-0.5" transform="matrix(0.708038 -0.706174 0.476273 0.879298 60 872.996)" stroke="#868686"/>
</g>
<rect x="1" y="1" width="426" height="924" stroke="#B3B3B3" stroke-width="2"/>
<path d="M104.869 986V964.85H107.989V983.33H118.369V986H104.869ZM118.675 986L128.095 964.85H130.765L140.335 986H137.125L134.515 980L135.835 980.84H123.025L124.435 980L121.825 986H118.675ZM129.385 968.27L124.825 979.04L124.105 978.35H134.755L134.155 979.04L129.505 968.27H129.385ZM143.131 986V964.85H145.531L158.521 981.89H157.771V964.85H160.681V986H158.311L145.351 968.96H146.041V986H143.131ZM165.631 986V964.85H172.951C175.331 964.85 177.341 965.26 178.981 966.08C180.641 966.9 181.891 968.1 182.731 969.68C183.591 971.24 184.021 973.15 184.021 975.41C184.021 977.65 183.591 979.56 182.731 981.14C181.891 982.72 180.641 983.93 178.981 984.77C177.341 985.59 175.331 986 172.951 986H165.631ZM168.751 983.39H172.771C175.491 983.39 177.511 982.73 178.831 981.41C180.171 980.09 180.841 978.09 180.841 975.41C180.841 972.73 180.171 970.74 178.831 969.44C177.511 968.12 175.491 967.46 172.771 967.46H168.751V983.39ZM188.248 986V964.85H191.368V986H188.248ZM196.334 986V964.85H198.734L211.724 981.89H210.974V964.85H213.884V986H211.514L198.554 968.96H199.244V986H196.334ZM228.794 986.27C226.454 986.27 224.484 985.84 222.884 984.98C221.304 984.1 220.114 982.85 219.314 981.23C218.514 979.61 218.114 977.68 218.114 975.44C218.114 973.2 218.534 971.27 219.374 969.65C220.234 968.03 221.454 966.78 223.034 965.9C224.634 965.02 226.554 964.58 228.794 964.58C230.334 964.58 231.674 964.8 232.814 965.24C233.954 965.66 234.974 966.28 235.874 967.1L234.764 969.53C234.124 968.99 233.504 968.56 232.904 968.24C232.304 967.92 231.684 967.69 231.044 967.55C230.404 967.39 229.654 967.31 228.794 967.31C226.374 967.31 224.534 968.02 223.274 969.44C222.014 970.86 221.384 972.87 221.384 975.47C221.384 978.11 221.984 980.12 223.184 981.5C224.404 982.88 226.314 983.57 228.914 983.57C229.814 983.57 230.704 983.49 231.584 983.33C232.464 983.15 233.314 982.89 234.134 982.55L233.534 984.02V977.09H228.314V974.75H236.144V984.74C235.224 985.2 234.094 985.57 232.754 985.85C231.434 986.13 230.114 986.27 228.794 986.27ZM248.892 986V964.85H257.862C260.122 964.85 261.852 965.4 263.052 966.5C264.272 967.58 264.882 969.08 264.882 971C264.882 972.92 264.272 974.43 263.052 975.53C261.852 976.63 260.122 977.18 257.862 977.18H252.012V986H248.892ZM252.012 974.69H257.532C258.952 974.69 260.022 974.37 260.742 973.73C261.462 973.09 261.822 972.18 261.822 971C261.822 969.84 261.462 968.94 260.742 968.3C260.022 967.66 258.952 967.34 257.532 967.34H252.012V974.69ZM264.28 986L273.7 964.85H276.37L285.94 986H282.73L280.12 980L281.44 980.84H268.63L270.04 980L267.43 986H264.28ZM274.99 968.27L270.43 979.04L269.71 978.35H280.36L279.76 979.04L275.11 968.27H274.99ZM298.286 986.27C295.946 986.27 293.976 985.84 292.376 984.98C290.796 984.1 289.606 982.85 288.806 981.23C288.006 979.61 287.606 977.68 287.606 975.44C287.606 973.2 288.026 971.27 288.866 969.65C289.726 968.03 290.946 966.78 292.526 965.9C294.126 965.02 296.046 964.58 298.286 964.58C299.826 964.58 301.166 964.8 302.306 965.24C303.446 965.66 304.466 966.28 305.366 967.1L304.256 969.53C303.616 968.99 302.996 968.56 302.396 968.24C301.796 967.92 301.176 967.69 300.536 967.55C299.896 967.39 299.146 967.31 298.286 967.31C295.866 967.31 294.026 968.02 292.766 969.44C291.506 970.86 290.876 972.87 290.876 975.47C290.876 978.11 291.476 980.12 292.676 981.5C293.896 982.88 295.806 983.57 298.406 983.57C299.306 983.57 300.196 983.49 301.076 983.33C301.956 983.15 302.806 982.89 303.626 982.55L303.026 984.02V977.09H297.806V974.75H305.636V984.74C304.716 985.2 303.586 985.57 302.246 985.85C300.926 986.13 299.606 986.27 298.286 986.27ZM310.386 986V964.85H324.246V967.34H313.416V974H323.556V976.52H313.416V983.48H324.246V986H310.386Z" fill="black"/>
<defs>
<filter id="filter0_dddd_1304_4343" x="330" y="728" width="76" height="76" filterUnits="userSpaceOnUse" color-interpolation-filters="sRGB">
<feFlood flood-opacity="0" result="BackgroundImageFix"/>
<feColorMatrix in="SourceAlpha" type="matrix" values="0 0 0 0 0 0 0 0 0 0 0 0 0 0 0 0 0 0 127 0" result="hardAlpha"/>
<feOffset dx="-4"/>
<feGaussianBlur stdDeviation="2"/>
<feComposite in2="hardAlpha" operator="out"/>
<feColorMatrix type="matrix" values="0 0 0 0 0 0 0 0 0 0 0 0 0 0 0 0 0 0 0.15 0"/>
<feBlend mode="normal" in2="BackgroundImageFix" result="effect1_dropShadow_1304_4343"/>
<feColorMatrix in="SourceAlpha" type="matrix" values="0 0 0 0 0 0 0 0 0 0 0 0 0 0 0 0 0 0 127 0" result="hardAlpha"/>
<feOffset dy="-4"/>
<feGaussianBlur stdDeviation="2"/>
<feComposite in2="hardAlpha" operator="out"/>
<feColorMatrix type="matrix" values="0 0 0 0 0 0 0 0 0 0 0 0 0 0 0 0 0 0 0.15 0"/>
<feBlend mode="normal" in2="effect1_dropShadow_1304_4343" result="effect2_dropShadow_1304_4343"/>
<feColorMatrix in="SourceAlpha" type="matrix" values="0 0 0 0 0 0 0 0 0 0 0 0 0 0 0 0 0 0 127 0" result="hardAlpha"/>
<feOffset dx="4"/>
<feGaussianBlur stdDeviation="2"/>
<feComposite in2="hardAlpha" operator="out"/>
<feColorMatrix type="matrix" values="0 0 0 0 0 0 0 0 0 0 0 0 0 0 0 0 0 0 0.15 0"/>
<feBlend mode="normal" in2="effect2_dropShadow_1304_4343" result="effect3_dropShadow_1304_4343"/>
<feColorMatrix in="SourceAlpha" type="matrix" values="0 0 0 0 0 0 0 0 0 0 0 0 0 0 0 0 0 0 127 0" result="hardAlpha"/>
<feOffset dy="4"/>
<feGaussianBlur stdDeviation="2"/>
<feComposite in2="hardAlpha" operator="out"/>
<feColorMatrix type="matrix" values="0 0 0 0 0 0 0 0 0 0 0 0 0 0 0 0 0 0 0.15 0"/>
<feBlend mode="normal" in2="effect3_dropShadow_1304_4343" result="effect4_dropShadow_1304_4343"/>
<feBlend mode="normal" in="SourceGraphic" in2="effect4_dropShadow_1304_4343" result="shape"/>
</filter>
<clipPath id="clip0_1304_4343">
<rect width="428" height="926" fill="white"/>
</clipPath>
</defs>
</svg>
