<svg width="428" height="994" viewBox="0 0 428 994" fill="none" xmlns="http://www.w3.org/2000/svg">
<g clip-path="url(#clip0_1304_4346)">
<rect width="428" height="926" fill="white"/>
<path d="M33.5336 25.9711C32.7225 25.9944 31.9276 25.7408 31.2798 25.2522C30.6686 24.7857 30.2601 24.1022 30.1386 23.343H31.8549C31.9555 23.6941 32.1739 24 32.4734 24.2091C32.789 24.4255 33.1649 24.5365 33.5473 24.5264C33.8809 24.5333 34.2102 24.4505 34.5007 24.2864C34.7912 24.1224 35.0323 23.8832 35.1986 23.594C35.6364 22.8036 35.8424 21.9057 35.7932 21.0035H35.6791C35.4614 21.4507 35.1143 21.8221 34.6828 22.0694C34.2236 22.327 33.704 22.4574 33.1776 22.4471C32.7557 22.4598 32.3357 22.3853 31.944 22.2282C31.5522 22.0711 31.1971 21.8348 30.9009 21.5342C30.6032 21.2317 30.37 20.8719 30.2154 20.4766C30.0608 20.0814 29.9881 19.6588 30.0016 19.2346C29.9872 18.7802 30.0695 18.3279 30.243 17.9077C30.4165 17.4875 30.6773 17.1089 31.0081 16.797C31.6132 16.2733 32.3645 15.9479 33.1604 15.8649C33.9564 15.7818 34.7586 15.9451 35.4588 16.3326C36.0184 16.6748 36.4704 17.1675 36.7632 17.7545C37.25 18.6951 37.4859 19.7454 37.4479 20.8038C37.5275 22.1503 37.1631 23.4857 36.4106 24.6051C36.0788 25.0502 35.6432 25.4074 35.1418 25.6455C34.6403 25.8836 34.0882 25.9954 33.5336 25.9711V25.9711ZM32.2292 20.5504C32.4092 20.7277 32.6235 20.8664 32.859 20.9578C33.0945 21.0493 33.3462 21.0916 33.5987 21.0822C33.8507 21.0903 34.1018 21.0478 34.337 20.957C34.5722 20.8662 34.7869 20.7291 34.9681 20.5539C35.1462 20.3807 35.2863 20.1724 35.3794 19.9421C35.4726 19.7118 35.5167 19.4647 35.509 19.2164C35.5151 18.9629 35.4696 18.7109 35.3755 18.4755C35.2813 18.2402 35.1404 18.0263 34.9613 17.8469C34.5991 17.5023 34.1168 17.3123 33.6169 17.3174C33.1169 17.3225 32.6386 17.5222 32.2835 17.8742C31.9284 18.2262 31.7245 18.7027 31.715 19.2026C31.7055 19.7025 31.8912 20.1864 32.2327 20.5516L32.2292 20.5504Z" fill="#111111"/>
<path d="M39.4052 18.6421C39.3997 18.495 39.4241 18.3483 39.4771 18.211C39.5301 18.0736 39.6105 17.9485 39.7134 17.8433C39.8215 17.7395 39.9496 17.6588 40.0898 17.606C40.2301 17.5532 40.3796 17.5295 40.5293 17.5363C40.6776 17.5315 40.8253 17.5566 40.9637 17.6101C41.1021 17.6635 41.2284 17.7443 41.3349 17.8475C41.4415 17.9507 41.5263 18.0743 41.5841 18.2109C41.642 18.3475 41.6718 18.4943 41.6718 18.6427C41.6718 18.791 41.642 18.9379 41.5841 19.0745C41.5263 19.2111 41.4415 19.3347 41.3349 19.4379C41.2284 19.5411 41.1021 19.6218 40.9637 19.6753C40.8253 19.7287 40.6776 19.7538 40.5293 19.7491C40.3796 19.7559 40.2301 19.7322 40.0898 19.6794C39.9496 19.6266 39.8215 19.5459 39.7134 19.4421C39.6099 19.337 39.5292 19.2117 39.4762 19.0741C39.4232 18.9365 39.3991 18.7895 39.4052 18.6421V18.6421ZM39.4052 23.6839C39.3992 23.5368 39.4234 23.3899 39.4764 23.2525C39.5294 23.1151 39.6101 22.9901 39.7134 22.8851C39.8213 22.7811 39.9494 22.7002 40.0897 22.6474C40.23 22.5946 40.3796 22.571 40.5293 22.5781C40.6776 22.5733 40.8253 22.5984 40.9637 22.6519C41.1021 22.7053 41.2284 22.7861 41.3349 22.8893C41.4415 22.9925 41.5263 23.1161 41.5841 23.2527C41.642 23.3893 41.6718 23.5361 41.6718 23.6845C41.6718 23.8328 41.642 23.9797 41.5841 24.1163C41.5263 24.2529 41.4415 24.3765 41.3349 24.4797C41.2284 24.5829 41.1021 24.6636 40.9637 24.7171C40.8253 24.7705 40.6776 24.7956 40.5293 24.7909C40.3795 24.7977 40.2299 24.7739 40.0896 24.7209C39.9493 24.668 39.8213 24.5869 39.7134 24.4827C39.6104 24.3775 39.53 24.2524 39.477 24.1151C39.424 23.9777 39.3996 23.831 39.4052 23.6839Z" fill="#111111"/>
<path d="M48.31 25.7426V23.9441H43.5957V22.4057C44.3808 20.9602 45.6917 18.8562 47.5283 16.0938H49.9613V22.4845H51.2657V23.9429H49.9613V25.7426H48.31ZM45.1945 22.4263V22.5267H48.3362V17.4974H48.2415C47.1992 19.038 46.1836 20.681 45.1945 22.4263V22.4263Z" fill="#111111"/>
<path d="M55.2186 25.7426V17.8318H55.1045L52.708 19.5173V17.8592L55.2289 16.0938H56.9476V25.7426H55.2186Z" fill="#111111"/>
<path d="M69.7406 25.7426L68.9258 23.2753H65.3744L64.5458 25.7426H62.7998L66.2234 16.0938H68.1634L71.5927 25.7426H69.7406ZM67.0998 17.9322L65.7761 21.9116H68.5241L67.214 17.9322H67.0998Z" fill="#111111"/>
<path d="M74.8565 25.7421H73.252V16.0933H75.2708L78.1729 23.1173H78.2927L81.1948 16.0898H83.2148V25.7421H81.6102V18.9554H81.5166L78.8485 25.3678H77.6182L74.9455 18.9554H74.8519L74.8565 25.7421Z" fill="#111111"/>
<path d="M359.489 22.8055C359.522 22.7722 359.549 22.7324 359.567 22.6884C359.585 22.6445 359.593 22.5974 359.592 22.55C359.591 22.5026 359.581 22.4558 359.561 22.4127C359.542 22.3695 359.513 22.3308 359.478 22.2988C358.794 21.7203 357.927 21.4029 357.032 21.4029C356.136 21.4029 355.269 21.7203 354.585 22.2988C354.55 22.3304 354.521 22.3688 354.502 22.4119C354.482 22.4549 354.471 22.5015 354.471 22.5488C354.469 22.5963 354.478 22.6436 354.496 22.6878C354.513 22.7319 354.54 22.772 354.573 22.8055L356.786 25.0377C356.818 25.0703 356.856 25.0962 356.898 25.1139C356.94 25.1316 356.985 25.1407 357.031 25.1407C357.077 25.1407 357.122 25.1316 357.164 25.1139C357.206 25.0962 357.244 25.0703 357.276 25.0377L359.489 22.8055ZM357.032 19.7243C358.381 19.7241 359.682 20.2251 360.683 21.1303C360.747 21.1926 360.833 21.2276 360.922 21.2276C361.012 21.2276 361.098 21.1926 361.162 21.1303L362.441 19.8373C362.474 19.8038 362.501 19.764 362.519 19.7202C362.537 19.6764 362.545 19.6295 362.545 19.5822C362.544 19.5348 362.534 19.4881 362.516 19.4447C362.497 19.4013 362.469 19.3621 362.435 19.3294C360.968 17.9647 359.039 17.206 357.036 17.206C355.032 17.206 353.103 17.9647 351.636 19.3294C351.601 19.3616 351.573 19.4005 351.553 19.4439C351.534 19.4872 351.523 19.5341 351.522 19.5816C351.521 19.629 351.53 19.676 351.548 19.7199C351.566 19.7638 351.592 19.8037 351.626 19.8373L352.904 21.1303C352.968 21.1933 353.054 21.2287 353.144 21.2287C353.234 21.2287 353.32 21.1933 353.384 21.1303C354.383 20.2245 355.683 19.7222 357.032 19.7209V19.7243ZM357.032 15.5224C359.485 15.5221 361.845 16.4647 363.623 18.1551C363.687 18.2182 363.773 18.2536 363.863 18.2536C363.953 18.2536 364.04 18.2182 364.104 18.1551L365.383 16.8633C365.416 16.8302 365.443 16.7907 365.461 16.7472C365.478 16.7037 365.487 16.657 365.487 16.61C365.487 16.563 365.478 16.5165 365.459 16.4733C365.441 16.4301 365.414 16.3911 365.379 16.3589C363.133 14.2059 360.142 13.0039 357.03 13.0039C353.919 13.0039 350.928 14.2059 348.681 16.3589C348.648 16.3915 348.621 16.4305 348.603 16.4736C348.584 16.5167 348.574 16.5631 348.574 16.61C348.574 16.6569 348.583 16.7035 348.601 16.747C348.619 16.7905 348.645 16.83 348.678 16.8633L349.96 18.1551C350.024 18.2179 350.11 18.253 350.199 18.253C350.289 18.253 350.375 18.2179 350.439 18.1551C352.217 16.463 354.577 15.5191 357.032 15.519V15.5224Z" fill="#111111"/>
<path d="M340.794 13.3711H341.901C342.046 13.3709 342.19 13.3995 342.325 13.455C342.459 13.5106 342.581 13.5921 342.684 13.6949C342.787 13.7977 342.869 13.9198 342.924 14.0542C342.98 14.1886 343.009 14.3326 343.009 14.4781V24.0744C343.009 24.2199 342.98 24.364 342.925 24.4985C342.869 24.6329 342.788 24.755 342.685 24.8579C342.582 24.9607 342.459 25.0422 342.325 25.0977C342.19 25.1532 342.046 25.1817 341.901 25.1814H340.794C340.5 25.1814 340.219 25.0647 340.011 24.8571C339.803 24.6495 339.687 24.368 339.687 24.0744V14.4781C339.687 14.1845 339.803 13.9029 340.011 13.6953C340.219 13.4877 340.5 13.3711 340.794 13.3711V13.3711ZM335.628 15.9548H336.735C336.88 15.9546 337.024 15.9831 337.159 16.0387C337.293 16.0943 337.415 16.1758 337.518 16.2786C337.621 16.3814 337.703 16.5035 337.758 16.6379C337.814 16.7722 337.843 16.9163 337.843 17.0617V24.0744C337.843 24.2199 337.814 24.3639 337.758 24.4983C337.703 24.6327 337.621 24.7547 337.518 24.8575C337.415 24.9604 337.293 25.0419 337.159 25.0974C337.024 25.153 336.88 25.1815 336.735 25.1814H335.628C335.482 25.1817 335.338 25.1532 335.204 25.0977C335.069 25.0422 334.947 24.9607 334.844 24.8578C334.741 24.755 334.66 24.6328 334.604 24.4984C334.549 24.3639 334.52 24.2199 334.521 24.0744V17.0617C334.52 16.9163 334.549 16.7723 334.605 16.6379C334.66 16.5036 334.742 16.3815 334.844 16.2787C334.947 16.1758 335.069 16.0943 335.204 16.0387C335.338 15.9831 335.482 15.9546 335.628 15.9548V15.9548ZM330.46 18.5384H331.568C331.862 18.5387 332.143 18.6555 332.351 18.863C332.558 19.0705 332.675 19.3519 332.675 19.6454V24.0744C332.675 24.368 332.559 24.6495 332.351 24.8571C332.143 25.0647 331.862 25.1814 331.568 25.1814H330.46C330.315 25.1815 330.171 25.153 330.036 25.0974C329.902 25.0418 329.78 24.9603 329.677 24.8575C329.574 24.7547 329.493 24.6326 329.437 24.4982C329.382 24.3638 329.353 24.2198 329.353 24.0744V19.6454C329.353 19.3518 329.47 19.0703 329.677 18.8627C329.885 18.6551 330.167 18.5384 330.46 18.5384V18.5384ZM325.292 20.7535H326.399C326.692 20.7535 326.974 20.8701 327.181 21.0777C327.389 21.2853 327.506 21.5669 327.506 21.8605V24.0744C327.506 24.2198 327.477 24.3638 327.422 24.4982C327.366 24.6326 327.285 24.7547 327.182 24.8575C327.079 24.9603 326.957 25.0418 326.822 25.0974C326.688 25.153 326.544 25.1815 326.399 25.1814H325.292C325.146 25.1815 325.002 25.153 324.868 25.0974C324.733 25.0419 324.611 24.9604 324.508 24.8575C324.405 24.7547 324.324 24.6327 324.268 24.4983C324.212 24.3639 324.184 24.2199 324.184 24.0744V21.8628C324.183 21.7171 324.212 21.5729 324.268 21.4384C324.323 21.3038 324.405 21.1815 324.508 21.0785C324.611 20.9755 324.733 20.8937 324.867 20.838C325.002 20.7822 325.146 20.7535 325.292 20.7535Z" fill="#111111"/>
<path d="M392.472 14.1081C392.962 14.1087 393.43 14.3034 393.776 14.6493C394.122 14.9953 394.316 15.4643 394.317 15.9534V22.5975C394.316 23.0866 394.122 23.5556 393.776 23.9016C393.43 24.2476 392.962 24.4422 392.472 24.4428H374.015C373.526 24.4422 373.057 24.2476 372.711 23.9016C372.365 23.5556 372.171 23.0866 372.17 22.5975V15.9534C372.171 15.4643 372.365 14.9953 372.711 14.6493C373.057 14.3034 373.526 14.1087 374.015 14.1081H392.472V14.1081ZM392.472 13H374.015C373.627 13.0001 373.243 13.0767 372.885 13.2252C372.527 13.3737 372.201 13.5913 371.927 13.8655C371.653 14.1398 371.436 14.4653 371.288 14.8235C371.14 15.1818 371.063 15.5657 371.063 15.9534V22.5975C371.063 22.9852 371.14 23.3691 371.288 23.7274C371.436 24.0856 371.653 24.4111 371.927 24.6854C372.201 24.9596 372.527 25.1772 372.885 25.3257C373.243 25.4743 373.627 25.5508 374.015 25.5509H392.472C392.86 25.5508 393.244 25.4743 393.602 25.3257C393.96 25.1772 394.286 24.9596 394.56 24.6854C394.834 24.4111 395.051 24.0856 395.199 23.7274C395.347 23.3691 395.424 22.9852 395.424 22.5975V15.9534C395.424 15.5657 395.347 15.1818 395.199 14.8235C395.051 14.4653 394.834 14.1398 394.56 13.8655C394.286 13.5913 393.96 13.3737 393.602 13.2252C393.244 13.0767 392.86 13.0001 392.472 13V13Z" fill="#111111"/>
<path d="M396.531 17.0586V21.4887C396.967 21.3052 397.339 20.9971 397.601 20.6031C397.863 20.2091 398.002 19.7466 398.002 19.2737C398.002 18.8007 397.863 18.3382 397.601 17.9442C397.339 17.5502 396.967 17.2421 396.531 17.0586Z" fill="#111111"/>
<path d="M374.756 15.2148H391.734C391.928 15.2148 392.12 15.253 392.299 15.3273C392.478 15.4015 392.641 15.5102 392.778 15.6474C392.915 15.7845 393.024 15.9473 393.098 16.1264C393.172 16.3056 393.21 16.4976 393.21 16.6916V21.8589C393.21 22.053 393.172 22.2452 393.098 22.4245C393.024 22.6038 392.915 22.7667 392.777 22.9039C392.64 23.0411 392.477 23.15 392.298 23.2243C392.119 23.2985 391.927 23.3368 391.732 23.3368H374.756C374.364 23.3368 373.988 23.1811 373.711 22.9039C373.434 22.6268 373.278 22.2509 373.278 21.8589V16.6927C373.278 16.3007 373.434 15.9248 373.711 15.6477C373.988 15.3705 374.364 15.2148 374.756 15.2148V15.2148Z" fill="#111111"/>
<rect x="99" y="250" width="230" height="400" rx="25" fill="#EFEFEF"/>
<rect x="146" y="293" width="135" height="22" fill="#D2D2D2"/>
<rect x="153" y="385" width="121" height="22" fill="#D2D2D2"/>
<rect x="160" y="338" width="107" height="32" fill="#D2D2D2"/>
<rect x="165" y="453" width="80" height="20" fill="#D2D2D2"/>
<rect x="136" y="453" width="19.9995" height="20" fill="#CECECE"/>
<line y1="-0.5" x2="28.2483" y2="-0.5" transform="matrix(0.707997 0.706216 -0.476316 0.879274 136 453.051)" stroke="#868686"/>
<line y1="-0.5" x2="28.2471" y2="-0.5" transform="matrix(0.708038 -0.706174 0.476273 0.879298 136 472.996)" stroke="#868686"/>
<rect x="165" y="484" width="80" height="20" fill="#D2D2D2"/>
<rect x="136" y="484" width="19.9995" height="20" fill="#CECECE"/>
<line y1="-0.5" x2="28.2483" y2="-0.5" transform="matrix(0.707997 0.706216 -0.476316 0.879274 136 484.051)" stroke="#868686"/>
<line y1="-0.5" x2="28.2471" y2="-0.5" transform="matrix(0.708038 -0.706174 0.476273 0.879298 136 503.996)" stroke="#868686"/>
<rect x="165" y="515" width="80" height="20" fill="#D2D2D2"/>
<rect x="136" y="515" width="19.9995" height="20" fill="#CECECE"/>
<line y1="-0.5" x2="28.2483" y2="-0.5" transform="matrix(0.707997 0.706216 -0.476316 0.879274 136 515.051)" stroke="#868686"/>
<line y1="-0.5" x2="28.2471" y2="-0.5" transform="matrix(0.708038 -0.706174 0.476273 0.879298 136 534.996)" stroke="#868686"/>
<rect x="165" y="546" width="80" height="20" fill="#D2D2D2"/>
<rect x="136" y="546" width="19.9995" height="20" fill="#CECECE"/>
<line y1="-0.5" x2="28.2483" y2="-0.5" transform="matrix(0.707997 0.706216 -0.476316 0.879274 136 546.051)" stroke="#868686"/>
<line y1="-0.5" x2="28.2471" y2="-0.5" transform="matrix(0.708038 -0.706174 0.476273 0.879298 136 565.996)" stroke="#868686"/>
<rect x="140" y="598" width="148" height="32" rx="5" fill="#D2D2D2"/>
<path d="M177.6 619.126C176.592 619.126 175.733 618.921 175.024 618.51C174.315 618.099 173.769 617.516 173.386 616.76C173.013 615.995 172.826 615.094 172.826 614.058C172.826 613.022 173.013 612.126 173.386 611.37C173.769 610.614 174.315 610.031 175.024 609.62C175.733 609.209 176.592 609.004 177.6 609.004C178.3 609.004 178.925 609.107 179.476 609.312C180.027 609.517 180.507 609.816 180.918 610.208L180.414 611.37C179.966 610.987 179.527 610.712 179.098 610.544C178.678 610.376 178.188 610.292 177.628 610.292C176.564 610.292 175.752 610.619 175.192 611.272C174.632 611.925 174.352 612.854 174.352 614.058C174.352 615.262 174.632 616.195 175.192 616.858C175.752 617.511 176.564 617.838 177.628 617.838C178.188 617.838 178.678 617.754 179.098 617.586C179.527 617.418 179.966 617.138 180.414 616.746L180.918 617.908C180.507 618.3 180.027 618.603 179.476 618.818C178.925 619.023 178.3 619.126 177.6 619.126ZM182.62 619V608.696H184.034V613.442H183.838C184.043 612.91 184.375 612.509 184.832 612.238C185.289 611.958 185.817 611.818 186.414 611.818C187.254 611.818 187.879 612.051 188.29 612.518C188.701 612.975 188.906 613.671 188.906 614.604V619H187.492V614.688C187.492 614.081 187.371 613.643 187.128 613.372C186.895 613.092 186.521 612.952 186.008 612.952C185.411 612.952 184.93 613.139 184.566 613.512C184.211 613.876 184.034 614.361 184.034 614.968V619H182.62ZM193.943 619.126C193.243 619.126 192.636 618.981 192.123 618.692C191.609 618.393 191.213 617.973 190.933 617.432C190.653 616.881 190.513 616.228 190.513 615.472C190.513 614.716 190.653 614.067 190.933 613.526C191.213 612.975 191.609 612.555 192.123 612.266C192.636 611.967 193.243 611.818 193.943 611.818C194.643 611.818 195.249 611.967 195.763 612.266C196.285 612.555 196.687 612.975 196.967 613.526C197.256 614.067 197.401 614.716 197.401 615.472C197.401 616.228 197.256 616.881 196.967 617.432C196.687 617.973 196.285 618.393 195.763 618.692C195.249 618.981 194.643 619.126 193.943 619.126ZM193.943 618.02C194.559 618.02 195.049 617.805 195.413 617.376C195.777 616.947 195.959 616.312 195.959 615.472C195.959 614.632 195.777 614.002 195.413 613.582C195.049 613.153 194.559 612.938 193.943 612.938C193.336 612.938 192.851 613.153 192.487 613.582C192.123 614.002 191.941 614.632 191.941 615.472C191.941 616.312 192.118 616.947 192.473 617.376C192.837 617.805 193.327 618.02 193.943 618.02ZM202.078 619.126C201.378 619.126 200.771 618.981 200.258 618.692C199.744 618.393 199.348 617.973 199.068 617.432C198.788 616.881 198.648 616.228 198.648 615.472C198.648 614.716 198.788 614.067 199.068 613.526C199.348 612.975 199.744 612.555 200.258 612.266C200.771 611.967 201.378 611.818 202.078 611.818C202.778 611.818 203.384 611.967 203.898 612.266C204.42 612.555 204.822 612.975 205.102 613.526C205.391 614.067 205.536 614.716 205.536 615.472C205.536 616.228 205.391 616.881 205.102 617.432C204.822 617.973 204.42 618.393 203.898 618.692C203.384 618.981 202.778 619.126 202.078 619.126ZM202.078 618.02C202.694 618.02 203.184 617.805 203.548 617.376C203.912 616.947 204.094 616.312 204.094 615.472C204.094 614.632 203.912 614.002 203.548 613.582C203.184 613.153 202.694 612.938 202.078 612.938C201.471 612.938 200.986 613.153 200.622 613.582C200.258 614.002 200.076 614.632 200.076 615.472C200.076 616.312 200.253 616.947 200.608 617.376C200.972 617.805 201.462 618.02 202.078 618.02ZM209.61 619.126C209.022 619.126 208.481 619.051 207.986 618.902C207.492 618.753 207.081 618.543 206.754 618.272L207.188 617.306C207.534 617.567 207.916 617.763 208.336 617.894C208.756 618.025 209.186 618.09 209.624 618.09C210.138 618.09 210.525 618.001 210.786 617.824C211.048 617.637 211.178 617.385 211.178 617.068C211.178 616.825 211.094 616.629 210.926 616.48C210.768 616.331 210.502 616.219 210.128 616.144L208.784 615.878C208.187 615.747 207.734 615.523 207.426 615.206C207.118 614.889 206.964 614.483 206.964 613.988C206.964 613.568 207.076 613.195 207.3 612.868C207.534 612.541 207.86 612.285 208.28 612.098C208.71 611.911 209.209 611.818 209.778 611.818C210.301 611.818 210.786 611.893 211.234 612.042C211.682 612.191 212.056 612.406 212.354 612.686L211.906 613.624C211.617 613.381 211.29 613.195 210.926 613.064C210.562 612.924 210.194 612.854 209.82 612.854C209.298 612.854 208.91 612.952 208.658 613.148C208.406 613.344 208.28 613.601 208.28 613.918C208.28 614.161 208.355 614.361 208.504 614.52C208.663 614.669 208.91 614.786 209.246 614.87L210.59 615.136C211.225 615.267 211.701 615.481 212.018 615.78C212.336 616.079 212.494 616.48 212.494 616.984C212.494 617.423 212.373 617.805 212.13 618.132C211.888 618.459 211.552 618.706 211.122 618.874C210.693 619.042 210.189 619.126 209.61 619.126ZM217.423 619.126C216.284 619.126 215.388 618.804 214.735 618.16C214.082 617.516 213.755 616.625 213.755 615.486C213.755 614.749 213.895 614.105 214.175 613.554C214.464 613.003 214.861 612.579 215.365 612.28C215.878 611.972 216.471 611.818 217.143 611.818C217.806 611.818 218.361 611.958 218.809 612.238C219.257 612.518 219.598 612.915 219.831 613.428C220.064 613.932 220.181 614.529 220.181 615.22V615.668H214.861V614.856H219.215L218.977 615.038C218.977 614.338 218.818 613.797 218.501 613.414C218.193 613.022 217.745 612.826 217.157 612.826C216.504 612.826 216 613.055 215.645 613.512C215.29 613.96 215.113 614.581 215.113 615.374V615.514C215.113 616.345 215.314 616.97 215.715 617.39C216.126 617.81 216.704 618.02 217.451 618.02C217.862 618.02 218.244 617.964 218.599 617.852C218.963 617.731 219.308 617.535 219.635 617.264L220.097 618.23C219.77 618.519 219.374 618.743 218.907 618.902C218.44 619.051 217.946 619.126 217.423 619.126ZM225.662 619V609.13H229.848C230.903 609.13 231.71 609.387 232.27 609.9C232.839 610.404 233.124 611.104 233.124 612C233.124 612.896 232.839 613.601 232.27 614.114C231.71 614.627 230.903 614.884 229.848 614.884H227.118V619H225.662ZM227.118 613.722H229.694C230.357 613.722 230.856 613.573 231.192 613.274C231.528 612.975 231.696 612.551 231.696 612C231.696 611.459 231.528 611.039 231.192 610.74C230.856 610.441 230.357 610.292 229.694 610.292H227.118V613.722ZM234.751 619V608.696H236.165V619H234.751ZM240.939 619.126C240.314 619.126 239.768 618.981 239.301 618.692C238.835 618.403 238.471 617.983 238.209 617.432C237.957 616.881 237.831 616.228 237.831 615.472C237.831 614.707 237.957 614.053 238.209 613.512C238.471 612.971 238.835 612.555 239.301 612.266C239.768 611.967 240.314 611.818 240.939 611.818C241.555 611.818 242.092 611.972 242.549 612.28C243.007 612.588 243.31 613.008 243.459 613.54H243.305L243.445 611.944H244.817C244.789 612.233 244.761 612.523 244.733 612.812C244.715 613.092 244.705 613.367 244.705 613.638V619H243.291V617.432H243.445C243.296 617.955 242.988 618.37 242.521 618.678C242.064 618.977 241.537 619.126 240.939 619.126ZM241.289 618.02C241.896 618.02 242.381 617.805 242.745 617.376C243.119 616.947 243.305 616.312 243.305 615.472C243.305 614.632 243.119 614.002 242.745 613.582C242.381 613.153 241.896 612.938 241.289 612.938C240.673 612.938 240.179 613.153 239.805 613.582C239.441 614.002 239.259 614.632 239.259 615.472C239.259 616.312 239.441 616.947 239.805 617.376C240.169 617.805 240.664 618.02 241.289 618.02ZM246.768 619V613.638C246.768 613.367 246.754 613.092 246.726 612.812C246.708 612.523 246.684 612.233 246.656 611.944H248.028L248.154 613.428H247.986C248.201 612.905 248.532 612.509 248.98 612.238C249.428 611.958 249.946 611.818 250.534 611.818C251.365 611.818 251.99 612.047 252.41 612.504C252.84 612.961 253.054 613.671 253.054 614.632V619H251.64V614.716C251.64 614.091 251.514 613.643 251.262 613.372C251.02 613.092 250.646 612.952 250.142 612.952C249.545 612.952 249.069 613.139 248.714 613.512C248.36 613.876 248.182 614.371 248.182 614.996V619H246.768Z" fill="#353535"/>
<rect x="-172" y="250" width="230" height="400" rx="25" fill="#EFEFEF"/>
<rect x="-125" y="293" width="135" height="22" fill="#D2D2D2"/>
<rect x="-118" y="385" width="121" height="22" fill="#D2D2D2"/>
<rect x="-131" y="598" width="148" height="32" rx="5" fill="#D2D2D2"/>
<rect x="370" y="250" width="230" height="400" rx="25" fill="#EFEFEF"/>
<rect x="417" y="293" width="135" height="22" fill="#D2D2D2"/>
<rect x="424" y="385" width="121" height="22" fill="#D2D2D2"/>
<rect x="407" y="453" width="19.9995" height="20" fill="#CECECE"/>
<line y1="-0.5" x2="28.2483" y2="-0.5" transform="matrix(0.707997 0.706216 -0.476316 0.879274 407 453.051)" stroke="#868686"/>
<line y1="-0.5" x2="28.2471" y2="-0.5" transform="matrix(0.708038 -0.706174 0.476273 0.879298 407 472.996)" stroke="#868686"/>
<rect x="407" y="484" width="19.9995" height="20" fill="#CECECE"/>
<line y1="-0.5" x2="28.2483" y2="-0.5" transform="matrix(0.707997 0.706216 -0.476316 0.879274 407 484.051)" stroke="#868686"/>
<line y1="-0.5" x2="28.2471" y2="-0.5" transform="matrix(0.708038 -0.706174 0.476273 0.879298 407 503.996)" stroke="#868686"/>
<rect x="407" y="515" width="19.9995" height="20" fill="#CECECE"/>
<line y1="-0.5" x2="28.2483" y2="-0.5" transform="matrix(0.707997 0.706216 -0.476316 0.879274 407 515.051)" stroke="#868686"/>
<line y1="-0.5" x2="28.2471" y2="-0.5" transform="matrix(0.708038 -0.706174 0.476273 0.879298 407 534.996)" stroke="#868686"/>
<rect x="407" y="546" width="19.9995" height="20" fill="#CECECE"/>
<line y1="-0.5" x2="28.2483" y2="-0.5" transform="matrix(0.707997 0.706216 -0.476316 0.879274 407 546.051)" stroke="#868686"/>
<line y1="-0.5" x2="28.2471" y2="-0.5" transform="matrix(0.708038 -0.706174 0.476273 0.879298 407 565.996)" stroke="#868686"/>
<rect x="411" y="598" width="148" height="32" rx="5" fill="#D2D2D2"/>
<rect x="71" y="142" width="285" height="18" fill="#D2D2D2"/>
<rect x="139" y="170" width="149" height="18" fill="#D2D2D2"/>
<path d="M131.63 111.27C129.93 111.27 128.39 111.06 127.01 110.64C125.63 110.2 124.43 109.58 123.41 108.78L124.46 106.32C125.14 106.84 125.84 107.27 126.56 107.61C127.3 107.95 128.08 108.21 128.9 108.39C129.74 108.55 130.65 108.63 131.63 108.63C133.31 108.63 134.54 108.33 135.32 107.73C136.12 107.13 136.52 106.34 136.52 105.36C136.52 104.52 136.24 103.87 135.68 103.41C135.14 102.95 134.18 102.58 132.8 102.3L129.53 101.64C127.59 101.24 126.14 100.59 125.18 99.69C124.24 98.77 123.77 97.52 123.77 95.94C123.77 94.66 124.11 93.54 124.79 92.58C125.47 91.62 126.41 90.88 127.61 90.36C128.83 89.84 130.25 89.58 131.87 89.58C133.37 89.58 134.75 89.8 136.01 90.24C137.27 90.66 138.33 91.29 139.19 92.13L138.17 94.5C137.27 93.72 136.31 93.15 135.29 92.79C134.27 92.41 133.11 92.22 131.81 92.22C130.27 92.22 129.06 92.54 128.18 93.18C127.32 93.82 126.89 94.69 126.89 95.79C126.89 96.67 127.16 97.36 127.7 97.86C128.26 98.36 129.18 98.74 130.46 99L133.73 99.63C135.75 100.05 137.24 100.7 138.2 101.58C139.16 102.44 139.64 103.63 139.64 105.15C139.64 106.37 139.31 107.44 138.65 108.36C138.01 109.28 137.09 110 135.89 110.52C134.69 111.02 133.27 111.27 131.63 111.27ZM150.194 111.27C147.754 111.27 145.834 110.58 144.434 109.2C143.034 107.82 142.334 105.91 142.334 103.47C142.334 101.89 142.634 100.51 143.234 99.33C143.854 98.15 144.704 97.24 145.784 96.6C146.884 95.94 148.154 95.61 149.594 95.61C151.014 95.61 152.204 95.91 153.164 96.51C154.124 97.11 154.854 97.96 155.354 99.06C155.854 100.14 156.104 101.42 156.104 102.9V103.86H144.704V102.12H154.034L153.524 102.51C153.524 101.01 153.184 99.85 152.504 99.03C151.844 98.19 150.884 97.77 149.624 97.77C148.224 97.77 147.144 98.26 146.384 99.24C145.624 100.2 145.244 101.53 145.244 103.23V103.53C145.244 105.31 145.674 106.65 146.534 107.55C147.414 108.45 148.654 108.9 150.254 108.9C151.134 108.9 151.954 108.78 152.714 108.54C153.494 108.28 154.234 107.86 154.934 107.28L155.924 109.35C155.224 109.97 154.374 110.45 153.374 110.79C152.374 111.11 151.314 111.27 150.194 111.27ZM159.581 111V88.92H162.611V111H159.581ZM174.042 111.27C171.602 111.27 169.682 110.58 168.282 109.2C166.882 107.82 166.182 105.91 166.182 103.47C166.182 101.89 166.482 100.51 167.082 99.33C167.702 98.15 168.552 97.24 169.632 96.6C170.732 95.94 172.002 95.61 173.442 95.61C174.862 95.61 176.052 95.91 177.012 96.51C177.972 97.11 178.702 97.96 179.202 99.06C179.702 100.14 179.952 101.42 179.952 102.9V103.86H168.552V102.12H177.882L177.372 102.51C177.372 101.01 177.032 99.85 176.352 99.03C175.692 98.19 174.732 97.77 173.472 97.77C172.072 97.77 170.992 98.26 170.232 99.24C169.472 100.2 169.092 101.53 169.092 103.23V103.53C169.092 105.31 169.522 106.65 170.382 107.55C171.262 108.45 172.502 108.9 174.102 108.9C174.982 108.9 175.802 108.78 176.562 108.54C177.342 108.28 178.082 107.86 178.782 107.28L179.772 109.35C179.072 109.97 178.222 110.45 177.222 110.79C176.222 111.11 175.162 111.27 174.042 111.27ZM190.059 111.27C188.539 111.27 187.209 110.96 186.069 110.34C184.949 109.7 184.079 108.79 183.459 107.61C182.859 106.41 182.559 104.99 182.559 103.35C182.559 101.73 182.869 100.34 183.489 99.18C184.109 98.02 184.979 97.14 186.099 96.54C187.219 95.92 188.539 95.61 190.059 95.61C191.039 95.61 191.989 95.78 192.909 96.12C193.829 96.44 194.589 96.9 195.189 97.5L194.199 99.63C193.639 99.09 193.009 98.69 192.309 98.43C191.609 98.15 190.929 98.01 190.269 98.01C188.829 98.01 187.699 98.47 186.879 99.39C186.059 100.31 185.649 101.64 185.649 103.38C185.649 105.14 186.059 106.49 186.879 107.43C187.699 108.37 188.829 108.84 190.269 108.84C190.909 108.84 191.579 108.72 192.279 108.48C192.979 108.22 193.619 107.81 194.199 107.25L195.189 109.38C194.569 109.98 193.789 110.45 192.849 110.79C191.929 111.11 190.999 111.27 190.059 111.27ZM204.309 111.27C202.669 111.27 201.429 110.83 200.589 109.95C199.749 109.05 199.329 107.71 199.329 105.93V98.22H196.389V95.88H199.329V91.89L202.359 91.08V95.88H206.559V98.22H202.359V105.66C202.359 106.78 202.559 107.58 202.959 108.06C203.359 108.54 203.939 108.78 204.699 108.78C205.079 108.78 205.409 108.75 205.689 108.69C205.989 108.61 206.259 108.52 206.499 108.42V110.88C206.199 111 205.849 111.09 205.449 111.15C205.049 111.23 204.669 111.27 204.309 111.27ZM223.115 111.27C221.775 111.27 220.605 110.96 219.605 110.34C218.605 109.72 217.825 108.82 217.265 107.64C216.725 106.46 216.455 105.06 216.455 103.44C216.455 101.8 216.725 100.4 217.265 99.24C217.825 98.08 218.605 97.19 219.605 96.57C220.605 95.93 221.775 95.61 223.115 95.61C224.435 95.61 225.585 95.94 226.565 96.6C227.545 97.26 228.195 98.16 228.515 99.3H228.185L228.485 95.88H231.425C231.365 96.5 231.305 97.12 231.245 97.74C231.205 98.34 231.185 98.93 231.185 99.51V111H228.155V107.64H228.485C228.165 108.76 227.505 109.65 226.505 110.31C225.525 110.95 224.395 111.27 223.115 111.27ZM223.865 108.9C225.165 108.9 226.205 108.44 226.985 107.52C227.785 106.6 228.185 105.24 228.185 103.44C228.185 101.64 227.785 100.29 226.985 99.39C226.205 98.47 225.165 98.01 223.865 98.01C222.545 98.01 221.485 98.47 220.685 99.39C219.905 100.29 219.515 101.64 219.515 103.44C219.515 105.24 219.905 106.6 220.685 107.52C221.465 108.44 222.525 108.9 223.865 108.9ZM243.875 111V89.85H252.845C255.105 89.85 256.835 90.4 258.035 91.5C259.255 92.58 259.865 94.08 259.865 96C259.865 97.92 259.255 99.43 258.035 100.53C256.835 101.63 255.105 102.18 252.845 102.18H246.995V111H243.875ZM246.995 99.69H252.515C253.935 99.69 255.005 99.37 255.725 98.73C256.445 98.09 256.805 97.18 256.805 96C256.805 94.84 256.445 93.94 255.725 93.3C255.005 92.66 253.935 92.34 252.515 92.34H246.995V99.69ZM263.351 111V88.92H266.381V111H263.351ZM276.612 111.27C275.272 111.27 274.102 110.96 273.102 110.34C272.102 109.72 271.322 108.82 270.762 107.64C270.222 106.46 269.952 105.06 269.952 103.44C269.952 101.8 270.222 100.4 270.762 99.24C271.322 98.08 272.102 97.19 273.102 96.57C274.102 95.93 275.272 95.61 276.612 95.61C277.932 95.61 279.082 95.94 280.062 96.6C281.042 97.26 281.692 98.16 282.012 99.3H281.682L281.982 95.88H284.922C284.862 96.5 284.802 97.12 284.742 97.74C284.702 98.34 284.682 98.93 284.682 99.51V111H281.652V107.64H281.982C281.662 108.76 281.002 109.65 280.002 110.31C279.022 110.95 277.892 111.27 276.612 111.27ZM277.362 108.9C278.662 108.9 279.702 108.44 280.482 107.52C281.282 106.6 281.682 105.24 281.682 103.44C281.682 101.64 281.282 100.29 280.482 99.39C279.702 98.47 278.662 98.01 277.362 98.01C276.042 98.01 274.982 98.47 274.182 99.39C273.402 100.29 273.012 101.64 273.012 103.44C273.012 105.24 273.402 106.6 274.182 107.52C274.962 108.44 276.022 108.9 277.362 108.9ZM289.103 111V99.51C289.103 98.93 289.073 98.34 289.013 97.74C288.973 97.12 288.923 96.5 288.863 95.88H291.803L292.073 99.06H291.713C292.173 97.94 292.883 97.09 293.843 96.51C294.803 95.91 295.913 95.61 297.173 95.61C298.953 95.61 300.293 96.1 301.193 97.08C302.113 98.06 302.573 99.58 302.573 101.64V111H299.543V101.82C299.543 100.48 299.273 99.52 298.733 98.94C298.213 98.34 297.413 98.04 296.333 98.04C295.053 98.04 294.033 98.44 293.273 99.24C292.513 100.02 292.133 101.08 292.133 102.42V111H289.103Z" fill="#111111"/>
<rect y="826" width="428" height="100" fill="#EFEFEF"/>
<path d="M196.996 900V891.54H198.244V895.188H202.996V891.54H204.244V900H202.996V896.232H198.244V900H196.996ZM205.942 895.764C205.942 894.876 206.098 894.108 206.41 893.46C206.722 892.812 207.174 892.312 207.766 891.96C208.366 891.608 209.078 891.432 209.902 891.432C210.718 891.432 211.422 891.608 212.014 891.96C212.606 892.312 213.062 892.812 213.382 893.46C213.71 894.108 213.874 894.872 213.874 895.752C213.874 896.64 213.71 897.412 213.382 898.068C213.062 898.716 212.602 899.22 212.002 899.58C211.41 899.932 210.71 900.108 209.902 900.108C209.078 900.108 208.37 899.932 207.778 899.58C207.186 899.22 206.73 898.716 206.41 898.068C206.098 897.412 205.942 896.644 205.942 895.764ZM207.25 895.764C207.25 896.788 207.474 897.588 207.922 898.164C208.37 898.74 209.03 899.028 209.902 899.028C210.75 899.028 211.406 898.744 211.87 898.176C212.334 897.6 212.566 896.796 212.566 895.764C212.566 894.732 212.334 893.932 211.87 893.364C211.414 892.796 210.758 892.512 209.902 892.512C209.03 892.512 208.37 892.796 207.922 893.364C207.474 893.932 207.25 894.732 207.25 895.764ZM215.594 900V891.54H216.686L219.95 898.896H219.59L222.854 891.54H223.934V900H222.806V893.232H223.202L220.154 900H219.374L216.326 893.232H216.734V900H215.594ZM225.953 900V891.54H231.497V892.536H227.165V895.2H231.221V896.208H227.165V898.992H231.497V900H225.953Z" fill="#353535"/>
<rect x="204" y="853" width="19.9995" height="20" fill="#CECECE"/>
<line y1="-0.5" x2="28.2483" y2="-0.5" transform="matrix(0.707997 0.706216 -0.476316 0.879274 204 853.051)" stroke="#868686"/>
<line y1="-0.5" x2="28.2471" y2="-0.5" transform="matrix(0.708038 -0.706174 0.476273 0.879298 204 872.996)" stroke="#868686"/>
<path d="M117.996 900V891.54H121.584C122.488 891.54 123.18 891.76 123.66 892.2C124.148 892.632 124.392 893.232 124.392 894C124.392 894.768 124.148 895.372 123.66 895.812C123.18 896.252 122.488 896.472 121.584 896.472H119.244V900H117.996ZM119.244 895.476H121.452C122.02 895.476 122.448 895.348 122.736 895.092C123.024 894.836 123.168 894.472 123.168 894C123.168 893.536 123.024 893.176 122.736 892.92C122.448 892.664 122.02 892.536 121.452 892.536H119.244V895.476ZM125.894 900V891.54H129.47C130.374 891.54 131.074 891.756 131.57 892.188C132.066 892.612 132.314 893.208 132.314 893.976C132.314 894.48 132.202 894.912 131.978 895.272C131.754 895.632 131.438 895.908 131.03 896.1C130.622 896.284 130.142 896.376 129.59 896.376L129.782 896.184H130.106C130.434 896.184 130.726 896.268 130.982 896.436C131.246 896.604 131.462 896.872 131.63 897.24L132.842 900H131.474L130.274 897.228C130.154 896.9 129.966 896.688 129.71 896.592C129.462 896.496 129.154 896.448 128.786 896.448H127.142V900H125.894ZM127.142 895.5H129.266C129.866 895.5 130.318 895.372 130.622 895.116C130.934 894.86 131.09 894.492 131.09 894.012C131.09 893.524 130.934 893.156 130.622 892.908C130.318 892.66 129.866 892.536 129.266 892.536H127.142V895.5ZM133.915 895.764C133.915 894.876 134.071 894.108 134.383 893.46C134.695 892.812 135.147 892.312 135.739 891.96C136.339 891.608 137.051 891.432 137.875 891.432C138.691 891.432 139.395 891.608 139.987 891.96C140.579 892.312 141.035 892.812 141.355 893.46C141.683 894.108 141.847 894.872 141.847 895.752C141.847 896.64 141.683 897.412 141.355 898.068C141.035 898.716 140.575 899.22 139.975 899.58C139.383 899.932 138.683 900.108 137.875 900.108C137.051 900.108 136.343 899.932 135.751 899.58C135.159 899.22 134.703 898.716 134.383 898.068C134.071 897.412 133.915 896.644 133.915 895.764ZM135.223 895.764C135.223 896.788 135.447 897.588 135.895 898.164C136.343 898.74 137.003 899.028 137.875 899.028C138.723 899.028 139.379 898.744 139.843 898.176C140.307 897.6 140.539 896.796 140.539 895.764C140.539 894.732 140.307 893.932 139.843 893.364C139.387 892.796 138.731 892.512 137.875 892.512C137.003 892.512 136.343 892.796 135.895 893.364C135.447 893.932 135.223 894.732 135.223 895.764ZM143.555 900V891.54H148.979V892.536H144.803V895.248H148.703V896.244H144.803V900H143.555ZM150.363 900V891.54H151.611V900H150.363ZM153.598 900V891.54H154.846V898.932H158.998V900H153.598ZM160.219 900V891.54H165.763V892.536H161.431V895.2H165.487V896.208H161.431V898.992H165.763V900H160.219Z" fill="#353535"/>
<rect x="132" y="853" width="19.9995" height="20" fill="#CECECE"/>
<line y1="-0.5" x2="28.2483" y2="-0.5" transform="matrix(0.707997 0.706216 -0.476316 0.879274 132 853.051)" stroke="#868686"/>
<line y1="-0.5" x2="28.2471" y2="-0.5" transform="matrix(0.708038 -0.706174 0.476273 0.879298 132 872.996)" stroke="#868686"/>
<path d="M320.996 900V891.54H326.42V892.536H322.244V895.248H326.144V896.244H322.244V900H320.996ZM327.805 900V891.54H329.053V900H327.805ZM331.039 900V891.54H331.999L337.195 898.356H336.895V891.54H338.059V900H337.111L331.927 893.184H332.203V900H331.039ZM340.039 900V891.54H342.967C343.919 891.54 344.723 891.704 345.379 892.032C346.043 892.36 346.543 892.84 346.879 893.472C347.223 894.096 347.395 894.86 347.395 895.764C347.395 896.66 347.223 897.424 346.879 898.056C346.543 898.688 346.043 899.172 345.379 899.508C344.723 899.836 343.919 900 342.967 900H340.039ZM341.287 898.956H342.895C343.983 898.956 344.791 898.692 345.319 898.164C345.855 897.636 346.123 896.836 346.123 895.764C346.123 894.692 345.855 893.896 345.319 893.376C344.791 892.848 343.983 892.584 342.895 892.584H341.287V898.956ZM352.297 900V891.54H353.389L356.653 898.896H356.293L359.557 891.54H360.637V900H359.509V893.232H359.905L356.857 900H356.077L353.029 893.232H353.437V900H352.297ZM361.78 900L365.548 891.54H366.616L370.444 900H369.16L368.116 897.6L368.644 897.936H363.52L364.084 897.6L363.04 900H361.78ZM366.064 892.908L364.24 897.216L363.952 896.94H368.212L367.972 897.216L366.112 892.908H366.064ZM372.665 900V892.584H369.773V891.54H376.805V892.584H373.913V900H372.665ZM381.249 900.108C380.385 900.108 379.649 899.932 379.041 899.58C378.433 899.228 377.965 898.728 377.637 898.08C377.317 897.424 377.157 896.652 377.157 895.764C377.157 894.876 377.317 894.108 377.637 893.46C377.965 892.812 378.433 892.312 379.041 891.96C379.649 891.608 380.385 891.432 381.249 891.432C381.849 891.432 382.385 891.52 382.857 891.696C383.329 891.872 383.741 892.128 384.093 892.464L383.661 893.46C383.277 893.132 382.901 892.896 382.533 892.752C382.173 892.608 381.753 892.536 381.273 892.536C380.361 892.536 379.665 892.816 379.185 893.376C378.705 893.936 378.465 894.732 378.465 895.764C378.465 896.796 378.705 897.596 379.185 898.164C379.665 898.724 380.361 899.004 381.273 899.004C381.753 899.004 382.173 898.932 382.533 898.788C382.901 898.644 383.277 898.404 383.661 898.068L384.093 899.064C383.741 899.4 383.329 899.66 382.857 899.844C382.385 900.02 381.849 900.108 381.249 900.108ZM385.66 900V891.54H386.908V895.188H391.66V891.54H392.908V900H391.66V896.232H386.908V900H385.66Z" fill="#353535"/>
<rect x="348" y="853" width="19.9995" height="20" fill="#CECECE"/>
<line y1="-0.5" x2="28.2483" y2="-0.5" transform="matrix(0.707997 0.706216 -0.476316 0.879274 348 853.051)" stroke="#868686"/>
<line y1="-0.5" x2="28.2471" y2="-0.5" transform="matrix(0.708038 -0.706174 0.476273 0.879298 348 872.996)" stroke="#868686"/>
<path d="M273.8 900.108C272.936 900.108 272.2 899.932 271.592 899.58C270.984 899.228 270.516 898.728 270.188 898.08C269.868 897.424 269.708 896.652 269.708 895.764C269.708 894.876 269.868 894.108 270.188 893.46C270.516 892.812 270.984 892.312 271.592 891.96C272.2 891.608 272.936 891.432 273.8 891.432C274.4 891.432 274.936 891.52 275.408 891.696C275.88 891.872 276.292 892.128 276.644 892.464L276.212 893.46C275.828 893.132 275.452 892.896 275.084 892.752C274.724 892.608 274.304 892.536 273.824 892.536C272.912 892.536 272.216 892.816 271.736 893.376C271.256 893.936 271.016 894.732 271.016 895.764C271.016 896.796 271.256 897.596 271.736 898.164C272.216 898.724 272.912 899.004 273.824 899.004C274.304 899.004 274.724 898.932 275.084 898.788C275.452 898.644 275.828 898.404 276.212 898.068L276.644 899.064C276.292 899.4 275.88 899.66 275.408 899.844C274.936 900.02 274.4 900.108 273.8 900.108ZM278.211 900V891.54H279.459V895.188H284.211V891.54H285.459V900H284.211V896.232H279.459V900H278.211ZM286.569 900L290.337 891.54H291.405L295.233 900H293.949L292.905 897.6L293.433 897.936H288.309L288.873 897.6L287.829 900H286.569ZM290.853 892.908L289.029 897.216L288.741 896.94H293.001L292.761 897.216L290.901 892.908H290.853ZM297.454 900V892.584H294.562V891.54H301.594V892.584H298.702V900H297.454Z" fill="#353535"/>
<rect x="276" y="853" width="19.9995" height="20" fill="#CECECE"/>
<line y1="-0.5" x2="28.2483" y2="-0.5" transform="matrix(0.707997 0.706216 -0.476316 0.879274 276 853.051)" stroke="#868686"/>
<line y1="-0.5" x2="28.2471" y2="-0.5" transform="matrix(0.708038 -0.706174 0.476273 0.879298 276 872.996)" stroke="#868686"/>
<path d="M52.008 900V891.54H53.1L56.364 898.896H56.004L59.268 891.54H60.348V900H59.22V893.232H59.616L56.568 900H55.788L52.74 893.232H53.148V900H52.008ZM62.3671 900V891.54H67.9111V892.536H63.5791V895.2H67.6351V896.208H63.5791V898.992H67.9111V900H62.3671ZM69.4569 900V891.54H70.4169L75.6129 898.356H75.3129V891.54H76.4769V900H75.5289L70.3449 893.184H70.6209V900H69.4569ZM81.8889 900.108C80.7129 900.108 79.8369 899.812 79.2609 899.22C78.6929 898.628 78.4089 897.752 78.4089 896.592V891.54H79.6569V896.568C79.6569 897.384 79.8329 898 80.1849 898.416C80.5449 898.824 81.1129 899.028 81.8889 899.028C82.6249 899.028 83.1809 898.824 83.5569 898.416C83.9329 898 84.1209 897.384 84.1209 896.568V891.54H85.3449V896.592C85.3449 897.752 85.0529 898.628 84.4689 899.22C83.8849 899.812 83.0249 900.108 81.8889 900.108Z" fill="#353535"/>
<rect x="60" y="853" width="19.9995" height="20" fill="#CECECE"/>
<line y1="-0.5" x2="28.2483" y2="-0.5" transform="matrix(0.707997 0.706216 -0.476316 0.879274 60 853.051)" stroke="#868686"/>
<line y1="-0.5" x2="28.2471" y2="-0.5" transform="matrix(0.708038 -0.706174 0.476273 0.879298 60 872.996)" stroke="#868686"/>
</g>
<rect x="1" y="1" width="426" height="924" stroke="#B3B3B3" stroke-width="2"/>
<path d="M117.204 986V964.85H119.934L128.094 983.24H127.194L135.354 964.85H138.054V986H135.234V969.08H136.224L128.604 986H126.654L119.034 969.08H120.054V986H117.204ZM143.101 986V964.85H156.961V967.34H146.131V974H156.271V976.52H146.131V983.48H156.961V986H143.101ZM160.856 986V964.85H163.586L171.746 983.24H170.846L179.006 964.85H181.706V986H178.886V969.08H179.876L172.256 986H170.306L162.686 969.08H163.706V986H160.856ZM186.754 986V964.85H195.574C197.854 964.85 199.604 965.33 200.824 966.29C202.064 967.25 202.684 968.6 202.684 970.34C202.684 971.64 202.294 972.73 201.514 973.61C200.734 974.49 199.664 975.08 198.304 975.38V974.93C199.864 975.13 201.074 975.68 201.934 976.58C202.794 977.48 203.224 978.67 203.224 980.15C203.224 982.03 202.584 983.48 201.304 984.5C200.044 985.5 198.264 986 195.964 986H186.754ZM189.784 983.57H195.634C197.054 983.57 198.164 983.3 198.964 982.76C199.784 982.22 200.194 981.31 200.194 980.03C200.194 978.75 199.784 977.84 198.964 977.3C198.164 976.76 197.054 976.49 195.634 976.49H189.784V983.57ZM189.784 974.09H195.094C196.614 974.09 197.754 973.8 198.514 973.22C199.274 972.64 199.654 971.79 199.654 970.67C199.654 969.55 199.274 968.7 198.514 968.12C197.754 967.54 196.614 967.25 195.094 967.25H189.784V974.09ZM207.291 986V964.85H221.151V967.34H210.321V974H220.461V976.52H210.321V983.48H221.151V986H207.291ZM225.015 986V964.85H233.955C236.215 964.85 237.965 965.39 239.205 966.47C240.445 967.53 241.065 969.02 241.065 970.94C241.065 972.2 240.785 973.28 240.225 974.18C239.665 975.08 238.875 975.77 237.855 976.25C236.835 976.71 235.635 976.94 234.255 976.94L234.735 976.46H235.545C236.365 976.46 237.095 976.67 237.735 977.09C238.395 977.51 238.935 978.18 239.355 979.1L242.385 986H238.965L235.965 979.07C235.665 978.25 235.195 977.72 234.555 977.48C233.935 977.24 233.165 977.12 232.245 977.12H228.135V986H225.015ZM228.135 974.75H233.445C234.945 974.75 236.075 974.43 236.835 973.79C237.615 973.15 238.005 972.23 238.005 971.03C238.005 969.81 237.615 968.89 236.835 968.27C236.075 967.65 234.945 967.34 233.445 967.34H228.135V974.75ZM253.044 986.27C251.344 986.27 249.804 986.06 248.424 985.64C247.044 985.2 245.844 984.58 244.824 983.78L245.874 981.32C246.554 981.84 247.254 982.27 247.974 982.61C248.714 982.95 249.494 983.21 250.314 983.39C251.154 983.55 252.064 983.63 253.044 983.63C254.724 983.63 255.954 983.33 256.734 982.73C257.534 982.13 257.934 981.34 257.934 980.36C257.934 979.52 257.654 978.87 257.094 978.41C256.554 977.95 255.594 977.58 254.214 977.3L250.944 976.64C249.004 976.24 247.554 975.59 246.594 974.69C245.654 973.77 245.184 972.52 245.184 970.94C245.184 969.66 245.524 968.54 246.204 967.58C246.884 966.62 247.824 965.88 249.024 965.36C250.244 964.84 251.664 964.58 253.284 964.58C254.784 964.58 256.164 964.8 257.424 965.24C258.684 965.66 259.744 966.29 260.604 967.13L259.584 969.5C258.684 968.72 257.724 968.15 256.704 967.79C255.684 967.41 254.524 967.22 253.224 967.22C251.684 967.22 250.474 967.54 249.594 968.18C248.734 968.82 248.304 969.69 248.304 970.79C248.304 971.67 248.574 972.36 249.114 972.86C249.674 973.36 250.594 973.74 251.874 974L255.144 974.63C257.164 975.05 258.654 975.7 259.614 976.58C260.574 977.44 261.054 978.63 261.054 980.15C261.054 981.37 260.724 982.44 260.064 983.36C259.424 984.28 258.504 985 257.304 985.52C256.104 986.02 254.684 986.27 253.044 986.27ZM264.888 986V964.85H268.008V973.97H279.888V964.85H283.008V986H279.888V976.58H268.008V986H264.888ZM287.974 986V964.85H291.094V986H287.974ZM296.06 986V964.85H305.03C307.29 964.85 309.02 965.4 310.22 966.5C311.44 967.58 312.05 969.08 312.05 971C312.05 972.92 311.44 974.43 310.22 975.53C309.02 976.63 307.29 977.18 305.03 977.18H299.18V986H296.06ZM299.18 974.69H304.7C306.12 974.69 307.19 974.37 307.91 973.73C308.63 973.09 308.99 972.18 308.99 971C308.99 969.84 308.63 968.94 307.91 968.3C307.19 967.66 306.12 967.34 304.7 967.34H299.18V974.69Z" fill="black"/>
<defs>
<clipPath id="clip0_1304_4346">
<rect width="428" height="926" fill="white"/>
</clipPath>
</defs>
</svg>
