<svg width="428" height="994" viewBox="0 0 428 994" fill="none" xmlns="http://www.w3.org/2000/svg">
<rect x="1" y="1" width="426" height="924" fill="white"/>
<path d="M33.5336 25.9711C32.7225 25.9944 31.9276 25.7408 31.2798 25.2522C30.6686 24.7857 30.2601 24.1022 30.1386 23.343H31.8549C31.9555 23.6941 32.1739 24 32.4734 24.2091C32.789 24.4255 33.1649 24.5365 33.5473 24.5264C33.8809 24.5333 34.2102 24.4505 34.5007 24.2864C34.7912 24.1224 35.0323 23.8832 35.1986 23.594C35.6364 22.8036 35.8424 21.9057 35.7932 21.0035H35.6791C35.4614 21.4507 35.1143 21.8221 34.6828 22.0694C34.2236 22.327 33.704 22.4574 33.1776 22.4471C32.7557 22.4598 32.3357 22.3853 31.944 22.2282C31.5522 22.0711 31.1971 21.8348 30.9009 21.5342C30.6032 21.2317 30.37 20.8719 30.2154 20.4766C30.0608 20.0814 29.9881 19.6588 30.0016 19.2346C29.9872 18.7802 30.0695 18.3279 30.243 17.9077C30.4165 17.4875 30.6773 17.1089 31.0081 16.797C31.6132 16.2733 32.3645 15.9479 33.1604 15.8649C33.9564 15.7818 34.7586 15.9451 35.4588 16.3326C36.0184 16.6748 36.4704 17.1675 36.7632 17.7545C37.25 18.6951 37.4859 19.7454 37.4479 20.8038C37.5275 22.1503 37.1631 23.4857 36.4106 24.6051C36.0788 25.0502 35.6432 25.4074 35.1418 25.6455C34.6403 25.8836 34.0882 25.9954 33.5336 25.9711V25.9711ZM32.2292 20.5504C32.4092 20.7277 32.6235 20.8664 32.859 20.9578C33.0945 21.0493 33.3462 21.0916 33.5987 21.0822C33.8507 21.0903 34.1018 21.0478 34.337 20.957C34.5722 20.8662 34.7869 20.7291 34.9681 20.5539C35.1462 20.3807 35.2863 20.1724 35.3794 19.9421C35.4726 19.7118 35.5167 19.4647 35.509 19.2164C35.5151 18.9629 35.4696 18.7109 35.3755 18.4755C35.2813 18.2402 35.1404 18.0263 34.9613 17.8469C34.5991 17.5023 34.1168 17.3123 33.6169 17.3174C33.1169 17.3225 32.6386 17.5222 32.2835 17.8742C31.9284 18.2262 31.7245 18.7027 31.715 19.2026C31.7055 19.7025 31.8912 20.1864 32.2327 20.5516L32.2292 20.5504Z" fill="#111111"/>
<path d="M39.4052 18.6421C39.3997 18.495 39.4241 18.3483 39.4771 18.211C39.5301 18.0736 39.6105 17.9485 39.7134 17.8433C39.8215 17.7395 39.9496 17.6588 40.0898 17.606C40.2301 17.5532 40.3796 17.5295 40.5293 17.5363C40.6776 17.5315 40.8253 17.5566 40.9637 17.6101C41.1021 17.6635 41.2284 17.7443 41.3349 17.8475C41.4415 17.9507 41.5263 18.0743 41.5841 18.2109C41.642 18.3475 41.6718 18.4943 41.6718 18.6427C41.6718 18.791 41.642 18.9379 41.5841 19.0745C41.5263 19.2111 41.4415 19.3347 41.3349 19.4379C41.2284 19.5411 41.1021 19.6218 40.9637 19.6753C40.8253 19.7287 40.6776 19.7538 40.5293 19.7491C40.3796 19.7559 40.2301 19.7322 40.0898 19.6794C39.9496 19.6266 39.8215 19.5459 39.7134 19.4421C39.6099 19.337 39.5292 19.2117 39.4762 19.0741C39.4232 18.9365 39.3991 18.7895 39.4052 18.6421V18.6421ZM39.4052 23.6839C39.3992 23.5368 39.4234 23.3899 39.4764 23.2525C39.5294 23.1151 39.6101 22.9901 39.7134 22.8851C39.8213 22.7811 39.9494 22.7002 40.0897 22.6474C40.23 22.5946 40.3796 22.571 40.5293 22.5781C40.6776 22.5733 40.8253 22.5984 40.9637 22.6519C41.1021 22.7053 41.2284 22.7861 41.3349 22.8893C41.4415 22.9925 41.5263 23.1161 41.5841 23.2527C41.642 23.3893 41.6718 23.5361 41.6718 23.6845C41.6718 23.8328 41.642 23.9797 41.5841 24.1163C41.5263 24.2529 41.4415 24.3765 41.3349 24.4797C41.2284 24.5829 41.1021 24.6636 40.9637 24.7171C40.8253 24.7705 40.6776 24.7956 40.5293 24.7909C40.3795 24.7977 40.2299 24.7739 40.0896 24.7209C39.9493 24.668 39.8213 24.5869 39.7134 24.4827C39.6104 24.3775 39.53 24.2524 39.477 24.1151C39.424 23.9777 39.3996 23.831 39.4052 23.6839Z" fill="#111111"/>
<path d="M48.31 25.7426V23.9441H43.5957V22.4057C44.3808 20.9602 45.6917 18.8562 47.5283 16.0938H49.9613V22.4845H51.2657V23.9429H49.9613V25.7426H48.31ZM45.1945 22.4263V22.5267H48.3362V17.4974H48.2415C47.1992 19.038 46.1836 20.681 45.1945 22.4263V22.4263Z" fill="#111111"/>
<path d="M55.2186 25.7426V17.8318H55.1045L52.708 19.5173V17.8592L55.2289 16.0938H56.9476V25.7426H55.2186Z" fill="#111111"/>
<path d="M69.7406 25.7426L68.9258 23.2753H65.3744L64.5458 25.7426H62.7998L66.2234 16.0938H68.1634L71.5927 25.7426H69.7406ZM67.0998 17.9322L65.7761 21.9116H68.5241L67.214 17.9322H67.0998Z" fill="#111111"/>
<path d="M74.8565 25.7421H73.252V16.0933H75.2708L78.1729 23.1173H78.2927L81.1948 16.0898H83.2148V25.7421H81.6102V18.9554H81.5166L78.8485 25.3678H77.6182L74.9455 18.9554H74.8519L74.8565 25.7421Z" fill="#111111"/>
<path d="M359.489 22.8055C359.522 22.7722 359.549 22.7324 359.567 22.6884C359.585 22.6445 359.593 22.5974 359.592 22.55C359.591 22.5026 359.581 22.4558 359.561 22.4127C359.542 22.3695 359.513 22.3308 359.478 22.2988C358.794 21.7203 357.927 21.4029 357.032 21.4029C356.136 21.4029 355.269 21.7203 354.585 22.2988C354.55 22.3304 354.521 22.3688 354.502 22.4119C354.482 22.4549 354.471 22.5015 354.471 22.5488C354.469 22.5963 354.478 22.6436 354.496 22.6878C354.513 22.7319 354.54 22.772 354.573 22.8055L356.786 25.0377C356.818 25.0703 356.856 25.0962 356.898 25.1139C356.94 25.1316 356.985 25.1407 357.031 25.1407C357.077 25.1407 357.122 25.1316 357.164 25.1139C357.206 25.0962 357.244 25.0703 357.276 25.0377L359.489 22.8055ZM357.032 19.7243C358.381 19.7241 359.682 20.2251 360.683 21.1303C360.747 21.1926 360.833 21.2276 360.922 21.2276C361.012 21.2276 361.098 21.1926 361.162 21.1303L362.441 19.8373C362.474 19.8038 362.501 19.764 362.519 19.7202C362.537 19.6764 362.545 19.6295 362.545 19.5822C362.544 19.5348 362.534 19.4881 362.516 19.4447C362.497 19.4013 362.469 19.3621 362.435 19.3294C360.968 17.9647 359.039 17.206 357.036 17.206C355.032 17.206 353.103 17.9647 351.636 19.3294C351.601 19.3616 351.573 19.4005 351.553 19.4439C351.534 19.4872 351.523 19.5341 351.522 19.5816C351.521 19.629 351.53 19.676 351.548 19.7199C351.566 19.7638 351.592 19.8037 351.626 19.8373L352.904 21.1303C352.968 21.1933 353.054 21.2287 353.144 21.2287C353.234 21.2287 353.32 21.1933 353.384 21.1303C354.383 20.2245 355.683 19.7222 357.032 19.7209V19.7243ZM357.032 15.5224C359.485 15.5221 361.845 16.4647 363.623 18.1551C363.687 18.2182 363.773 18.2536 363.863 18.2536C363.953 18.2536 364.04 18.2182 364.104 18.1551L365.383 16.8633C365.416 16.8302 365.443 16.7907 365.461 16.7472C365.478 16.7037 365.487 16.657 365.487 16.61C365.487 16.563 365.478 16.5165 365.459 16.4733C365.441 16.4301 365.414 16.3911 365.379 16.3589C363.133 14.2059 360.142 13.0039 357.03 13.0039C353.919 13.0039 350.928 14.2059 348.681 16.3589C348.648 16.3915 348.621 16.4305 348.603 16.4736C348.584 16.5167 348.574 16.5631 348.574 16.61C348.574 16.6569 348.583 16.7035 348.601 16.747C348.619 16.7905 348.645 16.83 348.678 16.8633L349.96 18.1551C350.024 18.2179 350.11 18.253 350.199 18.253C350.289 18.253 350.375 18.2179 350.439 18.1551C352.217 16.463 354.577 15.5191 357.032 15.519V15.5224Z" fill="#111111"/>
<path d="M340.794 13.3711H341.901C342.046 13.3709 342.19 13.3995 342.325 13.455C342.459 13.5106 342.581 13.5921 342.684 13.6949C342.787 13.7977 342.869 13.9198 342.924 14.0542C342.98 14.1886 343.009 14.3326 343.009 14.4781V24.0744C343.009 24.2199 342.98 24.364 342.925 24.4985C342.869 24.6329 342.788 24.755 342.685 24.8579C342.582 24.9607 342.459 25.0422 342.325 25.0977C342.19 25.1532 342.046 25.1817 341.901 25.1814H340.794C340.5 25.1814 340.219 25.0647 340.011 24.8571C339.803 24.6495 339.687 24.368 339.687 24.0744V14.4781C339.687 14.1845 339.803 13.9029 340.011 13.6953C340.219 13.4877 340.5 13.3711 340.794 13.3711V13.3711ZM335.628 15.9548H336.735C336.88 15.9546 337.024 15.9831 337.159 16.0387C337.293 16.0943 337.415 16.1758 337.518 16.2786C337.621 16.3814 337.703 16.5035 337.758 16.6379C337.814 16.7722 337.843 16.9163 337.843 17.0617V24.0744C337.843 24.2199 337.814 24.3639 337.758 24.4983C337.703 24.6327 337.621 24.7547 337.518 24.8575C337.415 24.9604 337.293 25.0419 337.159 25.0974C337.024 25.153 336.88 25.1815 336.735 25.1814H335.628C335.482 25.1817 335.338 25.1532 335.204 25.0977C335.069 25.0422 334.947 24.9607 334.844 24.8578C334.741 24.755 334.66 24.6328 334.604 24.4984C334.549 24.3639 334.52 24.2199 334.521 24.0744V17.0617C334.52 16.9163 334.549 16.7723 334.605 16.6379C334.66 16.5036 334.742 16.3815 334.844 16.2787C334.947 16.1758 335.069 16.0943 335.204 16.0387C335.338 15.9831 335.482 15.9546 335.628 15.9548V15.9548ZM330.46 18.5384H331.568C331.862 18.5387 332.143 18.6555 332.351 18.863C332.558 19.0705 332.675 19.3519 332.675 19.6454V24.0744C332.675 24.368 332.559 24.6495 332.351 24.8571C332.143 25.0647 331.862 25.1814 331.568 25.1814H330.46C330.315 25.1815 330.171 25.153 330.036 25.0974C329.902 25.0418 329.78 24.9603 329.677 24.8575C329.574 24.7547 329.493 24.6326 329.437 24.4982C329.382 24.3638 329.353 24.2198 329.353 24.0744V19.6454C329.353 19.3518 329.47 19.0703 329.677 18.8627C329.885 18.6551 330.167 18.5384 330.46 18.5384V18.5384ZM325.292 20.7535H326.399C326.692 20.7535 326.974 20.8701 327.181 21.0777C327.389 21.2853 327.506 21.5669 327.506 21.8605V24.0744C327.506 24.2198 327.477 24.3638 327.422 24.4982C327.366 24.6326 327.285 24.7547 327.182 24.8575C327.079 24.9603 326.957 25.0418 326.822 25.0974C326.688 25.153 326.544 25.1815 326.399 25.1814H325.292C325.146 25.1815 325.002 25.153 324.868 25.0974C324.733 25.0419 324.611 24.9604 324.508 24.8575C324.405 24.7547 324.324 24.6327 324.268 24.4983C324.212 24.3639 324.184 24.2199 324.184 24.0744V21.8628C324.183 21.7171 324.212 21.5729 324.268 21.4384C324.323 21.3038 324.405 21.1815 324.508 21.0785C324.611 20.9755 324.733 20.8937 324.867 20.838C325.002 20.7822 325.146 20.7535 325.292 20.7535Z" fill="#111111"/>
<path d="M392.472 14.1081C392.962 14.1087 393.43 14.3034 393.776 14.6493C394.122 14.9953 394.316 15.4643 394.317 15.9534V22.5975C394.316 23.0866 394.122 23.5556 393.776 23.9016C393.43 24.2476 392.962 24.4422 392.472 24.4428H374.015C373.526 24.4422 373.057 24.2476 372.711 23.9016C372.365 23.5556 372.171 23.0866 372.17 22.5975V15.9534C372.171 15.4643 372.365 14.9953 372.711 14.6493C373.057 14.3034 373.526 14.1087 374.015 14.1081H392.472V14.1081ZM392.472 13H374.015C373.627 13.0001 373.243 13.0767 372.885 13.2252C372.527 13.3737 372.201 13.5913 371.927 13.8655C371.653 14.1398 371.436 14.4653 371.288 14.8235C371.14 15.1818 371.063 15.5657 371.063 15.9534V22.5975C371.063 22.9852 371.14 23.3691 371.288 23.7274C371.436 24.0856 371.653 24.4111 371.927 24.6854C372.201 24.9596 372.527 25.1772 372.885 25.3257C373.243 25.4743 373.627 25.5508 374.015 25.5509H392.472C392.86 25.5508 393.244 25.4743 393.602 25.3257C393.96 25.1772 394.286 24.9596 394.56 24.6854C394.834 24.4111 395.051 24.0856 395.199 23.7274C395.347 23.3691 395.424 22.9852 395.424 22.5975V15.9534C395.424 15.5657 395.347 15.1818 395.199 14.8235C395.051 14.4653 394.834 14.1398 394.56 13.8655C394.286 13.5913 393.96 13.3737 393.602 13.2252C393.244 13.0767 392.86 13.0001 392.472 13V13Z" fill="#111111"/>
<path d="M396.531 17.0586V21.4887C396.967 21.3052 397.339 20.9971 397.601 20.6031C397.863 20.2091 398.002 19.7466 398.002 19.2737C398.002 18.8007 397.863 18.3382 397.601 17.9442C397.339 17.5502 396.967 17.2421 396.531 17.0586Z" fill="#111111"/>
<path d="M374.756 15.2148H391.734C391.928 15.2148 392.12 15.253 392.299 15.3273C392.478 15.4015 392.641 15.5102 392.778 15.6474C392.915 15.7845 393.024 15.9473 393.098 16.1264C393.172 16.3056 393.21 16.4976 393.21 16.6916V21.8589C393.21 22.053 393.172 22.2452 393.098 22.4245C393.024 22.6038 392.915 22.7667 392.777 22.9039C392.64 23.0411 392.477 23.15 392.298 23.2243C392.119 23.2985 391.927 23.3368 391.732 23.3368H374.756C374.364 23.3368 373.988 23.1811 373.711 22.9039C373.434 22.6268 373.278 22.2509 373.278 21.8589V16.6927C373.278 16.3007 373.434 15.9248 373.711 15.6477C373.988 15.3705 374.364 15.2148 374.756 15.2148V15.2148Z" fill="#111111"/>
<rect width="165" height="50" rx="7" transform="matrix(1 0 0 -1 224 865)" fill="#C4C4C4"/>
<path d="M283.826 848V832.49H285.586L295.112 844.986H294.562V832.49H296.696V848H294.958L285.454 835.504H285.96V848H283.826ZM305.254 848.198C303.465 848.198 302.057 847.692 301.03 846.68C300.003 845.668 299.49 844.267 299.49 842.478C299.49 841.319 299.71 840.307 300.15 839.442C300.605 838.577 301.228 837.909 302.02 837.44C302.827 836.956 303.758 836.714 304.814 836.714C305.855 836.714 306.728 836.934 307.432 837.374C308.136 837.814 308.671 838.437 309.038 839.244C309.405 840.036 309.588 840.975 309.588 842.06V842.764H301.228V841.488H308.07L307.696 841.774C307.696 840.674 307.447 839.823 306.948 839.222C306.464 838.606 305.76 838.298 304.836 838.298C303.809 838.298 303.017 838.657 302.46 839.376C301.903 840.08 301.624 841.055 301.624 842.302V842.522C301.624 843.827 301.939 844.81 302.57 845.47C303.215 846.13 304.125 846.46 305.298 846.46C305.943 846.46 306.545 846.372 307.102 846.196C307.674 846.005 308.217 845.697 308.73 845.272L309.456 846.79C308.943 847.245 308.319 847.597 307.586 847.846C306.853 848.081 306.075 848.198 305.254 848.198ZM310.468 848L315.506 841.752V842.808L310.732 836.912H313.394L316.76 841.246H315.968L319.334 836.912H321.974L317.244 842.786V841.774L322.26 848H319.598L315.968 843.358H316.76L313.108 848H310.468ZM328.266 848.198C327.064 848.198 326.154 847.875 325.538 847.23C324.922 846.57 324.614 845.587 324.614 844.282V838.628H322.458V836.912H324.614V833.986L326.836 833.392V836.912H329.916V838.628H326.836V844.084C326.836 844.905 326.983 845.492 327.276 845.844C327.57 846.196 327.995 846.372 328.552 846.372C328.831 846.372 329.073 846.35 329.278 846.306C329.498 846.247 329.696 846.181 329.872 846.108V847.912C329.652 848 329.396 848.066 329.102 848.11C328.809 848.169 328.53 848.198 328.266 848.198Z" fill="#353535"/>
<rect width="165" height="50" rx="7" transform="matrix(1 0 0 -1 39 865)" fill="#C4C4C4"/>
<path d="M100.826 848V832.49H103.114V846.042H110.726V848H100.826ZM117.013 848.198C116.03 848.198 115.172 847.971 114.439 847.516C113.705 847.061 113.133 846.401 112.723 845.536C112.327 844.671 112.129 843.644 112.129 842.456C112.129 841.253 112.327 840.227 112.723 839.376C113.133 838.525 113.705 837.873 114.439 837.418C115.172 836.949 116.03 836.714 117.013 836.714C117.981 836.714 118.824 836.956 119.543 837.44C120.261 837.924 120.738 838.584 120.973 839.42H120.731L120.951 836.912H123.107C123.063 837.367 123.019 837.821 122.975 838.276C122.945 838.716 122.931 839.149 122.931 839.574V848H120.709V845.536H120.951C120.716 846.357 120.232 847.01 119.499 847.494C118.78 847.963 117.951 848.198 117.013 848.198ZM117.563 846.46C118.516 846.46 119.279 846.123 119.851 845.448C120.437 844.773 120.731 843.776 120.731 842.456C120.731 841.136 120.437 840.146 119.851 839.486C119.279 838.811 118.516 838.474 117.563 838.474C116.595 838.474 115.817 838.811 115.231 839.486C114.659 840.146 114.373 841.136 114.373 842.456C114.373 843.776 114.659 844.773 115.231 845.448C115.803 846.123 116.58 846.46 117.563 846.46ZM129.979 848.198C129.055 848.198 128.204 848.081 127.427 847.846C126.65 847.611 126.004 847.281 125.491 846.856L126.173 845.338C126.716 845.749 127.317 846.057 127.977 846.262C128.637 846.467 129.312 846.57 130.001 846.57C130.808 846.57 131.416 846.431 131.827 846.152C132.238 845.859 132.443 845.463 132.443 844.964C132.443 844.583 132.311 844.275 132.047 844.04C131.798 843.805 131.38 843.629 130.793 843.512L128.681 843.094C127.742 842.889 127.031 842.537 126.547 842.038C126.063 841.539 125.821 840.901 125.821 840.124C125.821 839.464 125.997 838.877 126.349 838.364C126.716 837.851 127.229 837.447 127.889 837.154C128.564 836.861 129.348 836.714 130.243 836.714C131.064 836.714 131.827 836.831 132.531 837.066C133.235 837.301 133.822 837.638 134.291 838.078L133.587 839.552C133.132 839.171 132.619 838.877 132.047 838.672C131.475 838.452 130.896 838.342 130.309 838.342C129.488 838.342 128.879 838.496 128.483 838.804C128.087 839.112 127.889 839.515 127.889 840.014C127.889 840.395 128.006 840.711 128.241 840.96C128.49 841.195 128.879 841.378 129.407 841.51L131.519 841.928C132.516 842.133 133.264 842.471 133.763 842.94C134.262 843.409 134.511 844.04 134.511 844.832C134.511 845.521 134.32 846.123 133.939 846.636C133.558 847.149 133.03 847.538 132.355 847.802C131.68 848.066 130.888 848.198 129.979 848.198ZM141.335 848.198C140.132 848.198 139.223 847.875 138.607 847.23C137.991 846.57 137.683 845.587 137.683 844.282V838.628H135.527V836.912H137.683V833.986L139.905 833.392V836.912H142.985V838.628H139.905V844.084C139.905 844.905 140.051 845.492 140.345 845.844C140.638 846.196 141.063 846.372 141.621 846.372C141.899 846.372 142.141 846.35 142.347 846.306C142.567 846.247 142.765 846.181 142.941 846.108V847.912C142.721 848 142.464 848.066 142.171 848.11C141.877 848.169 141.599 848.198 141.335 848.198Z" fill="#353535"/>
<rect x="39.75" y="443.75" width="348.5" height="130.5" rx="14.25" fill="white" stroke="#D7D7D7" stroke-width="1.5"/>
<rect x="63" y="459" width="282" height="18" fill="#E0E0E0"/>
<rect x="63" y="491" width="259" height="18" fill="#E0E0E0"/>
<rect x="63" y="523" width="155" height="18" fill="#E0E0E0"/>
<path d="M74 97L84.846 73.03H88.518L99.5 97H95.046L92.122 90.268L93.89 91.458H79.508L81.344 90.268L78.42 97H74ZM86.648 77.722L81.854 89.078L80.97 88.024H92.394L91.68 89.078L86.784 77.722H86.648ZM108.31 97.34C106.814 97.34 105.488 96.9887 104.332 96.286C103.199 95.5607 102.315 94.5293 101.68 93.192C101.045 91.8547 100.728 90.2567 100.728 88.398C100.728 86.5393 101.045 84.9527 101.68 83.638C102.315 82.3007 103.199 81.2807 104.332 80.578C105.488 79.8527 106.814 79.49 108.31 79.49C109.738 79.49 110.996 79.8413 112.084 80.544C113.195 81.224 113.931 82.1533 114.294 83.332H113.852V71.976H118.102V97H113.92V93.362H114.328C113.965 94.586 113.229 95.5607 112.118 96.286C111.03 96.9887 109.761 97.34 108.31 97.34ZM109.5 94.076C110.837 94.076 111.914 93.6113 112.73 92.682C113.546 91.73 113.954 90.302 113.954 88.398C113.954 86.494 113.546 85.0773 112.73 84.148C111.914 83.2187 110.837 82.754 109.5 82.754C108.163 82.754 107.075 83.2187 106.236 84.148C105.42 85.0773 105.012 86.494 105.012 88.398C105.012 90.302 105.42 91.73 106.236 92.682C107.075 93.6113 108.163 94.076 109.5 94.076ZM129.394 97.34C127.898 97.34 126.572 96.9887 125.416 96.286C124.283 95.5607 123.399 94.5293 122.764 93.192C122.129 91.8547 121.812 90.2567 121.812 88.398C121.812 86.5393 122.129 84.9527 122.764 83.638C123.399 82.3007 124.283 81.2807 125.416 80.578C126.572 79.8527 127.898 79.49 129.394 79.49C130.822 79.49 132.08 79.8413 133.168 80.544C134.279 81.224 135.015 82.1533 135.378 83.332H134.936V71.976H139.186V97H135.004V93.362H135.412C135.049 94.586 134.313 95.5607 133.202 96.286C132.114 96.9887 130.845 97.34 129.394 97.34ZM130.584 94.076C131.921 94.076 132.998 93.6113 133.814 92.682C134.63 91.73 135.038 90.302 135.038 88.398C135.038 86.494 134.63 85.0773 133.814 84.148C132.998 83.2187 131.921 82.754 130.584 82.754C129.247 82.754 128.159 83.2187 127.32 84.148C126.504 85.0773 126.096 86.494 126.096 88.398C126.096 90.302 126.504 91.73 127.32 92.682C128.159 93.6113 129.247 94.076 130.584 94.076ZM153.518 97V73.03H157.36L166.166 92.852H165.112L173.918 73.03H177.726V97H173.748V79.218H174.972L166.914 97H164.296L156.238 79.218H157.496V97H153.518ZM190.48 97.34C188.712 97.34 187.182 96.9773 185.89 96.252C184.598 95.5267 183.589 94.4953 182.864 93.158C182.161 91.8207 181.81 90.234 181.81 88.398C181.81 86.562 182.161 84.9867 182.864 83.672C183.589 82.3347 184.598 81.3033 185.89 80.578C187.182 79.8527 188.712 79.49 190.48 79.49C192.248 79.49 193.778 79.8527 195.07 80.578C196.385 81.3033 197.393 82.3347 198.096 83.672C198.821 84.9867 199.184 86.562 199.184 88.398C199.184 90.234 198.821 91.8207 198.096 93.158C197.393 94.4953 196.385 95.5267 195.07 96.252C193.778 96.9773 192.248 97.34 190.48 97.34ZM190.48 94.076C191.817 94.076 192.883 93.6113 193.676 92.682C194.469 91.73 194.866 90.302 194.866 88.398C194.866 86.494 194.469 85.0773 193.676 84.148C192.883 83.2187 191.817 82.754 190.48 82.754C189.143 82.754 188.077 83.2187 187.284 84.148C186.491 85.0773 186.094 86.494 186.094 88.398C186.094 90.302 186.491 91.73 187.284 92.682C188.077 93.6113 189.143 94.076 190.48 94.076ZM202.815 97V84.216C202.815 83.4907 202.792 82.754 202.747 82.006C202.724 81.258 202.668 80.5327 202.577 79.83H206.691L207.167 84.522H206.487C206.714 83.3887 207.088 82.448 207.609 81.7C208.153 80.952 208.81 80.3967 209.581 80.034C210.352 79.6713 211.19 79.49 212.097 79.49C212.505 79.49 212.834 79.5127 213.083 79.558C213.332 79.5807 213.582 79.6373 213.831 79.728L213.797 83.468C213.366 83.2867 212.992 83.1733 212.675 83.128C212.38 83.0827 212.006 83.06 211.553 83.06C210.578 83.06 209.751 83.264 209.071 83.672C208.414 84.08 207.915 84.6467 207.575 85.372C207.258 86.0973 207.099 86.9247 207.099 87.854V97H202.815ZM224.227 97.34C221.348 97.34 219.093 96.5467 217.461 94.96C215.829 93.3733 215.013 91.1973 215.013 88.432C215.013 86.6413 215.364 85.0773 216.067 83.74C216.77 82.4027 217.744 81.36 218.991 80.612C220.26 79.864 221.734 79.49 223.411 79.49C225.066 79.49 226.448 79.8413 227.559 80.544C228.67 81.2467 229.508 82.2327 230.075 83.502C230.664 84.7713 230.959 86.256 230.959 87.956V89.078H218.447V86.834H227.933L227.355 87.31C227.355 85.7233 227.015 84.5107 226.335 83.672C225.678 82.8333 224.714 82.414 223.445 82.414C222.04 82.414 220.952 82.9127 220.181 83.91C219.433 84.9073 219.059 86.3013 219.059 88.092V88.534C219.059 90.3927 219.512 91.7867 220.419 92.716C221.348 93.6227 222.652 94.076 224.329 94.076C225.304 94.076 226.21 93.9513 227.049 93.702C227.91 93.43 228.726 92.9993 229.497 92.41L230.755 95.266C229.939 95.9233 228.964 96.4333 227.831 96.796C226.698 97.1587 225.496 97.34 224.227 97.34ZM244.228 97V73.03H252.932C255.675 73.03 257.987 73.506 259.868 74.458C261.772 75.3873 263.212 76.7473 264.186 78.538C265.161 80.306 265.648 82.4593 265.648 84.998C265.648 87.514 265.161 89.6673 264.186 91.458C263.212 93.2487 261.772 94.62 259.868 95.572C257.987 96.524 255.675 97 252.932 97H244.228ZM248.614 93.362H252.66C255.562 93.362 257.715 92.6707 259.12 91.288C260.526 89.9053 261.228 87.8087 261.228 84.998C261.228 82.1647 260.526 80.068 259.12 78.708C257.715 77.3253 255.562 76.634 252.66 76.634H248.614V93.362ZM278.083 97.34C275.204 97.34 272.949 96.5467 271.317 94.96C269.685 93.3733 268.869 91.1973 268.869 88.432C268.869 86.6413 269.22 85.0773 269.923 83.74C270.625 82.4027 271.6 81.36 272.847 80.612C274.116 79.864 275.589 79.49 277.267 79.49C278.921 79.49 280.304 79.8413 281.415 80.544C282.525 81.2467 283.364 82.2327 283.931 83.502C284.52 84.7713 284.815 86.256 284.815 87.956V89.078H272.303V86.834H281.789L281.211 87.31C281.211 85.7233 280.871 84.5107 280.191 83.672C279.533 82.8333 278.57 82.414 277.301 82.414C275.895 82.414 274.807 82.9127 274.037 83.91C273.289 84.9073 272.915 86.3013 272.915 88.092V88.534C272.915 90.3927 273.368 91.7867 274.275 92.716C275.204 93.6227 276.507 94.076 278.185 94.076C279.159 94.076 280.066 93.9513 280.905 93.702C281.766 93.43 282.582 92.9993 283.353 92.41L284.611 95.266C283.795 95.9233 282.82 96.4333 281.687 96.796C280.553 97.1587 279.352 97.34 278.083 97.34ZM295.691 97.34C293.651 97.34 292.11 96.8073 291.067 95.742C290.024 94.6767 289.503 93.0787 289.503 90.948V83.026H286.205V79.83H289.503V75.444L293.753 74.356V79.83H298.343V83.026H293.753V90.676C293.753 91.8547 293.98 92.682 294.433 93.158C294.886 93.634 295.51 93.872 296.303 93.872C296.734 93.872 297.096 93.838 297.391 93.77C297.708 93.702 298.014 93.6113 298.309 93.498V96.864C297.924 97.0227 297.493 97.136 297.017 97.204C296.564 97.2947 296.122 97.34 295.691 97.34ZM307.86 97.34C306.364 97.34 305.049 96.9887 303.916 96.286C302.783 95.5607 301.899 94.5293 301.264 93.192C300.629 91.8547 300.312 90.2567 300.312 88.398C300.312 86.5393 300.629 84.9527 301.264 83.638C301.899 82.3007 302.783 81.2807 303.916 80.578C305.049 79.8527 306.364 79.49 307.86 79.49C309.311 79.49 310.58 79.8527 311.668 80.578C312.779 81.2807 313.515 82.2327 313.878 83.434H313.504L313.878 79.83H317.958C317.89 80.5327 317.822 81.2467 317.754 81.972C317.709 82.6973 317.686 83.4113 317.686 84.114V97H313.47L313.436 93.464H313.844C313.481 94.6427 312.745 95.5833 311.634 96.286C310.523 96.9887 309.265 97.34 307.86 97.34ZM309.05 94.076C310.387 94.076 311.464 93.6113 312.28 92.682C313.096 91.73 313.504 90.302 313.504 88.398C313.504 86.494 313.096 85.0773 312.28 84.148C311.464 83.2187 310.387 82.754 309.05 82.754C307.713 82.754 306.636 83.2187 305.82 84.148C305.004 85.0773 304.596 86.494 304.596 88.398C304.596 90.302 304.993 91.73 305.786 92.682C306.602 93.6113 307.69 94.076 309.05 94.076ZM322.314 97V79.83H326.564V97H322.314ZM322.076 76.6V72.452H326.802V76.6H322.076ZM331.179 97V71.976H335.429V97H331.179ZM346.164 97.34C344.691 97.34 343.331 97.17 342.084 96.83C340.86 96.4673 339.829 95.9687 338.99 95.334L340.18 92.478C341.042 93.0673 341.994 93.5207 343.036 93.838C344.079 94.1553 345.133 94.314 346.198 94.314C347.332 94.314 348.17 94.1213 348.714 93.736C349.281 93.3507 349.564 92.8293 349.564 92.172C349.564 91.6507 349.383 91.2427 349.02 90.948C348.68 90.6307 348.125 90.3927 347.354 90.234L343.954 89.588C342.504 89.2707 341.393 88.7267 340.622 87.956C339.874 87.1853 339.5 86.1767 339.5 84.93C339.5 83.8647 339.784 82.924 340.35 82.108C340.94 81.292 341.767 80.6573 342.832 80.204C343.92 79.728 345.19 79.49 346.64 79.49C347.91 79.49 349.1 79.66 350.21 80C351.344 80.34 352.296 80.85 353.066 81.53L351.842 84.284C351.14 83.7173 350.335 83.2753 349.428 82.958C348.522 82.6407 347.638 82.482 346.776 82.482C345.598 82.482 344.736 82.6973 344.192 83.128C343.648 83.536 343.376 84.0687 343.376 84.726C343.376 85.2247 343.535 85.644 343.852 85.984C344.192 86.3013 344.714 86.5393 345.416 86.698L348.816 87.344C350.335 87.6387 351.48 88.16 352.25 88.908C353.044 89.6333 353.44 90.6307 353.44 91.9C353.44 93.0333 353.134 94.008 352.522 94.824C351.91 95.64 351.06 96.2633 349.972 96.694C348.884 97.1247 347.615 97.34 346.164 97.34Z" fill="#333333"/>
<rect x="164" y="193" width="99.9973" height="99.9999" fill="#E0E0E0"/>
<line y1="-0.5" x2="141.241" y2="-0.5" transform="matrix(0.707997 0.706216 -0.476316 0.879274 164 193.254)" stroke="#868686"/>
<line y1="-0.5" x2="141.235" y2="-0.5" transform="matrix(0.708038 -0.706174 0.476273 0.879298 164 292.988)" stroke="#868686"/>
<rect x="39" y="193" width="99.9973" height="99.9999" fill="#E0E0E0"/>
<line y1="-0.5" x2="141.241" y2="-0.5" transform="matrix(0.707997 0.706216 -0.476316 0.879274 39 193.254)" stroke="#868686"/>
<line y1="-0.5" x2="141.235" y2="-0.5" transform="matrix(0.708038 -0.706174 0.476273 0.879298 39 292.988)" stroke="#868686"/>
<rect x="289" y="193" width="99.9973" height="99.9999" fill="#E0E0E0"/>
<line y1="-0.5" x2="141.241" y2="-0.5" transform="matrix(0.707997 0.706216 -0.476316 0.879274 289 193.254)" stroke="#868686"/>
<line y1="-0.5" x2="141.235" y2="-0.5" transform="matrix(0.708038 -0.706174 0.476273 0.879298 289 292.988)" stroke="#868686"/>
<rect x="164" y="318" width="99.9973" height="99.9999" fill="#E0E0E0"/>
<line y1="-0.5" x2="141.241" y2="-0.5" transform="matrix(0.707997 0.706216 -0.476316 0.879274 164 318.254)" stroke="#868686"/>
<line y1="-0.5" x2="141.235" y2="-0.5" transform="matrix(0.708038 -0.706174 0.476273 0.879298 164 417.988)" stroke="#868686"/>
<rect x="39" y="318" width="99.9973" height="99.9999" fill="#E0E0E0"/>
<line y1="-0.5" x2="141.241" y2="-0.5" transform="matrix(0.707997 0.706216 -0.476316 0.879274 39 318.254)" stroke="#868686"/>
<line y1="-0.5" x2="141.235" y2="-0.5" transform="matrix(0.708038 -0.706174 0.476273 0.879298 39 417.988)" stroke="#868686"/>
<rect x="289" y="318" width="99.9973" height="99.9999" fill="#E0E0E0"/>
<line y1="-0.5" x2="141.241" y2="-0.5" transform="matrix(0.707997 0.706216 -0.476316 0.879274 289 318.254)" stroke="#868686"/>
<line y1="-0.5" x2="141.235" y2="-0.5" transform="matrix(0.708038 -0.706174 0.476273 0.879298 289 417.988)" stroke="#868686"/>
<rect x="1" y="1" width="426" height="924" stroke="#B3B3B3" stroke-width="2"/>
<path d="M149.63 986.27C147.93 986.27 146.39 986.06 145.01 985.64C143.63 985.2 142.43 984.58 141.41 983.78L142.46 981.32C143.14 981.84 143.84 982.27 144.56 982.61C145.3 982.95 146.08 983.21 146.9 983.39C147.74 983.55 148.65 983.63 149.63 983.63C151.31 983.63 152.54 983.33 153.32 982.73C154.12 982.13 154.52 981.34 154.52 980.36C154.52 979.52 154.24 978.87 153.68 978.41C153.14 977.95 152.18 977.58 150.8 977.3L147.53 976.64C145.59 976.24 144.14 975.59 143.18 974.69C142.24 973.77 141.77 972.52 141.77 970.94C141.77 969.66 142.11 968.54 142.79 967.58C143.47 966.62 144.41 965.88 145.61 965.36C146.83 964.84 148.25 964.58 149.87 964.58C151.37 964.58 152.75 964.8 154.01 965.24C155.27 965.66 156.33 966.29 157.19 967.13L156.17 969.5C155.27 968.72 154.31 968.15 153.29 967.79C152.27 967.41 151.11 967.22 149.81 967.22C148.27 967.22 147.06 967.54 146.18 968.18C145.32 968.82 144.89 969.69 144.89 970.79C144.89 971.67 145.16 972.36 145.7 972.86C146.26 973.36 147.18 973.74 148.46 974L151.73 974.63C153.75 975.05 155.24 975.7 156.2 976.58C157.16 977.44 157.64 978.63 157.64 980.15C157.64 981.37 157.31 982.44 156.65 983.36C156.01 984.28 155.09 985 153.89 985.52C152.69 986.02 151.27 986.27 149.63 986.27ZM161.474 986V964.85H164.594V986H161.474ZM179.52 986.27C177.18 986.27 175.21 985.84 173.61 984.98C172.03 984.1 170.84 982.85 170.04 981.23C169.24 979.61 168.84 977.68 168.84 975.44C168.84 973.2 169.26 971.27 170.1 969.65C170.96 968.03 172.18 966.78 173.76 965.9C175.36 965.02 177.28 964.58 179.52 964.58C181.06 964.58 182.4 964.8 183.54 965.24C184.68 965.66 185.7 966.28 186.6 967.1L185.49 969.53C184.85 968.99 184.23 968.56 183.63 968.24C183.03 967.92 182.41 967.69 181.77 967.55C181.13 967.39 180.38 967.31 179.52 967.31C177.1 967.31 175.26 968.02 174 969.44C172.74 970.86 172.11 972.87 172.11 975.47C172.11 978.11 172.71 980.12 173.91 981.5C175.13 982.88 177.04 983.57 179.64 983.57C180.54 983.57 181.43 983.49 182.31 983.33C183.19 983.15 184.04 982.89 184.86 982.55L184.26 984.02V977.09H179.04V974.75H186.87V984.74C185.95 985.2 184.82 985.57 183.48 985.85C182.16 986.13 180.84 986.27 179.52 986.27ZM191.621 986V964.85H194.021L207.011 981.89H206.261V964.85H209.171V986H206.801L193.841 968.96H194.531V986H191.621ZM230.699 986.27C227.759 986.27 225.569 985.53 224.129 984.05C222.709 982.57 221.999 980.38 221.999 977.48V964.85H225.119V977.42C225.119 979.46 225.559 981 226.439 982.04C227.339 983.06 228.759 983.57 230.699 983.57C232.539 983.57 233.929 983.06 234.869 982.04C235.809 981 236.279 979.46 236.279 977.42V964.85H239.339V977.48C239.339 980.38 238.609 982.57 237.149 984.05C235.689 985.53 233.539 986.27 230.699 986.27ZM244.179 986V964.85H253.149C255.409 964.85 257.139 965.4 258.339 966.5C259.559 967.58 260.169 969.08 260.169 971C260.169 972.92 259.559 974.43 258.339 975.53C257.139 976.63 255.409 977.18 253.149 977.18H247.299V986H244.179ZM247.299 974.69H252.819C254.239 974.69 255.309 974.37 256.029 973.73C256.749 973.09 257.109 972.18 257.109 971C257.109 969.84 256.749 968.94 256.029 968.3C255.309 967.66 254.239 967.34 252.819 967.34H247.299V974.69ZM278.734 986.27C277.814 986.27 276.904 986.17 276.004 985.97C275.104 985.77 274.264 985.49 273.484 985.13C272.704 984.75 272.024 984.3 271.444 983.78L272.524 981.41C273.484 982.15 274.464 982.71 275.464 983.09C276.484 983.45 277.554 983.63 278.674 983.63C280.094 983.63 281.204 983.26 282.004 982.52C282.824 981.78 283.234 980.79 283.234 979.55C283.234 978.27 282.844 977.24 282.064 976.46C281.304 975.66 280.244 975.26 278.884 975.26C277.944 975.26 277.084 975.45 276.304 975.83C275.544 976.21 274.874 976.79 274.294 977.57H272.134V964.85H284.944V967.46H275.104V975.08H274.324C274.864 974.32 275.584 973.73 276.484 973.31C277.404 972.89 278.434 972.68 279.574 972.68C280.934 972.68 282.114 972.96 283.114 973.52C284.114 974.08 284.884 974.86 285.424 975.86C285.984 976.86 286.264 978.04 286.264 979.4C286.264 980.76 285.954 981.96 285.334 983C284.734 984.02 283.864 984.82 282.724 985.4C281.604 985.98 280.274 986.27 278.734 986.27Z" fill="black"/>
</svg>
