<svg width="428" height="994" viewBox="0 0 428 994" fill="none" xmlns="http://www.w3.org/2000/svg">
<rect x="1" y="1" width="426" height="924" fill="white"/>
<path d="M33.5336 25.9711C32.7225 25.9944 31.9276 25.7408 31.2798 25.2522C30.6686 24.7857 30.2601 24.1022 30.1386 23.343H31.8549C31.9555 23.6941 32.1739 24 32.4734 24.2091C32.789 24.4255 33.1649 24.5365 33.5473 24.5264C33.8809 24.5333 34.2102 24.4505 34.5007 24.2864C34.7912 24.1224 35.0323 23.8832 35.1986 23.594C35.6364 22.8036 35.8424 21.9057 35.7932 21.0035H35.6791C35.4614 21.4507 35.1143 21.8221 34.6828 22.0694C34.2236 22.327 33.704 22.4574 33.1776 22.4471C32.7557 22.4598 32.3357 22.3853 31.944 22.2282C31.5522 22.0711 31.1971 21.8348 30.9009 21.5342C30.6032 21.2317 30.37 20.8719 30.2154 20.4766C30.0608 20.0814 29.9881 19.6588 30.0016 19.2346C29.9872 18.7802 30.0695 18.3279 30.243 17.9077C30.4165 17.4875 30.6773 17.1089 31.0081 16.797C31.6132 16.2733 32.3645 15.9479 33.1604 15.8649C33.9564 15.7818 34.7586 15.9451 35.4588 16.3326C36.0184 16.6748 36.4704 17.1675 36.7632 17.7545C37.25 18.6951 37.4859 19.7454 37.4479 20.8038C37.5275 22.1503 37.1631 23.4857 36.4106 24.6051C36.0788 25.0502 35.6432 25.4074 35.1418 25.6455C34.6403 25.8836 34.0882 25.9954 33.5336 25.9711V25.9711ZM32.2292 20.5504C32.4092 20.7277 32.6235 20.8664 32.859 20.9578C33.0945 21.0493 33.3462 21.0916 33.5987 21.0822C33.8507 21.0903 34.1018 21.0478 34.337 20.957C34.5722 20.8662 34.7869 20.7291 34.9681 20.5539C35.1462 20.3807 35.2863 20.1724 35.3794 19.9421C35.4726 19.7118 35.5167 19.4647 35.509 19.2164C35.5151 18.9629 35.4696 18.7109 35.3755 18.4755C35.2813 18.2402 35.1404 18.0263 34.9613 17.8469C34.5991 17.5023 34.1168 17.3123 33.6169 17.3174C33.1169 17.3225 32.6386 17.5222 32.2835 17.8742C31.9284 18.2262 31.7245 18.7027 31.715 19.2026C31.7055 19.7025 31.8912 20.1864 32.2327 20.5516L32.2292 20.5504Z" fill="#111111"/>
<path d="M39.4052 18.6421C39.3997 18.495 39.4241 18.3483 39.4771 18.211C39.5301 18.0736 39.6105 17.9485 39.7134 17.8433C39.8215 17.7395 39.9496 17.6588 40.0898 17.606C40.2301 17.5532 40.3796 17.5295 40.5293 17.5363C40.6776 17.5315 40.8253 17.5566 40.9637 17.6101C41.1021 17.6635 41.2284 17.7443 41.3349 17.8475C41.4415 17.9507 41.5263 18.0743 41.5841 18.2109C41.642 18.3475 41.6718 18.4943 41.6718 18.6427C41.6718 18.791 41.642 18.9379 41.5841 19.0745C41.5263 19.2111 41.4415 19.3347 41.3349 19.4379C41.2284 19.5411 41.1021 19.6218 40.9637 19.6753C40.8253 19.7287 40.6776 19.7538 40.5293 19.7491C40.3796 19.7559 40.2301 19.7322 40.0898 19.6794C39.9496 19.6266 39.8215 19.5459 39.7134 19.4421C39.6099 19.337 39.5292 19.2117 39.4762 19.0741C39.4232 18.9365 39.3991 18.7895 39.4052 18.6421V18.6421ZM39.4052 23.6839C39.3992 23.5368 39.4234 23.3899 39.4764 23.2525C39.5294 23.1151 39.6101 22.9901 39.7134 22.8851C39.8213 22.7811 39.9494 22.7002 40.0897 22.6474C40.23 22.5946 40.3796 22.571 40.5293 22.5781C40.6776 22.5733 40.8253 22.5984 40.9637 22.6519C41.1021 22.7053 41.2284 22.7861 41.3349 22.8893C41.4415 22.9925 41.5263 23.1161 41.5841 23.2527C41.642 23.3893 41.6718 23.5361 41.6718 23.6845C41.6718 23.8328 41.642 23.9797 41.5841 24.1163C41.5263 24.2529 41.4415 24.3765 41.3349 24.4797C41.2284 24.5829 41.1021 24.6636 40.9637 24.7171C40.8253 24.7705 40.6776 24.7956 40.5293 24.7909C40.3795 24.7977 40.2299 24.7739 40.0896 24.7209C39.9493 24.668 39.8213 24.5869 39.7134 24.4827C39.6104 24.3775 39.53 24.2524 39.477 24.1151C39.424 23.9777 39.3996 23.831 39.4052 23.6839Z" fill="#111111"/>
<path d="M48.31 25.7426V23.9441H43.5957V22.4057C44.3808 20.9602 45.6917 18.8562 47.5283 16.0938H49.9613V22.4845H51.2657V23.9429H49.9613V25.7426H48.31ZM45.1945 22.4263V22.5267H48.3362V17.4974H48.2415C47.1992 19.038 46.1836 20.681 45.1945 22.4263V22.4263Z" fill="#111111"/>
<path d="M55.2186 25.7426V17.8318H55.1045L52.708 19.5173V17.8592L55.2289 16.0938H56.9476V25.7426H55.2186Z" fill="#111111"/>
<path d="M69.7406 25.7426L68.9258 23.2753H65.3744L64.5458 25.7426H62.7998L66.2234 16.0938H68.1634L71.5927 25.7426H69.7406ZM67.0998 17.9322L65.7761 21.9116H68.5241L67.214 17.9322H67.0998Z" fill="#111111"/>
<path d="M74.8565 25.7421H73.252V16.0933H75.2708L78.1729 23.1173H78.2927L81.1948 16.0898H83.2148V25.7421H81.6102V18.9554H81.5166L78.8485 25.3678H77.6182L74.9455 18.9554H74.8519L74.8565 25.7421Z" fill="#111111"/>
<path d="M359.489 22.8055C359.522 22.7722 359.549 22.7324 359.567 22.6884C359.585 22.6445 359.593 22.5974 359.592 22.55C359.591 22.5026 359.581 22.4558 359.561 22.4127C359.542 22.3695 359.513 22.3308 359.478 22.2988C358.794 21.7203 357.927 21.4029 357.032 21.4029C356.136 21.4029 355.269 21.7203 354.585 22.2988C354.55 22.3304 354.521 22.3688 354.502 22.4119C354.482 22.4549 354.471 22.5015 354.471 22.5488C354.469 22.5963 354.478 22.6436 354.496 22.6878C354.513 22.7319 354.54 22.772 354.573 22.8055L356.786 25.0377C356.818 25.0703 356.856 25.0962 356.898 25.1139C356.94 25.1316 356.985 25.1407 357.031 25.1407C357.077 25.1407 357.122 25.1316 357.164 25.1139C357.206 25.0962 357.244 25.0703 357.276 25.0377L359.489 22.8055ZM357.032 19.7243C358.381 19.7241 359.682 20.2251 360.683 21.1303C360.747 21.1926 360.833 21.2276 360.922 21.2276C361.012 21.2276 361.098 21.1926 361.162 21.1303L362.441 19.8373C362.474 19.8038 362.501 19.764 362.519 19.7202C362.537 19.6764 362.545 19.6295 362.545 19.5822C362.544 19.5348 362.534 19.4881 362.516 19.4447C362.497 19.4013 362.469 19.3621 362.435 19.3294C360.968 17.9647 359.039 17.206 357.036 17.206C355.032 17.206 353.103 17.9647 351.636 19.3294C351.601 19.3616 351.573 19.4005 351.553 19.4439C351.534 19.4872 351.523 19.5341 351.522 19.5816C351.521 19.629 351.53 19.676 351.548 19.7199C351.566 19.7638 351.592 19.8037 351.626 19.8373L352.904 21.1303C352.968 21.1933 353.054 21.2287 353.144 21.2287C353.234 21.2287 353.32 21.1933 353.384 21.1303C354.383 20.2245 355.683 19.7222 357.032 19.7209V19.7243ZM357.032 15.5224C359.485 15.5221 361.845 16.4647 363.623 18.1551C363.687 18.2182 363.773 18.2536 363.863 18.2536C363.953 18.2536 364.04 18.2182 364.104 18.1551L365.383 16.8633C365.416 16.8302 365.443 16.7907 365.461 16.7472C365.478 16.7037 365.487 16.657 365.487 16.61C365.487 16.563 365.478 16.5165 365.459 16.4733C365.441 16.4301 365.414 16.3911 365.379 16.3589C363.133 14.2059 360.142 13.0039 357.03 13.0039C353.919 13.0039 350.928 14.2059 348.681 16.3589C348.648 16.3915 348.621 16.4305 348.603 16.4736C348.584 16.5167 348.574 16.5631 348.574 16.61C348.574 16.6569 348.583 16.7035 348.601 16.747C348.619 16.7905 348.645 16.83 348.678 16.8633L349.96 18.1551C350.024 18.2179 350.11 18.253 350.199 18.253C350.289 18.253 350.375 18.2179 350.439 18.1551C352.217 16.463 354.577 15.5191 357.032 15.519V15.5224Z" fill="#111111"/>
<path d="M340.794 13.3711H341.901C342.046 13.3709 342.19 13.3995 342.325 13.455C342.459 13.5106 342.581 13.5921 342.684 13.6949C342.787 13.7977 342.869 13.9198 342.924 14.0542C342.98 14.1886 343.009 14.3326 343.009 14.4781V24.0744C343.009 24.2199 342.98 24.364 342.925 24.4985C342.869 24.6329 342.788 24.755 342.685 24.8579C342.582 24.9607 342.459 25.0422 342.325 25.0977C342.19 25.1532 342.046 25.1817 341.901 25.1814H340.794C340.5 25.1814 340.219 25.0647 340.011 24.8571C339.803 24.6495 339.687 24.368 339.687 24.0744V14.4781C339.687 14.1845 339.803 13.9029 340.011 13.6953C340.219 13.4877 340.5 13.3711 340.794 13.3711V13.3711ZM335.628 15.9548H336.735C336.88 15.9546 337.024 15.9831 337.159 16.0387C337.293 16.0943 337.415 16.1758 337.518 16.2786C337.621 16.3814 337.703 16.5035 337.758 16.6379C337.814 16.7722 337.843 16.9163 337.843 17.0617V24.0744C337.843 24.2199 337.814 24.3639 337.758 24.4983C337.703 24.6327 337.621 24.7547 337.518 24.8575C337.415 24.9604 337.293 25.0419 337.159 25.0974C337.024 25.153 336.88 25.1815 336.735 25.1814H335.628C335.482 25.1817 335.338 25.1532 335.204 25.0977C335.069 25.0422 334.947 24.9607 334.844 24.8578C334.741 24.755 334.66 24.6328 334.604 24.4984C334.549 24.3639 334.52 24.2199 334.521 24.0744V17.0617C334.52 16.9163 334.549 16.7723 334.605 16.6379C334.66 16.5036 334.742 16.3815 334.844 16.2787C334.947 16.1758 335.069 16.0943 335.204 16.0387C335.338 15.9831 335.482 15.9546 335.628 15.9548V15.9548ZM330.46 18.5384H331.568C331.862 18.5387 332.143 18.6555 332.351 18.863C332.558 19.0705 332.675 19.3519 332.675 19.6454V24.0744C332.675 24.368 332.559 24.6495 332.351 24.8571C332.143 25.0647 331.862 25.1814 331.568 25.1814H330.46C330.315 25.1815 330.171 25.153 330.036 25.0974C329.902 25.0418 329.78 24.9603 329.677 24.8575C329.574 24.7547 329.493 24.6326 329.437 24.4982C329.382 24.3638 329.353 24.2198 329.353 24.0744V19.6454C329.353 19.3518 329.47 19.0703 329.677 18.8627C329.885 18.6551 330.167 18.5384 330.46 18.5384V18.5384ZM325.292 20.7535H326.399C326.692 20.7535 326.974 20.8701 327.181 21.0777C327.389 21.2853 327.506 21.5669 327.506 21.8605V24.0744C327.506 24.2198 327.477 24.3638 327.422 24.4982C327.366 24.6326 327.285 24.7547 327.182 24.8575C327.079 24.9603 326.957 25.0418 326.822 25.0974C326.688 25.153 326.544 25.1815 326.399 25.1814H325.292C325.146 25.1815 325.002 25.153 324.868 25.0974C324.733 25.0419 324.611 24.9604 324.508 24.8575C324.405 24.7547 324.324 24.6327 324.268 24.4983C324.212 24.3639 324.184 24.2199 324.184 24.0744V21.8628C324.183 21.7171 324.212 21.5729 324.268 21.4384C324.323 21.3038 324.405 21.1815 324.508 21.0785C324.611 20.9755 324.733 20.8937 324.867 20.838C325.002 20.7822 325.146 20.7535 325.292 20.7535Z" fill="#111111"/>
<path d="M392.472 14.1081C392.962 14.1087 393.43 14.3034 393.776 14.6493C394.122 14.9953 394.316 15.4643 394.317 15.9534V22.5975C394.316 23.0866 394.122 23.5556 393.776 23.9016C393.43 24.2476 392.962 24.4422 392.472 24.4428H374.015C373.526 24.4422 373.057 24.2476 372.711 23.9016C372.365 23.5556 372.171 23.0866 372.17 22.5975V15.9534C372.171 15.4643 372.365 14.9953 372.711 14.6493C373.057 14.3034 373.526 14.1087 374.015 14.1081H392.472V14.1081ZM392.472 13H374.015C373.627 13.0001 373.243 13.0767 372.885 13.2252C372.527 13.3737 372.201 13.5913 371.927 13.8655C371.653 14.1398 371.436 14.4653 371.288 14.8235C371.14 15.1818 371.063 15.5657 371.063 15.9534V22.5975C371.063 22.9852 371.14 23.3691 371.288 23.7274C371.436 24.0856 371.653 24.4111 371.927 24.6854C372.201 24.9596 372.527 25.1772 372.885 25.3257C373.243 25.4743 373.627 25.5508 374.015 25.5509H392.472C392.86 25.5508 393.244 25.4743 393.602 25.3257C393.96 25.1772 394.286 24.9596 394.56 24.6854C394.834 24.4111 395.051 24.0856 395.199 23.7274C395.347 23.3691 395.424 22.9852 395.424 22.5975V15.9534C395.424 15.5657 395.347 15.1818 395.199 14.8235C395.051 14.4653 394.834 14.1398 394.56 13.8655C394.286 13.5913 393.96 13.3737 393.602 13.2252C393.244 13.0767 392.86 13.0001 392.472 13V13Z" fill="#111111"/>
<path d="M396.531 17.0586V21.4887C396.967 21.3052 397.339 20.9971 397.601 20.6031C397.863 20.2091 398.002 19.7466 398.002 19.2737C398.002 18.8007 397.863 18.3382 397.601 17.9442C397.339 17.5502 396.967 17.2421 396.531 17.0586Z" fill="#111111"/>
<path d="M374.756 15.2148H391.734C391.928 15.2148 392.12 15.253 392.299 15.3273C392.478 15.4015 392.641 15.5102 392.778 15.6474C392.915 15.7845 393.024 15.9473 393.098 16.1264C393.172 16.3056 393.21 16.4976 393.21 16.6916V21.8589C393.21 22.053 393.172 22.2452 393.098 22.4245C393.024 22.6038 392.915 22.7667 392.777 22.9039C392.64 23.0411 392.477 23.15 392.298 23.2243C392.119 23.2985 391.927 23.3368 391.732 23.3368H374.756C374.364 23.3368 373.988 23.1811 373.711 22.9039C373.434 22.6268 373.278 22.2509 373.278 21.8589V16.6927C373.278 16.3007 373.434 15.9248 373.711 15.6477C373.988 15.3705 374.364 15.2148 374.756 15.2148V15.2148Z" fill="#111111"/>
<g clip-path="url(#clip0_1304_4345)">
<path d="M382.649 77.0156L389.658 70.0065C390.114 69.5506 390.114 68.8135 389.658 68.3576C389.202 67.9016 388.465 67.9016 388.009 68.3576L381 75.3666L373.991 68.3576C373.535 67.9016 372.798 67.9016 372.342 68.3576C371.886 68.8135 371.886 69.5506 372.342 70.0065L379.351 77.0156L372.342 84.0246C371.886 84.4805 371.886 85.2177 372.342 85.6736C372.569 85.901 372.868 86.0153 373.167 86.0153C373.465 86.0153 373.764 85.901 373.991 85.6736L381 78.6645L388.009 85.6736C388.236 85.901 388.535 86.0153 388.833 86.0153C389.132 86.0153 389.431 85.901 389.658 85.6736C390.114 85.2177 390.114 84.4805 389.658 84.0246L382.649 77.0156Z" fill="#111111" fill-opacity="0.7"/>
</g>
<rect x="36" y="227" width="32.9991" height="33" fill="#E0E0E0"/>
<line y1="-0.5" x2="46.6097" y2="-0.5" transform="matrix(0.707997 0.706216 -0.476316 0.879274 36 227.082)" stroke="#868686"/>
<line y1="-0.5" x2="46.6077" y2="-0.5" transform="matrix(0.708038 -0.706174 0.476272 0.879298 36 259.996)" stroke="#868686"/>
<path d="M89.826 252V236.49H92.114V243.178H100.826V236.49H103.114V252H100.826V245.092H92.114V252H89.826ZM111.31 252.198C110.21 252.198 109.256 251.971 108.45 251.516C107.643 251.047 107.02 250.387 106.58 249.536C106.14 248.671 105.92 247.644 105.92 246.456C105.92 245.268 106.14 244.249 106.58 243.398C107.02 242.533 107.643 241.873 108.45 241.418C109.256 240.949 110.21 240.714 111.31 240.714C112.41 240.714 113.363 240.949 114.17 241.418C114.991 241.873 115.622 242.533 116.062 243.398C116.516 244.249 116.744 245.268 116.744 246.456C116.744 247.644 116.516 248.671 116.062 249.536C115.622 250.387 114.991 251.047 114.17 251.516C113.363 251.971 112.41 252.198 111.31 252.198ZM111.31 250.46C112.278 250.46 113.048 250.123 113.62 249.448C114.192 248.773 114.478 247.776 114.478 246.456C114.478 245.136 114.192 244.146 113.62 243.486C113.048 242.811 112.278 242.474 111.31 242.474C110.356 242.474 109.594 242.811 109.022 243.486C108.45 244.146 108.164 245.136 108.164 246.456C108.164 247.776 108.442 248.773 109 249.448C109.572 250.123 110.342 250.46 111.31 250.46ZM119.341 252V243.574C119.341 243.149 119.319 242.716 119.275 242.276C119.246 241.821 119.209 241.367 119.165 240.912H121.321L121.519 243.244H121.255C121.563 242.437 122.032 241.814 122.663 241.374C123.308 240.934 124.078 240.714 124.973 240.714C125.882 240.714 126.623 240.934 127.195 241.374C127.782 241.799 128.185 242.459 128.405 243.354H128.053C128.346 242.547 128.845 241.909 129.549 241.44C130.253 240.956 131.067 240.714 131.991 240.714C133.223 240.714 134.147 241.073 134.763 241.792C135.379 242.511 135.687 243.625 135.687 245.136V252H133.465V245.246C133.465 244.278 133.296 243.581 132.959 243.156C132.636 242.716 132.108 242.496 131.375 242.496C130.524 242.496 129.85 242.789 129.351 243.376C128.852 243.963 128.603 244.755 128.603 245.752V252H126.381V245.246C126.381 244.278 126.212 243.581 125.875 243.156C125.552 242.716 125.024 242.496 124.291 242.496C123.44 242.496 122.773 242.789 122.289 243.376C121.805 243.963 121.563 244.755 121.563 245.752V252H119.341ZM143.996 252.198C142.207 252.198 140.799 251.692 139.772 250.68C138.746 249.668 138.232 248.267 138.232 246.478C138.232 245.319 138.452 244.307 138.892 243.442C139.347 242.577 139.97 241.909 140.762 241.44C141.569 240.956 142.5 240.714 143.556 240.714C144.598 240.714 145.47 240.934 146.174 241.374C146.878 241.814 147.414 242.437 147.78 243.244C148.147 244.036 148.33 244.975 148.33 246.06V246.764H139.97V245.488H146.812L146.438 245.774C146.438 244.674 146.189 243.823 145.69 243.222C145.206 242.606 144.502 242.298 143.578 242.298C142.552 242.298 141.76 242.657 141.202 243.376C140.645 244.08 140.366 245.055 140.366 246.302V246.522C140.366 247.827 140.682 248.81 141.312 249.47C141.958 250.13 142.867 250.46 144.04 250.46C144.686 250.46 145.287 250.372 145.844 250.196C146.416 250.005 146.959 249.697 147.472 249.272L148.198 250.79C147.685 251.245 147.062 251.597 146.328 251.846C145.595 252.081 144.818 252.198 143.996 252.198Z" fill="#353535"/>
<rect x="36" y="275" width="32.9991" height="33" fill="#E0E0E0"/>
<line y1="-0.5" x2="46.6097" y2="-0.5" transform="matrix(0.707997 0.706216 -0.476316 0.879274 36 275.086)" stroke="#868686"/>
<line y1="-0.5" x2="46.6077" y2="-0.5" transform="matrix(0.708038 -0.706174 0.476272 0.879298 36 307.996)" stroke="#868686"/>
<path d="M89.826 300V284.49H99.77V286.316H92.114V291.288H99.264V293.114H92.114V300H89.826ZM102.11 300V288.912H104.332V300H102.11ZM101.934 286.602V284.292H104.508V286.602H101.934ZM107.589 300V291.574C107.589 291.149 107.567 290.716 107.523 290.276C107.494 289.821 107.457 289.367 107.413 288.912H109.569L109.767 291.244H109.503C109.84 290.423 110.361 289.799 111.065 289.374C111.769 288.934 112.583 288.714 113.507 288.714C114.812 288.714 115.795 289.073 116.455 289.792C117.13 290.511 117.467 291.625 117.467 293.136V300H115.245V293.268C115.245 292.285 115.047 291.581 114.651 291.156C114.27 290.716 113.683 290.496 112.891 290.496C111.952 290.496 111.204 290.789 110.647 291.376C110.09 291.948 109.811 292.725 109.811 293.708V300H107.589ZM124.876 300.198C123.908 300.198 123.05 299.971 122.302 299.516C121.569 299.061 120.997 298.401 120.586 297.536C120.19 296.671 119.992 295.644 119.992 294.456C119.992 293.253 120.19 292.227 120.586 291.376C120.997 290.525 121.569 289.873 122.302 289.418C123.05 288.949 123.908 288.714 124.876 288.714C125.829 288.714 126.665 288.956 127.384 289.44C128.117 289.909 128.601 290.555 128.836 291.376H128.572V283.808H130.794V300H128.594V297.492H128.858C128.609 298.328 128.125 298.988 127.406 299.472C126.687 299.956 125.844 300.198 124.876 300.198ZM125.426 298.46C126.379 298.46 127.149 298.123 127.736 297.448C128.323 296.773 128.616 295.776 128.616 294.456C128.616 293.136 128.323 292.146 127.736 291.486C127.149 290.811 126.379 290.474 125.426 290.474C124.458 290.474 123.681 290.811 123.094 291.486C122.522 292.146 122.236 293.136 122.236 294.456C122.236 295.776 122.522 296.773 123.094 297.448C123.681 298.123 124.458 298.46 125.426 298.46ZM140.121 300V284.49H142.123L148.107 297.976H147.447L153.431 284.49H155.411V300H153.343V287.592H154.069L148.481 300H147.051L141.463 287.592H142.211V300H140.121ZM163.161 300.198C162.178 300.198 161.32 299.971 160.587 299.516C159.854 299.061 159.282 298.401 158.871 297.536C158.475 296.671 158.277 295.644 158.277 294.456C158.277 293.253 158.475 292.227 158.871 291.376C159.282 290.525 159.854 289.873 160.587 289.418C161.32 288.949 162.178 288.714 163.161 288.714C164.129 288.714 164.972 288.956 165.691 289.44C166.41 289.924 166.886 290.584 167.121 291.42H166.879L167.099 288.912H169.255C169.211 289.367 169.167 289.821 169.123 290.276C169.094 290.716 169.079 291.149 169.079 291.574V300H166.857V297.536H167.099C166.864 298.357 166.38 299.01 165.647 299.494C164.928 299.963 164.1 300.198 163.161 300.198ZM163.711 298.46C164.664 298.46 165.427 298.123 165.999 297.448C166.586 296.773 166.879 295.776 166.879 294.456C166.879 293.136 166.586 292.146 165.999 291.486C165.427 290.811 164.664 290.474 163.711 290.474C162.743 290.474 161.966 290.811 161.379 291.486C160.807 292.146 160.521 293.136 160.521 294.456C160.521 295.776 160.807 296.773 161.379 297.448C161.951 298.123 162.728 298.46 163.711 298.46ZM176.633 300.198C175.431 300.198 174.521 299.875 173.905 299.23C173.289 298.57 172.981 297.587 172.981 296.282V290.628H170.825V288.912H172.981V285.986L175.203 285.392V288.912H178.283V290.628H175.203V296.084C175.203 296.905 175.35 297.492 175.643 297.844C175.937 298.196 176.362 298.372 176.919 298.372C177.198 298.372 177.44 298.35 177.645 298.306C177.865 298.247 178.063 298.181 178.239 298.108V299.912C178.019 300 177.763 300.066 177.469 300.11C177.176 300.169 176.897 300.198 176.633 300.198ZM185.068 300.198C183.953 300.198 182.978 299.971 182.142 299.516C181.321 299.047 180.683 298.379 180.228 297.514C179.788 296.634 179.568 295.593 179.568 294.39C179.568 293.202 179.795 292.183 180.25 291.332C180.705 290.481 181.343 289.836 182.164 289.396C182.985 288.941 183.953 288.714 185.068 288.714C185.787 288.714 186.483 288.839 187.158 289.088C187.833 289.323 188.39 289.66 188.83 290.1L188.104 291.662C187.693 291.266 187.231 290.973 186.718 290.782C186.205 290.577 185.706 290.474 185.222 290.474C184.166 290.474 183.337 290.811 182.736 291.486C182.135 292.161 181.834 293.136 181.834 294.412C181.834 295.703 182.135 296.693 182.736 297.382C183.337 298.071 184.166 298.416 185.222 298.416C185.691 298.416 186.183 298.328 186.696 298.152C187.209 297.961 187.679 297.661 188.104 297.25L188.83 298.812C188.375 299.252 187.803 299.597 187.114 299.846C186.439 300.081 185.757 300.198 185.068 300.198ZM191.185 300V283.808H193.407V291.266H193.099C193.421 290.43 193.942 289.799 194.661 289.374C195.379 288.934 196.208 288.714 197.147 288.714C198.467 288.714 199.449 289.081 200.095 289.814C200.74 290.533 201.063 291.625 201.063 293.092V300H198.841V293.224C198.841 292.271 198.65 291.581 198.269 291.156C197.902 290.716 197.315 290.496 196.509 290.496C195.57 290.496 194.815 290.789 194.243 291.376C193.685 291.948 193.407 292.711 193.407 293.664V300H191.185Z" fill="#353535"/>
<rect x="36" y="323" width="32.9991" height="33" fill="#E0E0E0"/>
<line y1="-0.5" x2="46.6097" y2="-0.5" transform="matrix(0.707997 0.706216 -0.476316 0.879274 36 323.086)" stroke="#868686"/>
<line y1="-0.5" x2="46.6077" y2="-0.5" transform="matrix(0.708038 -0.706174 0.476272 0.879298 36 355.996)" stroke="#868686"/>
<path d="M89.826 348V332.49H92.114V339.178H100.826V332.49H103.114V348H100.826V341.092H92.114V348H89.826ZM110.804 348.198C109.821 348.198 108.963 347.971 108.23 347.516C107.496 347.061 106.924 346.401 106.514 345.536C106.118 344.671 105.92 343.644 105.92 342.456C105.92 341.253 106.118 340.227 106.514 339.376C106.924 338.525 107.496 337.873 108.23 337.418C108.963 336.949 109.821 336.714 110.804 336.714C111.772 336.714 112.615 336.956 113.334 337.44C114.052 337.924 114.529 338.584 114.764 339.42H114.522L114.742 336.912H116.898C116.854 337.367 116.81 337.821 116.766 338.276C116.736 338.716 116.722 339.149 116.722 339.574V348H114.5V345.536H114.742C114.507 346.357 114.023 347.01 113.29 347.494C112.571 347.963 111.742 348.198 110.804 348.198ZM111.354 346.46C112.307 346.46 113.07 346.123 113.642 345.448C114.228 344.773 114.522 343.776 114.522 342.456C114.522 341.136 114.228 340.146 113.642 339.486C113.07 338.811 112.307 338.474 111.354 338.474C110.386 338.474 109.608 338.811 109.022 339.486C108.45 340.146 108.164 341.136 108.164 342.456C108.164 343.776 108.45 344.773 109.022 345.448C109.594 346.123 110.371 346.46 111.354 346.46ZM119.964 352.752V339.574C119.964 339.149 119.942 338.716 119.898 338.276C119.869 337.821 119.832 337.367 119.788 336.912H121.944L122.164 339.42H121.922C122.157 338.584 122.626 337.924 123.33 337.44C124.049 336.956 124.899 336.714 125.882 336.714C126.865 336.714 127.723 336.949 128.456 337.418C129.189 337.873 129.754 338.525 130.15 339.376C130.561 340.227 130.766 341.253 130.766 342.456C130.766 343.644 130.561 344.671 130.15 345.536C129.754 346.401 129.189 347.061 128.456 347.516C127.723 347.971 126.865 348.198 125.882 348.198C124.914 348.198 124.071 347.963 123.352 347.494C122.648 347.01 122.179 346.357 121.944 345.536H122.186V352.752H119.964ZM125.332 346.46C126.3 346.46 127.07 346.123 127.642 345.448C128.229 344.773 128.522 343.776 128.522 342.456C128.522 341.136 128.229 340.146 127.642 339.486C127.07 338.811 126.3 338.474 125.332 338.474C124.364 338.474 123.587 338.811 123 339.486C122.428 340.146 122.142 341.136 122.142 342.456C122.142 343.776 122.428 344.773 123 345.448C123.587 346.123 124.364 346.46 125.332 346.46ZM133.37 352.752V339.574C133.37 339.149 133.348 338.716 133.304 338.276C133.275 337.821 133.238 337.367 133.194 336.912H135.35L135.57 339.42H135.328C135.563 338.584 136.032 337.924 136.736 337.44C137.455 336.956 138.306 336.714 139.288 336.714C140.271 336.714 141.129 336.949 141.862 337.418C142.596 337.873 143.16 338.525 143.556 339.376C143.967 340.227 144.172 341.253 144.172 342.456C144.172 343.644 143.967 344.671 143.556 345.536C143.16 346.401 142.596 347.061 141.862 347.516C141.129 347.971 140.271 348.198 139.288 348.198C138.32 348.198 137.477 347.963 136.758 347.494C136.054 347.01 135.585 346.357 135.35 345.536H135.592V352.752H133.37ZM138.738 346.46C139.706 346.46 140.476 346.123 141.048 345.448C141.635 344.773 141.928 343.776 141.928 342.456C141.928 341.136 141.635 340.146 141.048 339.486C140.476 338.811 139.706 338.474 138.738 338.474C137.77 338.474 136.993 338.811 136.406 339.486C135.834 340.146 135.548 341.136 135.548 342.456C135.548 343.776 135.834 344.773 136.406 345.448C136.993 346.123 137.77 346.46 138.738 346.46ZM146.253 352.994L145.725 351.19C146.414 351.043 146.986 350.867 147.441 350.662C147.91 350.457 148.299 350.185 148.607 349.848C148.915 349.525 149.179 349.107 149.399 348.594L149.949 347.296L149.905 348.198L145.087 336.912H147.463L151.203 346.152H150.609L154.349 336.912H156.637L151.555 348.792C151.232 349.525 150.888 350.141 150.521 350.64C150.154 351.139 149.758 351.542 149.333 351.85C148.908 352.158 148.438 352.4 147.925 352.576C147.412 352.752 146.854 352.891 146.253 352.994ZM169.677 348.198C168.431 348.198 167.301 348.044 166.289 347.736C165.277 347.413 164.397 346.959 163.649 346.372L164.419 344.568C164.918 344.949 165.431 345.265 165.959 345.514C166.502 345.763 167.074 345.954 167.675 346.086C168.291 346.203 168.959 346.262 169.677 346.262C170.909 346.262 171.811 346.042 172.383 345.602C172.97 345.162 173.263 344.583 173.263 343.864C173.263 343.248 173.058 342.771 172.647 342.434C172.251 342.097 171.547 341.825 170.535 341.62L168.137 341.136C166.715 340.843 165.651 340.366 164.947 339.706C164.258 339.031 163.913 338.115 163.913 336.956C163.913 336.017 164.163 335.196 164.661 334.492C165.16 333.788 165.849 333.245 166.729 332.864C167.624 332.483 168.665 332.292 169.853 332.292C170.953 332.292 171.965 332.453 172.889 332.776C173.813 333.084 174.591 333.546 175.221 334.162L174.473 335.9C173.813 335.328 173.109 334.91 172.361 334.646C171.613 334.367 170.763 334.228 169.809 334.228C168.68 334.228 167.793 334.463 167.147 334.932C166.517 335.401 166.201 336.039 166.201 336.846C166.201 337.491 166.399 337.997 166.795 338.364C167.206 338.731 167.881 339.009 168.819 339.2L171.217 339.662C172.699 339.97 173.791 340.447 174.495 341.092C175.199 341.723 175.551 342.595 175.551 343.71C175.551 344.605 175.309 345.389 174.825 346.064C174.356 346.739 173.681 347.267 172.801 347.648C171.921 348.015 170.88 348.198 169.677 348.198ZM182.413 348.198C181.21 348.198 180.301 347.875 179.685 347.23C179.069 346.57 178.761 345.587 178.761 344.282V338.628H176.605V336.912H178.761V333.986L180.983 333.392V336.912H184.063V338.628H180.983V344.084C180.983 344.905 181.129 345.492 181.423 345.844C181.716 346.196 182.141 346.372 182.699 346.372C182.977 346.372 183.219 346.35 183.425 346.306C183.645 346.247 183.843 346.181 184.019 346.108V347.912C183.799 348 183.542 348.066 183.249 348.11C182.955 348.169 182.677 348.198 182.413 348.198ZM190.737 348.198C189.637 348.198 188.684 347.971 187.877 347.516C187.071 347.047 186.447 346.387 186.007 345.536C185.567 344.671 185.347 343.644 185.347 342.456C185.347 341.268 185.567 340.249 186.007 339.398C186.447 338.533 187.071 337.873 187.877 337.418C188.684 336.949 189.637 336.714 190.737 336.714C191.837 336.714 192.791 336.949 193.597 337.418C194.419 337.873 195.049 338.533 195.489 339.398C195.944 340.249 196.171 341.268 196.171 342.456C196.171 343.644 195.944 344.671 195.489 345.536C195.049 346.387 194.419 347.047 193.597 347.516C192.791 347.971 191.837 348.198 190.737 348.198ZM190.737 346.46C191.705 346.46 192.475 346.123 193.047 345.448C193.619 344.773 193.905 343.776 193.905 342.456C193.905 341.136 193.619 340.146 193.047 339.486C192.475 338.811 191.705 338.474 190.737 338.474C189.784 338.474 189.021 338.811 188.449 339.486C187.877 340.146 187.591 341.136 187.591 342.456C187.591 343.776 187.87 344.773 188.427 345.448C188.999 346.123 189.769 346.46 190.737 346.46ZM198.725 348V339.662C198.725 339.207 198.71 338.753 198.681 338.298C198.666 337.829 198.637 337.367 198.593 336.912H200.749L200.991 339.772H200.639C200.785 339.083 201.035 338.511 201.387 338.056C201.739 337.601 202.164 337.264 202.663 337.044C203.176 336.824 203.711 336.714 204.269 336.714C204.503 336.714 204.701 336.729 204.863 336.758C205.024 336.773 205.185 336.802 205.347 336.846L205.325 338.826C205.075 338.723 204.855 338.665 204.665 338.65C204.489 338.621 204.269 338.606 204.005 338.606C203.359 338.606 202.809 338.753 202.355 339.046C201.9 339.325 201.555 339.706 201.321 340.19C201.086 340.674 200.969 341.195 200.969 341.752V348H198.725ZM207.062 348V336.912H209.284V348H207.062ZM206.886 334.602V332.292H209.46V334.602H206.886ZM217.666 348.198C215.877 348.198 214.469 347.692 213.442 346.68C212.415 345.668 211.902 344.267 211.902 342.478C211.902 341.319 212.122 340.307 212.562 339.442C213.017 338.577 213.64 337.909 214.432 337.44C215.239 336.956 216.17 336.714 217.226 336.714C218.267 336.714 219.14 336.934 219.844 337.374C220.548 337.814 221.083 338.437 221.45 339.244C221.817 340.036 222 340.975 222 342.06V342.764H213.64V341.488H220.482L220.108 341.774C220.108 340.674 219.859 339.823 219.36 339.222C218.876 338.606 218.172 338.298 217.248 338.298C216.221 338.298 215.429 338.657 214.872 339.376C214.315 340.08 214.036 341.055 214.036 342.302V342.522C214.036 343.827 214.351 344.81 214.982 345.47C215.627 346.13 216.537 346.46 217.71 346.46C218.355 346.46 218.957 346.372 219.514 346.196C220.086 346.005 220.629 345.697 221.142 345.272L221.868 346.79C221.355 347.245 220.731 347.597 219.998 347.846C219.265 348.081 218.487 348.198 217.666 348.198ZM228.356 348.198C227.432 348.198 226.581 348.081 225.804 347.846C225.027 347.611 224.381 347.281 223.868 346.856L224.55 345.338C225.093 345.749 225.694 346.057 226.354 346.262C227.014 346.467 227.689 346.57 228.378 346.57C229.185 346.57 229.793 346.431 230.204 346.152C230.615 345.859 230.82 345.463 230.82 344.964C230.82 344.583 230.688 344.275 230.424 344.04C230.175 343.805 229.757 343.629 229.17 343.512L227.058 343.094C226.119 342.889 225.408 342.537 224.924 342.038C224.44 341.539 224.198 340.901 224.198 340.124C224.198 339.464 224.374 338.877 224.726 338.364C225.093 337.851 225.606 337.447 226.266 337.154C226.941 336.861 227.725 336.714 228.62 336.714C229.441 336.714 230.204 336.831 230.908 337.066C231.612 337.301 232.199 337.638 232.668 338.078L231.964 339.552C231.509 339.171 230.996 338.877 230.424 338.672C229.852 338.452 229.273 338.342 228.686 338.342C227.865 338.342 227.256 338.496 226.86 338.804C226.464 339.112 226.266 339.515 226.266 340.014C226.266 340.395 226.383 340.711 226.618 340.96C226.867 341.195 227.256 341.378 227.784 341.51L229.896 341.928C230.893 342.133 231.641 342.471 232.14 342.94C232.639 343.409 232.888 344.04 232.888 344.832C232.888 345.521 232.697 346.123 232.316 346.636C231.935 347.149 231.407 347.538 230.732 347.802C230.057 348.066 229.265 348.198 228.356 348.198Z" fill="#353535"/>
<rect x="36" y="371" width="32.9991" height="33" fill="#E0E0E0"/>
<line y1="-0.5" x2="46.6097" y2="-0.5" transform="matrix(0.707997 0.706216 -0.476316 0.879274 36 371.086)" stroke="#868686"/>
<line y1="-0.5" x2="46.6077" y2="-0.5" transform="matrix(0.708038 -0.706174 0.476272 0.879298 36 403.996)" stroke="#868686"/>
<path d="M89.848 396V380.49H91.85L97.834 393.976H97.174L103.158 380.49H105.138V396H103.07V383.592H103.796L98.208 396H96.778L91.19 383.592H91.938V396H89.848ZM113.768 396.198C111.978 396.198 110.57 395.692 109.544 394.68C108.517 393.668 108.004 392.267 108.004 390.478C108.004 389.319 108.224 388.307 108.664 387.442C109.118 386.577 109.742 385.909 110.534 385.44C111.34 384.956 112.272 384.714 113.328 384.714C114.369 384.714 115.242 384.934 115.946 385.374C116.65 385.814 117.185 386.437 117.552 387.244C117.918 388.036 118.102 388.975 118.102 390.06V390.764H109.742V389.488H116.584L116.21 389.774C116.21 388.674 115.96 387.823 115.462 387.222C114.978 386.606 114.274 386.298 113.35 386.298C112.323 386.298 111.531 386.657 110.974 387.376C110.416 388.08 110.138 389.055 110.138 390.302V390.522C110.138 391.827 110.453 392.81 111.084 393.47C111.729 394.13 112.638 394.46 113.812 394.46C114.457 394.46 115.058 394.372 115.616 394.196C116.188 394.005 116.73 393.697 117.244 393.272L117.97 394.79C117.456 395.245 116.833 395.597 116.1 395.846C115.366 396.081 114.589 396.198 113.768 396.198ZM120.651 396V387.574C120.651 387.149 120.629 386.716 120.585 386.276C120.556 385.821 120.519 385.367 120.475 384.912H122.631L122.829 387.244H122.565C122.873 386.437 123.343 385.814 123.973 385.374C124.619 384.934 125.389 384.714 126.283 384.714C127.193 384.714 127.933 384.934 128.505 385.374C129.092 385.799 129.495 386.459 129.715 387.354H129.363C129.657 386.547 130.155 385.909 130.859 385.44C131.563 384.956 132.377 384.714 133.301 384.714C134.533 384.714 135.457 385.073 136.073 385.792C136.689 386.511 136.997 387.625 136.997 389.136V396H134.775V389.246C134.775 388.278 134.607 387.581 134.269 387.156C133.947 386.716 133.419 386.496 132.685 386.496C131.835 386.496 131.16 386.789 130.661 387.376C130.163 387.963 129.913 388.755 129.913 389.752V396H127.691V389.246C127.691 388.278 127.523 387.581 127.185 387.156C126.863 386.716 126.335 386.496 125.601 386.496C124.751 386.496 124.083 386.789 123.599 387.376C123.115 387.963 122.873 388.755 122.873 389.752V396H120.651ZM146.099 396.198C145.131 396.198 144.287 395.956 143.569 395.472C142.85 394.988 142.373 394.328 142.139 393.492H142.381V396H140.181V379.808H142.403V387.376H142.139C142.388 386.555 142.865 385.909 143.569 385.44C144.287 384.956 145.131 384.714 146.099 384.714C147.081 384.714 147.939 384.949 148.673 385.418C149.406 385.873 149.971 386.533 150.367 387.398C150.777 388.249 150.983 389.275 150.983 390.478C150.983 391.666 150.777 392.693 150.367 393.558C149.971 394.409 149.399 395.061 148.651 395.516C147.917 395.971 147.067 396.198 146.099 396.198ZM145.549 394.46C146.502 394.46 147.272 394.13 147.859 393.47C148.445 392.795 148.739 391.798 148.739 390.478C148.739 389.143 148.445 388.146 147.859 387.486C147.272 386.811 146.502 386.474 145.549 386.474C144.581 386.474 143.803 386.811 143.217 387.486C142.645 388.146 142.359 389.136 142.359 390.456C142.359 391.776 142.645 392.773 143.217 393.448C143.803 394.123 144.581 394.46 145.549 394.46ZM158.713 396.198C156.924 396.198 155.516 395.692 154.489 394.68C153.462 393.668 152.949 392.267 152.949 390.478C152.949 389.319 153.169 388.307 153.609 387.442C154.064 386.577 154.687 385.909 155.479 385.44C156.286 384.956 157.217 384.714 158.273 384.714C159.314 384.714 160.187 384.934 160.891 385.374C161.595 385.814 162.13 386.437 162.497 387.244C162.864 388.036 163.047 388.975 163.047 390.06V390.764H154.687V389.488H161.529L161.155 389.774C161.155 388.674 160.906 387.823 160.407 387.222C159.923 386.606 159.219 386.298 158.295 386.298C157.268 386.298 156.476 386.657 155.919 387.376C155.362 388.08 155.083 389.055 155.083 390.302V390.522C155.083 391.827 155.398 392.81 156.029 393.47C156.674 394.13 157.584 394.46 158.757 394.46C159.402 394.46 160.004 394.372 160.561 394.196C161.133 394.005 161.676 393.697 162.189 393.272L162.915 394.79C162.402 395.245 161.778 395.597 161.045 395.846C160.312 396.081 159.534 396.198 158.713 396.198ZM165.553 396V387.662C165.553 387.207 165.538 386.753 165.509 386.298C165.494 385.829 165.465 385.367 165.421 384.912H167.577L167.819 387.772H167.467C167.613 387.083 167.863 386.511 168.215 386.056C168.567 385.601 168.992 385.264 169.491 385.044C170.004 384.824 170.539 384.714 171.097 384.714C171.331 384.714 171.529 384.729 171.691 384.758C171.852 384.773 172.013 384.802 172.175 384.846L172.153 386.826C171.903 386.723 171.683 386.665 171.493 386.65C171.317 386.621 171.097 386.606 170.833 386.606C170.187 386.606 169.637 386.753 169.183 387.046C168.728 387.325 168.383 387.706 168.149 388.19C167.914 388.674 167.797 389.195 167.797 389.752V396H165.553ZM177.588 396.198C176.664 396.198 175.814 396.081 175.036 395.846C174.259 395.611 173.614 395.281 173.1 394.856L173.782 393.338C174.325 393.749 174.926 394.057 175.586 394.262C176.246 394.467 176.921 394.57 177.61 394.57C178.417 394.57 179.026 394.431 179.436 394.152C179.847 393.859 180.052 393.463 180.052 392.964C180.052 392.583 179.92 392.275 179.656 392.04C179.407 391.805 178.989 391.629 178.402 391.512L176.29 391.094C175.352 390.889 174.64 390.537 174.156 390.038C173.672 389.539 173.43 388.901 173.43 388.124C173.43 387.464 173.606 386.877 173.958 386.364C174.325 385.851 174.838 385.447 175.498 385.154C176.173 384.861 176.958 384.714 177.852 384.714C178.674 384.714 179.436 384.831 180.14 385.066C180.844 385.301 181.431 385.638 181.9 386.078L181.196 387.552C180.742 387.171 180.228 386.877 179.656 386.672C179.084 386.452 178.505 386.342 177.918 386.342C177.097 386.342 176.488 386.496 176.092 386.804C175.696 387.112 175.498 387.515 175.498 388.014C175.498 388.395 175.616 388.711 175.85 388.96C176.1 389.195 176.488 389.378 177.016 389.51L179.128 389.928C180.126 390.133 180.874 390.471 181.372 390.94C181.871 391.409 182.12 392.04 182.12 392.832C182.12 393.521 181.93 394.123 181.548 394.636C181.167 395.149 180.639 395.538 179.964 395.802C179.29 396.066 178.498 396.198 177.588 396.198ZM184.739 396V379.808H186.961V387.266H186.653C186.976 386.43 187.497 385.799 188.215 385.374C188.934 384.934 189.763 384.714 190.701 384.714C192.021 384.714 193.004 385.081 193.649 385.814C194.295 386.533 194.617 387.625 194.617 389.092V396H192.395V389.224C192.395 388.271 192.205 387.581 191.823 387.156C191.457 386.716 190.87 386.496 190.063 386.496C189.125 386.496 188.369 386.789 187.797 387.376C187.24 387.948 186.961 388.711 186.961 389.664V396H184.739ZM197.78 396V384.912H200.002V396H197.78ZM197.604 382.602V380.292H200.178V382.602H197.604ZM203.259 400.752V387.574C203.259 387.149 203.237 386.716 203.193 386.276C203.164 385.821 203.127 385.367 203.083 384.912H205.239L205.459 387.42H205.217C205.452 386.584 205.921 385.924 206.625 385.44C207.344 384.956 208.194 384.714 209.177 384.714C210.16 384.714 211.018 384.949 211.751 385.418C212.484 385.873 213.049 386.525 213.445 387.376C213.856 388.227 214.061 389.253 214.061 390.456C214.061 391.644 213.856 392.671 213.445 393.536C213.049 394.401 212.484 395.061 211.751 395.516C211.018 395.971 210.16 396.198 209.177 396.198C208.209 396.198 207.366 395.963 206.647 395.494C205.943 395.01 205.474 394.357 205.239 393.536H205.481V400.752H203.259ZM208.627 394.46C209.595 394.46 210.365 394.123 210.937 393.448C211.524 392.773 211.817 391.776 211.817 390.456C211.817 389.136 211.524 388.146 210.937 387.486C210.365 386.811 209.595 386.474 208.627 386.474C207.659 386.474 206.882 386.811 206.295 387.486C205.723 388.146 205.437 389.136 205.437 390.456C205.437 391.776 205.723 392.773 206.295 393.448C206.882 394.123 207.659 394.46 208.627 394.46Z" fill="#353535"/>
<rect x="36" y="505" width="32.9991" height="33" fill="#E0E0E0"/>
<line y1="-0.5" x2="46.6097" y2="-0.5" transform="matrix(0.707997 0.706216 -0.476316 0.879274 36 505.086)" stroke="#868686"/>
<line y1="-0.5" x2="46.6077" y2="-0.5" transform="matrix(0.708038 -0.706174 0.476272 0.879298 36 537.996)" stroke="#868686"/>
<path d="M95.062 530.198C93.8153 530.198 92.686 530.044 91.674 529.736C90.662 529.413 89.782 528.959 89.034 528.372L89.804 526.568C90.3027 526.949 90.816 527.265 91.344 527.514C91.8867 527.763 92.4587 527.954 93.06 528.086C93.676 528.203 94.3433 528.262 95.062 528.262C96.294 528.262 97.196 528.042 97.768 527.602C98.3547 527.162 98.648 526.583 98.648 525.864C98.648 525.248 98.4427 524.771 98.032 524.434C97.636 524.097 96.932 523.825 95.92 523.62L93.522 523.136C92.0993 522.843 91.036 522.366 90.332 521.706C89.6427 521.031 89.298 520.115 89.298 518.956C89.298 518.017 89.5473 517.196 90.046 516.492C90.5447 515.788 91.234 515.245 92.114 514.864C93.0087 514.483 94.05 514.292 95.238 514.292C96.338 514.292 97.35 514.453 98.274 514.776C99.198 515.084 99.9753 515.546 100.606 516.162L99.858 517.9C99.198 517.328 98.494 516.91 97.746 516.646C96.998 516.367 96.1473 516.228 95.194 516.228C94.0647 516.228 93.1773 516.463 92.532 516.932C91.9013 517.401 91.586 518.039 91.586 518.846C91.586 519.491 91.784 519.997 92.18 520.364C92.5907 520.731 93.2653 521.009 94.204 521.2L96.602 521.662C98.0833 521.97 99.176 522.447 99.88 523.092C100.584 523.723 100.936 524.595 100.936 525.71C100.936 526.605 100.694 527.389 100.21 528.064C99.7407 528.739 99.066 529.267 98.186 529.648C97.306 530.015 96.2647 530.198 95.062 530.198ZM103.55 530V513.808H105.772V521.266H105.464C105.787 520.43 106.307 519.799 107.026 519.374C107.745 518.934 108.573 518.714 109.512 518.714C110.832 518.714 111.815 519.081 112.46 519.814C113.105 520.533 113.428 521.625 113.428 523.092V530H111.206V523.224C111.206 522.271 111.015 521.581 110.634 521.156C110.267 520.716 109.681 520.496 108.874 520.496C107.935 520.496 107.18 520.789 106.608 521.376C106.051 521.948 105.772 522.711 105.772 523.664V530H103.55ZM120.837 530.198C119.854 530.198 118.996 529.971 118.263 529.516C117.53 529.061 116.958 528.401 116.547 527.536C116.151 526.671 115.953 525.644 115.953 524.456C115.953 523.253 116.151 522.227 116.547 521.376C116.958 520.525 117.53 519.873 118.263 519.418C118.996 518.949 119.854 518.714 120.837 518.714C121.805 518.714 122.648 518.956 123.367 519.44C124.086 519.924 124.562 520.584 124.797 521.42H124.555L124.775 518.912H126.931C126.887 519.367 126.843 519.821 126.799 520.276C126.77 520.716 126.755 521.149 126.755 521.574V530H124.533V527.536H124.775C124.54 528.357 124.056 529.01 123.323 529.494C122.604 529.963 121.776 530.198 120.837 530.198ZM121.387 528.46C122.34 528.46 123.103 528.123 123.675 527.448C124.262 526.773 124.555 525.776 124.555 524.456C124.555 523.136 124.262 522.146 123.675 521.486C123.103 520.811 122.34 520.474 121.387 520.474C120.419 520.474 119.642 520.811 119.055 521.486C118.483 522.146 118.197 523.136 118.197 524.456C118.197 525.776 118.483 526.773 119.055 527.448C119.627 528.123 120.404 528.46 121.387 528.46ZM129.953 530V521.662C129.953 521.207 129.938 520.753 129.909 520.298C129.894 519.829 129.865 519.367 129.821 518.912H131.977L132.219 521.772H131.867C132.014 521.083 132.263 520.511 132.615 520.056C132.967 519.601 133.392 519.264 133.891 519.044C134.404 518.824 134.94 518.714 135.497 518.714C135.732 518.714 135.93 518.729 136.091 518.758C136.252 518.773 136.414 518.802 136.575 518.846L136.553 520.826C136.304 520.723 136.084 520.665 135.893 520.65C135.717 520.621 135.497 520.606 135.233 520.606C134.588 520.606 134.038 520.753 133.583 521.046C133.128 521.325 132.784 521.706 132.549 522.19C132.314 522.674 132.197 523.195 132.197 523.752V530H129.953ZM143.266 530.198C141.476 530.198 140.068 529.692 139.042 528.68C138.015 527.668 137.502 526.267 137.502 524.478C137.502 523.319 137.722 522.307 138.162 521.442C138.616 520.577 139.24 519.909 140.032 519.44C140.838 518.956 141.77 518.714 142.826 518.714C143.867 518.714 144.74 518.934 145.444 519.374C146.148 519.814 146.683 520.437 147.05 521.244C147.416 522.036 147.6 522.975 147.6 524.06V524.764H139.24V523.488H146.082L145.708 523.774C145.708 522.674 145.458 521.823 144.96 521.222C144.476 520.606 143.772 520.298 142.848 520.298C141.821 520.298 141.029 520.657 140.472 521.376C139.914 522.08 139.636 523.055 139.636 524.302V524.522C139.636 525.827 139.951 526.81 140.582 527.47C141.227 528.13 142.136 528.46 143.31 528.46C143.955 528.46 144.556 528.372 145.114 528.196C145.686 528.005 146.228 527.697 146.742 527.272L147.468 528.79C146.954 529.245 146.331 529.597 145.598 529.846C144.864 530.081 144.087 530.198 143.266 530.198ZM154.607 530L161.515 514.49H163.473L170.491 530H168.137L166.223 525.6L167.191 526.216H157.797L158.831 525.6L156.917 530H154.607ZM162.461 516.998L159.117 524.896L158.589 524.39H166.399L165.959 524.896L162.549 516.998H162.461ZM172.343 534.752V521.574C172.343 521.149 172.321 520.716 172.277 520.276C172.248 519.821 172.211 519.367 172.167 518.912H174.323L174.543 521.42H174.301C174.536 520.584 175.005 519.924 175.709 519.44C176.428 518.956 177.278 518.714 178.261 518.714C179.244 518.714 180.102 518.949 180.835 519.418C181.568 519.873 182.133 520.525 182.529 521.376C182.94 522.227 183.145 523.253 183.145 524.456C183.145 525.644 182.94 526.671 182.529 527.536C182.133 528.401 181.568 529.061 180.835 529.516C180.102 529.971 179.244 530.198 178.261 530.198C177.293 530.198 176.45 529.963 175.731 529.494C175.027 529.01 174.558 528.357 174.323 527.536H174.565V534.752H172.343ZM177.711 528.46C178.679 528.46 179.449 528.123 180.021 527.448C180.608 526.773 180.901 525.776 180.901 524.456C180.901 523.136 180.608 522.146 180.021 521.486C179.449 520.811 178.679 520.474 177.711 520.474C176.743 520.474 175.966 520.811 175.379 521.486C174.807 522.146 174.521 523.136 174.521 524.456C174.521 525.776 174.807 526.773 175.379 527.448C175.966 528.123 176.743 528.46 177.711 528.46ZM185.749 534.752V521.574C185.749 521.149 185.727 520.716 185.683 520.276C185.654 519.821 185.617 519.367 185.573 518.912H187.729L187.949 521.42H187.707C187.942 520.584 188.411 519.924 189.115 519.44C189.834 518.956 190.684 518.714 191.667 518.714C192.65 518.714 193.508 518.949 194.241 519.418C194.974 519.873 195.539 520.525 195.935 521.376C196.346 522.227 196.551 523.253 196.551 524.456C196.551 525.644 196.346 526.671 195.935 527.536C195.539 528.401 194.974 529.061 194.241 529.516C193.508 529.971 192.65 530.198 191.667 530.198C190.699 530.198 189.856 529.963 189.137 529.494C188.433 529.01 187.964 528.357 187.729 527.536H187.971V534.752H185.749ZM191.117 528.46C192.085 528.46 192.855 528.123 193.427 527.448C194.014 526.773 194.307 525.776 194.307 524.456C194.307 523.136 194.014 522.146 193.427 521.486C192.855 520.811 192.085 520.474 191.117 520.474C190.149 520.474 189.372 520.811 188.785 521.486C188.213 522.146 187.927 523.136 187.927 524.456C187.927 525.776 188.213 526.773 188.785 527.448C189.372 528.123 190.149 528.46 191.117 528.46Z" fill="#353535"/>
<rect x="36" y="457" width="32.9991" height="33" fill="#E0E0E0"/>
<line y1="-0.5" x2="46.6097" y2="-0.5" transform="matrix(0.707997 0.706216 -0.476316 0.879274 36 457.086)" stroke="#868686"/>
<line y1="-0.5" x2="46.6077" y2="-0.5" transform="matrix(0.708038 -0.706174 0.476272 0.879298 36 489.996)" stroke="#868686"/>
<path d="M89.826 482V466.49H99.77V468.316H92.114V473.288H99.264V475.114H92.114V482H89.826ZM99.4778 482L106.386 466.49H108.344L115.362 482H113.008L111.094 477.6L112.062 478.216H102.668L103.702 477.6L101.788 482H99.4778ZM107.332 468.998L103.988 476.896L103.46 476.39H111.27L110.83 476.896L107.42 468.998H107.332ZM128.023 486.224C127.568 485.945 127.106 485.586 126.637 485.146C126.182 484.706 125.75 484.215 125.339 483.672C124.943 483.144 124.598 482.601 124.305 482.044L126.197 481.274C126.578 482.037 127.07 482.726 127.671 483.342C128.287 483.973 128.918 484.508 129.563 484.948L128.023 486.224ZM116.583 474.234C116.583 472.606 116.869 471.198 117.441 470.01C118.013 468.822 118.842 467.905 119.927 467.26C121.027 466.615 122.332 466.292 123.843 466.292C125.339 466.292 126.63 466.615 127.715 467.26C128.8 467.905 129.636 468.822 130.223 470.01C130.824 471.198 131.125 472.599 131.125 474.212C131.125 475.84 130.824 477.255 130.223 478.458C129.636 479.646 128.793 480.57 127.693 481.23C126.608 481.875 125.324 482.198 123.843 482.198C122.332 482.198 121.034 481.875 119.949 481.23C118.864 480.57 118.028 479.646 117.441 478.458C116.869 477.255 116.583 475.847 116.583 474.234ZM118.981 474.234C118.981 476.111 119.392 477.578 120.213 478.634C121.034 479.69 122.244 480.218 123.843 480.218C125.398 480.218 126.6 479.697 127.451 478.656C128.302 477.6 128.727 476.126 128.727 474.234C128.727 472.342 128.302 470.875 127.451 469.834C126.615 468.793 125.412 468.272 123.843 468.272C122.244 468.272 121.034 468.793 120.213 469.834C119.392 470.875 118.981 472.342 118.981 474.234ZM137.864 482.198C136.94 482.198 136.089 482.081 135.312 481.846C134.534 481.611 133.889 481.281 133.376 480.856L134.058 479.338C134.6 479.749 135.202 480.057 135.862 480.262C136.522 480.467 137.196 480.57 137.886 480.57C138.692 480.57 139.301 480.431 139.712 480.152C140.122 479.859 140.328 479.463 140.328 478.964C140.328 478.583 140.196 478.275 139.932 478.04C139.682 477.805 139.264 477.629 138.678 477.512L136.566 477.094C135.627 476.889 134.916 476.537 134.432 476.038C133.948 475.539 133.706 474.901 133.706 474.124C133.706 473.464 133.882 472.877 134.234 472.364C134.6 471.851 135.114 471.447 135.774 471.154C136.448 470.861 137.233 470.714 138.128 470.714C138.949 470.714 139.712 470.831 140.416 471.066C141.12 471.301 141.706 471.638 142.176 472.078L141.472 473.552C141.017 473.171 140.504 472.877 139.932 472.672C139.36 472.452 138.78 472.342 138.194 472.342C137.372 472.342 136.764 472.496 136.368 472.804C135.972 473.112 135.774 473.515 135.774 474.014C135.774 474.395 135.891 474.711 136.126 474.96C136.375 475.195 136.764 475.378 137.292 475.51L139.404 475.928C140.401 476.133 141.149 476.471 141.648 476.94C142.146 477.409 142.396 478.04 142.396 478.832C142.396 479.521 142.205 480.123 141.824 480.636C141.442 481.149 140.914 481.538 140.24 481.802C139.565 482.066 138.773 482.198 137.864 482.198Z" fill="#353535"/>
<rect x="36" y="553" width="32.9991" height="33" fill="#E0E0E0"/>
<line y1="-0.5" x2="46.6097" y2="-0.5" transform="matrix(0.707997 0.706216 -0.476316 0.879274 36 553.086)" stroke="#868686"/>
<line y1="-0.5" x2="46.6077" y2="-0.5" transform="matrix(0.708038 -0.706174 0.476272 0.879298 36 585.996)" stroke="#868686"/>
<path d="M89.826 578V562.49H96.382C98.0393 562.49 99.3227 562.886 100.232 563.678C101.141 564.455 101.596 565.548 101.596 566.956C101.596 567.88 101.391 568.672 100.98 569.332C100.569 569.992 99.99 570.498 99.242 570.85C98.494 571.187 97.614 571.356 96.602 571.356L96.954 571.004H97.548C98.1493 571.004 98.6847 571.158 99.154 571.466C99.638 571.774 100.034 572.265 100.342 572.94L102.564 578H100.056L97.856 572.918C97.636 572.317 97.2913 571.928 96.822 571.752C96.3673 571.576 95.8027 571.488 95.128 571.488H92.114V578H89.826ZM92.114 569.75H96.008C97.108 569.75 97.9367 569.515 98.494 569.046C99.066 568.577 99.352 567.902 99.352 567.022C99.352 566.127 99.066 565.453 98.494 564.998C97.9367 564.543 97.108 564.316 96.008 564.316H92.114V569.75ZM109.149 578.198C108.167 578.198 107.309 577.971 106.575 577.516C105.842 577.061 105.27 576.401 104.859 575.536C104.463 574.671 104.265 573.644 104.265 572.456C104.265 571.253 104.463 570.227 104.859 569.376C105.27 568.525 105.842 567.873 106.575 567.418C107.309 566.949 108.167 566.714 109.149 566.714C110.117 566.714 110.961 566.956 111.679 567.44C112.398 567.924 112.875 568.584 113.109 569.42H112.867L113.087 566.912H115.243C115.199 567.367 115.155 567.821 115.111 568.276C115.082 568.716 115.067 569.149 115.067 569.574V578H112.845V575.536H113.087C112.853 576.357 112.369 577.01 111.635 577.494C110.917 577.963 110.088 578.198 109.149 578.198ZM109.699 576.46C110.653 576.46 111.415 576.123 111.987 575.448C112.574 574.773 112.867 573.776 112.867 572.456C112.867 571.136 112.574 570.146 111.987 569.486C111.415 568.811 110.653 568.474 109.699 568.474C108.731 568.474 107.954 568.811 107.367 569.486C106.795 570.146 106.509 571.136 106.509 572.456C106.509 573.776 106.795 574.773 107.367 575.448C107.939 576.123 108.717 576.46 109.699 576.46ZM122.622 578.198C121.419 578.198 120.51 577.875 119.894 577.23C119.278 576.57 118.97 575.587 118.97 574.282V568.628H116.814V566.912H118.97V563.986L121.192 563.392V566.912H124.272V568.628H121.192V574.084C121.192 574.905 121.338 575.492 121.632 575.844C121.925 576.196 122.35 576.372 122.908 576.372C123.186 576.372 123.428 576.35 123.634 576.306C123.854 576.247 124.052 576.181 124.228 576.108V577.912C124.008 578 123.751 578.066 123.458 578.11C123.164 578.169 122.886 578.198 122.622 578.198ZM131.32 578.198C129.531 578.198 128.123 577.692 127.096 576.68C126.07 575.668 125.556 574.267 125.556 572.478C125.556 571.319 125.776 570.307 126.216 569.442C126.671 568.577 127.294 567.909 128.086 567.44C128.893 566.956 129.824 566.714 130.88 566.714C131.922 566.714 132.794 566.934 133.498 567.374C134.202 567.814 134.738 568.437 135.104 569.244C135.471 570.036 135.654 570.975 135.654 572.06V572.764H127.294V571.488H134.136L133.762 571.774C133.762 570.674 133.513 569.823 133.014 569.222C132.53 568.606 131.826 568.298 130.902 568.298C129.876 568.298 129.084 568.657 128.526 569.376C127.969 570.08 127.69 571.055 127.69 572.302V572.522C127.69 573.827 128.006 574.81 128.636 575.47C129.282 576.13 130.191 576.46 131.364 576.46C132.01 576.46 132.611 576.372 133.168 576.196C133.74 576.005 134.283 575.697 134.796 575.272L135.522 576.79C135.009 577.245 134.386 577.597 133.652 577.846C132.919 578.081 132.142 578.198 131.32 578.198ZM148.381 578.198C147.179 578.198 146.269 577.875 145.653 577.23C145.037 576.57 144.729 575.587 144.729 574.282V568.628H142.573V566.912H144.729V563.986L146.951 563.392V566.912H150.031V568.628H146.951V574.084C146.951 574.905 147.098 575.492 147.391 575.844C147.685 576.196 148.11 576.372 148.667 576.372C148.946 576.372 149.188 576.35 149.393 576.306C149.613 576.247 149.811 576.181 149.987 576.108V577.912C149.767 578 149.511 578.066 149.217 578.11C148.924 578.169 148.645 578.198 148.381 578.198ZM152.062 578V561.808H154.284V569.266H153.976C154.298 568.43 154.819 567.799 155.538 567.374C156.256 566.934 157.085 566.714 158.024 566.714C159.344 566.714 160.326 567.081 160.972 567.814C161.617 568.533 161.94 569.625 161.94 571.092V578H159.718V571.224C159.718 570.271 159.527 569.581 159.146 569.156C158.779 568.716 158.192 568.496 157.386 568.496C156.447 568.496 155.692 568.789 155.12 569.376C154.562 569.948 154.284 570.711 154.284 571.664V578H152.062ZM170.229 578.198C168.439 578.198 167.031 577.692 166.005 576.68C164.978 575.668 164.465 574.267 164.465 572.478C164.465 571.319 164.685 570.307 165.125 569.442C165.579 568.577 166.203 567.909 166.995 567.44C167.801 566.956 168.733 566.714 169.789 566.714C170.83 566.714 171.703 566.934 172.407 567.374C173.111 567.814 173.646 568.437 174.013 569.244C174.379 570.036 174.563 570.975 174.563 572.06V572.764H166.203V571.488H173.045L172.671 571.774C172.671 570.674 172.421 569.823 171.923 569.222C171.439 568.606 170.735 568.298 169.811 568.298C168.784 568.298 167.992 568.657 167.435 569.376C166.877 570.08 166.599 571.055 166.599 572.302V572.522C166.599 573.827 166.914 574.81 167.545 575.47C168.19 576.13 169.099 576.46 170.273 576.46C170.918 576.46 171.519 576.372 172.077 576.196C172.649 576.005 173.191 575.697 173.705 575.272L174.431 576.79C173.917 577.245 173.294 577.597 172.561 577.846C171.827 578.081 171.05 578.198 170.229 578.198ZM181.57 578L188.478 562.49H190.436L197.454 578H195.1L193.186 573.6L194.154 574.216H184.76L185.794 573.6L183.88 578H181.57ZM189.424 564.998L186.08 572.896L185.552 572.39H193.362L192.922 572.896L189.512 564.998H189.424ZM199.306 582.752V569.574C199.306 569.149 199.284 568.716 199.24 568.276C199.21 567.821 199.174 567.367 199.13 566.912H201.286L201.506 569.42H201.264C201.498 568.584 201.968 567.924 202.672 567.44C203.39 566.956 204.241 566.714 205.224 566.714C206.206 566.714 207.064 566.949 207.798 567.418C208.531 567.873 209.096 568.525 209.492 569.376C209.902 570.227 210.108 571.253 210.108 572.456C210.108 573.644 209.902 574.671 209.492 575.536C209.096 576.401 208.531 577.061 207.798 577.516C207.064 577.971 206.206 578.198 205.224 578.198C204.256 578.198 203.412 577.963 202.694 577.494C201.99 577.01 201.52 576.357 201.286 575.536H201.528V582.752H199.306ZM204.674 576.46C205.642 576.46 206.412 576.123 206.984 575.448C207.57 574.773 207.864 573.776 207.864 572.456C207.864 571.136 207.57 570.146 206.984 569.486C206.412 568.811 205.642 568.474 204.674 568.474C203.706 568.474 202.928 568.811 202.342 569.486C201.77 570.146 201.484 571.136 201.484 572.456C201.484 573.776 201.77 574.773 202.342 575.448C202.928 576.123 203.706 576.46 204.674 576.46ZM212.712 582.752V569.574C212.712 569.149 212.69 568.716 212.646 568.276C212.617 567.821 212.58 567.367 212.536 566.912H214.692L214.912 569.42H214.67C214.905 568.584 215.374 567.924 216.078 567.44C216.797 566.956 217.647 566.714 218.63 566.714C219.613 566.714 220.471 566.949 221.204 567.418C221.937 567.873 222.502 568.525 222.898 569.376C223.309 570.227 223.514 571.253 223.514 572.456C223.514 573.644 223.309 574.671 222.898 575.536C222.502 576.401 221.937 577.061 221.204 577.516C220.471 577.971 219.613 578.198 218.63 578.198C217.662 578.198 216.819 577.963 216.1 577.494C215.396 577.01 214.927 576.357 214.692 575.536H214.934V582.752H212.712ZM218.08 576.46C219.048 576.46 219.818 576.123 220.39 575.448C220.977 574.773 221.27 573.776 221.27 572.456C221.27 571.136 220.977 570.146 220.39 569.486C219.818 568.811 219.048 568.474 218.08 568.474C217.112 568.474 216.335 568.811 215.748 569.486C215.176 570.146 214.89 571.136 214.89 572.456C214.89 573.776 215.176 574.773 215.748 575.448C216.335 576.123 217.112 576.46 218.08 576.46Z" fill="#353535"/>
<rect x="36" y="601" width="32.9991" height="33" fill="#E0E0E0"/>
<line y1="-0.5" x2="46.6097" y2="-0.5" transform="matrix(0.707997 0.706216 -0.476316 0.879274 36 601.086)" stroke="#868686"/>
<line y1="-0.5" x2="46.6077" y2="-0.5" transform="matrix(0.708038 -0.706174 0.476272 0.879298 36 633.996)" stroke="#868686"/>
<path d="M96.8 626.198C95.216 626.198 93.8667 625.875 92.752 625.23C91.6373 624.585 90.7793 623.668 90.178 622.48C89.5913 621.277 89.298 619.862 89.298 618.234C89.298 616.606 89.5913 615.198 90.178 614.01C90.7793 612.822 91.6373 611.905 92.752 611.26C93.8667 610.615 95.216 610.292 96.8 610.292C97.9 610.292 98.8827 610.453 99.748 610.776C100.613 611.099 101.369 611.568 102.014 612.184L101.222 614.01C100.518 613.409 99.8287 612.976 99.154 612.712C98.494 612.448 97.724 612.316 96.844 612.316C95.172 612.316 93.896 612.829 93.016 613.856C92.136 614.883 91.696 616.342 91.696 618.234C91.696 620.126 92.136 621.593 93.016 622.634C93.896 623.661 95.172 624.174 96.844 624.174C97.724 624.174 98.494 624.042 99.154 623.778C99.8287 623.514 100.518 623.074 101.222 622.458L102.014 624.284C101.369 624.9 100.613 625.377 99.748 625.714C98.8827 626.037 97.9 626.198 96.8 626.198ZM108.667 626.198C107.567 626.198 106.614 625.971 105.807 625.516C105 625.047 104.377 624.387 103.937 623.536C103.497 622.671 103.277 621.644 103.277 620.456C103.277 619.268 103.497 618.249 103.937 617.398C104.377 616.533 105 615.873 105.807 615.418C106.614 614.949 107.567 614.714 108.667 614.714C109.767 614.714 110.72 614.949 111.527 615.418C112.348 615.873 112.979 616.533 113.419 617.398C113.874 618.249 114.101 619.268 114.101 620.456C114.101 621.644 113.874 622.671 113.419 623.536C112.979 624.387 112.348 625.047 111.527 625.516C110.72 625.971 109.767 626.198 108.667 626.198ZM108.667 624.46C109.635 624.46 110.405 624.123 110.977 623.448C111.549 622.773 111.835 621.776 111.835 620.456C111.835 619.136 111.549 618.146 110.977 617.486C110.405 616.811 109.635 616.474 108.667 616.474C107.714 616.474 106.951 616.811 106.379 617.486C105.807 618.146 105.521 619.136 105.521 620.456C105.521 621.776 105.8 622.773 106.357 623.448C106.929 624.123 107.699 624.46 108.667 624.46ZM116.698 626V617.574C116.698 617.149 116.676 616.716 116.632 616.276C116.603 615.821 116.566 615.367 116.522 614.912H118.678L118.876 617.244H118.612C118.95 616.423 119.47 615.799 120.174 615.374C120.878 614.934 121.692 614.714 122.616 614.714C123.922 614.714 124.904 615.073 125.564 615.792C126.239 616.511 126.576 617.625 126.576 619.136V626H124.354V619.268C124.354 618.285 124.156 617.581 123.76 617.156C123.379 616.716 122.792 616.496 122 616.496C121.062 616.496 120.314 616.789 119.756 617.376C119.199 617.948 118.92 618.725 118.92 619.708V626H116.698ZM134.051 626.198C132.849 626.198 131.939 625.875 131.323 625.23C130.707 624.57 130.399 623.587 130.399 622.282V616.628H128.243V614.912H130.399V611.986L132.621 611.392V614.912H135.701V616.628H132.621V622.084C132.621 622.905 132.768 623.492 133.061 623.844C133.355 624.196 133.78 624.372 134.337 624.372C134.616 624.372 134.858 624.35 135.063 624.306C135.283 624.247 135.481 624.181 135.657 624.108V625.912C135.437 626 135.181 626.066 134.887 626.11C134.594 626.169 134.315 626.198 134.051 626.198ZM141.978 626.198C140.995 626.198 140.137 625.971 139.404 625.516C138.67 625.061 138.098 624.401 137.688 623.536C137.292 622.671 137.094 621.644 137.094 620.456C137.094 619.253 137.292 618.227 137.688 617.376C138.098 616.525 138.67 615.873 139.404 615.418C140.137 614.949 140.995 614.714 141.978 614.714C142.946 614.714 143.789 614.956 144.508 615.44C145.226 615.924 145.703 616.584 145.938 617.42H145.696L145.916 614.912H148.072C148.028 615.367 147.984 615.821 147.94 616.276C147.91 616.716 147.896 617.149 147.896 617.574V626H145.674V623.536H145.916C145.681 624.357 145.197 625.01 144.464 625.494C143.745 625.963 142.916 626.198 141.978 626.198ZM142.528 624.46C143.481 624.46 144.244 624.123 144.816 623.448C145.402 622.773 145.696 621.776 145.696 620.456C145.696 619.136 145.402 618.146 144.816 617.486C144.244 616.811 143.481 616.474 142.528 616.474C141.56 616.474 140.782 616.811 140.196 617.486C139.624 618.146 139.338 619.136 139.338 620.456C139.338 621.776 139.624 622.773 140.196 623.448C140.768 624.123 141.545 624.46 142.528 624.46ZM156 626.198C154.885 626.198 153.91 625.971 153.074 625.516C152.252 625.047 151.614 624.379 151.16 623.514C150.72 622.634 150.5 621.593 150.5 620.39C150.5 619.202 150.727 618.183 151.182 617.332C151.636 616.481 152.274 615.836 153.096 615.396C153.917 614.941 154.885 614.714 156 614.714C156.718 614.714 157.415 614.839 158.09 615.088C158.764 615.323 159.322 615.66 159.762 616.1L159.036 617.662C158.625 617.266 158.163 616.973 157.65 616.782C157.136 616.577 156.638 616.474 156.154 616.474C155.098 616.474 154.269 616.811 153.668 617.486C153.066 618.161 152.766 619.136 152.766 620.412C152.766 621.703 153.066 622.693 153.668 623.382C154.269 624.071 155.098 624.416 156.154 624.416C156.623 624.416 157.114 624.328 157.628 624.152C158.141 623.961 158.61 623.661 159.036 623.25L159.762 624.812C159.307 625.252 158.735 625.597 158.046 625.846C157.371 626.081 156.689 626.198 156 626.198ZM166.45 626.198C165.247 626.198 164.338 625.875 163.722 625.23C163.106 624.57 162.798 623.587 162.798 622.282V616.628H160.642V614.912H162.798V611.986L165.02 611.392V614.912H168.1V616.628H165.02V622.084C165.02 622.905 165.166 623.492 165.46 623.844C165.753 624.196 166.178 624.372 166.736 624.372C167.014 624.372 167.256 624.35 167.462 624.306C167.682 624.247 167.88 624.181 168.056 624.108V625.912C167.836 626 167.579 626.066 167.286 626.11C166.992 626.169 166.714 626.198 166.45 626.198ZM182.485 626.198C180.329 626.198 178.723 625.655 177.667 624.57C176.626 623.485 176.105 621.879 176.105 619.752V610.49H178.393V619.708C178.393 621.204 178.716 622.333 179.361 623.096C180.021 623.844 181.063 624.218 182.485 624.218C183.835 624.218 184.854 623.844 185.543 623.096C186.233 622.333 186.577 621.204 186.577 619.708V610.49H188.821V619.752C188.821 621.879 188.286 623.485 187.215 624.57C186.145 625.655 184.568 626.198 182.485 626.198ZM195.979 626.198C195.055 626.198 194.204 626.081 193.427 625.846C192.65 625.611 192.004 625.281 191.491 624.856L192.173 623.338C192.716 623.749 193.317 624.057 193.977 624.262C194.637 624.467 195.312 624.57 196.001 624.57C196.808 624.57 197.416 624.431 197.827 624.152C198.238 623.859 198.443 623.463 198.443 622.964C198.443 622.583 198.311 622.275 198.047 622.04C197.798 621.805 197.38 621.629 196.793 621.512L194.681 621.094C193.742 620.889 193.031 620.537 192.547 620.038C192.063 619.539 191.821 618.901 191.821 618.124C191.821 617.464 191.997 616.877 192.349 616.364C192.716 615.851 193.229 615.447 193.889 615.154C194.564 614.861 195.348 614.714 196.243 614.714C197.064 614.714 197.827 614.831 198.531 615.066C199.235 615.301 199.822 615.638 200.291 616.078L199.587 617.552C199.132 617.171 198.619 616.877 198.047 616.672C197.475 616.452 196.896 616.342 196.309 616.342C195.488 616.342 194.879 616.496 194.483 616.804C194.087 617.112 193.889 617.515 193.889 618.014C193.889 618.395 194.006 618.711 194.241 618.96C194.49 619.195 194.879 619.378 195.407 619.51L197.519 619.928C198.516 620.133 199.264 620.471 199.763 620.94C200.262 621.409 200.511 622.04 200.511 622.832C200.511 623.521 200.32 624.123 199.939 624.636C199.558 625.149 199.03 625.538 198.355 625.802C197.68 626.066 196.888 626.198 195.979 626.198Z" fill="#353535"/>
<rect x="36" y="863" width="32.9991" height="33" fill="#E0E0E0"/>
<line y1="-0.5" x2="46.6097" y2="-0.5" transform="matrix(0.707997 0.706216 -0.476316 0.879274 36 863.082)" stroke="#868686"/>
<line y1="-0.5" x2="46.6077" y2="-0.5" transform="matrix(0.708038 -0.706174 0.476272 0.879298 36 895.996)" stroke="#868686"/>
<path d="M89.826 888V872.49H92.114V886.042H99.726V888H89.826ZM106.411 888.198C105.311 888.198 104.358 887.971 103.551 887.516C102.745 887.047 102.121 886.387 101.681 885.536C101.241 884.671 101.021 883.644 101.021 882.456C101.021 881.268 101.241 880.249 101.681 879.398C102.121 878.533 102.745 877.873 103.551 877.418C104.358 876.949 105.311 876.714 106.411 876.714C107.511 876.714 108.465 876.949 109.271 877.418C110.093 877.873 110.723 878.533 111.163 879.398C111.618 880.249 111.845 881.268 111.845 882.456C111.845 883.644 111.618 884.671 111.163 885.536C110.723 886.387 110.093 887.047 109.271 887.516C108.465 887.971 107.511 888.198 106.411 888.198ZM106.411 886.46C107.379 886.46 108.149 886.123 108.721 885.448C109.293 884.773 109.579 883.776 109.579 882.456C109.579 881.136 109.293 880.146 108.721 879.486C108.149 878.811 107.379 878.474 106.411 878.474C105.458 878.474 104.695 878.811 104.123 879.486C103.551 880.146 103.265 881.136 103.265 882.456C103.265 883.776 103.544 884.773 104.101 885.448C104.673 886.123 105.443 886.46 106.411 886.46ZM119.436 892.928C118.439 892.928 117.53 892.811 116.708 892.576C115.902 892.341 115.176 891.989 114.53 891.52L115.08 889.892C115.535 890.2 115.982 890.442 116.422 890.618C116.862 890.809 117.324 890.948 117.808 891.036C118.292 891.124 118.791 891.168 119.304 891.168C120.36 891.168 121.152 890.897 121.68 890.354C122.223 889.826 122.494 889.056 122.494 888.044V885.074H122.714C122.48 885.895 121.996 886.548 121.262 887.032C120.544 887.501 119.708 887.736 118.754 887.736C117.742 887.736 116.862 887.516 116.114 887.076C115.381 886.621 114.809 885.983 114.398 885.162C114.002 884.326 113.804 883.343 113.804 882.214C113.804 881.085 114.002 880.109 114.398 879.288C114.809 878.467 115.381 877.836 116.114 877.396C116.862 876.941 117.742 876.714 118.754 876.714C119.722 876.714 120.558 876.956 121.262 877.44C121.981 877.909 122.458 878.555 122.692 879.376L122.494 879.2L122.692 876.912H124.848C124.79 877.367 124.746 877.821 124.716 878.276C124.687 878.716 124.672 879.149 124.672 879.574V887.78C124.672 889.452 124.225 890.728 123.33 891.608C122.45 892.488 121.152 892.928 119.436 892.928ZM119.282 885.998C120.25 885.998 121.02 885.668 121.592 885.008C122.179 884.348 122.472 883.417 122.472 882.214C122.472 881.011 122.179 880.087 121.592 879.442C121.02 878.797 120.25 878.474 119.282 878.474C118.285 878.474 117.493 878.797 116.906 879.442C116.334 880.087 116.048 881.011 116.048 882.214C116.048 883.417 116.334 884.348 116.906 885.008C117.493 885.668 118.285 885.998 119.282 885.998ZM132.665 888.198C131.565 888.198 130.612 887.971 129.805 887.516C128.998 887.047 128.375 886.387 127.935 885.536C127.495 884.671 127.275 883.644 127.275 882.456C127.275 881.268 127.495 880.249 127.935 879.398C128.375 878.533 128.998 877.873 129.805 877.418C130.612 876.949 131.565 876.714 132.665 876.714C133.765 876.714 134.718 876.949 135.525 877.418C136.346 877.873 136.977 878.533 137.417 879.398C137.872 880.249 138.099 881.268 138.099 882.456C138.099 883.644 137.872 884.671 137.417 885.536C136.977 886.387 136.346 887.047 135.525 887.516C134.718 887.971 133.765 888.198 132.665 888.198ZM132.665 886.46C133.633 886.46 134.403 886.123 134.975 885.448C135.547 884.773 135.833 883.776 135.833 882.456C135.833 881.136 135.547 880.146 134.975 879.486C134.403 878.811 133.633 878.474 132.665 878.474C131.712 878.474 130.949 878.811 130.377 879.486C129.805 880.146 129.519 881.136 129.519 882.456C129.519 883.776 129.798 884.773 130.355 885.448C130.927 886.123 131.697 886.46 132.665 886.46ZM144.634 888.198C143.3 888.198 142.295 887.839 141.62 887.12C140.96 886.387 140.63 885.265 140.63 883.754V876.912H142.852V883.71C142.852 884.634 143.043 885.316 143.424 885.756C143.806 886.196 144.385 886.416 145.162 886.416C146.042 886.416 146.754 886.123 147.296 885.536C147.839 884.949 148.11 884.172 148.11 883.204V876.912H150.332V888H148.176V885.624H148.462C148.154 886.445 147.663 887.083 146.988 887.538C146.314 887.978 145.529 888.198 144.634 888.198ZM157.899 888.198C156.696 888.198 155.787 887.875 155.171 887.23C154.555 886.57 154.247 885.587 154.247 884.282V878.628H152.091V876.912H154.247V873.986L156.469 873.392V876.912H159.549V878.628H156.469V884.084C156.469 884.905 156.616 885.492 156.909 885.844C157.202 886.196 157.628 886.372 158.185 886.372C158.464 886.372 158.706 886.35 158.911 886.306C159.131 886.247 159.329 886.181 159.505 886.108V887.912C159.285 888 159.028 888.066 158.735 888.11C158.442 888.169 158.163 888.198 157.899 888.198Z" fill="#353535"/>
<rect x="29" y="68" width="79.9979" height="80" fill="#E0E0E0"/>
<line y1="-0.5" x2="112.993" y2="-0.5" transform="matrix(0.707997 0.706216 -0.476316 0.879274 29 68.2031)" stroke="#868686"/>
<line y1="-0.5" x2="112.988" y2="-0.5" transform="matrix(0.708038 -0.706174 0.476272 0.879298 29 147.992)" stroke="#868686"/>
<path d="M131.42 127.18C130.287 127.18 129.26 127.04 128.34 126.76C127.42 126.467 126.62 126.053 125.94 125.52L126.64 123.88C127.093 124.227 127.56 124.513 128.04 124.74C128.533 124.967 129.053 125.14 129.6 125.26C130.16 125.367 130.767 125.42 131.42 125.42C132.54 125.42 133.36 125.22 133.88 124.82C134.413 124.42 134.68 123.893 134.68 123.24C134.68 122.68 134.493 122.247 134.12 121.94C133.76 121.633 133.12 121.387 132.2 121.2L130.02 120.76C128.727 120.493 127.76 120.06 127.12 119.46C126.493 118.847 126.18 118.013 126.18 116.96C126.18 116.107 126.407 115.36 126.86 114.72C127.313 114.08 127.94 113.587 128.74 113.24C129.553 112.893 130.5 112.72 131.58 112.72C132.58 112.72 133.5 112.867 134.34 113.16C135.18 113.44 135.887 113.86 136.46 114.42L135.78 116C135.18 115.48 134.54 115.1 133.86 114.86C133.18 114.607 132.407 114.48 131.54 114.48C130.513 114.48 129.707 114.693 129.12 115.12C128.547 115.547 128.26 116.127 128.26 116.86C128.26 117.447 128.44 117.907 128.8 118.24C129.173 118.573 129.787 118.827 130.64 119L132.82 119.42C134.167 119.7 135.16 120.133 135.8 120.72C136.44 121.293 136.76 122.087 136.76 123.1C136.76 123.913 136.54 124.627 136.1 125.24C135.673 125.853 135.06 126.333 134.26 126.68C133.46 127.013 132.513 127.18 131.42 127.18ZM139.136 127V112.28H141.156V119.06H140.876C141.17 118.3 141.643 117.727 142.296 117.34C142.95 116.94 143.703 116.74 144.556 116.74C145.756 116.74 146.65 117.073 147.236 117.74C147.823 118.393 148.116 119.387 148.116 120.72V127H146.096V120.84C146.096 119.973 145.923 119.347 145.576 118.96C145.243 118.56 144.71 118.36 143.976 118.36C143.123 118.36 142.436 118.627 141.916 119.16C141.41 119.68 141.156 120.373 141.156 121.24V127H139.136ZM154.572 127.18C153.358 127.18 152.445 126.853 151.832 126.2C151.232 125.533 150.932 124.513 150.932 123.14V116.92H152.952V123.1C152.952 123.94 153.125 124.56 153.472 124.96C153.818 125.36 154.345 125.56 155.052 125.56C155.852 125.56 156.498 125.293 156.992 124.76C157.485 124.227 157.732 123.52 157.732 122.64V116.92H159.752V127H157.792V124.84H158.052C157.772 125.587 157.325 126.167 156.712 126.58C156.098 126.98 155.385 127.18 154.572 127.18ZM168.09 127.18C167.21 127.18 166.444 126.96 165.79 126.52C165.137 126.08 164.704 125.48 164.49 124.72H164.71V127H162.71V112.28H164.73V119.16H164.49C164.717 118.413 165.15 117.827 165.79 117.4C166.444 116.96 167.21 116.74 168.09 116.74C168.984 116.74 169.764 116.953 170.43 117.38C171.097 117.793 171.61 118.393 171.97 119.18C172.344 119.953 172.53 120.887 172.53 121.98C172.53 123.06 172.344 123.993 171.97 124.78C171.61 125.553 171.09 126.147 170.41 126.56C169.744 126.973 168.97 127.18 168.09 127.18ZM167.59 125.6C168.457 125.6 169.157 125.3 169.69 124.7C170.224 124.087 170.49 123.18 170.49 121.98C170.49 120.767 170.224 119.86 169.69 119.26C169.157 118.647 168.457 118.34 167.59 118.34C166.71 118.34 166.004 118.647 165.47 119.26C164.95 119.86 164.69 120.76 164.69 121.96C164.69 123.16 164.95 124.067 165.47 124.68C166.004 125.293 166.71 125.6 167.59 125.6Z" fill="#353535"/>
<path d="M129.432 101L125.48 89.72H127.208L130.488 99.464H129.896L133.368 89.72H134.632L137.896 99.464H137.352L140.744 89.72H142.376L138.392 101H136.968L133.8 91.72H134.136L130.84 101H129.432ZM146.803 101.144C145.501 101.144 144.477 100.776 143.731 100.04C142.984 99.304 142.611 98.2853 142.611 96.984C142.611 96.1413 142.771 95.4053 143.091 94.776C143.421 94.1467 143.875 93.6613 144.451 93.32C145.037 92.968 145.715 92.792 146.483 92.792C147.24 92.792 147.875 92.952 148.387 93.272C148.899 93.592 149.288 94.0453 149.555 94.632C149.821 95.208 149.955 95.8907 149.955 96.68V97.192H143.875V96.264H148.851L148.579 96.472C148.579 95.672 148.397 95.0533 148.035 94.616C147.683 94.168 147.171 93.944 146.499 93.944C145.752 93.944 145.176 94.2053 144.771 94.728C144.365 95.24 144.163 95.9493 144.163 96.856V97.016C144.163 97.9653 144.392 98.68 144.851 99.16C145.32 99.64 145.981 99.88 146.835 99.88C147.304 99.88 147.741 99.816 148.147 99.688C148.563 99.5493 148.957 99.3253 149.331 99.016L149.859 100.12C149.485 100.451 149.032 100.707 148.499 100.888C147.965 101.059 147.4 101.144 146.803 101.144ZM151.809 101V89.224H153.425V101H151.809ZM159.329 101.144C158.519 101.144 157.809 100.979 157.201 100.648C156.604 100.307 156.14 99.8213 155.809 99.192C155.489 98.552 155.329 97.7947 155.329 96.92C155.329 96.056 155.495 95.3147 155.825 94.696C156.156 94.0773 156.62 93.608 157.217 93.288C157.815 92.9573 158.519 92.792 159.329 92.792C159.852 92.792 160.359 92.8827 160.849 93.064C161.34 93.2347 161.745 93.48 162.065 93.8L161.537 94.936C161.239 94.648 160.903 94.4347 160.529 94.296C160.156 94.1467 159.793 94.072 159.441 94.072C158.673 94.072 158.071 94.3173 157.633 94.808C157.196 95.2987 156.977 96.008 156.977 96.936C156.977 97.8747 157.196 98.5947 157.633 99.096C158.071 99.5973 158.673 99.848 159.441 99.848C159.783 99.848 160.14 99.784 160.513 99.656C160.887 99.5173 161.228 99.2987 161.537 99L162.065 100.136C161.735 100.456 161.319 100.707 160.817 100.888C160.327 101.059 159.831 101.144 159.329 101.144ZM167.078 101.144C166.278 101.144 165.584 100.979 164.998 100.648C164.411 100.307 163.958 99.8267 163.638 99.208C163.318 98.5787 163.158 97.832 163.158 96.968C163.158 96.104 163.318 95.3627 163.638 94.744C163.958 94.1147 164.411 93.6347 164.998 93.304C165.584 92.9627 166.278 92.792 167.078 92.792C167.878 92.792 168.571 92.9627 169.158 93.304C169.755 93.6347 170.214 94.1147 170.534 94.744C170.864 95.3627 171.03 96.104 171.03 96.968C171.03 97.832 170.864 98.5787 170.534 99.208C170.214 99.8267 169.755 100.307 169.158 100.648C168.571 100.979 167.878 101.144 167.078 101.144ZM167.078 99.88C167.782 99.88 168.342 99.6347 168.758 99.144C169.174 98.6533 169.382 97.928 169.382 96.968C169.382 96.008 169.174 95.288 168.758 94.808C168.342 94.3173 167.782 94.072 167.078 94.072C166.384 94.072 165.83 94.3173 165.414 94.808C164.998 95.288 164.789 96.008 164.789 96.968C164.789 97.928 164.992 98.6533 165.398 99.144C165.814 99.6347 166.374 99.88 167.078 99.88ZM172.918 101V94.872C172.918 94.5627 172.902 94.248 172.87 93.928C172.849 93.5973 172.822 93.2667 172.79 92.936H174.358L174.502 94.632H174.31C174.534 94.0453 174.876 93.592 175.334 93.272C175.804 92.952 176.364 92.792 177.014 92.792C177.676 92.792 178.214 92.952 178.63 93.272C179.057 93.5813 179.35 94.0613 179.51 94.712H179.254C179.468 94.1253 179.83 93.6613 180.342 93.32C180.854 92.968 181.446 92.792 182.118 92.792C183.014 92.792 183.686 93.0533 184.134 93.576C184.582 94.0987 184.806 94.9093 184.806 96.008V101H183.19V96.088C183.19 95.384 183.068 94.8773 182.822 94.568C182.588 94.248 182.204 94.088 181.67 94.088C181.052 94.088 180.561 94.3013 180.198 94.728C179.836 95.1547 179.654 95.7307 179.654 96.456V101H178.038V96.088C178.038 95.384 177.916 94.8773 177.67 94.568C177.436 94.248 177.052 94.088 176.518 94.088C175.9 94.088 175.414 94.3013 175.062 94.728C174.71 95.1547 174.534 95.7307 174.534 96.456V101H172.918ZM190.85 101.144C189.548 101.144 188.524 100.776 187.778 100.04C187.031 99.304 186.658 98.2853 186.658 96.984C186.658 96.1413 186.818 95.4053 187.138 94.776C187.468 94.1467 187.922 93.6613 188.498 93.32C189.084 92.968 189.762 92.792 190.53 92.792C191.287 92.792 191.922 92.952 192.434 93.272C192.946 93.592 193.335 94.0453 193.602 94.632C193.868 95.208 194.002 95.8907 194.002 96.68V97.192H187.922V96.264H192.898L192.626 96.472C192.626 95.672 192.444 95.0533 192.082 94.616C191.73 94.168 191.218 93.944 190.546 93.944C189.799 93.944 189.223 94.2053 188.818 94.728C188.412 95.24 188.21 95.9493 188.21 96.856V97.016C188.21 97.9653 188.439 98.68 188.898 99.16C189.367 99.64 190.028 99.88 190.882 99.88C191.351 99.88 191.788 99.816 192.194 99.688C192.61 99.5493 193.004 99.3253 193.378 99.016L193.906 100.12C193.532 100.451 193.079 100.707 192.546 100.888C192.012 101.059 191.447 101.144 190.85 101.144ZM196.432 102.968L195.728 102.424C196.037 102.093 196.245 101.789 196.352 101.512C196.469 101.235 196.528 100.947 196.528 100.648L196.88 101H195.616V99.096H197.52V100.392C197.52 100.872 197.44 101.315 197.28 101.72C197.12 102.136 196.837 102.552 196.432 102.968Z" fill="#353535"/>
<path d="M142.928 842L137.968 830.72H139.76L143.984 840.608H143.408L147.648 830.72H149.36L144.384 842H142.928ZM150.512 842V833.936H152.128V842H150.512ZM150.384 832.256V830.576H152.256V832.256H150.384ZM154.465 842V835.936C154.465 835.605 154.454 835.275 154.433 834.944C154.422 834.603 154.401 834.267 154.368 833.936H155.937L156.113 836.016H155.857C155.963 835.515 156.145 835.099 156.401 834.768C156.657 834.437 156.966 834.192 157.329 834.032C157.702 833.872 158.091 833.792 158.497 833.792C158.667 833.792 158.811 833.803 158.929 833.824C159.046 833.835 159.163 833.856 159.281 833.888L159.265 835.328C159.083 835.253 158.923 835.211 158.785 835.2C158.657 835.179 158.497 835.168 158.305 835.168C157.835 835.168 157.435 835.275 157.105 835.488C156.774 835.691 156.523 835.968 156.353 836.32C156.182 836.672 156.097 837.051 156.097 837.456V842H154.465ZM164.101 842.144C163.227 842.144 162.565 841.909 162.117 841.44C161.669 840.96 161.445 840.245 161.445 839.296V835.184H159.877V833.936H161.445V831.808L163.061 831.376V833.936H165.301V835.184H163.061V839.152C163.061 839.749 163.168 840.176 163.381 840.432C163.595 840.688 163.904 840.816 164.309 840.816C164.512 840.816 164.688 840.8 164.837 840.768C164.997 840.725 165.141 840.677 165.269 840.624V841.936C165.109 842 164.923 842.048 164.709 842.08C164.496 842.123 164.293 842.144 164.101 842.144ZM169.642 842.144C168.671 842.144 167.94 841.883 167.45 841.36C166.97 840.827 166.73 840.011 166.73 838.912V833.936H168.346V838.88C168.346 839.552 168.484 840.048 168.762 840.368C169.039 840.688 169.46 840.848 170.026 840.848C170.666 840.848 171.183 840.635 171.578 840.208C171.972 839.781 172.17 839.216 172.17 838.512V833.936H173.786V842H172.218V840.272H172.426C172.202 840.869 171.844 841.333 171.354 841.664C170.863 841.984 170.292 842.144 169.642 842.144ZM179.241 842.144C178.526 842.144 177.902 841.979 177.369 841.648C176.835 841.317 176.419 840.837 176.121 840.208C175.833 839.579 175.689 838.832 175.689 837.968C175.689 837.093 175.833 836.347 176.121 835.728C176.419 835.109 176.835 834.635 177.369 834.304C177.902 833.963 178.526 833.792 179.241 833.792C179.945 833.792 180.558 833.968 181.081 834.32C181.603 834.672 181.95 835.152 182.121 835.76H181.945L182.105 833.936H183.673C183.641 834.267 183.609 834.597 183.577 834.928C183.555 835.248 183.545 835.563 183.545 835.872V842H181.929V840.208H182.105C181.934 840.805 181.582 841.28 181.049 841.632C180.526 841.973 179.923 842.144 179.241 842.144ZM179.641 840.88C180.334 840.88 180.889 840.635 181.305 840.144C181.731 839.653 181.945 838.928 181.945 837.968C181.945 837.008 181.731 836.288 181.305 835.808C180.889 835.317 180.334 835.072 179.641 835.072C178.937 835.072 178.371 835.317 177.945 835.808C177.529 836.288 177.321 837.008 177.321 837.968C177.321 838.928 177.529 839.653 177.945 840.144C178.361 840.635 178.926 840.88 179.641 840.88ZM185.903 842V830.224H187.519V842H185.903ZM197.897 842L192.937 830.72H194.729L198.953 840.608H198.377L202.617 830.72H204.329L199.353 842H197.897ZM205.481 842V833.936H207.097V842H205.481ZM205.353 832.256V830.576H207.225V832.256H205.353ZM211.833 842L208.377 833.936H210.105L212.825 840.672H212.361L215.129 833.936H216.777L213.305 842H211.833ZM220.991 842.144C220.276 842.144 219.652 841.979 219.119 841.648C218.585 841.317 218.169 840.837 217.871 840.208C217.583 839.579 217.439 838.832 217.439 837.968C217.439 837.093 217.583 836.347 217.871 835.728C218.169 835.109 218.585 834.635 219.119 834.304C219.652 833.963 220.276 833.792 220.991 833.792C221.695 833.792 222.308 833.968 222.831 834.32C223.353 834.672 223.7 835.152 223.871 835.76H223.695L223.855 833.936H225.423C225.391 834.267 225.359 834.597 225.327 834.928C225.305 835.248 225.295 835.563 225.295 835.872V842H223.679V840.208H223.855C223.684 840.805 223.332 841.28 222.799 841.632C222.276 841.973 221.673 842.144 220.991 842.144ZM221.391 840.88C222.084 840.88 222.639 840.635 223.055 840.144C223.481 839.653 223.695 838.928 223.695 837.968C223.695 837.008 223.481 836.288 223.055 835.808C222.639 835.317 222.084 835.072 221.391 835.072C220.687 835.072 220.121 835.317 219.695 835.808C219.279 836.288 219.071 837.008 219.071 837.968C219.071 838.928 219.279 839.653 219.695 840.144C220.111 840.635 220.676 840.88 221.391 840.88ZM227.653 842V830.224H229.269V835.648H229.045C229.279 835.04 229.658 834.581 230.181 834.272C230.703 833.952 231.306 833.792 231.989 833.792C232.949 833.792 233.663 834.059 234.133 834.592C234.602 835.115 234.837 835.909 234.837 836.976V842H233.221V837.072C233.221 836.379 233.082 835.877 232.805 835.568C232.538 835.248 232.111 835.088 231.525 835.088C230.842 835.088 230.293 835.301 229.877 835.728C229.471 836.144 229.269 836.699 229.269 837.392V842H227.653ZM243.771 842L240.315 833.936H242.043L244.763 840.672H244.299L247.067 833.936H248.715L245.243 842H243.771ZM254.998 842V840.608H257.622V832.128H258.454L255.254 834.08V832.48L258.086 830.72H259.286V840.608H261.75V842H254.998ZM263.616 842V840.096H265.52V842H263.616ZM271.269 842.144C269.967 842.144 268.965 841.648 268.261 840.656C267.567 839.653 267.221 838.219 267.221 836.352C267.221 834.453 267.567 833.019 268.261 832.048C268.965 831.067 269.967 830.576 271.269 830.576C272.581 830.576 273.583 831.067 274.277 832.048C274.97 833.019 275.317 834.448 275.317 836.336C275.317 838.213 274.965 839.653 274.261 840.656C273.567 841.648 272.57 842.144 271.269 842.144ZM271.269 840.752C272.09 840.752 272.698 840.395 273.093 839.68C273.498 838.965 273.701 837.851 273.701 836.336C273.701 834.811 273.498 833.701 273.093 833.008C272.698 832.304 272.09 831.952 271.269 831.952C270.458 831.952 269.85 832.304 269.445 833.008C269.039 833.701 268.837 834.805 268.837 836.32C268.837 837.845 269.039 838.965 269.445 839.68C269.861 840.395 270.469 840.752 271.269 840.752ZM277.007 842V840.096H278.911V842H277.007ZM281.779 842V840.608H284.403V832.128H285.235L282.035 834.08V832.48L284.867 830.72H286.067V840.608H288.531V842H281.779Z" fill="#353535"/>
<rect x="1" y="1" width="426" height="924" stroke="#B3B3B3" stroke-width="2"/>
<path d="M172.414 986V964.85H175.144L183.304 983.24H182.404L190.564 964.85H193.264V986H190.444V969.08H191.434L183.814 986H181.864L174.244 969.08H175.264V986H172.414ZM198.311 986V964.85H212.171V967.34H201.341V974H211.481V976.52H201.341V983.48H212.171V986H198.311ZM216.036 986V964.85H218.436L231.426 981.89H230.676V964.85H233.586V986H231.216L218.256 968.96H218.946V986H216.036ZM247.116 986.27C244.176 986.27 241.986 985.53 240.546 984.05C239.126 982.57 238.416 980.38 238.416 977.48V964.85H241.536V977.42C241.536 979.46 241.976 981 242.856 982.04C243.756 983.06 245.176 983.57 247.116 983.57C248.956 983.57 250.346 983.06 251.286 982.04C252.226 981 252.696 979.46 252.696 977.42V964.85H255.756V977.48C255.756 980.38 255.026 982.57 253.566 984.05C252.106 985.53 249.956 986.27 247.116 986.27Z" fill="black"/>
<defs>
<clipPath id="clip0_1304_4345">
<rect width="18" height="18" fill="white" transform="translate(372 68)"/>
</clipPath>
</defs>
</svg>
