<svg width="428" height="994" viewBox="0 0 428 994" fill="none" xmlns="http://www.w3.org/2000/svg">
<rect x="1" y="1" width="426" height="924" fill="white"/>
<path d="M33.5336 25.9711C32.7225 25.9944 31.9276 25.7408 31.2798 25.2522C30.6686 24.7857 30.2601 24.1022 30.1386 23.343H31.8549C31.9555 23.6941 32.1739 24 32.4734 24.2091C32.789 24.4255 33.1649 24.5365 33.5473 24.5264C33.8809 24.5333 34.2102 24.4505 34.5007 24.2864C34.7912 24.1224 35.0323 23.8832 35.1986 23.594C35.6364 22.8036 35.8424 21.9057 35.7932 21.0035H35.6791C35.4614 21.4507 35.1143 21.8221 34.6828 22.0694C34.2236 22.327 33.704 22.4574 33.1776 22.4471C32.7557 22.4598 32.3357 22.3853 31.944 22.2282C31.5522 22.0711 31.1971 21.8348 30.9009 21.5342C30.6032 21.2317 30.37 20.8719 30.2154 20.4766C30.0608 20.0814 29.9881 19.6588 30.0016 19.2346C29.9872 18.7802 30.0695 18.3279 30.243 17.9077C30.4165 17.4875 30.6773 17.1089 31.0081 16.797C31.6132 16.2733 32.3645 15.9479 33.1604 15.8649C33.9564 15.7818 34.7586 15.9451 35.4588 16.3326C36.0184 16.6748 36.4704 17.1675 36.7632 17.7545C37.25 18.6951 37.4859 19.7454 37.4479 20.8038C37.5275 22.1503 37.1631 23.4857 36.4106 24.6051C36.0788 25.0502 35.6432 25.4074 35.1418 25.6455C34.6403 25.8836 34.0882 25.9954 33.5336 25.9711V25.9711ZM32.2292 20.5504C32.4092 20.7277 32.6235 20.8664 32.859 20.9578C33.0945 21.0493 33.3462 21.0916 33.5987 21.0822C33.8507 21.0903 34.1018 21.0478 34.337 20.957C34.5722 20.8662 34.7869 20.7291 34.9681 20.5539C35.1462 20.3807 35.2863 20.1724 35.3794 19.9421C35.4726 19.7118 35.5167 19.4647 35.509 19.2164C35.5151 18.9629 35.4696 18.7109 35.3755 18.4755C35.2813 18.2402 35.1404 18.0263 34.9613 17.8469C34.5991 17.5023 34.1168 17.3123 33.6169 17.3174C33.1169 17.3225 32.6386 17.5222 32.2835 17.8742C31.9284 18.2262 31.7245 18.7027 31.715 19.2026C31.7055 19.7025 31.8912 20.1864 32.2327 20.5516L32.2292 20.5504Z" fill="#111111"/>
<path d="M39.4052 18.6421C39.3997 18.495 39.4241 18.3483 39.4771 18.211C39.5301 18.0736 39.6105 17.9485 39.7134 17.8433C39.8215 17.7395 39.9496 17.6588 40.0898 17.606C40.2301 17.5532 40.3796 17.5295 40.5293 17.5363C40.6776 17.5315 40.8253 17.5566 40.9637 17.6101C41.1021 17.6635 41.2284 17.7443 41.3349 17.8475C41.4415 17.9507 41.5263 18.0743 41.5841 18.2109C41.642 18.3475 41.6718 18.4943 41.6718 18.6427C41.6718 18.791 41.642 18.9379 41.5841 19.0745C41.5263 19.2111 41.4415 19.3347 41.3349 19.4379C41.2284 19.5411 41.1021 19.6218 40.9637 19.6753C40.8253 19.7287 40.6776 19.7538 40.5293 19.7491C40.3796 19.7559 40.2301 19.7322 40.0898 19.6794C39.9496 19.6266 39.8215 19.5459 39.7134 19.4421C39.6099 19.337 39.5292 19.2117 39.4762 19.0741C39.4232 18.9365 39.3991 18.7895 39.4052 18.6421V18.6421ZM39.4052 23.6839C39.3992 23.5368 39.4234 23.3899 39.4764 23.2525C39.5294 23.1151 39.6101 22.9901 39.7134 22.8851C39.8213 22.7811 39.9494 22.7002 40.0897 22.6474C40.23 22.5946 40.3796 22.571 40.5293 22.5781C40.6776 22.5733 40.8253 22.5984 40.9637 22.6519C41.1021 22.7053 41.2284 22.7861 41.3349 22.8893C41.4415 22.9925 41.5263 23.1161 41.5841 23.2527C41.642 23.3893 41.6718 23.5361 41.6718 23.6845C41.6718 23.8328 41.642 23.9797 41.5841 24.1163C41.5263 24.2529 41.4415 24.3765 41.3349 24.4797C41.2284 24.5829 41.1021 24.6636 40.9637 24.7171C40.8253 24.7705 40.6776 24.7956 40.5293 24.7909C40.3795 24.7977 40.2299 24.7739 40.0896 24.7209C39.9493 24.668 39.8213 24.5869 39.7134 24.4827C39.6104 24.3775 39.53 24.2524 39.477 24.1151C39.424 23.9777 39.3996 23.831 39.4052 23.6839Z" fill="#111111"/>
<path d="M48.31 25.7426V23.9441H43.5957V22.4057C44.3808 20.9602 45.6917 18.8562 47.5283 16.0938H49.9613V22.4845H51.2657V23.9429H49.9613V25.7426H48.31ZM45.1945 22.4263V22.5267H48.3362V17.4974H48.2415C47.1992 19.038 46.1836 20.681 45.1945 22.4263V22.4263Z" fill="#111111"/>
<path d="M55.2186 25.7426V17.8318H55.1045L52.708 19.5173V17.8592L55.2289 16.0938H56.9476V25.7426H55.2186Z" fill="#111111"/>
<path d="M69.7406 25.7426L68.9258 23.2753H65.3744L64.5458 25.7426H62.7998L66.2234 16.0938H68.1634L71.5927 25.7426H69.7406ZM67.0998 17.9322L65.7761 21.9116H68.5241L67.214 17.9322H67.0998Z" fill="#111111"/>
<path d="M74.8565 25.7421H73.252V16.0933H75.2708L78.1729 23.1173H78.2927L81.1948 16.0898H83.2148V25.7421H81.6102V18.9554H81.5166L78.8485 25.3678H77.6182L74.9455 18.9554H74.8519L74.8565 25.7421Z" fill="#111111"/>
<path d="M359.489 22.8055C359.522 22.7722 359.549 22.7324 359.567 22.6884C359.585 22.6445 359.593 22.5974 359.592 22.55C359.591 22.5026 359.581 22.4558 359.561 22.4127C359.542 22.3695 359.513 22.3308 359.478 22.2988C358.794 21.7203 357.927 21.4029 357.032 21.4029C356.136 21.4029 355.269 21.7203 354.585 22.2988C354.55 22.3304 354.521 22.3688 354.502 22.4119C354.482 22.4549 354.471 22.5015 354.471 22.5488C354.469 22.5963 354.478 22.6436 354.496 22.6878C354.513 22.7319 354.54 22.772 354.573 22.8055L356.786 25.0377C356.818 25.0703 356.856 25.0962 356.898 25.1139C356.94 25.1316 356.985 25.1407 357.031 25.1407C357.077 25.1407 357.122 25.1316 357.164 25.1139C357.206 25.0962 357.244 25.0703 357.276 25.0377L359.489 22.8055ZM357.032 19.7243C358.381 19.7241 359.682 20.2251 360.683 21.1303C360.747 21.1926 360.833 21.2276 360.922 21.2276C361.012 21.2276 361.098 21.1926 361.162 21.1303L362.441 19.8373C362.474 19.8038 362.501 19.764 362.519 19.7202C362.537 19.6764 362.545 19.6295 362.545 19.5822C362.544 19.5348 362.534 19.4881 362.516 19.4447C362.497 19.4013 362.469 19.3621 362.435 19.3294C360.968 17.9647 359.039 17.206 357.036 17.206C355.032 17.206 353.103 17.9647 351.636 19.3294C351.601 19.3616 351.573 19.4005 351.553 19.4439C351.534 19.4872 351.523 19.5341 351.522 19.5816C351.521 19.629 351.53 19.676 351.548 19.7199C351.566 19.7638 351.592 19.8037 351.626 19.8373L352.904 21.1303C352.968 21.1933 353.054 21.2287 353.144 21.2287C353.234 21.2287 353.32 21.1933 353.384 21.1303C354.383 20.2245 355.683 19.7222 357.032 19.7209V19.7243ZM357.032 15.5224C359.485 15.5221 361.845 16.4647 363.623 18.1551C363.687 18.2182 363.773 18.2536 363.863 18.2536C363.953 18.2536 364.04 18.2182 364.104 18.1551L365.383 16.8633C365.416 16.8302 365.443 16.7907 365.461 16.7472C365.478 16.7037 365.487 16.657 365.487 16.61C365.487 16.563 365.478 16.5165 365.459 16.4733C365.441 16.4301 365.414 16.3911 365.379 16.3589C363.133 14.2059 360.142 13.0039 357.03 13.0039C353.919 13.0039 350.928 14.2059 348.681 16.3589C348.648 16.3915 348.621 16.4305 348.603 16.4736C348.584 16.5167 348.574 16.5631 348.574 16.61C348.574 16.6569 348.583 16.7035 348.601 16.747C348.619 16.7905 348.645 16.83 348.678 16.8633L349.96 18.1551C350.024 18.2179 350.11 18.253 350.199 18.253C350.289 18.253 350.375 18.2179 350.439 18.1551C352.217 16.463 354.577 15.5191 357.032 15.519V15.5224Z" fill="#111111"/>
<path d="M340.794 13.3711H341.901C342.046 13.3709 342.19 13.3995 342.325 13.455C342.459 13.5106 342.581 13.5921 342.684 13.6949C342.787 13.7977 342.869 13.9198 342.924 14.0542C342.98 14.1886 343.009 14.3326 343.009 14.4781V24.0744C343.009 24.2199 342.98 24.364 342.925 24.4985C342.869 24.6329 342.788 24.755 342.685 24.8579C342.582 24.9607 342.459 25.0422 342.325 25.0977C342.19 25.1532 342.046 25.1817 341.901 25.1814H340.794C340.5 25.1814 340.219 25.0647 340.011 24.8571C339.803 24.6495 339.687 24.368 339.687 24.0744V14.4781C339.687 14.1845 339.803 13.9029 340.011 13.6953C340.219 13.4877 340.5 13.3711 340.794 13.3711V13.3711ZM335.628 15.9548H336.735C336.88 15.9546 337.024 15.9831 337.159 16.0387C337.293 16.0943 337.415 16.1758 337.518 16.2786C337.621 16.3814 337.703 16.5035 337.758 16.6379C337.814 16.7722 337.843 16.9163 337.843 17.0617V24.0744C337.843 24.2199 337.814 24.3639 337.758 24.4983C337.703 24.6327 337.621 24.7547 337.518 24.8575C337.415 24.9604 337.293 25.0419 337.159 25.0974C337.024 25.153 336.88 25.1815 336.735 25.1814H335.628C335.482 25.1817 335.338 25.1532 335.204 25.0977C335.069 25.0422 334.947 24.9607 334.844 24.8578C334.741 24.755 334.66 24.6328 334.604 24.4984C334.549 24.3639 334.52 24.2199 334.521 24.0744V17.0617C334.52 16.9163 334.549 16.7723 334.605 16.6379C334.66 16.5036 334.742 16.3815 334.844 16.2787C334.947 16.1758 335.069 16.0943 335.204 16.0387C335.338 15.9831 335.482 15.9546 335.628 15.9548V15.9548ZM330.46 18.5384H331.568C331.862 18.5387 332.143 18.6555 332.351 18.863C332.558 19.0705 332.675 19.3519 332.675 19.6454V24.0744C332.675 24.368 332.559 24.6495 332.351 24.8571C332.143 25.0647 331.862 25.1814 331.568 25.1814H330.46C330.315 25.1815 330.171 25.153 330.036 25.0974C329.902 25.0418 329.78 24.9603 329.677 24.8575C329.574 24.7547 329.493 24.6326 329.437 24.4982C329.382 24.3638 329.353 24.2198 329.353 24.0744V19.6454C329.353 19.3518 329.47 19.0703 329.677 18.8627C329.885 18.6551 330.167 18.5384 330.46 18.5384V18.5384ZM325.292 20.7535H326.399C326.692 20.7535 326.974 20.8701 327.181 21.0777C327.389 21.2853 327.506 21.5669 327.506 21.8605V24.0744C327.506 24.2198 327.477 24.3638 327.422 24.4982C327.366 24.6326 327.285 24.7547 327.182 24.8575C327.079 24.9603 326.957 25.0418 326.822 25.0974C326.688 25.153 326.544 25.1815 326.399 25.1814H325.292C325.146 25.1815 325.002 25.153 324.868 25.0974C324.733 25.0419 324.611 24.9604 324.508 24.8575C324.405 24.7547 324.324 24.6327 324.268 24.4983C324.212 24.3639 324.184 24.2199 324.184 24.0744V21.8628C324.183 21.7171 324.212 21.5729 324.268 21.4384C324.323 21.3038 324.405 21.1815 324.508 21.0785C324.611 20.9755 324.733 20.8937 324.867 20.838C325.002 20.7822 325.146 20.7535 325.292 20.7535Z" fill="#111111"/>
<path d="M392.472 14.1081C392.962 14.1087 393.43 14.3034 393.776 14.6493C394.122 14.9953 394.316 15.4643 394.317 15.9534V22.5975C394.316 23.0866 394.122 23.5556 393.776 23.9016C393.43 24.2476 392.962 24.4422 392.472 24.4428H374.015C373.526 24.4422 373.057 24.2476 372.711 23.9016C372.365 23.5556 372.171 23.0866 372.17 22.5975V15.9534C372.171 15.4643 372.365 14.9953 372.711 14.6493C373.057 14.3034 373.526 14.1087 374.015 14.1081H392.472V14.1081ZM392.472 13H374.015C373.627 13.0001 373.243 13.0767 372.885 13.2252C372.527 13.3737 372.201 13.5913 371.927 13.8655C371.653 14.1398 371.436 14.4653 371.288 14.8235C371.14 15.1818 371.063 15.5657 371.063 15.9534V22.5975C371.063 22.9852 371.14 23.3691 371.288 23.7274C371.436 24.0856 371.653 24.4111 371.927 24.6854C372.201 24.9596 372.527 25.1772 372.885 25.3257C373.243 25.4743 373.627 25.5508 374.015 25.5509H392.472C392.86 25.5508 393.244 25.4743 393.602 25.3257C393.96 25.1772 394.286 24.9596 394.56 24.6854C394.834 24.4111 395.051 24.0856 395.199 23.7274C395.347 23.3691 395.424 22.9852 395.424 22.5975V15.9534C395.424 15.5657 395.347 15.1818 395.199 14.8235C395.051 14.4653 394.834 14.1398 394.56 13.8655C394.286 13.5913 393.96 13.3737 393.602 13.2252C393.244 13.0767 392.86 13.0001 392.472 13V13Z" fill="#111111"/>
<path d="M396.531 17.0586V21.4887C396.967 21.3052 397.339 20.9971 397.601 20.6031C397.863 20.2091 398.002 19.7466 398.002 19.2737C398.002 18.8007 397.863 18.3382 397.601 17.9442C397.339 17.5502 396.967 17.2421 396.531 17.0586Z" fill="#111111"/>
<path d="M374.756 15.2148H391.734C391.928 15.2148 392.12 15.253 392.299 15.3273C392.478 15.4015 392.641 15.5102 392.778 15.6474C392.915 15.7845 393.024 15.9473 393.098 16.1264C393.172 16.3056 393.21 16.4976 393.21 16.6916V21.8589C393.21 22.053 393.172 22.2452 393.098 22.4245C393.024 22.6038 392.915 22.7667 392.777 22.9039C392.64 23.0411 392.477 23.15 392.298 23.2243C392.119 23.2985 391.927 23.3368 391.732 23.3368H374.756C374.364 23.3368 373.988 23.1811 373.711 22.9039C373.434 22.6268 373.278 22.2509 373.278 21.8589V16.6927C373.278 16.3007 373.434 15.9248 373.711 15.6477C373.988 15.3705 374.364 15.2148 374.756 15.2148V15.2148Z" fill="#111111"/>
<rect x="139" y="287" width="149.996" height="150" fill="#E0E0E0"/>
<line y1="-0.5" x2="211.862" y2="-0.5" transform="matrix(0.707997 0.706216 -0.476316 0.879274 139 287.379)" stroke="#868686"/>
<line y1="-0.5" x2="211.853" y2="-0.5" transform="matrix(0.708038 -0.706174 0.476273 0.879298 139 436.984)" stroke="#868686"/>
<path d="M141.84 521.52V550H137.28V532.32L129.72 550H126.32L118.72 532.52V550H114.16V521.52H118.24L128.04 543.8L137.76 521.52H141.84ZM167.024 529.8V550H162.104V546.76C161.491 547.88 160.611 548.76 159.464 549.4C158.318 550.013 157.011 550.32 155.544 550.32C153.784 550.32 152.224 549.893 150.864 549.04C149.504 548.187 148.451 546.973 147.704 545.4C146.958 543.827 146.584 542 146.584 539.92C146.584 537.84 146.958 536 147.704 534.4C148.478 532.773 149.544 531.52 150.904 530.64C152.264 529.733 153.811 529.28 155.544 529.28C157.011 529.28 158.318 529.6 159.464 530.24C160.611 530.853 161.491 531.72 162.104 532.84V529.8H167.024ZM156.904 546.4C158.558 546.4 159.838 545.827 160.744 544.68C161.651 543.533 162.104 541.92 162.104 539.84C162.104 537.707 161.651 536.067 160.744 534.92C159.838 533.773 158.544 533.2 156.864 533.2C155.211 533.2 153.918 533.8 152.984 535C152.078 536.173 151.624 537.813 151.624 539.92C151.624 542 152.078 543.6 152.984 544.72C153.918 545.84 155.224 546.4 156.904 546.4ZM178.83 533.56V542.6C178.83 544.973 179.937 546.16 182.15 546.16C182.763 546.16 183.43 546.053 184.15 545.84V549.8C183.27 550.12 182.203 550.28 180.95 550.28C178.657 550.28 176.897 549.64 175.67 548.36C174.443 547.08 173.83 545.24 173.83 542.84V533.56H169.95V529.8H173.83V524.88L178.83 523.2V529.8H184.19V533.56H178.83ZM198.506 529.32C199.28 529.32 199.946 529.427 200.506 529.64L200.466 534.2C199.613 533.853 198.733 533.68 197.826 533.68C196.12 533.68 194.813 534.173 193.906 535.16C193.026 536.147 192.586 537.453 192.586 539.08V550H187.626V535.52C187.626 533.387 187.52 531.48 187.306 529.8H191.986L192.386 533.36C192.893 532.053 193.693 531.053 194.786 530.36C195.88 529.667 197.12 529.32 198.506 529.32ZM203.29 529.8H208.25V550H203.29V529.8ZM208.53 520.64V525.56H202.97V520.64H208.53ZM237.56 529.28C239.853 529.28 241.56 529.973 242.68 531.36C243.8 532.72 244.36 534.8 244.36 537.6V550H239.36V537.76C239.36 536.16 239.093 535.013 238.56 534.32C238.053 533.6 237.2 533.24 236 533.24C234.613 533.24 233.52 533.733 232.72 534.72C231.947 535.68 231.56 537.013 231.56 538.72V550H226.56V537.76C226.56 536.187 226.28 535.04 225.72 534.32C225.187 533.6 224.333 533.24 223.16 533.24C221.773 533.24 220.68 533.733 219.88 534.72C219.08 535.68 218.68 537.013 218.68 538.72V550H213.72V535.52C213.72 533.387 213.613 531.48 213.4 529.8H218.08L218.44 533C219.027 531.8 219.867 530.88 220.96 530.24C222.08 529.6 223.36 529.28 224.8 529.28C227.893 529.28 229.907 530.56 230.84 533.12C231.48 531.92 232.387 530.987 233.56 530.32C234.76 529.627 236.093 529.28 237.56 529.28ZM258.857 550.32C256.803 550.32 254.99 549.893 253.417 549.04C251.87 548.187 250.67 546.973 249.817 545.4C248.99 543.8 248.577 541.933 248.577 539.8C248.577 537.667 248.99 535.813 249.817 534.24C250.67 532.64 251.87 531.413 253.417 530.56C254.99 529.707 256.803 529.28 258.857 529.28C260.883 529.28 262.67 529.707 264.217 530.56C265.763 531.413 266.95 532.64 267.777 534.24C268.63 535.813 269.057 537.667 269.057 539.8C269.057 541.933 268.63 543.8 267.777 545.4C266.95 546.973 265.763 548.187 264.217 549.04C262.67 549.893 260.883 550.32 258.857 550.32ZM258.817 546.4C260.523 546.4 261.817 545.853 262.697 544.76C263.603 543.64 264.057 541.987 264.057 539.8C264.057 537.64 263.603 536 262.697 534.88C261.79 533.733 260.51 533.16 258.857 533.16C257.177 533.16 255.883 533.733 254.977 534.88C254.07 536 253.617 537.64 253.617 539.8C253.617 541.987 254.057 543.64 254.937 544.76C255.843 545.853 257.137 546.4 258.817 546.4ZM284.928 529.28C289.755 529.28 292.168 532.053 292.168 537.6V550H287.168V537.84C287.168 536.24 286.862 535.08 286.248 534.36C285.635 533.613 284.688 533.24 283.408 533.24C281.888 533.24 280.662 533.733 279.728 534.72C278.795 535.68 278.328 536.96 278.328 538.56V550H273.368V535.52C273.368 533.387 273.262 531.48 273.048 529.8H277.728L278.088 533.12C278.782 531.893 279.715 530.947 280.888 530.28C282.088 529.613 283.435 529.28 284.928 529.28ZM316.59 529.8L307.19 551.36C306.123 553.867 304.763 555.693 303.11 556.84C301.457 557.987 299.417 558.747 296.99 559.12L295.87 555.28C297.763 554.853 299.177 554.307 300.11 553.64C301.07 553 301.843 552.04 302.43 550.76L303.07 549.28L294.67 529.8H299.91L305.71 544.32L311.63 529.8H316.59Z" fill="black"/>
<path d="M139.7 595.322H127.868L125.42 601H121L131.948 576.792H135.518L146.5 601H142.114L139.7 595.322ZM138.238 591.922L133.784 581.552L129.33 591.922H138.238ZM158.604 583.388C160.077 583.388 161.381 583.773 162.514 584.544C163.67 585.292 164.565 586.357 165.2 587.74C165.857 589.1 166.186 590.664 166.186 592.432C166.186 594.2 165.869 595.753 165.234 597.09C164.599 598.427 163.704 599.459 162.548 600.184C161.415 600.909 160.1 601.272 158.604 601.272C157.357 601.272 156.247 601.011 155.272 600.49C154.297 599.946 153.549 599.198 153.028 598.246V608.344H148.812V588.692C148.812 586.879 148.721 585.258 148.54 583.83H152.518L152.858 586.788C153.311 585.723 154.048 584.895 155.068 584.306C156.088 583.694 157.267 583.388 158.604 583.388ZM157.448 597.94C158.876 597.94 159.975 597.464 160.746 596.512C161.517 595.56 161.902 594.2 161.902 592.432C161.902 590.641 161.517 589.247 160.746 588.25C159.975 587.23 158.887 586.72 157.482 586.72C156.031 586.72 154.921 587.207 154.15 588.182C153.379 589.157 152.994 590.551 152.994 592.364C152.994 594.155 153.379 595.537 154.15 596.512C154.921 597.464 156.02 597.94 157.448 597.94ZM179.688 583.388C181.161 583.388 182.465 583.773 183.598 584.544C184.754 585.292 185.649 586.357 186.284 587.74C186.941 589.1 187.27 590.664 187.27 592.432C187.27 594.2 186.953 595.753 186.318 597.09C185.683 598.427 184.788 599.459 183.632 600.184C182.499 600.909 181.184 601.272 179.688 601.272C178.441 601.272 177.331 601.011 176.356 600.49C175.381 599.946 174.633 599.198 174.112 598.246V608.344H169.896V588.692C169.896 586.879 169.805 585.258 169.624 583.83H173.602L173.942 586.788C174.395 585.723 175.132 584.895 176.152 584.306C177.172 583.694 178.351 583.388 179.688 583.388ZM178.532 597.94C179.96 597.94 181.059 597.464 181.83 596.512C182.601 595.56 182.986 594.2 182.986 592.432C182.986 590.641 182.601 589.247 181.83 588.25C181.059 587.23 179.971 586.72 178.566 586.72C177.115 586.72 176.005 587.207 175.234 588.182C174.463 589.157 174.078 590.551 174.078 592.364C174.078 594.155 174.463 595.537 175.234 596.512C176.005 597.464 177.104 597.94 178.532 597.94ZM190.98 575.976H195.196V601H190.98V575.976ZM199.845 583.83H204.061V601H199.845V583.83ZM204.299 576.044V580.226H199.573V576.044H204.299ZM216.496 601.272C214.706 601.272 213.153 600.909 211.838 600.184C210.524 599.459 209.515 598.439 208.812 597.124C208.11 595.787 207.758 594.223 207.758 592.432C207.758 590.641 208.121 589.066 208.846 587.706C209.594 586.346 210.637 585.292 211.974 584.544C213.334 583.773 214.898 583.388 216.666 583.388C217.89 583.388 219.069 583.581 220.202 583.966C221.358 584.351 222.276 584.884 222.956 585.564L221.766 588.556C221.041 587.967 220.27 587.525 219.454 587.23C218.638 586.913 217.834 586.754 217.04 586.754C215.499 586.754 214.298 587.241 213.436 588.216C212.575 589.168 212.144 590.551 212.144 592.364C212.144 594.177 212.564 595.56 213.402 596.512C214.264 597.464 215.476 597.94 217.04 597.94C217.834 597.94 218.638 597.781 219.454 597.464C220.27 597.147 221.041 596.693 221.766 596.104L222.956 599.096C222.231 599.776 221.29 600.309 220.134 600.694C218.978 601.079 217.766 601.272 216.496 601.272ZM242.232 583.83V601H238.05V598.246C237.529 599.198 236.781 599.946 235.806 600.49C234.831 601.011 233.721 601.272 232.474 601.272C230.978 601.272 229.652 600.909 228.496 600.184C227.34 599.459 226.445 598.427 225.81 597.09C225.175 595.753 224.858 594.2 224.858 592.432C224.858 590.664 225.175 589.1 225.81 587.74C226.467 586.357 227.374 585.292 228.53 584.544C229.686 583.773 231.001 583.388 232.474 583.388C233.721 583.388 234.831 583.66 235.806 584.204C236.781 584.725 237.529 585.462 238.05 586.414V583.83H242.232ZM233.63 597.94C235.035 597.94 236.123 597.453 236.894 596.478C237.665 595.503 238.05 594.132 238.05 592.364C238.05 590.551 237.665 589.157 236.894 588.182C236.123 587.207 235.024 586.72 233.596 586.72C232.191 586.72 231.091 587.23 230.298 588.25C229.527 589.247 229.142 590.641 229.142 592.432C229.142 594.2 229.527 595.56 230.298 596.512C231.091 597.464 232.202 597.94 233.63 597.94ZM252.267 587.026V594.71C252.267 596.727 253.207 597.736 255.089 597.736C255.61 597.736 256.177 597.645 256.789 597.464V600.83C256.041 601.102 255.134 601.238 254.069 601.238C252.119 601.238 250.623 600.694 249.581 599.606C248.538 598.518 248.017 596.954 248.017 594.914V587.026H244.719V583.83H248.017V579.648L252.267 578.22V583.83H256.823V587.026H252.267ZM259.744 583.83H263.96V601H259.744V583.83ZM264.198 576.044V580.226H259.472V576.044H264.198ZM276.395 601.272C274.65 601.272 273.108 600.909 271.771 600.184C270.456 599.459 269.436 598.427 268.711 597.09C268.008 595.73 267.657 594.143 267.657 592.33C267.657 590.517 268.008 588.941 268.711 587.604C269.436 586.244 270.456 585.201 271.771 584.476C273.108 583.751 274.65 583.388 276.395 583.388C278.118 583.388 279.636 583.751 280.951 584.476C282.266 585.201 283.274 586.244 283.977 587.604C284.702 588.941 285.065 590.517 285.065 592.33C285.065 594.143 284.702 595.73 283.977 597.09C283.274 598.427 282.266 599.459 280.951 600.184C279.636 600.909 278.118 601.272 276.395 601.272ZM276.361 597.94C277.812 597.94 278.911 597.475 279.659 596.546C280.43 595.594 280.815 594.189 280.815 592.33C280.815 590.494 280.43 589.1 279.659 588.148C278.888 587.173 277.8 586.686 276.395 586.686C274.967 586.686 273.868 587.173 273.097 588.148C272.326 589.1 271.941 590.494 271.941 592.33C271.941 594.189 272.315 595.594 273.063 596.546C273.834 597.475 274.933 597.94 276.361 597.94ZM298.556 583.388C302.659 583.388 304.71 585.745 304.71 590.46V601H300.46V590.664C300.46 589.304 300.199 588.318 299.678 587.706C299.157 587.071 298.352 586.754 297.264 586.754C295.972 586.754 294.929 587.173 294.136 588.012C293.343 588.828 292.946 589.916 292.946 591.276V601H288.73V588.692C288.73 586.879 288.639 585.258 288.458 583.83H292.436L292.742 586.652C293.331 585.609 294.125 584.805 295.122 584.238C296.142 583.671 297.287 583.388 298.556 583.388Z" fill="#333333"/>
<rect width="221" height="50" rx="7" transform="matrix(1 0 0 -1 103 793)" fill="#C4C4C4"/>
<path d="M186.826 760.336H189.092V774.108H196.704V776H186.826V760.336ZM203.498 776.154C202.412 776.154 201.459 775.919 200.638 775.45C199.816 774.981 199.178 774.313 198.724 773.448C198.284 772.583 198.064 771.571 198.064 770.412C198.064 769.253 198.284 768.241 198.724 767.376C199.178 766.496 199.816 765.821 200.638 765.352C201.459 764.883 202.412 764.648 203.498 764.648C204.568 764.648 205.514 764.883 206.336 765.352C207.157 765.821 207.788 766.496 208.228 767.376C208.682 768.241 208.91 769.253 208.91 770.412C208.91 771.571 208.682 772.583 208.228 773.448C207.788 774.313 207.157 774.981 206.336 775.45C205.514 775.919 204.568 776.154 203.498 776.154ZM203.476 774.394C204.502 774.394 205.287 774.057 205.83 773.382C206.372 772.707 206.644 771.717 206.644 770.412C206.644 769.136 206.365 768.153 205.808 767.464C205.265 766.775 204.495 766.43 203.498 766.43C202.486 766.43 201.701 766.775 201.144 767.464C200.586 768.153 200.308 769.136 200.308 770.412C200.308 771.717 200.579 772.707 201.122 773.382C201.679 774.057 202.464 774.394 203.476 774.394ZM221.737 764.912V775.802C221.737 777.489 221.29 778.757 220.395 779.608C219.515 780.473 218.202 780.906 216.457 780.906C214.77 780.906 213.296 780.539 212.035 779.806L212.409 778.068C213.098 778.435 213.758 778.706 214.389 778.882C215.034 779.058 215.716 779.146 216.435 779.146C218.503 779.146 219.537 778.09 219.537 775.978V773.58C219.2 774.225 218.708 774.739 218.063 775.12C217.418 775.487 216.67 775.67 215.819 775.67C214.851 775.67 213.986 775.443 213.223 774.988C212.475 774.533 211.888 773.888 211.463 773.052C211.052 772.216 210.847 771.255 210.847 770.17C210.847 769.085 211.052 768.124 211.463 767.288C211.888 766.452 212.475 765.807 213.223 765.352C213.986 764.883 214.851 764.648 215.819 764.648C216.67 764.648 217.418 764.831 218.063 765.198C218.708 765.55 219.2 766.056 219.537 766.716V764.912H221.737ZM216.325 773.888C217.322 773.888 218.107 773.558 218.679 772.898C219.251 772.238 219.537 771.329 219.537 770.17C219.537 769.011 219.251 768.102 218.679 767.442C218.122 766.767 217.337 766.43 216.325 766.43C215.328 766.43 214.536 766.767 213.949 767.442C213.377 768.102 213.091 769.011 213.091 770.17C213.091 771.314 213.377 772.223 213.949 772.898C214.536 773.558 215.328 773.888 216.325 773.888ZM224.999 764.912H227.199V776H224.999V764.912ZM227.375 760.072V762.404H224.801V760.072H227.375ZM236.352 764.648C239.007 764.648 240.334 766.129 240.334 769.092V776H238.112V769.224C238.112 768.256 237.921 767.552 237.54 767.112C237.173 766.672 236.579 766.452 235.758 766.452C234.819 766.452 234.064 766.745 233.492 767.332C232.935 767.919 232.656 768.703 232.656 769.686V776H230.456V768.036C230.456 766.877 230.397 765.836 230.28 764.912H232.348L232.546 766.826C232.898 766.122 233.404 765.587 234.064 765.22C234.739 764.839 235.501 764.648 236.352 764.648Z" fill="#353535"/>
<rect width="221" height="50" rx="7" transform="matrix(1 0 0 -1 103 865)" fill="#C4C4C4"/>
<path d="M141.712 848.176C140.201 848.176 138.881 847.853 137.752 847.208C136.637 846.548 135.779 845.617 135.178 844.414C134.577 843.211 134.276 841.789 134.276 840.146C134.276 838.518 134.577 837.103 135.178 835.9C135.779 834.697 136.637 833.773 137.752 833.128C138.881 832.483 140.201 832.16 141.712 832.16C142.783 832.16 143.773 832.329 144.682 832.666C145.606 832.989 146.383 833.465 147.014 834.096L146.222 835.768C145.489 835.167 144.763 834.734 144.044 834.47C143.34 834.191 142.57 834.052 141.734 834.052C140.106 834.052 138.845 834.58 137.95 835.636C137.07 836.692 136.63 838.195 136.63 840.146C136.63 842.111 137.07 843.629 137.95 844.7C138.845 845.756 140.106 846.284 141.734 846.284C142.57 846.284 143.34 846.152 144.044 845.888C144.763 845.609 145.489 845.169 146.222 844.568L147.014 846.24C146.383 846.871 145.606 847.355 144.682 847.692C143.773 848.015 142.783 848.176 141.712 848.176ZM155.189 836.648C155.526 836.648 155.878 836.699 156.245 836.802L156.201 838.826C155.805 838.679 155.372 838.606 154.903 838.606C153.891 838.606 153.128 838.914 152.615 839.53C152.116 840.131 151.867 840.894 151.867 841.818V848H149.667V840.036C149.667 838.877 149.608 837.836 149.491 836.912H151.559L151.757 838.914C152.05 838.181 152.505 837.623 153.121 837.242C153.737 836.846 154.426 836.648 155.189 836.648ZM167.184 842.5H159.264C159.337 845.096 160.518 846.394 162.806 846.394C164.082 846.394 165.248 845.976 166.304 845.14L166.986 846.724C166.487 847.164 165.849 847.516 165.072 847.78C164.309 848.029 163.539 848.154 162.762 848.154C160.987 848.154 159.594 847.648 158.582 846.636C157.57 845.609 157.064 844.209 157.064 842.434C157.064 841.305 157.284 840.3 157.724 839.42C158.178 838.54 158.809 837.858 159.616 837.374C160.422 836.89 161.339 836.648 162.366 836.648C163.862 836.648 165.035 837.132 165.886 838.1C166.751 839.068 167.184 840.41 167.184 842.126V842.5ZM162.41 838.298C161.574 838.298 160.892 838.547 160.364 839.046C159.836 839.545 159.498 840.256 159.352 841.18H165.226C165.138 840.241 164.852 839.53 164.368 839.046C163.884 838.547 163.231 838.298 162.41 838.298ZM179.875 836.912V848H177.675V846.108C177.353 846.768 176.869 847.274 176.223 847.626C175.593 847.978 174.852 848.154 174.001 848.154C173.019 848.154 172.153 847.919 171.405 847.45C170.672 846.981 170.1 846.321 169.689 845.47C169.279 844.605 169.073 843.6 169.073 842.456C169.073 841.312 169.279 840.3 169.689 839.42C170.115 838.54 170.701 837.858 171.449 837.374C172.197 836.89 173.048 836.648 174.001 836.648C174.852 836.648 175.593 836.831 176.223 837.198C176.854 837.55 177.338 838.056 177.675 838.716V836.912H179.875ZM174.529 846.394C175.527 846.394 176.297 846.049 176.839 845.36C177.397 844.656 177.675 843.673 177.675 842.412C177.675 841.136 177.397 840.153 176.839 839.464C176.297 838.775 175.519 838.43 174.507 838.43C173.51 838.43 172.725 838.789 172.153 839.508C171.596 840.212 171.317 841.195 171.317 842.456C171.317 843.703 171.596 844.671 172.153 845.36C172.725 846.049 173.517 846.394 174.529 846.394ZM186.022 838.628V844.194C186.022 844.957 186.183 845.499 186.506 845.822C186.843 846.13 187.305 846.284 187.892 846.284C188.273 846.284 188.662 846.225 189.058 846.108V847.912C188.574 848.073 188.024 848.154 187.408 848.154C186.264 848.154 185.376 847.831 184.746 847.186C184.115 846.541 183.8 845.602 183.8 844.37V838.628H181.644V836.912H183.8V834.14L186.022 833.37V836.912H189.08V838.628H186.022ZM200.592 842.5H192.672C192.745 845.096 193.926 846.394 196.214 846.394C197.49 846.394 198.656 845.976 199.712 845.14L200.394 846.724C199.895 847.164 199.257 847.516 198.48 847.78C197.717 848.029 196.947 848.154 196.17 848.154C194.395 848.154 193.002 847.648 191.99 846.636C190.978 845.609 190.472 844.209 190.472 842.434C190.472 841.305 190.692 840.3 191.132 839.42C191.587 838.54 192.217 837.858 193.024 837.374C193.831 836.89 194.747 836.648 195.774 836.648C197.27 836.648 198.443 837.132 199.294 838.1C200.159 839.068 200.592 840.41 200.592 842.126V842.5ZM195.818 838.298C194.982 838.298 194.3 838.547 193.772 839.046C193.244 839.545 192.907 840.256 192.76 841.18H198.634C198.546 840.241 198.26 839.53 197.776 839.046C197.292 838.547 196.639 838.298 195.818 838.298ZM219.501 844.128H211.581L209.909 848H207.599L214.573 832.336H216.487L223.483 848H221.173L219.501 844.128ZM218.731 842.324L215.541 834.866L212.351 842.324H218.731ZM230.132 848.154C229.017 848.154 228.042 847.919 227.206 847.45C226.384 846.981 225.754 846.321 225.314 845.47C224.874 844.605 224.654 843.6 224.654 842.456C224.654 841.312 224.881 840.3 225.336 839.42C225.805 838.54 226.458 837.858 227.294 837.374C228.13 836.89 229.105 836.648 230.22 836.648C230.997 836.648 231.745 836.78 232.464 837.044C233.182 837.293 233.762 837.638 234.202 838.078L233.52 839.684C232.478 838.863 231.43 838.452 230.374 838.452C229.303 838.452 228.467 838.804 227.866 839.508C227.264 840.197 226.964 841.173 226.964 842.434C226.964 843.695 227.264 844.671 227.866 845.36C228.467 846.035 229.303 846.372 230.374 846.372C231.459 846.372 232.508 845.961 233.52 845.14L234.202 846.746C233.732 847.186 233.131 847.531 232.398 847.78C231.679 848.029 230.924 848.154 230.132 848.154ZM241.11 848.154C239.995 848.154 239.02 847.919 238.184 847.45C237.363 846.981 236.732 846.321 236.292 845.47C235.852 844.605 235.632 843.6 235.632 842.456C235.632 841.312 235.859 840.3 236.314 839.42C236.783 838.54 237.436 837.858 238.272 837.374C239.108 836.89 240.083 836.648 241.198 836.648C241.975 836.648 242.723 836.78 243.442 837.044C244.161 837.293 244.74 837.638 245.18 838.078L244.498 839.684C243.457 838.863 242.408 838.452 241.352 838.452C240.281 838.452 239.445 838.804 238.844 839.508C238.243 840.197 237.942 841.173 237.942 842.434C237.942 843.695 238.243 844.671 238.844 845.36C239.445 846.035 240.281 846.372 241.352 846.372C242.437 846.372 243.486 845.961 244.498 845.14L245.18 846.746C244.711 847.186 244.109 847.531 243.376 847.78C242.657 848.029 241.902 848.154 241.11 848.154ZM252.045 848.154C250.959 848.154 250.006 847.919 249.185 847.45C248.363 846.981 247.725 846.313 247.271 845.448C246.831 844.583 246.611 843.571 246.611 842.412C246.611 841.253 246.831 840.241 247.271 839.376C247.725 838.496 248.363 837.821 249.185 837.352C250.006 836.883 250.959 836.648 252.045 836.648C253.115 836.648 254.061 836.883 254.883 837.352C255.704 837.821 256.335 838.496 256.775 839.376C257.229 840.241 257.457 841.253 257.457 842.412C257.457 843.571 257.229 844.583 256.775 845.448C256.335 846.313 255.704 846.981 254.883 847.45C254.061 847.919 253.115 848.154 252.045 848.154ZM252.023 846.394C253.049 846.394 253.834 846.057 254.377 845.382C254.919 844.707 255.191 843.717 255.191 842.412C255.191 841.136 254.912 840.153 254.355 839.464C253.812 838.775 253.042 838.43 252.045 838.43C251.033 838.43 250.248 838.775 249.691 839.464C249.133 840.153 248.855 841.136 248.855 842.412C248.855 843.717 249.126 844.707 249.669 845.382C250.226 846.057 251.011 846.394 252.023 846.394ZM269.69 836.912V848H267.534V846.152C267.182 846.797 266.698 847.296 266.082 847.648C265.466 847.985 264.769 848.154 263.992 848.154C261.322 848.154 259.988 846.673 259.988 843.71V836.912H262.188V843.688C262.188 844.597 262.371 845.272 262.738 845.712C263.119 846.137 263.691 846.35 264.454 846.35C265.363 846.35 266.089 846.057 266.632 845.47C267.189 844.883 267.468 844.106 267.468 843.138V836.912H269.69ZM278.84 836.648C281.495 836.648 282.822 838.129 282.822 841.092V848H280.6V841.224C280.6 840.256 280.41 839.552 280.028 839.112C279.662 838.672 279.068 838.452 278.246 838.452C277.308 838.452 276.552 838.745 275.98 839.332C275.423 839.919 275.144 840.703 275.144 841.686V848H272.944V840.036C272.944 838.877 272.886 837.836 272.768 836.912H274.836L275.034 838.826C275.386 838.122 275.892 837.587 276.552 837.22C277.227 836.839 277.99 836.648 278.84 836.648ZM288.867 838.628V844.194C288.867 844.957 289.029 845.499 289.351 845.822C289.689 846.13 290.151 846.284 290.737 846.284C291.119 846.284 291.507 846.225 291.903 846.108V847.912C291.419 848.073 290.869 848.154 290.253 848.154C289.109 848.154 288.222 847.831 287.591 847.186C286.961 846.541 286.645 845.602 286.645 844.37V838.628H284.489V836.912H286.645V834.14L288.867 833.37V836.912H291.925V838.628H288.867Z" fill="#353535"/>
<rect x="1" y="1" width="426" height="924" stroke="#B3B3B3" stroke-width="2"/>
<path d="M164.13 986.27C162.43 986.27 160.89 986.06 159.51 985.64C158.13 985.2 156.93 984.58 155.91 983.78L156.96 981.32C157.64 981.84 158.34 982.27 159.06 982.61C159.8 982.95 160.58 983.21 161.4 983.39C162.24 983.55 163.15 983.63 164.13 983.63C165.81 983.63 167.04 983.33 167.82 982.73C168.62 982.13 169.02 981.34 169.02 980.36C169.02 979.52 168.74 978.87 168.18 978.41C167.64 977.95 166.68 977.58 165.3 977.3L162.03 976.64C160.09 976.24 158.64 975.59 157.68 974.69C156.74 973.77 156.27 972.52 156.27 970.94C156.27 969.66 156.61 968.54 157.29 967.58C157.97 966.62 158.91 965.88 160.11 965.36C161.33 964.84 162.75 964.58 164.37 964.58C165.87 964.58 167.25 964.8 168.51 965.24C169.77 965.66 170.83 966.29 171.69 967.13L170.67 969.5C169.77 968.72 168.81 968.15 167.79 967.79C166.77 967.41 165.61 967.22 164.31 967.22C162.77 967.22 161.56 967.54 160.68 968.18C159.82 968.82 159.39 969.69 159.39 970.79C159.39 971.67 159.66 972.36 160.2 972.86C160.76 973.36 161.68 973.74 162.96 974L166.23 974.63C168.25 975.05 169.74 975.7 170.7 976.58C171.66 977.44 172.14 978.63 172.14 980.15C172.14 981.37 171.81 982.44 171.15 983.36C170.51 984.28 169.59 985 168.39 985.52C167.19 986.02 165.77 986.27 164.13 986.27ZM175.974 986V964.85H184.944C187.204 964.85 188.934 965.4 190.134 966.5C191.354 967.58 191.964 969.08 191.964 971C191.964 972.92 191.354 974.43 190.134 975.53C188.934 976.63 187.204 977.18 184.944 977.18H179.094V986H175.974ZM179.094 974.69H184.614C186.034 974.69 187.104 974.37 187.824 973.73C188.544 973.09 188.904 972.18 188.904 971C188.904 969.84 188.544 968.94 187.824 968.3C187.104 967.66 186.034 967.34 184.614 967.34H179.094V974.69ZM195.72 986V964.85H198.84V983.33H209.22V986H195.72ZM209.527 986L218.947 964.85H221.617L231.187 986H227.977L225.367 980L226.687 980.84H213.877L215.287 980L212.677 986H209.527ZM220.237 968.27L215.677 979.04L214.957 978.35H225.607L225.007 979.04L220.357 968.27H220.237ZM240.917 986.27C239.217 986.27 237.677 986.06 236.297 985.64C234.917 985.2 233.717 984.58 232.697 983.78L233.747 981.32C234.427 981.84 235.127 982.27 235.847 982.61C236.587 982.95 237.367 983.21 238.187 983.39C239.027 983.55 239.937 983.63 240.917 983.63C242.597 983.63 243.827 983.33 244.607 982.73C245.407 982.13 245.807 981.34 245.807 980.36C245.807 979.52 245.527 978.87 244.967 978.41C244.427 977.95 243.467 977.58 242.087 977.3L238.817 976.64C236.877 976.24 235.427 975.59 234.467 974.69C233.527 973.77 233.057 972.52 233.057 970.94C233.057 969.66 233.397 968.54 234.077 967.58C234.757 966.62 235.697 965.88 236.897 965.36C238.117 964.84 239.537 964.58 241.157 964.58C242.657 964.58 244.037 964.8 245.297 965.24C246.557 965.66 247.617 966.29 248.477 967.13L247.457 969.5C246.557 968.72 245.597 968.15 244.577 967.79C243.557 967.41 242.397 967.22 241.097 967.22C239.557 967.22 238.347 967.54 237.467 968.18C236.607 968.82 236.177 969.69 236.177 970.79C236.177 971.67 236.447 972.36 236.987 972.86C237.547 973.36 238.467 973.74 239.747 974L243.017 974.63C245.037 975.05 246.527 975.7 247.487 976.58C248.447 977.44 248.927 978.63 248.927 980.15C248.927 981.37 248.597 982.44 247.937 983.36C247.297 984.28 246.377 985 245.177 985.52C243.977 986.02 242.557 986.27 240.917 986.27ZM252.761 986V964.85H255.881V973.97H267.761V964.85H270.881V986H267.761V976.58H255.881V986H252.761Z" fill="black"/>
</svg>
