<svg width="512" height="512" viewBox="0 0 512 512" fill="none" xmlns="http://www.w3.org/2000/svg">
<rect width="512" height="512" rx="100" fill="white"/>
<path d="M102.963 129.253L70.5725 147.875L70.5 158.744V169.613L94.4846 175.99L118.397 182.366L123.976 178.816C127.02 176.859 132.237 173.889 135.497 172.294C138.758 170.628 141.584 168.744 141.802 168.019C142.889 164.324 153.758 123.021 153.975 121.862C154.12 120.775 152.381 119.398 145.859 115.557C141.294 112.876 137.019 110.63 136.439 110.63C135.86 110.558 120.788 118.963 102.963 129.253Z" fill="#FF1457"/>
<path d="M366.141 115.557C359.619 119.398 357.88 120.775 358.025 121.862C358.242 123.021 369.111 164.324 370.198 168.019C370.416 168.744 373.242 170.628 376.502 172.294C379.763 173.889 384.98 176.859 388.024 178.816L393.603 182.366L417.515 175.99L441.5 169.613V158.744L441.427 147.875L408.965 129.18C391.14 118.963 376.068 110.558 375.488 110.63C374.908 110.63 370.706 112.876 366.141 115.557Z" fill="#FF3D70"/>
<path d="M172.598 169.975C102.021 182.729 59.9209 254.103 82.4563 322.506C85.2822 330.984 92.3109 344.679 97.8904 352.577C103.977 361.2 116.73 374.025 125.063 379.895C155.062 400.981 193.684 406.995 228.465 395.909C235.131 393.807 245.856 389.242 245.856 388.59C245.856 388.373 243.827 386.634 241.291 384.677C234.045 378.953 227.885 372.938 222.233 366.2C219.335 362.721 216.726 359.461 216.364 358.881C215.857 357.939 215.06 358.012 210.35 359.316C206.002 360.475 202.669 360.765 193.322 360.838C179.989 360.91 173.83 359.678 162.743 354.896C132.672 341.925 113.614 310.042 116.875 278.015C120.281 245.045 142.381 219.466 175.351 210.409C183.394 208.162 202.307 208.162 210.35 210.409C233.9 216.785 251.58 230.988 261.435 251.349C271.145 271.566 271.869 293.014 263.536 313.955C261.87 318.086 261.797 318.593 262.812 320.477C264.623 324.027 272.159 332.505 276.941 336.346C282.376 340.693 291.144 345.621 292.521 345.113C293.97 344.534 301.071 329.534 303.68 321.636C311.578 297.869 311.505 270.696 303.39 247.291C289.695 207.728 258.247 179.903 216.726 170.628C206.727 168.381 183.322 168.019 172.598 169.975ZM146.222 194.974C149.7 198.38 148.758 200.047 139.773 206.206C112.383 224.828 96.8035 255.987 98.2527 289.174C98.9049 303.521 102.673 317.723 108.977 329.317C111.368 333.81 111.586 336.273 109.846 338.23C108.325 339.896 104.412 339.896 102.89 338.23C101.224 336.346 95.5717 324.172 93.3979 317.796C88.9777 304.463 87.0938 288.014 88.543 275.044C92.166 242.436 108.615 215.119 135.28 197.438C138.831 195.119 142.381 193.163 143.106 193.163C143.831 193.163 145.28 193.96 146.222 194.974Z" fill="#FF1457"/>
<path d="M304.911 168.961C291.941 170.918 280.854 174.033 271.289 178.453L265.782 180.99L268.608 183.236C279.405 191.859 288.535 201.134 294.042 208.887C295.491 210.916 296.578 211.858 297.303 211.568C304.259 209.032 319.476 207.8 328.751 209.032C359.04 213.09 384.111 234.828 392.517 264.32C402.226 298.231 386.575 334.969 355.272 352.07C349.04 355.548 336.794 359.533 329.258 360.62C306.361 363.881 281.869 355.476 264.985 338.52C243.392 316.781 236.943 285.768 248.102 256.784C249.841 252.436 250.131 250.914 249.551 249.755C247.522 246.06 239.624 237.074 235.204 233.524C229.624 229.031 220.929 224.031 219.552 224.539C219.045 224.684 217.016 228.234 214.915 232.364C179.916 303.014 222.161 386.561 299.549 399.749C307.303 401.053 310.418 401.271 322.302 400.909C337.809 400.474 345.127 399.242 357.518 394.894C397.299 381.054 426.211 347.143 433.964 305.115C435.776 295.333 435.848 274.682 434.037 265.117C430.196 244.828 422.153 227.075 409.762 211.568C393.241 190.989 369.474 176.352 343.098 170.628C337.591 169.468 332.881 169.106 321.577 168.889C313.607 168.744 306.143 168.816 304.911 168.961ZM378.169 197.511C413.168 221.133 430.921 264.102 422.588 305.115C420.704 314.535 418.313 321.491 413.965 330.621C410.197 338.52 408.023 340.766 404.907 339.969C403.965 339.752 402.589 338.52 402.009 337.36C400.922 335.259 400.995 334.969 404.473 327.795C410.922 314.463 413.675 303.666 414.4 289.536C416.139 255.697 399.763 223.379 371.648 204.974C368.822 203.163 366.068 201.134 365.634 200.554C364.329 198.887 364.474 195.772 365.996 194.467C368.894 191.931 370.344 192.221 378.169 197.511Z" fill="#FF3D70"/>
</svg>
