<svg width="472" height="536" viewBox="0 0 472 536" fill="none" xmlns="http://www.w3.org/2000/svg">
<g clip-path="url(#clip0_400_980)">
<path d="M303.222 396.304C304.281 396.87 305.488 397.096 306.679 396.953C307.871 396.81 308.99 396.304 309.884 395.504C310.779 394.703 311.405 393.647 311.68 392.479C311.954 391.311 311.862 390.086 311.417 388.971C311.536 388.378 311.622 387.953 311.741 387.359C314.031 385.222 316.907 383.817 320.001 383.325C323.094 382.833 326.264 383.276 329.104 384.597C331.944 385.918 334.325 388.057 335.942 390.74C337.558 393.423 338.337 396.528 338.177 399.656C337.452 417.299 338.324 436.336 326.598 450.559C380.117 406.825 404.52 332.322 388.176 265.314C380.156 254.139 376.415 239.293 380.011 225.84C384.524 230.229 393.322 229.05 391.978 221.451C391.257 218.448 390.51 215.454 389.789 212.451C420.614 200.423 428.663 246.257 392.148 264.919C395.11 277.658 396.733 290.672 396.989 303.749C401.111 291.958 407.973 281.314 417.012 272.692C425.763 264.813 437.334 260.18 448.099 254.894C461.198 248.444 475.736 261.23 470.578 274.88C461.858 273.764 455.688 284.187 463.601 289.788C449.703 313.129 423.054 327.965 395.978 328.2C393.24 354.834 384.856 380.578 371.387 403.716C388.683 377.415 422.157 384.988 448.61 383.867C450.365 383.646 452.147 383.94 453.738 384.714C455.328 385.488 456.66 386.708 457.569 388.226C458.478 389.743 458.926 391.493 458.857 393.261C458.789 395.028 458.208 396.738 457.185 398.181C453.705 397.977 450.213 398.119 446.761 398.605C445.138 398.845 443.628 399.582 442.44 400.714C441.251 401.847 440.442 403.319 440.123 404.929C439.804 406.539 439.991 408.208 440.658 409.708C441.325 411.208 442.439 412.464 443.848 413.306C420.643 434.579 384.684 439.152 356.463 425.578C348.119 436.088 338.706 445.702 328.374 454.266L286.417 434.266C286.489 433.728 286.583 433.183 286.67 432.652C290.437 434.747 294.447 436.373 298.609 437.494C294.133 420.431 289.145 410.437 303.221 396.304H303.222Z" fill="#F2F2F2"/>
<path d="M229.084 355.94C228.317 356.863 227.285 357.529 226.127 357.845C224.969 358.162 223.742 358.116 222.612 357.712C221.482 357.308 220.503 356.567 219.809 355.588C219.114 354.609 218.737 353.441 218.728 352.24C218.394 351.736 218.154 351.374 217.82 350.87C214.893 349.754 211.7 349.538 208.649 350.249C205.599 350.96 202.83 352.566 200.698 354.861C198.566 357.155 197.168 360.035 196.683 363.129C196.198 366.224 196.648 369.393 197.976 372.23C205.302 388.296 211.676 406.256 227.901 415.005C161.838 394.689 111.135 334.895 100.996 266.671C104.208 253.296 102.073 238.136 93.6676 227.033C91.1436 232.801 82.5509 235.027 80.9298 227.483C80.465 224.429 80.0269 221.375 79.5619 218.322C46.4764 218.809 56.3117 264.294 97.1678 267.803C99.2299 280.719 102.636 293.384 107.332 305.592C99.0667 296.226 88.6961 288.957 77.0731 284.381C65.9966 280.385 53.5325 280.459 41.5688 279.624C27.0046 278.592 18.3636 295.917 28.2888 306.613C35.9437 302.29 45.5896 309.616 40.3738 317.788C62.0497 334.162 92.3262 337.85 117.491 327.855C130.073 351.488 147.548 372.168 168.751 388.517C142.811 370.683 114.667 390.322 89.7444 399.263C88.0355 399.72 86.4965 400.665 85.3152 401.981C84.1339 403.298 83.3614 404.93 83.0919 406.679C82.8224 408.427 83.0675 410.216 83.7974 411.828C84.5273 413.439 85.7104 414.803 87.2023 415.754C90.3483 414.252 93.6356 413.066 97.0159 412.215C98.6104 411.825 100.286 411.938 101.814 412.538C103.342 413.138 104.646 414.196 105.549 415.567C106.452 416.938 106.909 418.554 106.857 420.195C106.805 421.835 106.247 423.42 105.259 424.731C134.775 435.68 169.802 426.351 190.818 403.134C202.51 409.72 214.855 415.074 227.654 419.108L258.967 384.759C258.698 384.288 258.405 383.818 258.124 383.359C255.426 386.721 252.326 389.74 248.893 392.348C246.602 374.857 247.452 363.719 229.085 355.94L229.084 355.94Z" fill="#F2F2F2"/>
<path d="M237.142 210.798C238.337 210.677 239.465 210.192 240.374 209.409C241.283 208.626 241.93 207.582 242.226 206.419C242.523 205.256 242.454 204.03 242.03 202.907C241.607 201.784 240.848 200.819 239.857 200.141C239.625 199.583 239.459 199.181 239.227 198.623C239.937 195.571 241.541 192.802 243.834 190.668C246.128 188.535 249.006 187.135 252.101 186.648C255.195 186.162 258.364 186.61 261.202 187.936C264.04 189.262 266.417 191.405 268.029 194.091C277.264 209.141 288.601 224.459 286.797 242.804C306.842 176.659 285.561 101.205 234.632 54.691C221.744 49.8855 210.361 39.6473 205.846 26.4742C212.04 27.6017 218.685 21.7177 213.333 16.1592C211.06 14.0684 208.771 11.9991 206.498 9.90812C225.381 -17.2641 257.617 16.2979 237.71 52.1481C247.272 61.0722 255.874 70.9714 263.378 81.6845C260.225 69.5976 259.988 56.9351 262.684 44.7385C265.555 33.3187 272.578 23.021 278.567 12.6307C285.845 -0.0266495 305.043 2.48197 308.371 16.6887C300.511 20.6243 301.2 32.7168 310.891 32.9545C312.368 60.08 298.517 87.254 276.172 102.546C288.748 126.182 296.142 152.227 297.861 178.946C297.556 147.468 329.565 135.092 350.901 119.412C352.235 118.25 353.878 117.501 355.63 117.256C357.382 117.012 359.167 117.283 360.768 118.036C362.369 118.789 363.716 119.991 364.645 121.497C365.574 123.002 366.045 124.745 366 126.514C362.997 128.285 360.178 130.349 357.583 132.677C356.369 133.782 355.527 135.236 355.172 136.838C354.816 138.441 354.965 140.114 355.598 141.628C356.231 143.143 357.317 144.424 358.707 145.297C360.096 146.171 361.722 146.593 363.361 146.505C355.958 177.104 328.658 200.949 297.661 205.414C296.595 218.791 294.141 232.022 290.339 244.891L244.357 251.682C244.117 251.195 243.891 250.689 243.667 250.201C247.963 249.84 252.198 248.954 256.278 247.564C243.049 235.894 233.336 230.379 237.141 210.798L237.142 210.798Z" fill="#F2F2F2"/>
<path d="M283.389 196.054C262.455 196.054 251.101 193.496 247.135 188.036C243.636 183.218 245.982 176.861 248.698 169.5C250.651 164.21 252.863 158.214 252.863 152.279C252.863 123.415 267.499 108.779 296.363 108.779C310.724 108.779 326.144 116.408 337.612 129.187C348.036 140.804 353.23 154.708 351.86 167.333C350.737 177.687 345.917 184.496 336.693 188.763L336.154 189.012L336 188.438C335.204 185.466 333.856 182.671 332.026 180.197C331.848 184.08 330.869 187.884 329.151 191.371L329.053 191.569L328.84 191.63C318.4 194.604 306.01 195.41 296.382 195.779C291.696 195.961 287.365 196.053 283.389 196.054Z" fill="#2F2E41"/>
<path d="M289.094 236.271C288.292 233.912 286.939 231.779 285.147 230.048C283.355 228.317 281.176 227.039 278.791 226.319C276.406 225.599 273.884 225.458 271.434 225.908C268.984 226.357 266.676 227.385 264.702 228.905L195.846 270.073L174.299 217.5C176.12 214.829 177.047 211.651 176.95 208.421C176.852 205.191 175.734 202.075 173.756 199.52C171.777 196.964 169.041 195.101 165.938 194.197C162.835 193.294 159.526 193.396 156.485 194.489C153.444 195.582 150.827 197.61 149.01 200.282C147.193 202.955 146.269 206.134 146.37 209.364C146.472 212.594 147.593 215.708 149.574 218.262C151.556 220.815 154.294 222.675 157.398 223.575C158.726 238.735 166.106 306.496 191.781 304.033C213.362 301.963 266.957 266.27 283.603 253.894C286.266 251.916 288.233 249.144 289.22 245.977C290.206 242.81 290.162 239.411 289.094 236.271Z" fill="#FFB6B6"/>
<path d="M340.983 535.279H281.053L271.003 485.589L267.743 535.279H212.073C212.094 496.257 214.127 457.262 218.163 418.449L218.853 416.099L219.943 412.339L220.633 409.979L232.153 370.419L233.063 367.279H302.433C306.425 371.029 310.107 375.096 313.443 379.439C314.573 380.879 315.753 382.439 316.963 384.119C317.803 385.309 318.673 386.559 319.543 387.869C327.272 399.377 333.05 412.081 336.643 425.469V425.479C337.253 427.769 337.793 430.113 338.263 432.509V432.519C338.683 434.649 339.053 436.809 339.343 439.019C339.563 440.629 339.753 442.259 339.893 443.909C340.726 453.05 340.434 462.259 339.023 471.329L340.983 535.279Z" fill="#2F2E41"/>
<path d="M23.2336 80.9205C27.1256 79.4139 29.431 75.9977 28.383 73.2902C27.3349 70.5828 23.3302 69.6092 19.4382 71.1158C15.5462 72.6224 13.2407 76.0386 14.2888 78.7461C15.3369 81.4536 19.3416 82.4271 23.2336 80.9205Z" fill="#E6E6E6"/>
<path d="M72.2375 74.6343C76.1295 73.1277 78.4349 69.7116 77.3869 67.0041C76.3388 64.2966 72.3341 63.3231 68.4421 64.8297C64.5501 66.3363 62.2446 69.7525 63.2927 72.4599C64.3408 75.1674 68.3455 76.1409 72.2375 74.6343Z" fill="#3F3D56"/>
<path d="M18.9841 122.729C22.8761 121.222 25.1816 117.806 24.1335 115.099C23.0854 112.391 19.0807 111.418 15.1887 112.924C11.2967 114.431 8.99122 117.847 10.0393 120.555C11.0873 123.262 15.0921 124.236 18.9841 122.729Z" fill="#FF6584"/>
<path d="M4.80749 141.171C6.59301 140.748 7.548 138.325 6.94048 135.758C6.33297 133.191 4.393 131.453 2.60748 131.876C0.82196 132.299 -0.132999 134.722 0.474514 137.289C1.08203 139.855 3.02196 141.593 4.80749 141.171Z" fill="#E6E6E6"/>
<path d="M4.51598 172.393C6.30151 171.971 7.25646 169.547 6.64895 166.981C6.04144 164.414 4.1015 162.676 2.31598 163.099C0.530456 163.521 -0.424503 165.944 0.183011 168.511C0.790524 171.078 2.73046 172.816 4.51598 172.393Z" fill="#3F3D56"/>
<path d="M47.5248 107.724C49.3103 107.301 50.2652 104.878 49.6577 102.311C49.0502 99.7446 47.1103 98.0065 45.3248 98.4291C43.5392 98.8517 42.5843 101.275 43.1918 103.842C43.7993 106.408 45.7392 108.147 47.5248 107.724Z" fill="#E6E6E6"/>
<path d="M21.7162 101.457C23.5017 101.034 24.4567 98.6109 23.8491 96.0442C23.2416 93.4775 21.3017 91.7394 19.5162 92.162C17.7307 92.5846 16.7757 95.008 17.3832 97.5747C17.9907 100.141 19.9307 101.879 21.7162 101.457Z" fill="#FF6584"/>
<path d="M49.0716 72.7059C50.8572 72.2832 51.8121 69.8599 51.2046 67.2932C50.5971 64.7265 48.6572 62.9884 46.8716 63.4111C45.0861 63.8337 44.1312 66.257 44.7387 68.8237C45.3462 71.3904 47.2861 73.1285 49.0716 72.7059Z" fill="#3F3D56"/>
<path d="M61.7939 288.803C63.6757 286.593 62.625 282.608 59.447 279.902C56.2689 277.197 52.1671 276.796 50.2853 279.007C48.4035 281.218 49.4542 285.203 52.6322 287.908C55.8102 290.613 59.912 291.014 61.7939 288.803Z" fill="#E6E6E6"/>
<path d="M32.9335 248.704C34.8154 246.494 33.7646 242.508 30.5866 239.803C27.4086 237.098 23.3068 236.697 21.4249 238.908C19.5431 241.119 20.5939 245.104 23.7719 247.809C26.9499 250.514 31.0517 250.915 32.9335 248.704Z" fill="#3F3D56"/>
<path d="M100.582 272.634C102.464 270.423 101.414 266.438 98.2355 263.732C95.0575 261.027 90.9557 260.627 89.0739 262.837C87.192 265.048 88.2428 269.033 91.4208 271.738C94.5988 274.444 98.7006 274.844 100.582 272.634Z" fill="#FF6584"/>
<path d="M119.852 273.076C121.82 271.32 122.424 268.787 121.203 267.418C119.981 266.049 117.395 266.363 115.427 268.119C113.459 269.876 112.855 272.409 114.077 273.778C115.298 275.147 117.884 274.833 119.852 273.076Z" fill="#E6E6E6"/>
<path d="M147.447 258.467C149.414 256.71 150.019 254.177 148.797 252.808C147.575 251.439 144.99 251.753 143.022 253.509C141.054 255.266 140.449 257.799 141.671 259.168C142.893 260.537 145.479 260.223 147.447 258.467Z" fill="#3F3D56"/>
<path d="M70.1004 251.438C72.0681 249.681 72.6729 247.148 71.4511 245.779C70.2293 244.41 67.6436 244.724 65.6758 246.48C63.708 248.237 63.1033 250.77 64.3251 252.139C65.5469 253.508 68.1326 253.194 70.1004 251.438Z" fill="#E6E6E6"/>
<path d="M76.8777 277.117C78.8455 275.361 79.4502 272.828 78.2284 271.459C77.0066 270.09 74.4209 270.404 72.4531 272.16C70.4854 273.917 69.8806 276.45 71.1024 277.819C72.3242 279.188 74.9099 278.874 76.8777 277.117Z" fill="#FF6584"/>
<path d="M38.5701 266.752C40.5379 264.995 41.1426 262.462 39.9208 261.093C38.699 259.724 36.1133 260.038 34.1455 261.794C32.1777 263.551 31.573 266.084 32.7948 267.453C34.0166 268.822 36.6023 268.508 38.5701 266.752Z" fill="#3F3D56"/>
<path d="M255.68 31.6229C258.286 30.3416 258.905 26.267 257.063 22.522C255.221 18.777 251.616 16.7797 249.011 18.061C246.405 19.3422 245.787 23.4168 247.628 27.1618C249.47 30.9069 253.075 32.9042 255.68 31.6229Z" fill="#E6E6E6"/>
<path d="M266.236 79.8871C268.841 78.6058 269.46 74.5312 267.618 70.7861C265.777 67.0411 262.172 65.0439 259.566 66.3251C256.961 67.6064 256.342 71.681 258.184 75.426C260.026 79.171 263.631 81.1683 266.236 79.8871Z" fill="#3F3D56"/>
<path d="M213.661 31.0526C216.266 29.7713 216.885 25.6967 215.043 21.9517C213.201 18.2067 209.596 16.2094 206.991 17.4906C204.386 18.7719 203.767 22.8465 205.609 26.5915C207.451 30.3366 211.056 32.3338 213.661 31.0526Z" fill="#FF6584"/>
<path d="M191.574 15.7362C194.078 14.9061 195.639 12.8213 195.062 11.0797C194.485 9.33808 191.987 8.59909 189.483 9.42916C186.98 10.2592 185.418 12.344 185.996 14.0856C186.573 15.8273 189.071 16.5662 191.574 15.7362Z" fill="#E6E6E6"/>
<path d="M160.446 18.1815C162.95 17.3514 164.512 15.2666 163.934 13.525C163.357 11.7834 160.859 11.0444 158.355 11.8745C155.852 12.7046 154.29 14.7893 154.868 16.5309C155.445 18.2726 157.943 19.0115 160.446 18.1815Z" fill="#3F3D56"/>
<path d="M228.635 55.3587C231.139 54.5286 232.7 52.4439 232.123 50.7022C231.545 48.9606 229.047 48.2216 226.544 49.0517C224.04 49.8818 222.479 51.9666 223.056 53.7082C223.634 55.4498 226.131 56.1888 228.635 55.3587Z" fill="#E6E6E6"/>
<path d="M232.617 29.0999C235.121 28.2698 236.682 26.1851 236.105 24.4434C235.527 22.7018 233.029 21.9629 230.526 22.7929C228.022 23.623 226.461 25.7078 227.038 27.4494C227.616 29.191 230.113 29.93 232.617 29.0999Z" fill="#FF6584"/>
<path d="M263.654 53.8309C266.158 53.0008 267.719 50.916 267.142 49.1744C266.564 47.4328 264.067 46.6938 261.563 47.5239C259.059 48.354 257.498 50.4387 258.075 52.1803C258.653 53.922 261.15 54.6609 263.654 53.8309Z" fill="#3F3D56"/>
<path d="M273.264 204.09L306.28 202.389L321.616 226.62C321.616 226.62 350.469 231.444 348.469 265.444C346.469 299.444 313.363 329.279 313.363 329.279L314.778 346.985L312.32 354.008L312.636 357.951L315.988 362.127L316.334 366.446L313.363 373.279L317.403 379.822L232.469 371.593L229.363 360.279L233.894 354.204L231.363 346.279L235.168 338.657L237.151 314.446C237.151 314.446 215.447 281.839 240.363 257.279L250.363 240.279L261.552 226.628L273.264 204.09Z" fill="#F9A826"/>
<path d="M289.678 197.248C308.999 197.248 324.662 181.585 324.662 162.264C324.662 142.942 308.999 127.279 289.678 127.279C270.356 127.279 254.693 142.942 254.693 162.264C254.693 181.585 270.356 197.248 289.678 197.248Z" fill="#FFB6B6"/>
<path d="M284.994 160.143C281.979 160.143 278.966 160.058 275.955 159.888L275.416 159.858L275.487 159.324C275.931 155.985 275.681 152.59 274.754 149.351C273.179 153.039 270.836 156.348 267.881 159.058L267.714 159.211L267.489 159.187C259.311 158.292 251.207 156.814 243.239 154.764L242.934 154.686L242.873 154.377C242.277 151.455 241.969 148.481 241.953 145.499C241.953 136.183 245.33 128.342 251.463 123.421C258.139 118.064 267.708 116.417 278.417 118.779H312.663C316.427 118.784 320.037 120.281 322.699 122.943C325.361 125.605 326.859 129.215 326.863 132.98V154.666L326.489 154.763C312.944 158.323 298.999 160.131 284.994 160.143Z" fill="#2F2E41"/>
<path d="M46.2805 121.229C44.7475 121.79 43.4995 122.935 42.8102 124.415C42.121 125.895 42.0469 127.587 42.6042 129.122L79.5474 230.491C80.108 232.024 81.2539 233.272 82.7336 233.961C84.2132 234.65 85.9059 234.724 87.4402 234.167L230.823 181.912C232.356 181.351 233.604 180.205 234.293 178.726C234.983 177.246 235.057 175.553 234.5 174.019L197.556 72.6503C196.996 71.1173 195.85 69.8692 194.37 69.18C192.89 68.4907 191.198 68.4165 189.664 68.9737L46.2805 121.229Z" fill="#CCCCCC"/>
<path d="M177.459 195.772L89.6935 227.757C88.0422 228.357 86.2205 228.277 84.6279 227.535C83.0354 226.794 81.8021 225.45 81.1987 223.8L47.6915 131.86C47.0917 130.208 47.1715 128.387 47.9133 126.794C48.6551 125.202 49.9983 123.968 51.6482 123.365L186.929 74.0626C188.58 73.4628 190.402 73.5426 191.995 74.2844C193.587 75.0263 194.821 76.3696 195.424 78.0196L211.614 122.444C216.791 136.698 216.102 152.424 209.699 166.171C203.296 179.917 191.701 190.563 177.459 195.772V195.772Z" fill="white"/>
<path d="M114.307 129.353L93.4511 136.954C93.1896 137.049 92.9118 137.092 92.6337 137.08C92.3556 137.068 92.0825 137.001 91.8302 136.883C91.5779 136.766 91.3511 136.6 91.163 136.395C90.9748 136.189 90.8289 135.949 90.7336 135.688C90.6383 135.426 90.5954 135.148 90.6074 134.87C90.6195 134.592 90.6862 134.319 90.8037 134.067C90.9212 133.814 91.0873 133.588 91.2925 133.4C91.4977 133.211 91.7379 133.066 91.9994 132.97L112.855 125.369C113.384 125.177 113.967 125.202 114.476 125.439C114.986 125.677 115.38 126.107 115.573 126.635C115.765 127.163 115.74 127.746 115.503 128.256C115.265 128.766 114.835 129.16 114.307 129.353H114.307Z" fill="#FFD233"/>
<path d="M164.028 120.46L96.4199 145.1C96.1582 145.195 95.8803 145.238 95.602 145.227C95.3236 145.215 95.0503 145.148 94.7977 145.031C94.5451 144.913 94.3181 144.747 94.1297 144.542C93.9414 144.337 93.7953 144.096 93.6999 143.835C93.6045 143.573 93.5617 143.295 93.5738 143.017C93.5859 142.738 93.6528 142.465 93.7706 142.213C93.8884 141.96 94.0548 141.733 94.2602 141.545C94.4657 141.357 94.7063 141.211 94.9682 141.116L162.576 116.477C162.838 116.381 163.116 116.339 163.394 116.351C163.672 116.363 163.945 116.429 164.197 116.547C164.45 116.664 164.676 116.831 164.865 117.036C165.053 117.241 165.199 117.481 165.294 117.743C165.389 118.004 165.432 118.282 165.42 118.56C165.408 118.838 165.341 119.111 165.224 119.363C165.106 119.616 164.94 119.843 164.735 120.031C164.53 120.219 164.29 120.365 164.028 120.46V120.46Z" fill="#FFD233"/>
<path d="M167.436 129.81L99.8276 154.45C99.5661 154.545 99.2883 154.588 99.0102 154.576C98.732 154.564 98.459 154.497 98.2067 154.38C97.9543 154.262 97.7276 154.096 97.5395 153.891C97.3513 153.686 97.2054 153.445 97.1101 153.184C97.0148 152.922 96.9719 152.645 96.9839 152.366C96.9959 152.088 97.0626 151.815 97.1802 151.563C97.2977 151.311 97.4638 151.084 97.669 150.896C97.8741 150.708 98.1143 150.562 98.3759 150.466L165.984 125.827C166.512 125.635 167.095 125.661 167.604 125.898C168.113 126.136 168.507 126.566 168.699 127.094C168.892 127.621 168.867 128.204 168.63 128.713C168.393 129.223 167.963 129.617 167.436 129.81V129.81Z" fill="#FFD233"/>
<path d="M170.844 139.161L103.235 163.8C102.974 163.896 102.696 163.939 102.417 163.927C102.139 163.916 101.866 163.849 101.613 163.732C101.361 163.614 101.134 163.448 100.945 163.243C100.757 163.037 100.611 162.797 100.515 162.535C100.42 162.274 100.377 161.996 100.389 161.717C100.401 161.439 100.468 161.166 100.586 160.913C100.704 160.661 100.87 160.434 101.076 160.246C101.281 160.058 101.522 159.912 101.784 159.817L169.392 135.177C169.653 135.082 169.931 135.039 170.209 135.051C170.487 135.063 170.76 135.13 171.013 135.248C171.265 135.365 171.492 135.531 171.68 135.736C171.868 135.942 172.014 136.182 172.109 136.443C172.205 136.705 172.248 136.983 172.236 137.261C172.224 137.539 172.157 137.812 172.039 138.064C171.922 138.317 171.756 138.543 171.55 138.731C171.345 138.92 171.105 139.065 170.844 139.161V139.161Z" fill="#FFD233"/>
<path d="M174.251 148.511L106.643 173.151C106.115 173.343 105.532 173.318 105.022 173.081C104.512 172.843 104.118 172.413 103.926 171.885C103.733 171.357 103.758 170.774 103.996 170.264C104.233 169.754 104.663 169.36 105.191 169.168L172.8 144.528C173.061 144.433 173.339 144.39 173.617 144.402C173.895 144.414 174.168 144.481 174.421 144.598C174.673 144.716 174.9 144.882 175.088 145.087C175.276 145.292 175.422 145.532 175.517 145.794C175.612 146.055 175.655 146.333 175.643 146.611C175.631 146.889 175.565 147.162 175.447 147.415C175.329 147.667 175.163 147.894 174.958 148.082C174.753 148.27 174.513 148.416 174.251 148.511H174.251Z" fill="#FFD233"/>
<path d="M388.773 174.48L351.757 263.06C350.177 266.808 347.188 269.785 343.433 271.348C339.678 272.911 335.459 272.936 331.686 271.416C329.734 270.629 327.963 269.454 326.481 267.961C324.998 266.468 323.835 264.688 323.063 262.731C322.29 260.774 321.925 258.68 321.988 256.576C322.051 254.473 322.542 252.405 323.431 250.498L364.703 159.664L387.454 103.412C385.488 101.451 384.173 98.9328 383.688 96.1988C383.204 93.4648 383.572 90.6478 384.744 88.1305C385.916 85.6133 387.835 83.5178 390.239 82.1288C392.643 80.7399 395.417 80.1247 398.183 80.367C400.949 80.6093 403.573 81.6972 405.7 83.4829C407.826 85.2687 409.351 87.6657 410.067 90.3484C410.784 93.031 410.657 95.8692 409.705 98.4773C408.752 101.085 407.019 103.337 404.742 104.926L388.773 174.48Z" fill="#FFB6B6"/>
</g>
<defs>
<clipPath id="clip0_400_980">
<rect width="471.644" height="535.279" fill="white"/>
</clipPath>
</defs>
</svg>
