<svg width="634" height="584" viewBox="0 0 634 584" fill="none" xmlns="http://www.w3.org/2000/svg">
<g clip-path="url(#clip0_1536_214)">
<path d="M556.225 520.558C563.967 534.366 557.402 581 557.402 581C557.402 581 514.415 562.639 506.675 548.837C502.967 542.208 502.019 534.364 504.04 527.029C506.06 519.695 510.884 513.47 517.451 509.722C524.017 505.974 531.79 505.01 539.061 507.042C546.331 509.074 552.505 513.935 556.225 520.558Z" fill="#FF89AC"/>
<path d="M558 580.805L557.081 581C548.228 538.681 517.311 509.984 517 509.699L517.632 509C517.945 509.287 549.082 538.179 558 580.805Z" fill="white"/>
<path d="M627.088 535.819C616.551 555.007 557.143 581 557.143 581C557.143 581 547.348 516.695 557.88 497.513C562.94 488.301 571.439 481.484 581.507 478.561C591.575 475.639 602.387 476.851 611.564 481.931C620.742 487.01 627.533 495.542 630.445 505.648C633.356 515.754 632.149 526.607 627.088 535.819Z" fill="#FF89AC"/>
<path d="M557.884 582L557 581.054C599.603 539.93 610.632 482.575 610.738 482L612 482.241C611.893 482.82 600.797 540.578 557.884 582Z" fill="white"/>
<path d="M192.566 405.919C186.276 405.898 180.014 405.088 173.926 403.508L172.726 403.176L171.613 402.618C131.371 382.442 97.4212 355.791 70.7061 323.407C48.5915 296.442 31.35 265.827 19.7569 232.937C5.89329 193.559 -0.776461 152.01 0.0660381 110.272C0.0830381 109.396 0.0974255 108.72 0.0974255 108.254C0.0974255 87.9645 11.3594 70.1623 28.7886 62.9C42.1281 57.3419 163.244 7.59478 171.995 4.00041C188.475 -4.25731 206.057 2.63506 208.871 3.84035C215.181 6.4206 327.146 52.2153 351.341 63.7366C376.277 75.6107 382.93 96.9422 382.93 107.674C382.93 156.263 374.515 201.672 357.919 242.642C344.516 275.804 325.519 306.419 301.757 333.153C255.91 384.747 210.051 403.037 209.608 403.198C204.128 405.084 198.361 406.005 192.566 405.919ZM181.781 379.205C185.757 380.097 194.911 381.434 200.877 379.257C208.456 376.493 246.839 356.589 282.707 316.225C332.264 260.456 357.41 190.35 357.446 107.854C357.358 106.182 356.171 94.2618 340.385 86.745C316.659 75.4467 200.281 27.8601 199.109 27.3805L198.787 27.2442C196.348 26.2222 188.586 24.0695 183.236 26.8732L182.165 27.3726C180.868 27.9054 52.3018 80.7102 38.5902 86.4233C28.9985 90.4198 25.581 100.321 25.581 108.254C25.581 108.833 25.566 109.677 25.5448 110.767C24.4489 167.214 37.5112 306.113 181.781 379.205Z" fill="#3F3D56"/>
<path d="M177.324 15.5864C177.324 15.5864 47.5893 68.8702 33.6892 74.6619C19.789 80.4536 12.839 94.3538 12.839 108.254C12.839 122.154 2.41389 303.532 177.324 391.228C177.324 391.228 193.199 395.62 205.243 391.228C217.287 386.836 370.188 312.702 370.188 107.675C370.188 107.675 370.188 86.8245 345.863 75.2411C321.538 63.6577 203.929 15.5864 203.929 15.5864C203.929 15.5864 189.486 9.2155 177.324 15.5864Z" fill="#FF1357"/>
<path opacity="0.1" d="M191.224 57.2861V341.536C191.224 341.536 60.3312 278.53 61.4896 112.887L191.224 57.2861Z" fill="black"/>
<path d="M192.931 261.581L151.235 207.969L175.483 189.11L195.226 214.494L261.921 144.088L284.224 165.219L192.931 261.581Z" fill="white"/>
<path d="M632.914 584H219.086C218.798 584 218.522 583.895 218.318 583.707C218.114 583.52 218 583.265 218 583C218 582.735 218.114 582.48 218.318 582.293C218.522 582.105 218.798 582 219.086 582H632.914C633.202 582 633.478 582.105 633.682 582.293C633.886 582.48 634 582.735 634 583C634 583.265 633.886 583.52 633.682 583.707C633.478 583.895 633.202 584 632.914 584Z" fill="#CACACA"/>
<path d="M339.003 567L355.264 566.999L363 502L339 502.001L339.003 567Z" fill="#FFB8B8"/>
<path d="M334 561.001L366.981 561H366.982C372.556 561 377.902 563.245 381.844 567.241C385.785 571.236 388 576.655 388 582.306V582.998L334.001 583L334 561.001Z" fill="#2F2E41"/>
<path d="M395.003 567L411.941 566.999L420 502L395 502.001L395.003 567Z" fill="#FFB8B8"/>
<path d="M391 561.001L423.981 561H423.982C429.556 561 434.902 563.245 438.844 567.241C442.785 571.236 445 576.655 445 582.306V582.998L391.001 583L391 561.001Z" fill="#2F2E41"/>
<path d="M364.993 339.647L369 545L336.588 542.981L314.102 412.182L307 323L364.993 339.647Z" fill="#2F2E41"/>
<path d="M421.426 304.778L426 548L387.931 546.914L379.708 402.336L365.405 349.988L307 322.624L316.535 257.19L402.355 256L421.426 304.778Z" fill="#2F2E41"/>
<path d="M355.5 87C371.792 87 385 74.0163 385 58C385 41.9837 371.792 29 355.5 29C339.208 29 326 41.9837 326 58C326 74.0163 339.208 87 355.5 87Z" fill="#FFB8B8"/>
<path d="M379.543 100L384.032 106.724L396 139.852L386.426 268.816L330.179 270L323 122.104L338.041 103.517L379.543 100Z" fill="#CCCCCC"/>
<path d="M300.941 125.19L291.294 124C291.294 124 288.882 125.19 287.676 133.516C286.471 141.843 272 215.595 272 215.595L291.294 306L313 277.451L299.735 227.49L313 177.529L300.941 125.19Z" fill="#2F2E41"/>
<path d="M422.182 124H429.272L447 220.187L430.454 295L413.909 267.688L418.636 238L416.273 211.875L408 196.437L422.182 124Z" fill="#2F2E41"/>
<path d="M372.963 57.9204L367.634 56.603C367.634 56.603 363.636 34.2057 354.31 36.8406C344.983 39.4756 321 42.1106 321 31.5707C321 21.0308 343.651 11.8084 356.974 13.1259C370.298 14.4434 387.315 18.8141 391.616 38.1581C398.512 69.1675 377.389 77 377.389 77L377.741 75.8709C378.717 72.736 378.787 69.3937 377.942 66.2216C377.098 63.0495 375.373 60.1741 372.963 57.9204Z" fill="#2F2E41"/>
<path d="M292 124.497L330.316 109.08L339.296 102.558L366.237 220.556L378.809 99L428.5 124.497L411.737 205.139L409.342 235.973L416.526 260.877C416.526 260.877 441.671 278.665 433.289 297.64C424.908 316.614 415.329 317.8 415.329 317.8C415.329 317.8 374.618 279.851 372.224 270.364C369.829 260.877 366.237 244.274 366.237 244.274C366.237 244.274 345.882 320.172 321.934 318.986C297.987 317.8 297.987 292.896 297.987 292.896L303.974 266.806L313.553 239.53L308.763 194.466L292 124.497Z" fill="#2F2E41"/>
</g>
<defs>
<clipPath id="clip0_1536_214">
<rect width="634" height="584" fill="white"/>
</clipPath>
</defs>
</svg>
