<svg width="650" height="634" viewBox="0 0 650 634" fill="none" xmlns="http://www.w3.org/2000/svg">
<g clip-path="url(#clip0_1536_178)">
<path d="M466.116 176H135.426V0H466.116V176Z" fill="#FFD7E3"/>
<path d="M465.722 1.18359H136.61V43.0132H465.722V1.18359Z" fill="#FF89AC"/>
<path d="M466.116 176H135.426V0H466.116V176ZM137.794 173.632H463.749V2.36771H137.794V173.632Z" fill="#FF769E"/>
<path d="M284.616 77.9053C283.053 77.9103 281.788 79.9406 281.791 82.4403C281.794 84.933 283.057 86.9525 284.616 86.9574H418.088C419.651 86.9524 420.916 84.922 420.913 82.4224C420.91 79.9297 419.647 77.9102 418.088 77.9053H284.616Z" fill="#FF89AC"/>
<path d="M284.616 104.132C283.053 104.137 281.788 106.167 281.791 108.667C281.794 111.16 283.057 113.179 284.616 113.184H418.088C419.651 113.179 420.916 111.149 420.913 108.649C420.91 106.156 419.647 104.137 418.088 104.132H284.616Z" fill="#FF89AC"/>
<path d="M284.616 130.042C283.053 130.047 281.788 132.077 281.791 134.577C281.794 137.07 283.057 139.089 284.616 139.094H342.049C343.613 139.089 344.878 137.059 344.875 134.559C344.872 132.066 343.608 130.047 342.049 130.042H284.616Z" fill="#E4E4E4"/>
<path d="M216.848 144.375C236.85 144.375 253.066 128.159 253.066 108.156C253.066 88.1531 236.85 71.9375 216.848 71.9375C196.845 71.9375 180.629 88.1531 180.629 108.156C180.629 128.159 196.845 144.375 216.848 144.375Z" fill="#FF89AC"/>
<path d="M432.186 348.5H13.186V125.5H432.186V348.5Z" fill="white"/>
<path d="M431.686 127H14.686V180H431.686V127Z" fill="#FF1357"/>
<path d="M432.186 348.5H13.186V125.5H432.186V348.5ZM16.186 345.5H429.186V128.5H16.186V345.5Z" fill="#3F3D56"/>
<path d="M202.218 224.209C200.237 224.215 198.634 226.788 198.638 229.955C198.642 233.113 200.242 235.672 202.218 235.678H371.332C373.313 235.672 374.916 233.1 374.912 229.932C374.908 226.774 373.307 224.215 371.332 224.209H202.218Z" fill="#E4E4E4"/>
<path d="M202.218 257.44C200.237 257.447 198.634 260.019 198.638 263.187C198.642 266.345 200.242 268.904 202.218 268.91H371.332C373.313 268.904 374.916 266.331 374.912 263.164C374.908 260.005 373.307 257.447 371.332 257.44H202.218Z" fill="#E4E4E4"/>
<path d="M202.218 290.27C200.237 290.276 198.634 292.848 198.638 296.016C198.642 299.174 200.242 301.733 202.218 301.739H274.988C276.969 301.733 278.571 299.16 278.568 295.993C278.564 292.835 276.963 290.276 274.988 290.27H202.218Z" fill="#E4E4E4"/>
<path d="M116.351 308.43C141.696 308.43 162.242 287.884 162.242 262.539C162.242 237.194 141.696 216.648 116.351 216.648C91.0064 216.648 70.4604 237.194 70.4604 262.539C70.4604 287.884 91.0064 308.43 116.351 308.43Z" fill="#E4E4E4"/>
<path d="M611.778 607.074L600.579 612.063L576.006 571.242L592.535 563.879L611.778 607.074Z" fill="#FFB6B6"/>
<path d="M619.47 616.656L583.361 632.743L583.157 632.287C581.497 628.559 581.385 624.325 582.846 620.515C584.308 616.705 587.223 613.631 590.95 611.97L590.951 611.97L613.005 602.145L619.47 616.656Z" fill="#2F2E41"/>
<path d="M555.341 378.662C556.472 377.573 557.351 376.249 557.915 374.783C558.479 373.318 558.715 371.746 558.606 370.179C558.498 368.613 558.047 367.089 557.285 365.715C556.524 364.342 555.471 363.152 554.2 362.229L542.335 265.106L523.834 269.662L538.657 365.178C537.249 367.416 536.711 370.093 537.144 372.701C537.578 375.31 538.953 377.668 541.01 379.33C543.066 380.993 545.661 381.843 548.302 381.719C550.943 381.596 553.448 380.509 555.341 378.662Z" fill="#FFB6B6"/>
<path d="M549.011 280.751C548.17 281.508 547.11 281.977 545.985 282.09L521.78 284.53C521.02 284.607 520.252 284.519 519.529 284.272C518.806 284.025 518.145 283.625 517.59 283.1C517.035 282.574 516.6 281.936 516.315 281.227C516.03 280.518 515.9 279.756 515.936 278.993L517.066 254.765C516.888 252.974 517.067 251.165 517.594 249.443C518.121 247.722 518.985 246.122 520.135 244.737C521.873 242.613 524.201 241.051 526.826 240.25C529.451 239.448 532.255 239.443 534.883 240.234C537.511 241.026 539.845 242.579 541.591 244.697C543.337 246.814 544.415 249.402 544.69 252.133L550.606 275.498C550.843 276.436 550.82 277.421 550.539 278.346C550.258 279.272 549.729 280.104 549.011 280.751Z" fill="#FF1357"/>
<path d="M533.933 342.587L466.632 329.208L466.184 319.811L466.193 319.752L473.448 271.554C472.473 269.522 463.843 250.514 476.381 239.858C479.337 237.338 482.066 234.561 484.534 231.561C488.445 226.667 493.485 222.794 499.223 220.276C504.96 217.758 511.222 216.669 517.472 217.103C521.345 217.417 525.104 218.567 528.491 220.471C531.878 222.376 534.812 224.991 537.093 228.137C542.076 234.824 544.33 243.154 543.399 251.441L533.933 342.587Z" fill="#FF1357"/>
<path d="M466.013 620.86L453.754 620.859L447.921 573.571L466.016 573.572L466.013 620.86Z" fill="#FFB6B6"/>
<path d="M469.14 632.744L429.609 632.743V632.243C429.61 628.162 431.231 624.249 434.116 621.363C437.002 618.478 440.915 616.857 444.996 616.856L469.141 616.857L469.14 632.744Z" fill="#2F2E41"/>
<path d="M447.186 602.5L444.522 405.586C443.65 376.164 451.35 347.124 466.686 322C466.686 322 526.186 321.5 535.686 342L606.686 589L586.686 598L501.686 413L471.186 603.5L447.186 602.5Z" fill="#2F2E41"/>
<path d="M437.466 272.537C437.887 272.994 438.272 273.483 438.617 274L494.315 274.06L501.112 262.36L520.11 270.31L510.091 292.192C509.281 293.96 507.92 295.418 506.212 296.346C504.503 297.274 502.54 297.624 500.616 297.341L437.922 288.137C436.39 289.977 434.335 291.307 432.029 291.95C429.723 292.594 427.276 292.52 425.013 291.739C422.75 290.958 420.778 289.506 419.36 287.577C417.943 285.648 417.146 283.333 417.076 280.94C417.006 278.546 417.666 276.189 418.969 274.18C420.271 272.172 422.155 270.607 424.368 269.695C426.582 268.783 429.02 268.566 431.36 269.074C433.7 269.582 435.829 270.79 437.466 272.537Z" fill="#FFB6B6"/>
<path d="M489.186 275.279L497.3 233.625C498.147 229.279 500.575 225.402 504.115 222.743C507.655 220.084 512.056 218.832 516.465 219.23C519.166 219.473 521.777 220.328 524.099 221.729C526.421 223.13 528.394 225.041 529.869 227.317C531.344 229.593 532.283 232.175 532.613 234.866C532.943 237.558 532.657 240.29 531.776 242.855L519.095 279.779L489.186 275.279Z" fill="#FF1357"/>
<path d="M517.465 207.435C531.03 207.435 542.026 196.438 542.026 182.874C542.026 169.309 531.03 158.312 517.465 158.312C503.901 158.312 492.904 169.309 492.904 182.874C492.904 196.438 503.901 207.435 517.465 207.435Z" fill="#FFB6B6"/>
<path d="M487.686 169H526.686V152C518.126 148.599 509.75 145.707 504.686 152C500.177 152 495.853 153.791 492.665 156.979C489.477 160.167 487.686 164.491 487.686 169Z" fill="#2F2E41"/>
<path d="M528.845 149C552.16 149 558.686 178.224 558.686 194.711C558.686 203.906 554.528 207.194 547.994 208.307L545.686 196L540.281 208.837C538.446 208.846 536.518 208.81 534.519 208.773L532.686 205L528.6 208.706C512.233 208.73 499.005 211.116 499.005 194.711C499.005 178.224 504.728 149 528.845 149Z" fill="#2F2E41"/>
<path d="M708.139 634H327.139C326.873 634 326.619 633.895 326.432 633.707C326.244 633.52 326.139 633.265 326.139 633C326.139 632.735 326.244 632.48 326.432 632.293C326.619 632.105 326.873 632 327.139 632H708.139C708.404 632 708.658 632.105 708.846 632.293C709.033 632.48 709.139 632.735 709.139 633C709.139 633.265 709.033 633.52 708.846 633.707C708.658 633.895 708.404 634 708.139 634Z" fill="#CACACA"/>
</g>
<defs>
<clipPath id="clip0_1536_178">
<rect width="649" height="634" fill="white" transform="translate(0.712891)"/>
</clipPath>
</defs>
</svg>
