<svg width="866" height="740" viewBox="0 0 866 740" fill="none" xmlns="http://www.w3.org/2000/svg">
<g clip-path="url(#clip0_1536_236)">
<path d="M613.883 172.947H609.885V63.4019C609.885 55.0759 608.245 46.8313 605.059 39.1391C601.872 31.4468 597.202 24.4574 591.315 18.57C585.427 12.6826 578.438 8.01245 570.746 4.8262C563.053 1.63995 554.809 6.56627e-06 546.483 1.77451e-10H314.396C306.07 -1.96981e-05 297.826 1.6399 290.133 4.82613C282.441 8.01235 275.452 12.6825 269.564 18.5699C263.677 24.4573 259.007 31.4466 255.82 39.1389C252.634 46.8311 250.994 55.0757 250.994 63.4017V664.376C250.994 681.191 257.674 697.318 269.564 709.208C281.454 721.098 297.581 727.778 314.396 727.778H546.483C563.298 727.778 579.424 721.098 591.314 709.208C603.205 697.318 609.885 681.192 609.885 664.376V250.924H613.883L613.883 172.947Z" fill="#3F3D56"/>
<path d="M549.04 16.4952H518.745C520.139 19.9108 520.67 23.6166 520.294 27.2862C519.918 30.9558 518.645 34.4765 516.587 37.5382C514.529 40.5999 511.75 43.1086 508.495 44.8433C505.239 46.578 501.607 47.4854 497.918 47.4857H364.959C361.27 47.4854 357.638 46.578 354.382 44.8433C351.127 43.1086 348.348 40.5999 346.29 37.5382C344.233 34.4766 342.96 30.9558 342.583 27.2862C342.207 23.6166 342.739 19.9108 344.132 16.4951H315.836C303.279 16.4951 291.236 21.4835 282.356 30.3629C273.477 39.2424 268.488 51.2854 268.488 63.8428V663.935C268.488 670.153 269.713 676.31 272.092 682.055C274.472 687.799 277.959 693.019 282.356 697.415C286.753 701.812 291.972 705.3 297.717 707.679C303.461 710.059 309.618 711.283 315.836 711.283H549.04C555.258 711.283 561.415 710.059 567.16 707.679C572.904 705.3 578.124 701.812 582.52 697.415C586.917 693.019 590.405 687.799 592.784 682.055C595.164 676.31 596.388 670.153 596.388 663.935V63.8429C596.388 57.6251 595.164 51.4682 592.784 45.7237C590.405 39.9792 586.917 34.7596 582.52 30.363C578.124 25.9663 572.904 22.4787 567.16 20.0993C561.415 17.7198 555.258 16.4951 549.04 16.4952Z" fill="#FFD7E3"/>
<path d="M836.717 309.035C831.815 323.548 824.299 336.771 808.981 336.771C793.662 336.771 782.107 324.329 781.244 309.035C780.141 289.492 793.309 281.218 808.981 281.298C827.494 281.394 842.534 291.812 836.717 309.035Z" fill="#2F2E41"/>
<path d="M835.988 308.411H781.245V377.752H835.988V308.411Z" fill="#2F2E41"/>
<path d="M837.595 360.071H842.251C845.692 364.976 848.029 370.568 849.101 376.463C850.173 382.358 849.954 388.415 848.459 394.217C843.286 413.877 847.425 417.498 847.425 417.498C847.425 417.498 854.16 438.788 846.917 470.864C839.674 502.94 853.633 511.658 853.633 511.658L840.699 485.79L833.456 417.498L837.595 360.071Z" fill="#E6E6E6"/>
<path d="M821.299 334.979C821.299 334.979 817.16 351.534 819.229 351.534C821.299 351.534 828.542 360.33 828.542 360.33L833.198 377.402L829.576 389.819L817.16 387.232L801.639 370.159L796.983 365.503L792.844 350.5C792.844 350.5 798.017 344.291 794.396 339.118C790.774 333.944 821.299 334.979 821.299 334.979Z" fill="#FBBEBE"/>
<path d="M696.098 381.024L684.716 362.399C684.716 362.399 672.43 335.215 663.635 345.045C654.839 354.875 676.955 374.816 676.955 374.816L688.337 389.819L696.098 381.024Z" fill="#FBBEBE"/>
<path d="M847.166 542.957L838.888 603.488C838.888 603.488 839.923 608.145 829.576 625.218C819.229 642.29 791.291 679.54 791.291 679.54L783.014 664.019C783.014 664.019 792.843 614.87 809.916 604.523L807.847 530.023L847.166 542.957Z" fill="#FBBEBE"/>
<path d="M783.014 657.812L794.396 679.541C794.396 679.541 785.083 692.615 788.705 695.202C792.326 697.789 796.982 721.07 787.153 718.483C777.323 715.896 769.562 705.549 769.562 703.997C769.562 702.445 775.253 694.027 772.149 688.853C769.045 683.679 766.976 682.127 766.976 682.127L760.781 690.363L758.194 688.811L769.562 671.78C769.562 671.78 771.114 667.641 777.323 665.055L783.014 657.812Z" fill="#2F2E41"/>
<path d="M807.968 534.369C807.968 534.369 811.986 591.589 803.191 606.593V681.092L791.292 682.644C791.292 682.644 767.261 643.202 776.056 604.401C784.852 565.599 766.976 530.023 766.976 530.023L807.968 534.369Z" fill="#FBBEBE"/>
<path d="M805.002 347.654C817.002 347.654 826.731 337.926 826.731 325.925C826.731 313.925 817.002 304.196 805.002 304.196C793.001 304.196 783.272 313.925 783.272 325.925C783.272 337.926 793.001 347.654 805.002 347.654Z" fill="#FBBEBE"/>
<path d="M826.99 383.093L805.26 355.673L792.844 347.396L787.67 354.121L773.184 358.26C773.184 358.26 763.872 360.329 754.042 371.711C744.212 383.093 726.622 389.819 726.622 389.819C726.622 389.819 695.063 379.472 695.063 377.402C695.063 375.333 680.06 391.371 683.681 397.579C687.303 403.788 704.564 422.755 729.914 419.134C755.265 415.512 764.907 412.065 764.907 412.065C764.907 412.065 769.563 435.864 783.014 440.52C796.466 445.176 840.441 448.281 840.441 448.281L849.754 417.239C849.754 417.239 860.101 403.788 846.132 384.128C846.132 384.128 845.864 373.133 844.362 365.816C843.778 362.971 843.007 360.681 841.993 359.812C838.372 356.708 819.229 351.534 819.229 351.534C819.229 351.534 822.333 361.882 823.886 362.399C825.438 362.916 829.059 380.506 826.99 383.093Z" fill="#E6E6E6"/>
<path d="M760.536 597.816C786.591 596.006 801.76 600.274 808.527 603.528C809.785 604.097 814.478 605.292 814.478 605.488C814.478 607.04 848.524 610.941 861.458 607.837C874.392 604.733 849.494 478.029 843.803 472.338C838.112 466.647 841.18 445.818 841.18 445.818C841.18 445.818 788.963 438.71 784.307 437.675C782.227 437.215 781.177 437.991 780.654 438.994C779.841 440.5 778.613 441.741 777.116 442.569C766.132 448.897 757.316 492.644 750.679 516.831C743.436 543.216 760.536 597.816 760.536 597.816Z" fill="#2F2E41"/>
<path d="M805.26 676.436C805.26 676.436 811.346 698.664 815.09 716.272C815.09 716.272 817.677 722.383 826.989 727.039C836.302 731.696 825.409 739.428 816.614 738.911C807.819 738.393 799.541 739.428 798.507 736.841C797.472 734.254 794.396 722.998 794.396 722.998L792.697 738.569L787.523 739.087L789.222 718.859C789.222 718.859 785.083 711.099 790.774 698.165L789.338 678.311C789.338 678.311 803.708 681.609 805.26 676.436Z" fill="#2F2E41"/>
<path opacity="0.1" d="M805.395 543.237C806.653 543.806 807.837 544.525 808.923 545.378C809.197 540.489 810.78 510.922 808.882 511.398L805.395 543.237Z" fill="black"/>
<path d="M796.006 296.004C796.006 296.004 795.766 294.664 786.354 298.193C776.943 301.723 771.301 327.767 776.007 343.061C777.903 349.224 776.361 353.668 773.843 356.777C764.394 368.445 768.114 385.969 781.876 391.969C782.265 392.138 782.661 392.306 783.066 392.471L788.948 396.001C788.948 396.001 781.449 386.134 785.202 373.513C788.46 362.76 788.863 351.343 786.369 340.386C785.939 338.538 785.45 336.633 784.894 334.689C780.189 318.218 782.477 320.121 798.947 303.65C798.947 303.65 808.359 310.709 816.594 314.238C824.829 317.768 831.888 321.297 826.005 333.061C820.123 344.826 806.006 355.414 815.417 370.707C824.829 386.001 826.005 380.119 824.829 386.001L823.653 391.883L830.711 384.825L826.005 394.236C826.005 394.236 841.299 394.236 846.005 382.472L848.358 384.825C848.358 384.825 857.769 368.354 840.123 353.061C840.123 353.061 834.24 349.531 842.476 337.767C850.711 326.003 844.386 300.709 833.798 296.004C823.21 291.298 796.006 296.004 796.006 296.004Z" fill="#2F2E41"/>
<path d="M64.1538 325.262L63.2861 347.637L80.6888 348.312L81.5565 325.937L64.1538 325.262Z" fill="#FF1357"/>
<path d="M142.658 403.623C142.658 403.623 166.757 392.109 166.372 402.053C165.986 411.998 142.079 418.54 142.079 418.54L142.658 403.623Z" fill="#FFB9B9"/>
<path d="M129.435 487.765C129.435 487.765 140.805 515.594 145.006 535.676C149.207 555.758 155.605 583.394 147.375 602.993C139.146 622.593 115.748 680.197 115.507 686.412C115.266 692.627 117.511 698.939 112.539 698.746C107.567 698.553 80.5092 690.035 79.4107 686.257C78.3123 682.48 88.6423 672.921 88.6423 672.921L114.15 592.991L87.5366 540.917L68.3402 618.602L64.5803 715.56C64.5803 715.56 46.1274 709.865 43.4485 714.741C43.4485 714.741 35.181 703.216 34.1308 698.195C33.0806 693.175 38.0352 597.509 38.0352 597.509C38.0352 597.509 21.0971 488.544 34.7706 489.074C48.4442 489.604 102.002 456.824 129.435 487.765Z" fill="#2F2E41"/>
<path d="M112.732 693.774C112.732 693.774 125.345 721.651 126.54 722.943C127.735 724.234 135.954 737.002 129.739 736.761C123.523 736.52 108.848 729.726 98.0461 719.348C87.2443 708.97 73.0026 690.988 74.2938 689.794C75.5851 688.599 84.431 685.207 84.431 685.207L112.732 693.774Z" fill="#2F2E41"/>
<path d="M62.3356 709.248C62.3356 709.248 63.0966 721.727 65.3899 726.796C67.6832 731.864 67.3939 739.322 61.1787 739.081C54.9634 738.84 38.9002 738.86 38.9002 738.86C38.9002 738.86 37.9464 731.353 39.2377 730.158C40.5289 728.963 46.0313 712.351 43.6899 708.525C41.3484 704.7 62.3356 709.248 62.3356 709.248Z" fill="#2F2E41"/>
<path d="M53.1405 304.294C53.1405 304.294 39.8906 324.944 34.7256 329.723C29.5606 334.502 44.0915 345.025 44.0915 345.025L70.0991 348.524C70.0991 348.524 69.7719 324.858 71.1114 322.42C72.4508 319.982 53.1405 304.294 53.1405 304.294Z" fill="#FFB9B9"/>
<path d="M75.7462 331.314C75.7462 331.314 70.3883 341.065 65.4162 340.873C60.444 340.68 34.7256 329.723 33.6272 325.946C32.5287 322.168 25.1084 353.004 25.1084 353.004L88.0394 463.752L103.39 453.143L95.952 388.119L89.8434 353.024L75.7462 331.314Z" fill="white"/>
<path d="M31.306 430.428C33.9053 435.477 35.2307 441.084 35.1668 446.762C35.1571 447.011 35.1475 447.259 35.1254 447.507C34.5299 459.012 30.2916 472.318 28.7711 481.994C27.6678 488.935 27.9817 494.002 32.0438 495.193C41.8918 498.064 30.6079 500.117 68.7086 512.798C106.809 525.48 113.458 514.534 113.555 512.048C113.651 509.562 108.159 490.675 109.45 489.48C110.741 488.285 127.517 505.12 132.586 502.826C137.655 500.533 133.164 487.91 133.164 487.91C133.164 487.91 121.746 461.324 121.987 455.109C122.228 448.893 104.691 419.58 104.691 419.58L92.7633 341.933C92.7633 341.933 88.1767 331.795 82.0096 330.311C78.1245 329.504 74.0778 330.24 70.7258 332.364L81.0456 355.172L91.9336 395.432L90.1121 410.3C90.1121 410.3 77.4508 383.666 69.1351 373.384C60.8194 363.103 43.0896 338.762 43.0896 338.762C43.0896 338.762 38.9503 324.795 42.0751 320.621C45.2003 316.435 29.0407 315.808 22.1506 332.97C18.4988 342.066 12.5699 355.629 8.85586 368.258C5.54625 379.446 3.98286 389.905 7.26176 395.883C12.2731 405.016 24.8793 417.02 31.306 430.428Z" fill="#3F3D56"/>
<path opacity="0.1" d="M7.26173 395.884C12.2732 405.016 24.8793 417.021 31.306 430.429C32.9846 424.381 35.0324 418.124 35.0324 418.124C35.0324 418.124 42.8865 376.101 19.6542 365.241C15.8048 364.869 11.9548 365.945 8.85585 368.258C5.54623 379.446 3.98288 389.905 7.26173 395.884Z" fill="black"/>
<path d="M99.4881 393.235L119.184 398.979L146.531 400.039L149.344 423.802L104.402 427.039C104.402 427.039 93.1764 395.48 99.4881 393.235Z" fill="#3F3D56"/>
<path d="M67.3715 473.132C67.3715 473.132 93.7208 477.503 87.7068 485.433C81.6928 493.362 58.3506 485.026 58.3506 485.026L67.3715 473.132Z" fill="#FFB9B9"/>
<path opacity="0.1" d="M35.1253 447.508C34.5298 459.013 30.2915 472.318 28.771 481.995C37.1649 489.939 45.147 496.946 48.1551 497.063C54.3704 497.304 64.3629 496.446 68.0439 497.834C71.7248 499.222 73.8837 475.652 73.8837 475.652C73.8837 475.652 71.6869 468.097 61.8871 463.983C55.2725 461.199 42.5932 453.649 35.1253 447.508Z" fill="black"/>
<path d="M19.9434 357.783C19.9434 357.783 -1.09197 354.477 0.0444407 389.379C1.18085 424.281 -2.1729 446.559 6.28744 453.112C14.7478 459.665 42.2292 489.364 48.4445 489.605C54.6597 489.846 64.6523 488.988 68.3332 490.376C72.0141 491.763 74.1731 468.194 74.1731 468.194C74.1731 468.194 71.9762 460.639 62.1764 456.524C52.3766 452.41 29.289 437.82 29.4818 432.848C29.6745 427.876 35.3216 410.666 35.3216 410.666C35.3216 410.666 43.1757 368.643 19.9434 357.783Z" fill="#3F3D56"/>
<path d="M71.6899 334.87C86.8046 334.87 99.0575 322.617 99.0575 307.502C99.0575 292.388 86.8046 280.135 71.6899 280.135C56.5752 280.135 44.3223 292.388 44.3223 307.502C44.3223 322.617 56.5752 334.87 71.6899 334.87Z" fill="#FFB9B9"/>
<path d="M90.1171 268.277C90.7772 268.846 91.5676 269.243 92.4181 269.432C92.8451 269.508 93.2849 269.412 93.6414 269.165C93.9979 268.918 94.2422 268.54 94.3211 268.114C94.813 269.479 95.7277 270.652 96.9321 271.463C98.2104 272.129 100.187 271.57 100.372 270.14C100.558 271.226 101.038 272.24 101.76 273.072C102.137 273.47 102.655 273.703 103.202 273.722C103.75 273.74 104.282 273.542 104.684 273.17C104.124 276.229 104.47 279.376 104.294 282.481C104.118 285.586 103.29 288.878 100.944 290.92C97.5225 293.898 92.3772 293.163 87.8764 292.599C87.1958 292.456 86.4895 292.495 85.8286 292.711C84.1433 293.429 84.2197 295.775 84.197 297.607C84.0595 300.821 82.7876 303.882 80.6069 306.247C78.4263 308.612 75.4781 310.127 72.2858 310.524C70.4994 310.8 68.6765 310.355 67.2179 309.288C65.94 308.204 65.2873 306.439 63.8229 305.625C61.441 304.302 58.5521 306.232 56.8106 308.328C55.0691 310.424 53.3527 313.002 50.6549 313.385C47.0868 313.893 44.3692 310.257 43.0359 306.908C41.1964 302.216 40.3151 297.202 40.444 292.163C40.5729 287.124 41.7093 282.162 43.7863 277.57C51.2366 261.329 76.6867 258.761 90.1171 268.277Z" fill="#2F2E41"/>
<path d="M169.78 388.474C178.743 378.379 193.765 379.133 205.363 383.659C219.717 389.259 230.103 401.718 241.693 411.335C247.656 416.457 254.35 420.66 261.554 423.805C268.738 426.79 276.368 428.563 284.133 429.051C299.245 430.068 314.266 426.021 326.822 417.551C338.592 409.529 347.667 398.142 352.86 384.879C353.487 383.261 354.044 381.618 354.543 379.955C355.1 378.102 352.205 377.31 351.65 379.158C347.532 392.646 339.264 404.491 328.024 413.009C316.06 422.037 301.358 426.68 286.378 426.16C278.665 425.907 271.052 424.34 263.865 421.527C256.63 418.55 249.916 414.439 243.976 409.347C232.339 399.719 221.993 387.475 207.826 381.448C196.337 376.561 181.518 375.072 171.065 383.166C169.833 384.12 168.693 385.187 167.659 386.353C166.381 387.792 168.495 389.921 169.78 388.474Z" fill="#2F2E41"/>
<path d="M655.397 334.79C653.517 322.339 642.569 314.173 631.245 310.55C616.219 305.743 600.619 309.385 585.489 311.703C577.343 312.951 569.082 313.774 560.858 312.828C550.09 311.527 539.8 307.623 530.879 301.454C521.957 295.285 514.672 287.036 509.654 277.42C502.891 264.035 500.79 248.774 503.684 234.059C504.057 232.214 504.515 230.388 505.043 228.58C505.133 228.202 505.073 227.803 504.875 227.468C504.677 227.133 504.357 226.888 503.982 226.784C503.607 226.681 503.206 226.727 502.864 226.914C502.523 227.1 502.266 227.411 502.15 227.783C497.983 242.315 498.626 257.805 503.981 271.942C509.23 285.737 518.81 297.458 531.285 305.346C543.94 313.338 558.812 317.093 573.744 316.067C582.429 315.495 590.975 313.75 599.57 312.476C607.206 311.344 615.134 310.456 622.818 311.647C634.27 313.422 647.332 319.493 651.433 331.202C651.927 332.627 652.285 334.095 652.504 335.587C652.792 337.49 655.683 336.681 655.397 334.79Z" fill="#2F2E41"/>
<path d="M432.439 529.629C429.375 526.565 425.737 524.134 421.734 522.476C417.73 520.817 413.439 519.964 409.106 519.964C404.772 519.964 400.481 520.817 396.478 522.476C392.474 524.134 388.837 526.565 385.772 529.629C382.708 532.693 380.278 536.331 378.619 540.334C376.961 544.338 376.107 548.629 376.107 552.962C376.107 557.295 376.961 561.586 378.619 565.59C380.278 569.594 382.708 573.231 385.772 576.295L432.439 622.962L479.106 576.295C482.172 573.232 484.604 569.594 486.263 565.59C487.923 561.586 488.778 557.294 488.778 552.96C488.779 548.625 487.926 544.334 486.268 540.329C484.609 536.324 482.178 532.686 479.113 529.621C476.049 526.556 472.41 524.125 468.405 522.467C464.401 520.809 460.109 519.955 455.775 519.956C451.44 519.957 447.149 520.811 443.145 522.471C439.141 524.131 435.503 526.563 432.439 529.629Z" fill="#FF1357"/>
<path d="M683.081 151.462H395.589V208.223H683.081V151.462Z" fill="#E6E6E6"/>
<path d="M401.718 202.094H676.953V157.591H401.718V202.094Z" fill="white"/>
<path d="M425.812 196.429C435.176 196.429 442.767 188.838 442.767 179.474C442.767 170.11 435.176 162.52 425.812 162.52C416.448 162.52 408.857 170.11 408.857 179.474C408.857 188.838 416.448 196.429 425.812 196.429Z" fill="#FF1357"/>
<path d="M633.691 172.84H466.355V176.526H633.691V172.84Z" fill="#E6E6E6"/>
<path d="M633.691 182.423H466.355V186.109H633.691V182.423Z" fill="#E6E6E6"/>
<path d="M501.081 299.462H213.589V356.223H501.081V299.462Z" fill="#E6E6E6"/>
<path d="M219.718 350.094H494.953V305.591H219.718V350.094Z" fill="white"/>
<path d="M243.812 344.429C253.176 344.429 260.767 336.838 260.767 327.474C260.767 318.11 253.176 310.52 243.812 310.52C234.448 310.52 226.857 318.11 226.857 327.474C226.857 336.838 234.448 344.429 243.812 344.429Z" fill="#FF1357"/>
<path d="M451.691 320.84H284.355V324.526H451.691V320.84Z" fill="#E6E6E6"/>
<path d="M451.691 330.423H284.355V334.109H451.691V330.423Z" fill="#E6E6E6"/>
</g>
<defs>
<clipPath id="clip0_1536_236">
<rect width="865.135" height="739.087" fill="white"/>
</clipPath>
</defs>
</svg>
