<svg width="484" height="596" viewBox="0 0 484 596" fill="none" xmlns="http://www.w3.org/2000/svg">
<path d="M303.466 0H94.9232C62.4884 0 36.1948 26.2936 36.1948 58.7284V535.272C36.1948 567.706 62.4884 594 94.9232 594H303.466C335.901 594 362.195 567.706 362.195 535.272V58.7284C362.195 26.2936 335.901 0 303.466 0Z" fill="#3F3D56"/>
<path d="M356.695 58.732V535.272C356.679 549.384 351.066 562.914 341.087 572.893C331.108 582.872 317.578 588.486 303.465 588.502H94.9253C80.8129 588.486 67.2831 582.872 57.304 572.893C47.325 562.914 41.7116 549.384 41.6953 535.272V58.732C41.7117 44.6195 47.325 31.0897 57.304 21.1107C67.2831 11.1317 80.8129 5.51829 94.9253 5.50195H122.195V14.922C122.196 19.1866 123.89 23.2764 126.905 26.292C129.921 29.3075 134.011 31.0017 138.275 31.002H260.115C264.38 31.0017 268.47 29.3075 271.485 26.292C274.501 23.2764 276.195 19.1866 276.195 14.922V5.50195H303.465C317.578 5.51829 331.108 11.1317 341.087 21.1107C351.066 31.0897 356.679 44.6195 356.695 58.732Z" fill="#FFD7E3"/>
<path d="M34.6948 120.5C33.6343 120.499 32.6176 120.077 31.8677 119.327C31.1179 118.577 30.696 117.56 30.6948 116.5V108.5C30.6948 107.439 31.1162 106.422 31.8664 105.672C32.6165 104.921 33.634 104.5 34.6948 104.5C35.7557 104.5 36.7731 104.921 37.5233 105.672C38.2734 106.422 38.6948 107.439 38.6948 108.5V116.5C38.6936 117.56 38.2718 118.577 37.5219 119.327C36.772 120.077 35.7553 120.499 34.6948 120.5Z" fill="#3F3D56"/>
<path d="M34.6948 161.521C33.6343 161.52 32.6176 161.098 31.8677 160.349C31.1179 159.599 30.696 158.582 30.6948 157.521V135.5C30.6948 134.439 31.1162 133.422 31.8664 132.672C32.6165 131.921 33.634 131.5 34.6948 131.5C35.7557 131.5 36.7731 131.921 37.5233 132.672C38.2734 133.422 38.6948 134.439 38.6948 135.5V157.521C38.6936 158.582 38.2718 159.599 37.5219 160.349C36.772 161.098 35.7553 161.52 34.6948 161.521Z" fill="#3F3D56"/>
<path d="M34.6948 194.5C33.6343 194.499 32.6176 194.077 31.8677 193.327C31.1179 192.577 30.696 191.56 30.6948 190.5V168.479C30.6948 167.418 31.1162 166.4 31.8664 165.65C32.6165 164.9 33.634 164.479 34.6948 164.479C35.7557 164.479 36.7731 164.9 37.5233 165.65C38.2734 166.4 38.6948 167.418 38.6948 168.479V190.5C38.6936 191.56 38.2718 192.577 37.5219 193.327C36.772 194.077 35.7553 194.499 34.6948 194.5Z" fill="#3F3D56"/>
<path d="M362.694 176.5C361.634 176.499 360.617 176.077 359.867 175.327C359.117 174.577 358.696 173.56 358.694 172.5V118.767C358.694 117.706 359.116 116.688 359.866 115.938C360.616 115.188 361.633 114.767 362.694 114.767C363.755 114.767 364.773 115.188 365.523 115.938C366.273 116.688 366.694 117.706 366.694 118.767V172.5C366.693 173.56 366.271 174.577 365.521 175.327C364.772 176.077 363.755 176.499 362.694 176.5Z" fill="#3F3D56"/>
<path d="M207.787 18.3457H176.787C176.124 18.3457 175.488 18.0823 175.019 17.6135C174.551 17.1446 174.287 16.5087 174.287 15.8457C174.287 15.1827 174.551 14.5468 175.019 14.0779C175.488 13.6091 176.124 13.3457 176.787 13.3457H207.787C208.45 13.3457 209.086 13.6091 209.555 14.0779C210.024 14.5468 210.287 15.1827 210.287 15.8457C210.287 16.5087 210.024 17.1446 209.555 17.6135C209.086 18.0823 208.45 18.3457 207.787 18.3457Z" fill="white"/>
<path d="M223.787 17.8457C224.892 17.8457 225.787 16.9503 225.787 15.8457C225.787 14.7411 224.892 13.8457 223.787 13.8457C222.683 13.8457 221.787 14.7411 221.787 15.8457C221.787 16.9503 222.683 17.8457 223.787 17.8457Z" fill="white"/>
<path d="M110.28 29.0732H83.2803C81.9542 29.0732 80.6824 28.5465 79.7448 27.6088C78.8071 26.6711 78.2803 25.3993 78.2803 24.0732C78.2803 22.7472 78.8071 21.4754 79.7448 20.5377C80.6824 19.6 81.9542 19.0732 83.2803 19.0732H110.28C111.606 19.0732 112.878 19.6 113.816 20.5377C114.754 21.4754 115.28 22.7472 115.28 24.0732C115.28 25.3993 114.754 26.6711 113.816 27.6088C112.878 28.5465 111.606 29.0732 110.28 29.0732Z" fill="#E6E6E6"/>
<path d="M287.28 28.5732C289.766 28.5732 291.78 26.5585 291.78 24.0732C291.78 21.588 289.766 19.5732 287.28 19.5732C284.795 19.5732 282.78 21.588 282.78 24.0732C282.78 26.5585 284.795 28.5732 287.28 28.5732Z" fill="#E6E6E6"/>
<path d="M301.28 28.5732C303.766 28.5732 305.78 26.5585 305.78 24.0732C305.78 21.588 303.766 19.5732 301.28 19.5732C298.795 19.5732 296.78 21.588 296.78 24.0732C296.78 26.5585 298.795 28.5732 301.28 28.5732Z" fill="#E6E6E6"/>
<path d="M315.28 28.5732C317.766 28.5732 319.78 26.5585 319.78 24.0732C319.78 21.588 317.766 19.5732 315.28 19.5732C312.795 19.5732 310.78 21.588 310.78 24.0732C310.78 26.5585 312.795 28.5732 315.28 28.5732Z" fill="#E6E6E6"/>
<path d="M284.134 98.957H114.434C111.147 98.9616 107.996 100.269 105.671 102.594C103.347 104.918 102.039 108.07 102.034 111.357V221.667C102.039 224.954 103.347 228.106 105.671 230.43C107.996 232.755 111.147 234.063 114.434 234.067H284.134C287.422 234.064 290.574 232.757 292.899 230.432C295.224 228.107 296.531 224.955 296.534 221.667V111.357C296.531 108.069 295.224 104.917 292.899 102.592C290.574 100.267 287.422 98.9599 284.134 98.957Z" fill="#F2F2F2"/>
<path d="M231.007 146.049C215.671 173.164 198.748 199.349 180.325 224.469H153.713C171.144 203.233 188.588 181.998 206.044 160.762C211.052 154.648 216.488 148.242 224 145.758L231.007 146.049Z" fill="#3F3D56"/>
<path d="M195.641 141.701C192.865 144.593 190.206 147.602 187.702 150.727C182.189 157.366 176.754 164.063 171.299 170.74C167.903 174.894 164.506 179.048 161.148 183.202C160.081 182.517 159.069 181.751 158.12 180.911C152.756 176.256 149.429 169.685 148.852 162.606C148.275 155.528 150.493 148.504 155.032 143.042C159.571 137.579 166.068 134.112 173.133 133.382C180.198 132.653 187.267 134.719 192.826 139.139C193.828 139.92 194.769 140.777 195.641 141.701Z" fill="#FF1357"/>
<path d="M296.534 138.547V142.577L294.734 141.917L269.404 132.657C261.154 129.647 252.924 126.207 244.404 124.037C236.992 121.916 229.12 122.017 221.764 124.327C215.207 126.753 209.208 130.477 204.124 135.277C201.874 137.357 199.694 139.487 197.584 141.697C196.894 142.427 196.204 143.157 195.524 143.887C193.484 146.107 191.514 148.377 189.644 150.727C184.134 157.367 178.694 164.067 173.244 170.737C169.844 174.897 166.444 179.047 163.084 183.197C151.864 196.927 140.711 210.684 129.624 224.467C128.131 224.45 126.645 224.262 125.194 223.907C136.504 209.857 147.868 195.844 159.284 181.867C159.544 181.547 159.804 181.227 160.064 180.907C161.404 179.237 162.774 177.557 164.134 175.887C169.824 168.917 175.518 161.954 181.214 154.997C185.354 149.937 189.464 144.857 193.924 140.057C194.194 139.747 194.474 139.447 194.764 139.137C195.194 138.677 195.624 138.227 196.064 137.757C205.754 127.747 217.844 118.897 232.324 118.657C240.844 118.527 249.074 121.227 256.994 124.077C265.524 127.167 274.024 130.307 282.544 133.427L296.534 138.547Z" fill="#3F3D56"/>
<path d="M300.525 477.618H97.866C94.5787 477.614 91.4271 476.307 89.1026 473.982C86.7781 471.658 85.4706 468.506 85.4668 465.219V437.906C85.4706 434.619 86.7781 431.467 89.1026 429.143C91.4271 426.818 94.5787 425.511 97.866 425.507H300.525C303.812 425.511 306.964 426.818 309.288 429.143C311.612 431.467 312.92 434.619 312.924 437.906V465.219C312.92 468.506 311.612 471.658 309.288 473.982C306.964 476.307 303.812 477.614 300.525 477.618Z" fill="#FF89AC"/>
<path d="M300.525 337.618H97.866C94.5787 337.614 91.4271 336.307 89.1026 333.982C86.7781 331.658 85.4706 328.506 85.4668 325.219V297.906C85.4706 294.619 86.7781 291.467 89.1026 289.143C91.4271 286.818 94.5787 285.511 97.866 285.507H300.525C303.812 285.511 306.964 286.818 309.288 289.143C311.612 291.467 312.92 294.619 312.924 297.906V325.219C312.92 328.506 311.612 331.658 309.288 333.982C306.964 336.307 303.812 337.614 300.525 337.618Z" fill="#F2F2F2"/>
<path d="M300.525 407.618H97.866C94.5787 407.614 91.4271 406.307 89.1026 403.982C86.7781 401.658 85.4706 398.506 85.4668 395.219V367.906C85.4706 364.619 86.7781 361.467 89.1026 359.143C91.4271 356.818 94.5787 355.511 97.866 355.507H300.525C303.812 355.511 306.964 356.818 309.288 359.143C311.612 361.467 312.92 364.619 312.924 367.906V395.219C312.92 398.506 311.612 401.658 309.288 403.982C306.964 406.307 303.812 407.614 300.525 407.618Z" fill="#F2F2F2"/>
<path d="M223.816 446.888H164.105C163.396 446.888 162.717 446.607 162.216 446.106C161.715 445.605 161.434 444.926 161.434 444.217C161.434 443.509 161.715 442.829 162.216 442.328C162.717 441.827 163.396 441.546 164.105 441.546H223.816C224.525 441.546 225.204 441.827 225.705 442.328C226.206 442.829 226.488 443.509 226.488 444.217C226.488 444.926 226.206 445.605 225.705 446.106C225.204 446.607 224.525 446.888 223.816 446.888Z" fill="white"/>
<path d="M281.246 461.58H163.437C162.728 461.58 162.049 461.298 161.548 460.797C161.047 460.296 160.766 459.617 160.766 458.909C160.766 458.2 161.047 457.521 161.548 457.02C162.049 456.519 162.728 456.237 163.437 456.237H281.246C281.955 456.237 282.634 456.519 283.135 457.02C283.636 457.521 283.918 458.2 283.918 458.909C283.918 459.617 283.636 460.296 283.135 460.797C282.634 461.298 281.955 461.58 281.246 461.58Z" fill="white"/>
<path d="M132.382 469.472C142.273 469.472 150.292 461.454 150.292 451.563C150.292 441.672 142.273 433.653 132.382 433.653C122.491 433.653 114.473 441.672 114.473 451.563C114.473 461.454 122.491 469.472 132.382 469.472Z" fill="white"/>
<path d="M128.391 475.754C126.564 474.9 124.475 474.792 122.57 475.455C120.664 476.117 119.093 477.497 118.189 479.301C118.011 479.67 117.864 480.054 117.749 480.448L90.7802 482.059L86.7832 496.032L123.489 489.83C125.159 490.179 126.897 489.965 128.432 489.222C129.967 488.479 131.214 487.249 131.976 485.723C132.402 484.851 132.651 483.904 132.711 482.935C132.77 481.966 132.638 480.995 132.323 480.077C132.007 479.16 131.513 478.313 130.87 477.586C130.227 476.859 129.447 476.266 128.575 475.84C128.514 475.811 128.453 475.782 128.391 475.754Z" fill="#FFB6B6"/>
<path d="M68.8623 406.834C67.0852 406.107 65.1723 405.771 63.2537 405.849C61.3351 405.927 59.4559 406.418 57.7438 407.287C56.0317 408.156 54.5269 409.384 53.3317 410.887C52.1365 412.39 51.279 414.132 50.8174 415.996L43.4028 445.939L44.7975 498.323C44.7975 498.323 83.4995 505.749 89.9967 500.976C96.4938 496.202 95.8837 492.649 96.4938 496.202C97.1038 499.756 99.8925 501.247 99.9312 499.833C99.9699 498.419 100.285 498.661 101.904 498.235C103.523 497.809 110.669 495.176 110.669 495.176L110.989 480.24C110.989 480.24 99.1758 475.762 96.3097 477.098C93.4436 478.434 96.9197 480.652 93.4436 478.434C89.9676 476.217 89.5876 469.219 88.9933 475.526C88.399 481.833 86.659 483.007 84.0528 480.203C81.4467 477.398 69.3723 479.19 69.3723 479.19L77.0557 420.96C77.4421 418.031 76.8478 415.057 75.3656 412.501C73.8833 409.946 71.5965 407.953 68.8623 406.834Z" fill="#FF1357"/>
<path d="M329.497 562.178L329.904 551.148L287.552 544.329L286.952 560.608L329.497 562.178Z" fill="#FFB6B6"/>
<path d="M321.809 565.499L321.407 547.838L328.957 548.117L341.146 531.79C341.748 530.984 342.592 530.391 343.555 530.098C344.518 529.805 345.549 529.828 346.498 530.162C347.447 530.497 348.264 531.126 348.83 531.958C349.396 532.79 349.681 533.781 349.644 534.787L348.87 555.767L341.268 559.107L348.684 560.795L348.393 568.705L321.809 565.499Z" fill="#2F2E41"/>
<path d="M91.1377 587.473L225.281 571.874C225.281 571.874 283.208 575.22 296.799 566.378L311.132 564.569L311.909 543.516C311.909 543.516 303.144 543.581 298.105 541.233C293.067 538.885 296.569 536.012 291.764 538.837C286.96 541.662 287.468 542.002 283.753 540.703C280.039 539.405 109.703 532.442 109.703 532.442L91.1377 587.473Z" fill="#2F2E41"/>
<path d="M267.903 578.337L275.703 570.527L249.293 536.724L237.781 548.25L267.903 578.337Z" fill="#FFB6B6"/>
<path d="M260.008 575.542L271.725 562.322L277.071 567.661L297.111 563.982C298.1 563.8 299.122 563.94 300.027 564.38C300.932 564.82 301.673 565.538 302.141 566.429C302.609 567.319 302.78 568.337 302.629 569.332C302.478 570.326 302.013 571.247 301.302 571.959L286.466 586.813L278.621 584.092L282.91 590.373L277.316 595.973L260.008 575.542Z" fill="#2F2E41"/>
<path d="M38.2144 514.007L39.5479 545.007C41.1179 581.5 81.3073 603.588 112.471 584.534C113.045 584.182 113.622 583.819 114.2 583.442C114.2 583.442 126.014 580.269 125.656 575.245C125.297 570.22 128.183 567.775 130.737 569.145C133.291 570.515 166.733 523.055 166.733 523.055C166.733 523.055 236.215 557.714 251.543 565.873L267.717 561.466C267.717 561.466 273.804 564.341 271.611 560.183C269.418 556.025 269.025 558.016 268.352 553.486C267.678 548.956 265.955 543.339 264.91 543.576C263.865 543.812 178.953 484.381 178.953 484.381C178.953 484.381 165.12 470.381 147.96 479.624C147.603 480.982 147.908 481.03 147.908 481.03L91.2238 527.218L83.2144 512.007L38.2144 514.007Z" fill="#2F2E41"/>
<path d="M76.3131 400.104L52.0094 388.714L44.7333 401.375C44.7333 401.375 25.1915 429.261 24.908 449.379C24.6245 469.497 28.0926 475.48 28.0926 475.48C28.0926 475.48 19.6669 481.779 23.8798 485.63C28.0926 489.48 37.4193 491.141 30.256 492.811C23.0926 494.48 24.908 511.379 32.908 514.379C40.908 517.379 83.8722 517.353 83.8722 517.353C83.4859 516.043 83.4575 514.653 83.7898 513.328C84.1221 512.003 84.8031 510.791 85.7619 509.819C89.0926 506.48 92.0927 508.876 89.0927 503.678C86.0927 498.48 81.0926 501.48 85.0926 494.48C89.0926 487.48 89.0912 485.388 89.0912 485.388C89.0912 485.388 97.2455 469.869 84.9631 453.033C84.2144 452.007 84.8439 451.968 84.8439 451.968L74.9259 418.732L76.3131 400.104Z" fill="#FF1357"/>
<path d="M37.1465 352.211C37.3521 357.345 34.1168 364.618 32.5236 369.004C30.8203 373.693 38.2029 379.917 42.9282 381.28C43.1742 379.655 43.9845 378.169 45.2169 377.083C44.8763 378.631 44.8466 380.231 45.1296 381.791L85.0775 390.885C92.2641 382.563 99.4902 370.599 97.914 356.169C98.2914 353.429 97.8511 350.638 96.6483 348.147C95.4455 345.657 93.5337 343.577 91.153 342.169L70.9575 330.238C62.3673 328.282 51.5495 327.102 45.3449 332.417C42.5727 334.883 40.395 337.945 38.9751 341.374C37.5553 344.802 36.9301 348.507 37.1465 352.211Z" fill="#2F2E41"/>
<path d="M72.8535 386.488C85.5561 386.488 95.8535 376.191 95.8535 363.488C95.8535 350.786 85.5561 340.488 72.8535 340.488C60.151 340.488 49.8535 350.786 49.8535 363.488C49.8535 376.191 60.151 386.488 72.8535 386.488Z" fill="#FFB6B6"/>
<path d="M45.9092 351.201L44.7993 356.077L64.2029 360.494C64.2201 359.508 64.441 358.536 64.8516 357.64C65.2622 356.743 65.8537 355.941 66.589 355.284C66.1704 357.195 66.2182 359.18 66.7282 361.069C77.1927 366.941 86.6245 369.021 95.0819 367.524C96.2277 367.785 97.4302 367.58 98.4249 366.954C99.4196 366.328 100.125 365.333 100.386 364.187C103.789 349.24 94.8737 333.962 79.9996 330.252C76.3841 329.348 72.6245 329.175 68.9413 329.743C65.2581 330.311 61.7254 331.609 58.5502 333.56C55.375 335.511 52.6214 338.077 50.4507 341.106C48.28 344.135 46.736 347.568 45.9092 351.201Z" fill="#2F2E41"/>
<path d="M57.2535 319.035C59.812 318.48 62.5196 318.614 64.833 316.881L63.3159 320.363C67.522 319.211 72.0061 319.659 75.9012 321.62C77.0594 322.14 78.0471 322.976 78.7504 324.032C79.1283 324.671 79.3582 325.386 79.423 326.124C79.4879 326.863 79.3861 327.607 79.1252 328.302C78.8765 328.897 78.5063 329.434 78.0383 329.879C77.5703 330.323 77.0147 330.665 76.4071 330.883C75.3301 331.207 74.2019 331.325 73.0812 331.231C68.3591 331.121 63.637 331.011 58.915 330.901C57.1154 331.013 55.3171 330.663 53.6904 329.886C52.8255 329.352 52.1355 328.577 51.7049 327.656C51.2743 326.735 51.1219 325.709 51.2664 324.703C51.7168 321.537 54.695 319.59 57.2535 319.035Z" fill="#2F2E41"/>
<path d="M182.019 499.296C181.964 499.23 181.9 499.172 181.83 499.123C181.659 498.924 181.449 498.76 181.214 498.641L179.531 497.74L168.358 485.335C167.711 484.998 166.959 484.926 166.26 485.134L166.231 485.143L161.444 486.623L157.328 487.901L151.578 489.683L112.412 501.811L86.6669 509.782C85.9709 510.002 85.3892 510.487 85.047 511.132C84.7049 511.777 84.6296 512.53 84.8374 513.23C84.9584 513.615 85.1587 513.971 85.4252 514.274L86.2445 515.186L87.9628 517.1L91.944 525.351L93.0485 526.584C93.4005 526.976 93.857 527.26 94.3646 527.402C94.8721 527.545 95.4097 527.54 95.9145 527.388L180.729 503.803C181.17 503.66 181.568 503.411 181.89 503.078C182.212 502.745 182.447 502.338 182.574 501.893C182.702 501.448 182.718 500.978 182.621 500.525C182.524 500.072 182.317 499.65 182.019 499.296Z" fill="#CCCCCC"/>
<path d="M176.983 376.591L175.341 376.857C174.89 376.932 174.488 377.181 174.221 377.552L173.497 378.564L166.97 394.885C166.704 395.258 166.598 395.722 166.673 396.174L167.438 400.824L164.548 483.83C164.621 484.259 164.851 484.646 165.194 484.914L177.867 501.866L178.163 502.101L178.801 502.601C179.129 502.854 179.535 502.983 179.948 502.965L181.025 502.914C181.27 502.902 181.509 502.839 181.727 502.727C181.945 502.616 182.137 502.46 182.291 502.269C182.445 502.08 182.557 501.859 182.619 501.623C182.681 501.387 182.692 501.14 182.65 500.899L178.974 378.011C178.899 377.56 178.649 377.156 178.277 376.89C177.905 376.623 177.443 376.515 176.991 376.589L176.983 376.591Z" fill="#CCCCCC"/>
<path d="M174.233 383.04L168.451 400.653L166.214 471.007L175.214 479.007L174.233 383.04Z" fill="#FF1357"/>
<path d="M129.519 490.356C127.692 489.502 125.603 489.395 123.698 490.057C121.792 490.72 120.22 492.1 119.317 493.903C119.139 494.273 118.992 494.656 118.877 495.05L91.9081 496.662L87.9111 510.634L124.617 504.432C126.286 504.781 128.025 504.567 129.56 503.825C131.095 503.082 132.341 501.852 133.104 500.326C133.964 498.564 134.088 496.533 133.45 494.68C132.813 492.826 131.465 491.302 129.703 490.443C129.642 490.413 129.581 490.384 129.519 490.356Z" fill="#FFB6B6"/>
<path d="M69.9907 421.436C68.2136 420.709 66.3007 420.373 64.3821 420.452C62.4635 420.53 60.5843 421.02 58.8722 421.889C57.1601 422.759 55.6553 423.987 54.4601 425.489C53.2649 426.992 52.4074 428.735 51.9459 430.599L44.5312 460.542L45.926 512.926C45.926 512.926 84.628 520.352 91.1251 515.578C97.6222 510.805 97.0122 507.251 97.6222 510.805C98.2323 514.358 101.021 515.849 101.06 514.436C101.098 513.022 101.414 513.264 103.033 512.838C104.652 512.412 111.798 509.778 111.798 509.778L112.118 494.843C112.118 494.843 100.304 490.364 97.4381 491.701C94.5721 493.037 98.0481 495.254 94.5721 493.037C91.096 490.819 90.716 483.821 90.1217 490.128C89.5274 496.435 87.7874 497.61 85.1812 494.805C82.5751 492.001 70.5007 493.792 70.5007 493.792L78.1841 435.562C78.5706 432.633 77.9763 429.659 76.494 427.104C75.0118 424.548 72.7249 422.555 69.9907 421.436Z" fill="#FF1357"/>
<path d="M462.525 337.618H259.866C256.579 337.614 253.427 336.307 251.103 333.982C248.778 331.658 247.471 328.506 247.467 325.219V297.906C247.471 294.619 248.778 291.467 251.103 289.143C253.427 286.818 256.579 285.511 259.866 285.507H462.525C465.812 285.511 468.963 286.818 471.288 289.143C473.612 291.467 474.92 294.619 474.924 297.906V325.219C474.92 328.506 473.612 331.658 471.288 333.982C468.963 336.307 465.812 337.614 462.525 337.618Z" fill="#FF89AC"/>
<path d="M385.816 306.888H326.105C325.396 306.888 324.717 306.607 324.216 306.106C323.715 305.605 323.434 304.926 323.434 304.217C323.434 303.509 323.715 302.829 324.216 302.328C324.717 301.827 325.396 301.546 326.105 301.546H385.816C386.525 301.546 387.204 301.827 387.705 302.328C388.206 302.829 388.488 303.509 388.488 304.217C388.488 304.926 388.206 305.605 387.705 306.106C387.204 306.607 386.525 306.888 385.816 306.888Z" fill="white"/>
<path d="M443.246 321.58H325.437C324.728 321.58 324.049 321.298 323.548 320.797C323.047 320.296 322.766 319.617 322.766 318.908C322.766 318.2 323.047 317.521 323.548 317.02C324.049 316.519 324.728 316.237 325.437 316.237H443.246C443.955 316.237 444.634 316.519 445.135 317.02C445.636 317.521 445.918 318.2 445.918 318.908C445.918 319.617 445.636 320.296 445.135 320.797C444.634 321.298 443.955 321.58 443.246 321.58Z" fill="white"/>
<path d="M294.382 329.472C304.273 329.472 312.292 321.454 312.292 311.563C312.292 301.672 304.273 293.653 294.382 293.653C284.491 293.653 276.473 301.672 276.473 311.563C276.473 321.454 284.491 329.472 294.382 329.472Z" fill="white"/>
<path d="M397.525 407.618H194.866C191.579 407.614 188.427 406.307 186.103 403.982C183.778 401.658 182.471 398.506 182.467 395.219V367.906C182.471 364.619 183.778 361.467 186.103 359.143C188.427 356.818 191.579 355.511 194.866 355.507H397.525C400.812 355.511 403.963 356.818 406.288 359.143C408.612 361.467 409.92 364.619 409.924 367.906V395.219C409.92 398.506 408.612 401.658 406.288 403.982C403.963 406.307 400.812 407.614 397.525 407.618Z" fill="#FF89AC"/>
<path d="M320.816 376.888H261.105C260.396 376.888 259.717 376.607 259.216 376.106C258.715 375.605 258.434 374.926 258.434 374.217C258.434 373.509 258.715 372.829 259.216 372.328C259.717 371.827 260.396 371.546 261.105 371.546H320.816C321.525 371.546 322.204 371.827 322.705 372.328C323.206 372.829 323.488 373.509 323.488 374.217C323.488 374.926 323.206 375.605 322.705 376.106C322.204 376.607 321.525 376.888 320.816 376.888Z" fill="white"/>
<path d="M378.246 391.58H260.437C259.728 391.58 259.049 391.298 258.548 390.797C258.047 390.296 257.766 389.617 257.766 388.909C257.766 388.2 258.047 387.521 258.548 387.02C259.049 386.519 259.728 386.237 260.437 386.237H378.246C378.955 386.237 379.634 386.519 380.135 387.02C380.636 387.521 380.918 388.2 380.918 388.909C380.918 389.617 380.636 390.296 380.135 390.797C379.634 391.298 378.955 391.58 378.246 391.58Z" fill="white"/>
<path d="M229.382 399.472C239.273 399.472 247.292 391.454 247.292 381.563C247.292 371.672 239.273 363.653 229.382 363.653C219.491 363.653 211.473 371.672 211.473 381.563C211.473 391.454 219.491 399.472 229.382 399.472Z" fill="white"/>
</svg>
