<svg width="573" height="625" viewBox="0 0 573 625" fill="none" xmlns="http://www.w3.org/2000/svg">
<path d="M99.2196 209.45C100.368 208.341 98.9014 204.959 95.944 201.896C92.9866 198.832 89.6582 197.247 88.5099 198.356C87.3616 199.464 88.8281 202.847 91.7855 205.91C94.7429 208.974 98.0713 210.558 99.2196 209.45Z" fill="#8ED16F"/>
<path d="M81.8042 0C81.8042 0 118.188 36.3837 97.6483 90.3742C77.1087 144.365 132.857 234.146 132.857 234.146C132.857 234.146 132.259 234.059 131.151 233.863C56.4145 220.673 19.3041 135.206 60.8471 71.7159C76.2737 48.1095 88.9789 20.421 81.8042 0Z" fill="#8ED16F"/>
<path d="M17 147.158C17 147.158 58.5173 140.545 62.3005 177.754C66.0837 214.962 142.134 220.121 142.134 220.121C142.134 220.121 141.619 220.462 140.707 221.07C77.9126 262.304 17.8865 247.325 26.9322 192.593C30.3031 172.239 30.0247 151.802 17 147.158Z" fill="#8ED16F"/>
<g opacity="0.3">
<path opacity="0.3" d="M17 147.158C17 147.158 58.5173 140.546 62.3005 177.754C66.0837 214.962 142.134 220.122 142.134 220.122C142.134 220.122 141.619 220.462 140.707 221.07C77.9126 262.304 17.8865 247.326 26.9322 192.593C30.3031 172.239 30.0247 151.802 17 147.158Z" fill="white"/>
</g>
<path d="M71.2945 146.7C77.5998 146.7 82.7111 133.364 82.7111 116.913C82.7111 100.463 77.5998 87.1271 71.2945 87.1271C64.9893 87.1271 59.8779 100.463 59.8779 116.913C59.8779 133.364 64.9893 146.7 71.2945 146.7Z" fill="#8ED16F"/>
<path opacity="0.3" d="M71.2945 146.7C77.5998 146.7 82.7111 133.364 82.7111 116.913C82.7111 100.463 77.5998 87.1271 71.2945 87.1271C64.9893 87.1271 59.8779 100.463 59.8779 116.913C59.8779 133.364 64.9893 146.7 71.2945 146.7Z" fill="black"/>
<path d="M70.2512 225.091C73.2564 222.086 70.2703 214.227 63.5816 207.539C56.8929 200.85 49.0344 197.864 46.0293 200.869C43.0241 203.874 46.0101 211.733 52.6988 218.421C59.3875 225.11 67.246 228.096 70.2512 225.091Z" fill="#8ED16F"/>
<path opacity="0.3" d="M70.2512 225.091C73.2564 222.086 70.2703 214.227 63.5816 207.539C56.8929 200.85 49.0344 197.864 46.0293 200.869C43.0241 203.874 46.0101 211.733 52.6988 218.421C59.3875 225.11 67.246 228.096 70.2512 225.091Z" fill="black"/>
<path d="M548.89 224.46H24.5501C18.2141 224.46 12.1376 226.977 7.65738 231.457C3.17713 235.937 0.660156 242.014 0.660156 248.35V555.68C0.660156 562.016 3.17713 568.093 7.65738 572.573C12.1376 577.053 18.2141 579.57 24.5501 579.57H548.89C555.226 579.57 561.303 577.053 565.783 572.573C570.263 568.093 572.78 562.016 572.78 555.68V248.35C572.78 242.014 570.263 235.937 565.783 231.457C561.303 226.977 555.226 224.46 548.89 224.46V224.46Z" fill="url(#paint0_linear_405_1495)"/>
<path d="M541.23 228.64H32.1996C18.4975 228.64 7.38965 239.748 7.38965 253.45V550.58C7.38965 564.282 18.4975 575.39 32.1996 575.39H541.23C554.932 575.39 566.04 564.282 566.04 550.58V253.45C566.04 239.748 554.932 228.64 541.23 228.64Z" fill="#FF1457"/>
<path d="M566.04 289.32H7.38965V352.89H566.04V289.32Z" fill="#FF1457"/>
<path opacity="0.3" d="M566.04 289.32H7.38965V352.89H566.04V289.32Z" fill="black"/>
<path d="M513.07 400.09H60.3701V430.91H513.07V400.09Z" fill="#D6D6E3"/>
<path d="M97.9301 552.28C122.402 552.28 142.24 532.442 142.24 507.97C142.24 483.498 122.402 463.66 97.9301 463.66C73.4584 463.66 53.6201 483.498 53.6201 507.97C53.6201 532.442 73.4584 552.28 97.9301 552.28Z" fill="#FF1457"/>
<path opacity="0.3" d="M97.9301 552.28C122.402 552.28 142.24 532.442 142.24 507.97C142.24 483.498 122.402 463.66 97.9301 463.66C73.4584 463.66 53.6201 483.498 53.6201 507.97C53.6201 532.442 73.4584 552.28 97.9301 552.28Z" fill="black"/>
<path d="M351.28 143.14C351.995 145.402 353.514 147.323 355.55 148.54C364.74 154.61 384.72 153.32 387.12 153.32C387.63 153.32 388.3 154.23 389.04 155.76C392.57 163.04 398.04 184.38 398.41 189.18C398.9 194.99 404.3 222.18 413.14 232.31C413.41 232.62 413.68 232.91 413.94 233.18C422.61 241.89 432.78 232.31 432.78 232.31L434.24 227.24C433.83 229.24 433.37 231.57 432.91 234.18C432.68 235.49 432.45 236.88 432.23 238.31C430.912 246.368 430.22 254.515 430.16 262.68C430.137 265.644 430.264 268.608 430.54 271.56C430.62 272.38 430.71 273.19 430.82 273.98C431.271 277.575 431.492 281.196 431.48 284.82C431.4 306.34 425.91 333.11 425.91 333.11L426.12 333.04C425.99 333.71 425.91 334.04 425.91 334.04L426.23 333.94C426.076 334.933 425.93 335.95 425.79 336.99C423.93 350.49 422.86 367.29 422.35 376.99C422.086 382.107 422.314 387.237 423.03 392.31L432.79 461.02V493.02C432.757 497.869 433.348 502.702 434.55 507.4C437.73 519.49 435.11 561.69 433.64 581.71C433.23 587.17 432.91 590.99 432.82 592.09V592.42L433.1 592.31C433.1 592.54 433.1 592.66 433.1 592.66C433.516 592.482 433.953 592.354 434.4 592.28C430.53 598.28 423.52 608.2 418.13 609.87C414.953 610.838 412.128 612.711 410 615.26L409.86 615.45L409.66 615.73C408.993 616.622 408.588 617.681 408.49 618.79C408.412 618.599 408.352 618.402 408.31 618.2C407.9 620.43 409.24 622.47 413.45 623.46C415.904 623.928 418.402 624.13 420.9 624.06C435.5 624.06 461.41 619.57 464.27 614.74V598.08L464.74 598.23V598.38L466.53 598.97L471.44 582.49C477.33 578.13 472.44 500.1 471.44 482.17C470.54 465.83 480.65 400.83 482.44 389.38L482.2 389.09L482.47 387.42C482.83 387.681 483.165 387.976 483.47 388.3C484.057 388.998 484.57 389.755 485 390.56C485.845 391.991 486.571 393.49 487.17 395.04C497.05 419.68 501.5 490.14 501.5 496.46V562.72C501.479 569.259 502.388 575.767 504.2 582.05C505.107 585.357 505.808 588.716 506.3 592.11C506.51 593.44 506.69 594.76 506.86 596.02C507.03 597.28 507.2 598.72 507.33 599.9C507.33 600.21 507.4 600.51 507.43 600.79C507.46 601.07 507.43 601.06 507.43 601.2C507.7 603.81 507.84 605.52 507.84 605.52C507.877 605.377 507.945 605.244 508.04 605.13L508.09 605.76C508.16 605.521 508.295 605.307 508.48 605.14C508.886 604.741 509.328 604.38 509.8 604.06V612.48L509.56 612.3V613.75C519.74 621.43 536.31 623.75 549.03 623.66C557.28 623.66 563.96 622.66 566.28 621.5C569.6 619.87 567.78 616.07 564.76 613.16C562.42 610.9 559.37 609.16 557.44 609.38C554.22 609.73 543.21 597.26 537.44 590.43L538.09 590.14L539.01 589.74V479.26C539.01 479.26 540.49 435.64 544.9 392.5C546.992 370.754 544.418 348.811 537.35 328.14L537.21 327.73L538.55 327.94C539.97 328.16 540.73 328.29 540.73 328.29C540.73 328.29 540.73 327.95 540.64 327.29H540.73C540.73 327.29 539.01 308.58 538.99 285.08C538.99 258.44 541.24 225.96 550.55 207.58C555.91 197 557.7 188.58 557.55 181.94C557.783 176.097 556.101 170.338 552.76 165.54C551.358 163.608 549.452 162.1 547.25 161.18L547.06 161.07H546.96C545.352 160.419 543.634 160.08 541.9 160.07H521.79C519.462 160.072 517.174 159.469 515.15 158.32L507.28 153.86C504.66 148.13 504.28 141.03 504.84 134.37C504.84 133.84 504.94 133.31 504.99 132.79L505.56 132.19C506 131.72 506.41 131.19 506.81 130.74C506.801 131.135 506.77 131.529 506.72 131.92C506.62 132.55 506.45 132.92 506.18 133C510.48 132.44 515.28 131.59 517.92 128.27C518.03 128.14 518.13 128 518.23 127.86C519.01 126.597 519.657 125.257 520.16 123.86C520.529 122.906 521.024 122.005 521.63 121.18C522.29 120.32 523.15 119.62 523.86 118.8L523.98 118.66C526.51 115.66 526.65 111.36 526.68 107.44C526.73 97.92 526.45 87.44 520.08 80.3C514.79 74.36 506.35 72.11 498.34 71.85C490.33 71.59 482.34 73.03 474.34 73.07C468.9 73.07 462.34 72.98 459.34 77.48C457.87 79.69 457.69 82.58 456.09 84.7C455.17 85.92 453.76 86.97 453.68 88.49C453.669 89.1913 453.849 89.8824 454.2 90.49V90.56C456.14 94.38 460.26 96.76 464.56 97.51C463.833 98.3849 463.165 99.3069 462.56 100.27C459.934 104.467 458.548 109.32 458.56 114.27C458.56 114.85 458.56 115.42 458.62 115.99C459.066 122.714 462.064 129.013 467 133.6C466.92 134.16 466.84 134.72 466.75 135.27L466.93 135.43C467.496 135.943 468.086 136.43 468.7 136.89L468.92 137.06C468.92 137.41 468.92 137.76 468.92 138.06C468.92 138.64 468.92 139.23 468.86 139.8C468.8 140.37 468.86 140.72 468.8 141.18L468.67 141.07L458.9 132.91L443.19 118.37C443.19 118.37 403.91 89.78 401.94 103.37C401.702 105.784 402.368 108.2 403.81 110.15C411.02 121.15 435.81 130.51 435.81 130.51C435.81 130.51 450.59 146.14 460.48 162.99C460.13 163.18 459.78 163.36 459.41 163.53C450.61 167.62 437.77 165.89 437.77 165.89C422.94 168.2 421.6 184.45 421.68 191.02C421.68 191.33 421.68 191.63 421.68 191.9C421.68 192.17 421.68 192.23 421.68 192.38L402 146.17L401.94 146.03C401.298 144.526 400.287 143.207 399 142.197C397.714 141.187 396.193 140.517 394.58 140.25C381.42 138.04 348.53 133.43 351.28 143.14ZM433.67 592.14C433.957 592.072 434.247 592.018 434.54 591.98L434.45 592.12L433.67 592.14Z" fill="url(#paint1_linear_405_1495)"/>
<path d="M532 582.69C532 582.69 550.64 606.12 554.95 605.64C559.26 605.16 569.29 614.72 563.56 617.64C557.83 620.56 524.84 622.42 508.56 609.99V591.26L532 582.69Z" fill="#ACA9C9"/>
<path d="M437.81 584.12C437.81 584.12 426.81 603.72 419.17 606.12C411.53 608.52 404.83 617.12 414.87 619.51C424.91 621.9 460.77 616.64 464.11 610.9V585.55L437.81 584.12Z" fill="#ACA9C9"/>
<path d="M424 391.57L433.5 459.35V490.86C433.471 495.64 434.049 500.405 435.22 505.04C438.32 516.97 435.77 558.59 434.33 578.34C433.86 584.78 433.5 588.9 433.5 588.9C439.71 586.03 466.01 595.11 466.01 595.11L468.67 586.06L470.79 578.86C476.53 574.56 471.79 497.59 470.79 479.86C470.14 467.75 475.54 428.49 479 404.96C480 398.31 480.81 392.96 481.3 389.74C481.61 387.74 481.78 386.63 481.78 386.63C482.834 387.489 483.71 388.546 484.36 389.74C485.183 391.153 485.888 392.632 486.47 394.16C496.09 418.47 500.47 487.97 500.47 494.16V559.52C500.45 565.968 501.335 572.388 503.1 578.59C504.284 583.114 505.15 587.715 505.69 592.36C506.37 597.55 506.69 601.73 506.69 601.73C507.17 598.86 536.81 585.95 536.81 585.95V476.95C536.81 476.95 538.24 433.95 542.55 391.37C544.402 372.002 542.535 352.458 537.05 333.79C535.86 329.72 534.67 326.27 533.64 323.54C531.89 318.89 530.64 316.32 530.64 316.32H433C431.36 316.63 430 319.93 428.77 324.94C427.97 328.3 427.27 332.42 426.66 336.94C424.85 350.25 423.81 366.82 423.31 376.4C423.057 381.467 423.288 386.547 424 391.57V391.57Z" fill="#618FD8"/>
<g opacity="0.1">
<path opacity="0.1" d="M535.091 586.26V477.26C535.091 477.26 536.521 434.26 540.831 391.68C545.141 349.1 528.831 316.62 528.831 316.62H530.74C530.74 316.62 546.99 349.13 542.74 391.68C538.49 434.23 537 477.26 537 477.26V586.26C537 586.26 507.36 599.17 506.88 602.04C506.88 602.04 506.88 601.4 506.73 600.3C513.19 595.81 535.091 586.26 535.091 586.26Z" fill="black"/>
<path opacity="0.1" d="M436.37 588.6C435.468 588.619 434.577 588.802 433.74 589.14V588.66C434.614 588.572 435.493 588.552 436.37 588.6V588.6Z" fill="black"/>
<path opacity="0.1" d="M469.12 579.1C474.86 574.8 470.12 497.83 469.12 480.1C468.12 462.37 480.12 386.88 480.12 386.88C480.749 387.365 481.304 387.938 481.771 388.58C480.011 399.86 470.17 463.99 471.04 480.1C472.04 497.79 476.78 574.76 471.04 579.1L466.26 595.35L464.521 594.77L469.12 579.1Z" fill="black"/>
</g>
<path d="M443.54 198.31L433.54 233.69C433.54 233.69 423.02 243.69 414.42 233.69C405.82 223.69 400.52 196.88 400 191.14C399.48 185.4 391.87 155.76 389 155.76C386.13 155.76 357.45 157.67 354.1 145.76C351.42 136.18 383.44 140.76 396.26 142.91C397.839 143.179 399.324 143.842 400.577 144.839C401.831 145.835 402.812 147.133 403.43 148.61L423.09 195.56C423.09 195.56 433.5 183.49 443.54 198.31Z" fill="#F7C4A7"/>
<path d="M508.08 116.08C508.08 116.08 495.65 150.98 511.43 163.41C527.21 175.84 455 179.19 455 179.19L464.8 169.87C464.8 169.87 471.73 142.38 466.95 119.43L508.08 116.08Z" fill="#F7C4A7"/>
<path opacity="0.1" d="M492.78 163.41C492.78 163.41 505.45 160.3 505.45 156.96L516.68 163.41H544.89C544.89 163.41 565.45 174.88 548.24 209.31C531.03 243.74 538.68 328.31 538.68 328.31C538.68 328.31 477.49 317.31 426.81 334.05C426.81 334.05 434.46 296.28 431.59 274.77C428.72 253.26 436.37 223.14 436.37 223.14L440.67 204.97C440.67 204.97 440.43 187.97 422.74 196.6C422.74 196.6 420.11 171.98 438.28 169.11C438.28 169.11 459.28 171.98 465.53 161.46C465.53 161.5 479.4 169.63 492.78 163.41Z" fill="black"/>
<path d="M492.78 162.46C492.78 162.46 505.45 159.35 505.45 156.01L513.68 160.74C515.647 161.867 517.874 162.46 520.14 162.46H539.87C541.933 162.454 543.967 162.939 545.805 163.874C547.643 164.81 549.232 166.169 550.44 167.84C554.97 174.21 559.03 186.77 548.24 208.36C531.03 242.78 538.68 327.36 538.68 327.36C538.68 327.36 477.49 316.36 426.81 333.1C426.81 333.1 434.46 295.33 431.59 273.82C428.72 252.31 436.37 222.26 436.37 222.26L440.67 204.09C440.67 204.09 440.43 187.09 422.74 195.72C422.74 195.72 420.18 171.78 437.53 168.36C438.013 168.253 438.508 168.219 439 168.26C442.71 168.65 460 169.9 465.54 160.53C465.53 160.54 479.4 168.67 492.78 162.46Z" fill="#E14B5A"/>
<path opacity="0.1" d="M541.07 205.96C541.07 205.96 525.77 215.52 500.91 205.96C500.91 205.96 473.66 195.96 465.05 176.32C456.44 156.68 508.55 179.67 508.55 179.67C508.55 179.67 519.55 179.67 522.89 177.28C526.23 174.89 549.67 195.44 541.07 205.96Z" fill="black"/>
<path d="M541.07 204.05C541.07 204.05 525.77 213.61 500.91 204.05C500.91 204.05 473.66 194.05 465.05 174.41C456.44 154.77 436.37 133.26 436.37 133.26C436.37 133.26 401.47 119.87 403.37 106.49C405.27 93.1099 443.53 121.31 443.53 121.31L458.83 135.65L508.55 177.72C508.55 177.72 519.55 177.72 522.89 175.33C526.23 172.94 549.67 193.53 541.07 204.05Z" fill="#F7C4A7"/>
<path opacity="0.1" d="M466.49 120.86L507.6 117.51C505.487 123.83 504.049 130.357 503.31 136.98C498.531 141.936 491.997 144.817 485.115 145.004C478.232 145.191 471.552 142.669 466.51 137.98C467.558 132.321 467.551 126.517 466.49 120.86V120.86Z" fill="black"/>
<path d="M484.9 143.57C499.42 143.57 511.19 131.8 511.19 117.28C511.19 102.76 499.42 90.99 484.9 90.99C470.381 90.99 458.61 102.76 458.61 117.28C458.61 131.8 470.381 143.57 484.9 143.57Z" fill="#F7C4A7"/>
<path opacity="0.1" d="M499.33 122.99C497.79 120.45 500.92 117.14 499.89 114.36C498.94 111.8 495.16 111.36 493.89 108.97C492.89 107.04 493.89 104.67 493.49 102.54C492.92 99.7901 489.96 98.08 487.15 97.94C484.34 97.8 481.63 98.8501 478.96 99.7501C474.61 101.22 470.03 102.35 465.47 101.83C460.91 101.31 456.36 98.8301 454.33 94.7601C453.998 94.1672 453.823 93.4995 453.82 92.82C453.9 91.32 455.28 90.2901 456.17 89.0901C457.73 87.0001 457.91 84.1501 459.33 81.9701C462.23 77.5301 468.6 77.6401 473.9 77.6201C481.7 77.6201 489.46 76.1601 497.26 76.4201C505.06 76.6801 513.26 78.8901 518.43 84.7501C524.63 91.8001 524.91 102.12 524.86 111.52C524.86 115.39 524.7 119.6 522.23 122.59C521.51 123.46 520.63 124.18 519.94 125.07C518.44 127.07 518.04 129.63 516.63 131.66C514.13 135.27 509.25 136.15 504.9 136.73C506.18 136.56 505.12 127.99 504.9 127.2C504.06 123.26 503.15 123.34 499.33 122.99Z" fill="black"/>
<path d="M499.33 122.04C497.79 119.5 500.92 116.19 499.89 113.41C498.94 110.85 495.16 110.41 493.89 108.02C492.89 106.09 493.89 103.72 493.49 101.59C492.92 98.84 489.96 97.13 487.15 96.99C484.34 96.85 481.63 97.9 478.96 98.8C474.61 100.27 470.03 101.4 465.47 100.88C460.91 100.36 456.36 97.88 454.33 93.81C453.998 93.2171 453.823 92.5495 453.82 91.87C453.9 90.37 455.28 89.34 456.17 88.14C457.73 86.05 457.91 83.2 459.33 81.02C462.23 76.58 468.6 76.69 473.9 76.67C481.7 76.67 489.46 75.21 497.26 75.47C505.06 75.73 513.26 77.94 518.43 83.8C524.63 90.85 524.91 101.17 524.86 110.57C524.86 114.44 524.7 118.65 522.23 121.64C521.51 122.51 520.63 123.23 519.94 124.12C518.44 126.12 518.04 128.68 516.63 130.71C514.13 134.32 509.25 135.2 504.9 135.78C506.18 135.61 505.12 127.04 504.9 126.25C504.06 122.26 503.15 122.38 499.33 122.04Z" fill="#281C1C"/>
<path opacity="0.1" d="M540.83 207.16C540.83 207.16 527.92 173.69 517.88 172.74C507.84 171.79 537 172.74 537 172.74L546.56 189.95L540.83 207.16Z" fill="black"/>
<path d="M541.79 207.16C541.79 207.16 528.88 173.69 518.84 172.74C508.8 171.79 537.96 172.74 537.96 172.74L547.52 189.95L541.79 207.16Z" fill="#E14B5A"/>
<path d="M505.65 592.44C506.33 597.63 506.65 601.81 506.65 601.81C507.13 598.94 536.77 586.03 536.77 586.03V578.26C536.015 578.232 535.259 578.269 534.51 578.37C528.76 579.14 523.43 581.93 518.51 584.91C514.355 587.638 510.063 590.151 505.65 592.44V592.44Z" fill="#618FD8"/>
<path opacity="0.3" d="M505.65 592.44C506.33 597.63 506.65 601.81 506.65 601.81C507.13 598.94 536.77 586.03 536.77 586.03V578.26C536.015 578.232 535.259 578.269 534.51 578.37C528.76 579.14 523.43 581.93 518.51 584.91C514.355 587.638 510.063 590.151 505.65 592.44V592.44Z" fill="black"/>
<path d="M433.5 588.9C439.71 586.03 466.01 595.11 466.01 595.11L468.67 586.06C464.08 585.13 459.52 583.97 455.04 582.59C452.948 581.985 450.903 581.229 448.92 580.33C447.596 579.622 446.234 578.988 444.84 578.43C441.41 577.25 437.84 577.75 434.32 578.34C433.86 584.78 433.5 588.9 433.5 588.9Z" fill="#618FD8"/>
<path opacity="0.3" d="M433.5 588.9C439.71 586.03 466.01 595.11 466.01 595.11L468.67 586.06C464.08 585.13 459.52 583.97 455.04 582.59C452.948 581.985 450.903 581.229 448.92 580.33C447.596 579.622 446.234 578.988 444.84 578.43C441.41 577.25 437.84 577.75 434.32 578.34C433.86 584.78 433.5 588.9 433.5 588.9Z" fill="black"/>
<path opacity="0.4" d="M563.3 616.15C563.7 615.979 564.055 615.719 564.339 615.39C564.624 615.06 564.829 614.671 564.94 614.25C565.118 614.91 565.05 615.611 564.748 616.224C564.446 616.837 563.931 617.319 563.3 617.58C557.56 620.45 524.58 622.36 508.3 609.93V608.5C524.58 620.93 557.56 619.02 563.3 616.15Z" fill="white"/>
<path opacity="0.4" d="M414.62 618.06C424.62 620.45 460.52 615.19 463.86 609.45V610.88C460.51 616.62 424.66 621.88 414.62 619.49C410.52 618.49 409.21 616.49 409.62 614.3C409.94 615.92 411.44 617.26 414.62 618.06Z" fill="white"/>
<path opacity="0.1" d="M472.94 269.79C472.94 269.79 462.42 266.44 459.55 269.79C456.68 273.14 432.15 280.99 432.15 280.99" fill="black"/>
<path d="M353.91 138.43H405.06V137.35H353.91V138.43Z" fill="#8ED16F"/>
<path d="M353.91 139.51H405.06V138.43H353.91V139.51Z" fill="#8ED16F"/>
<path opacity="0.1" d="M353.91 139.51H405.06V138.43H353.91V139.51Z" fill="black"/>
<path d="M353.91 140.59H405.06V139.51H353.91V140.59Z" fill="#8ED16F"/>
<path d="M353.91 141.66H405.06V140.58H353.91V141.66Z" fill="#8ED16F"/>
<path opacity="0.1" d="M353.91 141.66H405.06V140.58H353.91V141.66Z" fill="black"/>
<path d="M353.91 142.74H405.06V141.66H353.91V142.74Z" fill="#8ED16F"/>
<path d="M353.91 143.81H405.06V142.73H353.91V143.81Z" fill="#8ED16F"/>
<path opacity="0.1" d="M353.91 143.81H405.06V142.73H353.91V143.81Z" fill="black"/>
<path d="M353.91 144.89H405.06V143.81H353.91V144.89Z" fill="#8ED16F"/>
<path d="M353.91 145.96H405.06V144.88H353.91V145.96Z" fill="#8ED16F"/>
<path opacity="0.1" d="M353.91 145.96H405.06V144.88H353.91V145.96Z" fill="black"/>
<path d="M353.91 129.83H405.06V128.75H353.91V129.83Z" fill="#8ED16F"/>
<path d="M390.09 104.26L429.416 136.968L430.107 136.137L390.78 103.43L390.09 104.26Z" fill="#8ED16F"/>
<path d="M353.91 130.9H405.06V129.82H353.91V130.9Z" fill="#8ED16F"/>
<path opacity="0.1" d="M353.91 130.9H405.06V129.82H353.91V130.9Z" fill="black"/>
<path d="M353.91 131.99H405.06V130.91H353.91V131.99Z" fill="#8ED16F"/>
<path d="M353.91 133.06H405.06V131.98H353.91V133.06Z" fill="#8ED16F"/>
<path opacity="0.1" d="M353.91 133.06H405.06V131.98H353.91V133.06Z" fill="black"/>
<path d="M353.91 134.13H405.06V133.05H353.91V134.13Z" fill="#8ED16F"/>
<path d="M353.91 135.21H405.06V134.13H353.91V135.21Z" fill="#8ED16F"/>
<path opacity="0.1" d="M353.91 135.21H405.06V134.13H353.91V135.21Z" fill="black"/>
<path d="M353.91 136.28H405.06V135.2H353.91V136.28Z" fill="#8ED16F"/>
<path d="M353.91 137.36H405.06V136.28H353.91V137.36Z" fill="#8ED16F"/>
<path opacity="0.1" d="M353.91 137.36H405.06V136.28H353.91V137.36Z" fill="black"/>
<path d="M347.426 179.293L365.753 182.696L372.386 146.977L354.059 143.573L347.426 179.293Z" fill="#8ED16F"/>
<path opacity="0.1" d="M363.917 163.946C364.688 159.792 363.632 156.112 361.558 155.727C359.484 155.342 357.177 158.397 356.406 162.551C355.634 166.705 356.69 170.385 358.765 170.77C360.839 171.155 363.146 168.1 363.917 163.946Z" fill="black"/>
<path d="M350.562 254.687L368.889 258.09L375.522 222.371L357.195 218.967L350.562 254.687Z" fill="#8ED16F"/>
<path opacity="0.1" d="M367.043 239.331C367.814 235.178 366.758 231.498 364.684 231.113C362.61 230.727 360.303 233.783 359.531 237.937C358.76 242.091 359.816 245.77 361.891 246.155C363.965 246.541 366.272 243.485 367.043 239.331Z" fill="black"/>
<path d="M356.277 69.3706L347.405 85.7642L379.357 103.055L388.228 86.6612L356.277 69.3706Z" fill="#8ED16F"/>
<path opacity="0.1" d="M377.66 90.588C378.673 88.7314 376.479 85.5824 372.762 83.5544C369.044 81.5264 365.209 81.3874 364.196 83.244C363.183 85.1005 365.376 88.2496 369.094 90.2776C372.812 92.3056 376.647 92.4445 377.66 90.588Z" fill="black"/>
<path d="M286.119 392.894L277.248 409.288L309.2 426.578L318.071 410.185L286.119 392.894Z" fill="#8ED16F"/>
<path opacity="0.1" d="M304.284 413.596C305.288 411.741 303.09 408.607 299.374 406.596C295.658 404.585 291.832 404.459 290.828 406.315C289.824 408.17 292.022 411.304 295.738 413.315C299.454 415.326 303.28 415.452 304.284 413.596Z" fill="black"/>
<path d="M243.194 125.912L234.322 142.305L266.274 159.596L275.145 143.202L243.194 125.912Z" fill="#8ED16F"/>
<path d="M372.35 146.599C373.354 144.744 371.156 141.609 367.44 139.598C363.725 137.588 359.898 137.462 358.894 139.317C357.89 141.173 360.088 144.307 363.804 146.318C367.52 148.329 371.346 148.454 372.35 146.599Z" fill="#8ED16F"/>
<path opacity="0.1" d="M261.35 146.599C262.354 144.744 260.156 141.609 256.44 139.598C252.725 137.588 248.898 137.462 247.894 139.317C246.89 141.173 249.088 144.307 252.804 146.318C256.52 148.329 260.346 148.454 261.35 146.599Z" fill="black"/>
<path d="M296.993 69.3664L288.122 85.7599L320.074 103.05L328.945 86.657L296.993 69.3664Z" fill="#8ED16F"/>
<path opacity="0.1" d="M315.149 90.0536C316.153 88.1981 313.955 85.0639 310.239 83.0531C306.523 81.0423 302.697 80.9164 301.693 82.7718C300.689 84.6273 302.887 87.7615 306.603 89.7723C310.319 91.7831 314.145 91.9091 315.149 90.0536Z" fill="black"/>
<path d="M350.706 136.086L332.177 138.112L336.126 174.227L354.655 172.201L350.706 136.086Z" fill="#8ED16F"/>
<path opacity="0.1" d="M344.002 162.792C346.1 162.563 347.427 158.972 346.968 154.772C346.509 150.572 344.437 147.353 342.339 147.583C340.242 147.812 338.914 151.403 339.373 155.603C339.833 159.803 341.905 163.021 344.002 162.792Z" fill="black"/>
<path d="M405.747 333.844L387.218 335.87L391.167 371.985L409.696 369.959L405.747 333.844Z" fill="#8ED16F"/>
<path d="M399.053 360.55C401.15 360.321 402.478 356.73 402.019 352.53C401.56 348.33 399.487 345.111 397.39 345.341C395.293 345.57 393.965 349.161 394.424 353.361C394.884 357.56 396.956 360.779 399.053 360.55Z" fill="#8ED16F"/>
<path opacity="0.1" d="M399.053 360.55C401.15 360.321 402.478 356.73 402.019 352.53C401.56 348.33 399.487 345.111 397.39 345.341C395.293 345.57 393.965 349.161 394.424 353.361C394.884 357.56 396.956 360.779 399.053 360.55Z" fill="black"/>
<path d="M278.15 212.803L269.278 229.197L301.23 246.488L310.101 230.094L278.15 212.803Z" fill="#8ED16F"/>
<path opacity="0.1" d="M296.3 233.504C297.304 231.649 295.105 228.514 291.39 226.504C287.674 224.493 283.848 224.367 282.843 226.222C281.839 228.078 284.038 231.212 287.753 233.223C291.469 235.234 295.295 235.36 296.3 233.504Z" fill="black"/>
<path d="M197.521 189.775L188.649 206.169L220.601 223.46L229.472 207.066L197.521 189.775Z" fill="#8ED16F"/>
<path opacity="0.1" d="M218.331 211.565C219.343 209.708 217.15 206.559 213.432 204.531C209.714 202.503 205.879 202.364 204.867 204.221C203.854 206.077 206.047 209.226 209.765 211.254C213.483 213.282 217.318 213.421 218.331 211.565Z" fill="black"/>
<defs>
<linearGradient id="paint0_linear_405_1495" x1="286.72" y1="579.57" x2="286.72" y2="224.46" gradientUnits="userSpaceOnUse">
<stop stop-color="#808080" stop-opacity="0.25"/>
<stop offset="0.54" stop-color="#808080" stop-opacity="0.12"/>
<stop offset="1" stop-color="#808080" stop-opacity="0.1"/>
</linearGradient>
<linearGradient id="paint1_linear_405_1495" x1="-642857" y1="418559" x2="-642857" y2="113615" gradientUnits="userSpaceOnUse">
<stop stop-color="#808080" stop-opacity="0.25"/>
<stop offset="0.54" stop-color="#808080" stop-opacity="0.12"/>
<stop offset="1" stop-color="#808080" stop-opacity="0.1"/>
</linearGradient>
</defs>
</svg>
