<svg width="519" height="529" viewBox="0 0 519 529" fill="none" xmlns="http://www.w3.org/2000/svg">
<path d="M367.446 371.685L359.997 374.62L420.666 528.561L428.115 525.626L367.446 371.685Z" fill="#E6E6E6"/>
<path d="M318.186 525.625L325.635 528.561L386.304 374.62L378.855 371.685L318.186 525.625Z" fill="#E6E6E6"/>
<path d="M370.037 399.821C399.27 399.821 422.968 390.66 422.968 379.36C422.968 368.06 399.27 358.899 370.037 358.899C340.804 358.899 317.106 368.06 317.106 379.36C317.106 390.66 340.804 399.821 370.037 399.821Z" fill="#E6E6E6"/>
<path d="M414.204 388.057L329.517 377.9C325.606 377.431 321.825 376.196 318.39 374.266C314.956 372.335 311.936 369.748 309.501 366.65C307.067 363.552 305.267 360.006 304.204 356.212C303.14 352.419 302.834 348.453 303.303 344.541C303.772 340.63 305.007 336.849 306.938 333.415C308.868 329.98 311.456 326.96 314.554 324.526C317.651 322.091 321.198 320.291 324.991 319.228C328.785 318.164 332.751 317.858 336.662 318.327L421.349 328.484C429.249 329.432 436.449 333.479 441.365 339.735C446.281 345.991 448.51 353.943 447.563 361.843C446.615 369.743 442.569 376.943 436.313 381.859C430.057 386.775 422.104 389.005 414.204 388.057V388.057Z" fill="#2F2E41"/>
<path d="M397.601 175.082L410.013 187.121L425.88 194.16C424.494 195.118 417.189 293.55 426.602 297.647C434.616 301.135 426.448 304.02 426.725 312.14C427.002 320.26 428.039 336.96 428.039 336.96C383.987 353.919 366.888 355.562 341.282 326.464C341.105 324.832 341.491 323.19 342.376 321.808C343.261 320.427 344.591 319.389 346.147 318.867C351.825 316.675 343.151 302.223 347.779 300.535C352.407 298.848 348.57 278.935 348.57 278.935L338.713 234.07L336.3 227.293L348.755 189.089L362.812 185.786L369.746 173.469L397.601 175.082Z" fill="#FF1457"/>
<path d="M231.641 266C232.989 264.894 234.564 264.098 236.253 263.667C237.942 263.235 239.706 263.179 241.419 263.503C243.132 263.827 244.753 264.523 246.169 265.541C247.584 266.559 248.759 267.875 249.61 269.397L291.335 261.964L282.623 282.191L244.336 286.149C241.685 287.41 238.664 287.655 235.845 286.837C233.025 286.02 230.604 284.197 229.039 281.713C227.474 279.229 226.875 276.258 227.354 273.362C227.834 270.466 229.359 267.847 231.641 266H231.641Z" fill="#A0616A"/>
<path d="M274.784 283.707C278.446 287.491 282.044 287.037 285.59 283.109L335.242 280.364L335.394 280.075C335.569 279.744 346.033 259.923 355.314 241.371C356.743 238.514 358.144 235.688 359.476 232.967C360.05 231.792 360.611 230.64 361.157 229.509C364.842 221.88 367.777 215.431 368.924 212.043C371.577 204.46 371.556 196.199 368.866 188.63L368.789 188.447L368.617 188.347C365.092 186.329 360.985 185.572 356.972 186.201C352.96 186.83 349.282 188.808 346.544 191.808C333.404 206.364 323.826 223.775 318.568 242.666L315.589 253.415L284.858 261.027C281.723 259.336 279.018 259.755 276.891 263.001L274.784 283.707Z" fill="#FF1457"/>
<path d="M323.024 487.289L333.569 496.911L375.701 460.815L360.137 446.614L323.024 487.289Z" fill="#FFB6B6"/>
<path d="M323.475 481.391L326.444 484.099L342.332 489.961L344.243 500.341L344.244 500.341C347.753 503.544 349.847 508.01 350.064 512.757C350.281 517.503 348.604 522.142 345.402 525.652L345.009 526.082L311.007 495.056L323.475 481.391Z" fill="#2F2E41"/>
<path d="M402.91 374.993L393.807 357.417C394.568 339.621 410.004 325.717 427.728 327.491C437.598 328.479 446.657 334.356 449.875 350.944C458.15 393.6 358.315 478.028 358.315 478.028L340.976 466.403L340.588 454.788L350.753 449.031L351.128 439.151L360.771 435.007L402.91 374.993Z" fill="#2F2E41"/>
<path d="M403.168 144.046C404.607 129.086 393.645 115.792 378.684 114.354C363.724 112.915 350.43 123.877 348.992 138.838C347.554 153.798 358.516 167.092 373.476 168.53C388.437 169.968 401.73 159.006 403.168 144.046Z" fill="#A0616A"/>
<path d="M397.99 484.62L386.075 492.482L350.08 450.264L367.666 438.661L397.99 484.62Z" fill="#FFB6B6"/>
<path d="M408.65 494.165L370.23 519.515L369.909 519.029C367.292 515.063 366.358 510.22 367.312 505.565C368.266 500.911 371.03 496.825 374.995 494.208L374.996 494.207L378.501 484.253L395.108 480.937L398.462 478.724L408.65 494.165Z" fill="#2F2E41"/>
<path d="M343.531 373.288L354.797 354.971C356.818 337.274 343.737 321.135 325.953 320.126C316.049 319.565 306.185 323.959 300.422 339.843C285.604 380.689 371.068 479.638 371.068 479.638L390.006 470.856L392.199 459.443L383.055 452.173L384.224 442.355L375.344 436.76L343.531 373.288Z" fill="#2F2E41"/>
<path d="M385.388 147.928C385.414 147.577 385.438 147.226 385.461 146.873C385.345 147.212 385.32 147.576 385.388 147.928V147.928Z" fill="#2F2E41"/>
<path d="M408.802 135.331C407.827 130.864 405.654 126.747 402.514 123.423C399.375 120.099 395.389 117.694 390.985 116.466C389.777 114.444 388.132 112.718 386.17 111.415C384.208 110.113 381.979 109.266 379.646 108.938C375.266 108.355 370.876 109.654 366.665 110.992C364.063 111.819 361.468 112.667 358.88 113.536C356.773 114.244 354.183 115.859 354.882 117.969C354.35 117.692 353.741 117.598 353.151 117.702C352.56 117.807 352.02 118.104 351.616 118.546C351.211 118.989 350.964 119.553 350.913 120.151C350.863 120.749 351.011 121.347 351.335 121.851C350.358 120.591 348.098 121.399 347.555 122.898C347.011 124.398 347.651 126.059 348.446 127.441C350.838 131.373 354.467 134.4 358.764 136.049C363.061 137.698 367.784 137.874 372.192 136.552C374.77 135.708 377.404 134.323 380.045 134.942C382.538 135.526 384.332 137.837 385.042 140.297C385.56 142.448 385.702 144.673 385.461 146.873C385.797 146.092 386.429 145.476 387.219 145.16C388.008 144.845 388.891 144.855 389.673 145.189C391.556 146.127 392.232 148.603 391.765 150.654C391.299 152.706 386.404 160.661 385.111 162.32C383.695 163.886 382.652 165.754 382.063 167.781C386.703 167.068 391.344 166.354 395.984 165.641L396.236 165.894C403.43 160.303 410.623 144.259 408.802 135.331Z" fill="#2F2E41"/>
<path d="M342.13 326.992C342.772 325.371 343.762 323.911 345.03 322.714C346.298 321.517 347.812 320.612 349.467 320.064C351.122 319.515 352.878 319.336 354.609 319.54C356.341 319.743 358.007 320.324 359.49 321.24L392.363 294.49L394.563 316.403L363.009 338.447C361.304 340.836 358.781 342.517 355.92 343.17C353.058 343.824 350.056 343.405 347.482 341.993C344.909 340.581 342.942 338.274 341.956 335.51C340.97 332.745 341.032 329.714 342.13 326.992L342.13 326.992Z" fill="#A0616A"/>
<path d="M394.141 320.467C398.102 321.884 401.165 320.831 402.416 314.797L439.681 289.266L439.674 288.939C444.534 288.563 443.423 216.699 435.968 213.184C434.607 205.267 430.579 198.054 424.554 192.742L424.397 192.619L424.198 192.616C420.137 192.562 416.179 193.893 412.976 196.391C409.773 198.889 407.517 202.403 406.58 206.355C402.156 225.459 402.233 245.33 406.805 264.399L409.418 275.243L393.151 289.013C388.655 287.836 386.662 289.645 386.991 294.227L394.141 320.467Z" fill="#FF1457"/>
<path d="M109.875 382.187L102.925 384.926L159.532 528.561L166.482 525.822L109.875 382.187Z" fill="#E6E6E6"/>
<path d="M63.9132 525.822L70.8633 528.561L127.471 384.926L120.521 382.187L63.9132 525.822Z" fill="#E6E6E6"/>
<path d="M112.293 408.439C139.569 408.439 161.68 399.892 161.68 389.348C161.68 378.805 139.569 370.257 112.293 370.257C85.0168 370.257 62.9053 378.805 62.9053 389.348C62.9053 399.892 85.0168 408.439 112.293 408.439Z" fill="#E6E6E6"/>
<path d="M82.3273 169.342C83.4466 176.343 87.3003 182.612 93.0411 186.773C98.7819 190.933 105.94 192.643 112.941 191.528C113.735 191.401 114.517 191.239 115.287 191.042C121.758 189.405 127.381 185.406 131.053 179.832C134.724 174.258 136.177 167.513 135.126 160.922C134.794 158.824 134.21 156.773 133.388 154.814C130.864 148.78 126.216 143.88 120.323 141.043C114.43 138.205 107.701 137.627 101.41 139.417C95.1191 141.207 89.7026 145.241 86.186 150.755C82.6693 156.27 81.2965 162.883 82.3273 169.342H82.3273Z" fill="#FFB6B6"/>
<path d="M226.462 507.338L238.469 503.768L230.527 454.687L212.806 459.957L226.462 507.338Z" fill="#FFB6B6"/>
<path d="M152.828 487.965C153.559 488.602 154.292 489.231 155.032 489.861C156.505 491.119 157.997 492.364 159.492 493.592C160.243 494.207 161.003 494.824 161.756 495.43L161.752 495.455L161.8 495.471L161.815 495.482L163.028 495.993L165.598 491.492L166.784 489.419L168.459 486.483L171.528 481.112L187.689 452.829L170.665 445.653L169.571 448.262L169.563 448.26L169.022 449.553L158.856 473.676L156.781 478.608L156.715 478.757L155.467 481.702L154.391 484.255L153.191 487.107L152.828 487.965Z" fill="#FFB6B6"/>
<path d="M63.8787 365.566C64.7162 367.547 65.5795 369.525 66.4537 371.487C68.077 375.139 69.7656 378.751 71.5192 382.323C71.5179 382.331 71.5261 382.333 71.533 382.342C72.6594 383.774 73.949 385.07 75.3755 386.203C75.4333 386.263 75.5019 386.307 75.561 386.359C76.6138 387.179 77.7638 387.866 78.985 388.405C79.426 388.593 79.875 388.781 80.316 388.969C81.9097 389.625 83.4961 390.221 85.0809 390.774C87.9012 391.75 90.7172 392.577 93.5287 393.255C93.7544 393.316 93.9813 393.369 94.2083 393.422C105.804 396.141 117.443 396.564 129.723 396.181C135.786 395.998 142.007 395.614 148.449 395.214C150.555 395.077 152.667 394.949 154.805 394.826C154.966 394.817 155.136 394.802 155.305 394.796C158.359 394.615 161.461 394.451 164.635 394.307C168.631 394.124 172.745 393.986 177.009 393.914L175.788 399.712C174.83 404.17 173.194 408.454 170.936 412.415C168.344 417.316 166.293 421.193 167.901 430.196L168.673 434.554C167.609 436.488 167.007 438.643 166.916 440.85C166.824 443.056 167.246 445.253 168.146 447.269L168.365 447.749L151.702 475.961L150.623 477.79L156.714 478.755L164.206 479.95L176.905 481.961L201.05 448.103L202.205 446.487L202.22 446.397L211.515 375.453C211.589 374.826 211.64 374.187 211.656 373.551C211.771 370.666 211.31 367.786 210.3 365.081C209.29 362.376 207.751 359.899 205.773 357.795C203.881 355.764 201.603 354.131 199.073 352.988C196.543 351.846 193.811 351.218 191.036 351.141L184.636 350.959L171.56 350.586L162.348 350.328L162.164 350.324L134.999 349.551L134.322 341.461L133.991 341.274L123.434 335.391L86.9235 315.044L86.8303 314.996L84.4287 313.658L84.0475 314.102C83.9339 314.235 83.8204 314.368 83.715 314.503C80.4795 318.621 77.673 323.06 75.3393 327.748C71.4527 335.396 68.0047 343.259 65.0122 351.299C64.8813 351.648 64.7637 351.966 64.6596 352.252L64.6207 352.338C64.5741 352.473 64.5434 352.561 64.5313 352.584C63.0482 356.165 62.9519 360.805 63.8787 365.566Z" fill="#2F2E41"/>
<path d="M66.3663 339.273C66.5724 338.767 66.8126 338.259 67.0583 337.769C68.9794 334.063 71.1034 330.466 73.4206 326.994C76.0306 323.037 79.0739 318.839 82.6197 314.333C84.3352 312.15 86.1669 309.889 88.1149 307.547C89.0907 306.374 90.1004 305.181 91.1441 303.968C91.1864 303.911 91.2315 303.857 91.2793 303.804L91.5793 303.448L129.118 314.655L140.099 318.795L142.822 326.078L142.748 327.873C142.756 327.875 142.756 327.875 142.746 327.882L142.559 332.776L142.558 332.785L142.315 339.251L142.382 339.253L164.01 339.863L186.298 340.494L198.269 340.836C201.044 340.912 203.776 341.54 206.306 342.682C208.837 343.824 211.114 345.458 213.006 347.489C214.984 349.594 216.522 352.071 217.532 354.776C218.542 357.481 219.004 360.36 218.889 363.246C218.872 363.831 218.828 364.429 218.76 365.015L225.674 392.994C229.813 409.728 231.402 426.99 230.388 444.198L234.395 471.431L233.222 471.354L215.769 470.228L211.16 469.935L203.471 453.75C202.595 451.905 201.784 450.021 201.053 448.107C199.847 444.978 198.841 441.776 198.042 438.52L184.562 383.608C182.844 383.631 181.144 383.641 179.464 383.641C171.685 383.67 164.247 383.52 157.147 383.191C134.061 382.131 114.387 379.217 97.2408 374.299C92.4249 372.923 87.8028 371.384 83.3745 369.682C81.7496 369.064 80.151 368.421 78.5786 367.755C78.2076 367.604 77.8448 367.454 77.4832 367.296C74.2335 365.885 71.3894 363.682 69.2112 360.888C67.0331 358.094 65.5904 354.799 65.0154 351.303C64.3104 347.246 64.7791 343.072 66.3663 339.273V339.273Z" fill="#2F2E41"/>
<path d="M224.104 499.155L237.096 495.28L239.134 494.67L240.983 502.577L261.365 510.57C262.373 510.964 263.229 511.671 263.807 512.586C264.384 513.501 264.655 514.577 264.578 515.656C264.5 516.736 264.08 517.763 263.378 518.586C262.676 519.41 261.729 519.987 260.675 520.234L238.706 525.386L233.09 518.454L233.443 526.619L225.169 528.561L220.945 500.101L224.104 499.155Z" fill="#2F2E41"/>
<path d="M151.702 475.961L150.622 477.79L151.393 477.912L151.702 475.961Z" fill="#2F2E41"/>
<path d="M155.532 478.995L167.491 485.384L169.368 486.384L165.119 493.303L173.978 513.324C174.416 514.314 174.527 515.418 174.294 516.474C174.061 517.531 173.496 518.486 172.681 519.199C171.867 519.912 170.846 520.345 169.768 520.437C168.689 520.528 167.61 520.272 166.687 519.706L147.452 507.909L148.339 499.031L142.844 505.082L135.599 500.64L152.623 477.445L155.532 478.995Z" fill="#2F2E41"/>
<path d="M239.176 323.837C237.904 324.227 236.562 324.332 235.245 324.147C233.928 323.962 232.667 323.49 231.552 322.765C230.437 322.04 229.494 321.079 228.791 319.95C228.087 318.822 227.639 317.552 227.479 316.232L195.878 309.384L207.889 297.634L236.057 305.938C238.293 305.816 240.496 306.519 242.249 307.913C244.002 309.307 245.182 311.296 245.567 313.502C245.951 315.708 245.513 317.979 244.335 319.884C243.158 321.789 241.322 323.195 239.176 323.837V323.837Z" fill="#FFB6B6"/>
<path d="M146.365 309.074L88.0318 259.225C83.4123 255.269 80.5508 249.641 80.0752 243.578C79.5997 237.514 81.5489 231.51 85.4952 226.882V226.882C87.6829 224.322 90.4073 222.275 93.4751 220.887C96.5428 219.498 99.8786 218.802 103.246 218.847C106.613 218.893 109.928 219.679 112.957 221.151C115.986 222.622 118.654 224.742 120.772 227.36L163.61 280.33L221.068 295.842L219.578 314.822L146.365 309.074Z" fill="#FF1457"/>
<path d="M78.3348 257.897L77.0993 303.141C60.0972 331.866 58.1634 345.814 62.8696 353.251L141.78 326.713L142.958 323.9L137.609 304.684L144.228 283.826C145.393 281.646 161.215 268.256 146.383 242.856L116.545 202.66L105.758 201.792C101.816 211.908 95.8057 216.927 88.7044 219.26C72.6461 233.978 75.005 236.373 78.3348 257.897Z" fill="#FF1457"/>
<path d="M138.596 150.064C138.181 151.239 137.529 152.316 136.679 153.227C135.829 154.138 134.801 154.864 133.658 155.36C131.834 153.64 129.862 152.084 127.764 150.712C128.676 152.563 129.423 154.49 129.997 156.472C129.956 156.481 129.923 156.481 129.881 156.489C126.096 156.995 122.294 156.057 118.593 155.128L119.107 155.601C119.139 158.568 118.323 161.483 116.756 164.003C115.188 166.523 112.935 168.544 110.259 169.828C107.296 171.189 103.386 172.135 102.656 175.306C102.008 178.112 104.44 180.627 106.781 182.295C109.122 183.963 111.861 185.789 112.243 188.645C112.857 193.293 106.897 196.24 105.885 200.813C105.005 204.731 108.034 208.466 111.363 210.707C114.691 212.948 118.609 214.492 121.182 217.58C125.739 223.05 124.27 231.774 119.572 237.127C119.064 237.71 118.52 238.262 117.945 238.779C116.659 237.154 115.252 235.628 113.737 234.214C111.914 232.493 109.941 230.938 107.844 229.566C108.755 231.417 109.502 233.344 110.076 235.326C110.826 237.869 111.302 240.485 111.496 243.128C108.112 244.735 104.563 245.968 100.913 246.806C91.7215 249.055 82.2641 250.027 72.8075 249.694C68.4879 249.627 64.1936 249.019 60.025 247.885C61.9334 241.855 62.4916 235.479 61.6601 229.209C59.2956 234.718 55.6367 239.576 50.9941 243.369C47.1012 240.306 44.2126 235.965 43.7313 231.076C43.1419 225.067 46.1633 219.323 49.5166 214.301C52.8783 209.28 56.7463 204.382 58.2237 198.53C60.3819 189.998 57.0866 181.125 56.6632 172.334C56.3951 166.807 57.2713 161.283 59.2369 156.109C61.2026 150.936 64.2152 146.224 68.0863 142.269C71.9574 138.313 76.6035 135.2 81.7336 133.124C86.8637 131.047 92.3672 130.052 97.8996 130.202C102.887 130.494 107.836 131.25 112.683 132.459C115.314 133.024 117.937 133.596 120.568 134.161C123.822 134.764 127.012 135.67 130.097 136.867C132.786 137.917 135.149 139.661 136.945 141.922C137.828 143.061 138.436 144.388 138.722 145.8C139.009 147.212 138.966 148.672 138.596 150.064Z" fill="#2F2E41"/>
<path d="M485.065 315.975H34.1836V315.475C34.1898 310.061 36.3432 304.87 40.1715 301.042C43.9999 297.213 49.1904 295.06 54.6045 295.054H464.644C470.058 295.06 475.249 297.213 479.077 301.042C482.905 304.87 485.059 310.061 485.065 315.475V315.975Z" fill="#CCCCCC"/>
<path d="M518.419 525.945L511.469 528.795L454.861 312.824L461.812 309.973L518.419 525.945Z" fill="#CCCCCC"/>
<path d="M415.85 525.945L422.8 528.795L479.407 312.824L472.457 309.973L415.85 525.945Z" fill="#CCCCCC"/>
<path d="M102.569 525.945L95.6187 528.795L39.0117 312.824L45.9617 309.973L102.569 525.945Z" fill="#CCCCCC"/>
<path d="M0 525.945L6.95 528.795L63.557 312.824L56.607 309.973L0 525.945Z" fill="#CCCCCC"/>
<path d="M311.066 279.249C311.201 278.843 311.248 278.412 311.203 277.987C311.157 277.561 311.022 277.15 310.804 276.781C310.587 276.412 310.293 276.095 309.942 275.849C309.592 275.603 309.192 275.436 308.772 275.357C308.616 275.324 308.457 275.304 308.298 275.298L289.109 274.803C288.679 274.799 288.252 274.884 287.857 275.055C287.461 275.226 287.106 275.477 286.814 275.793C286.545 275.736 286.271 275.707 285.996 275.708C285.399 275.693 284.804 275.795 284.246 276.009C283.688 276.224 283.177 276.546 282.744 276.958C282.311 277.37 281.963 277.863 281.72 278.409C281.477 278.956 281.345 279.544 281.33 280.142C281.315 280.74 281.417 281.334 281.632 281.892C281.847 282.45 282.17 282.96 282.582 283.393C282.995 283.826 283.488 284.174 284.035 284.416C284.581 284.658 285.17 284.79 285.768 284.804C286.455 284.818 287.137 284.678 287.764 284.394L289.529 303.271C289.699 303.892 290.065 304.441 290.573 304.836C291.08 305.231 291.702 305.452 292.345 305.464L304.82 305.785C305.459 305.797 306.085 305.605 306.608 305.239C307.131 304.873 307.524 304.35 307.732 303.746L311.066 279.249ZM285.808 283.502C284.947 283.48 284.13 283.117 283.536 282.492C282.942 281.868 282.62 281.034 282.64 280.173C282.66 279.312 283.021 278.494 283.643 277.898C284.266 277.303 285.099 276.978 285.96 276.996C286.021 276.996 286.075 277.025 286.136 277.025C285.999 277.546 286.003 278.095 286.145 278.614L287.402 283.113C286.916 283.385 286.365 283.52 285.808 283.502V283.502Z" fill="#FF1457"/>
<path d="M308.771 275.357C308.362 277.695 303.766 279.338 298.239 279.052C293.157 278.818 289.002 277.034 288.24 274.919C288.522 274.835 288.815 274.796 289.109 274.803L308.298 275.298C308.457 275.304 308.616 275.324 308.771 275.357Z" fill="white"/>
<path d="M247.153 271.778C247.288 271.372 247.335 270.942 247.289 270.516C247.244 270.09 247.108 269.679 246.891 269.311C246.673 268.942 246.379 268.624 246.029 268.378C245.678 268.133 245.279 267.965 244.858 267.887C244.703 267.853 244.544 267.834 244.385 267.828L225.196 267.332C224.765 267.328 224.339 267.414 223.943 267.585C223.548 267.755 223.193 268.007 222.901 268.323C222.632 268.265 222.358 268.237 222.083 268.238C220.878 268.209 219.71 268.659 218.836 269.491C217.963 270.322 217.456 271.466 217.425 272.672C217.395 273.877 217.845 275.045 218.675 275.919C219.506 276.794 220.649 277.302 221.855 277.334C222.542 277.348 223.224 277.208 223.85 276.924L225.616 295.801C225.785 296.421 226.152 296.97 226.659 297.366C227.167 297.761 227.789 297.981 228.432 297.994L240.907 298.315C241.545 298.326 242.171 298.135 242.694 297.768C243.217 297.402 243.611 296.879 243.818 296.275L247.153 271.778ZM221.894 276.032C221.033 276.009 220.216 275.646 219.622 275.022C219.029 274.398 218.706 273.564 218.727 272.703C218.747 271.841 219.108 271.023 219.73 270.428C220.352 269.832 221.186 269.508 222.047 269.525C222.108 269.526 222.162 269.554 222.223 269.555C222.086 270.076 222.089 270.624 222.232 271.144L223.488 275.642C223.002 275.914 222.451 276.049 221.894 276.032V276.032Z" fill="#FF1457"/>
<path d="M244.858 267.887C244.449 270.224 239.853 271.868 234.326 271.582C229.244 271.348 225.088 269.563 224.327 267.448C224.609 267.365 224.902 267.326 225.196 267.333L244.385 267.828C244.544 267.834 244.702 267.854 244.858 267.887V267.887Z" fill="white"/>
<path d="M237.745 303.601C236.521 304.122 235.198 304.368 233.868 304.323C232.539 304.277 231.235 303.94 230.05 303.336C228.865 302.732 227.827 301.876 227.008 300.827C226.19 299.778 225.612 298.563 225.314 297.266L193.168 293.776L203.879 280.829L232.763 286.129C234.974 285.773 237.239 286.24 239.128 287.442C241.018 288.645 242.4 290.498 243.015 292.652C243.629 294.806 243.431 297.11 242.46 299.128C241.489 301.146 239.811 302.738 237.745 303.601V303.601Z" fill="#FFB6B6"/>
<path d="M143.896 298.668L80.6504 255.22C75.6409 251.771 72.2043 246.476 71.0946 240.496C69.9848 234.516 71.2926 228.34 74.731 223.323V223.323C76.6378 220.547 79.1322 218.226 82.0371 216.522C84.9421 214.819 88.1863 213.777 91.5395 213.469C94.8927 213.16 98.2727 213.594 101.439 214.739C104.606 215.884 107.482 217.712 109.863 220.093L158.027 268.271L216.797 277.663L217.308 296.694L143.896 298.668Z" fill="#FF1457"/>
<path d="M232.938 71.28C252.621 71.28 268.578 55.3234 268.578 35.64C268.578 15.9566 252.621 0 232.938 0C213.254 0 197.298 15.9566 197.298 35.64C197.298 55.3234 213.254 71.28 232.938 71.28Z" fill="#FD6584"/>
<path d="M312.708 18.7659C310.647 11.8611 304.823 7.35348 297.786 6.3646C297.709 6.35369 297.635 6.36811 297.558 6.36314C297.459 6.33268 297.357 6.30927 297.254 6.29307C287.286 5.07819 277.2 7.2736 268.638 12.5219C260.389 17.6719 250.778 20.0012 241.06 20.3796C241.003 20.3818 240.945 20.3844 240.888 20.3872C237.276 20.6279 233.826 21.9759 231.008 24.2476C228.189 26.5193 226.139 29.6044 225.137 33.0829C225.03 33.5087 225.062 33.9574 225.228 34.3639C225.393 34.7704 225.684 35.1138 226.057 35.344C227.134 36.2563 228.409 36.9036 229.781 37.2341C232.741 37.8612 235.711 38.4356 238.692 38.9574C244.509 39.9754 250.357 40.7984 256.234 41.4264C268.165 42.705 280.171 43.1588 292.164 42.7845C296.159 42.66 300.011 42.5275 303.671 40.7645C306.334 39.4494 308.608 37.4643 310.272 35.0042C311.839 32.6396 312.869 29.9605 313.29 27.1551C313.711 24.3497 313.513 21.4862 312.708 18.7659V18.7659Z" fill="#CCCCCC"/>
<path d="M238.633 66.2858C236.571 59.3811 230.748 54.8735 223.711 53.8846C223.633 53.8737 223.56 53.8881 223.483 53.8831C223.383 53.8527 223.282 53.8293 223.179 53.8131C213.211 52.5982 203.124 54.7937 194.563 60.0421C186.314 65.192 176.703 67.5216 166.986 67.8997C166.928 67.9019 166.87 67.9044 166.813 67.9073C163.201 68.148 159.751 69.496 156.932 71.7677C154.114 74.0394 152.064 77.1245 151.062 80.603C150.955 81.0288 150.987 81.4774 151.152 81.884C151.318 82.2905 151.609 82.6338 151.982 82.8641C153.059 83.7764 154.334 84.4237 155.706 84.7542C158.666 85.3812 161.636 85.9556 164.617 86.4775C170.434 87.4954 176.281 88.3184 182.159 88.9465C194.09 90.2251 206.095 90.6789 218.089 90.3046C222.084 90.1801 225.936 90.0475 229.596 88.2845C232.258 86.9693 234.533 84.9842 236.197 82.5242C237.764 80.1596 238.794 77.4805 239.215 74.6751C239.636 71.8697 239.437 69.0062 238.633 66.2858V66.2858Z" fill="#CCCCCC"/>
</svg>
