<svg width="725" height="725" viewBox="0 0 725 725" fill="none" xmlns="http://www.w3.org/2000/svg">
<path d="M362.94 724.41C562.867 724.41 724.94 562.337 724.94 362.41C724.94 162.483 562.867 0.409912 362.94 0.409912C163.013 0.409912 0.939941 162.483 0.939941 362.41C0.939941 562.337 163.013 724.41 362.94 724.41Z" fill="url(#paint0_linear_400_767)"/>
<path d="M362.94 718.41C559.553 718.41 718.94 559.023 718.94 362.41C718.94 165.797 559.553 6.40991 362.94 6.40991C166.327 6.40991 6.93994 165.797 6.93994 362.41C6.93994 559.023 166.327 718.41 362.94 718.41Z" fill="#F9A826"/>
<path d="M362.94 645.41C519.237 645.41 645.94 518.706 645.94 362.41C645.94 206.113 519.237 79.4099 362.94 79.4099C206.643 79.4099 79.9399 206.113 79.9399 362.41C79.9399 518.706 206.643 645.41 362.94 645.41Z" fill="#DDE1EC"/>
<path opacity="0.3" d="M370.94 129.41H354.94V379.41H370.94V129.41Z" fill="#535461"/>
<g opacity="0.1">
<path opacity="0.1" d="M605.94 356.41H379.94V376.41H605.94V356.41Z" fill="black"/>
<path opacity="0.1" d="M220.382 281.584L211.104 299.302L353.305 373.769L362.583 356.052L220.382 281.584Z" fill="black"/>
<path opacity="0.1" d="M362.94 396.41C379.509 396.41 392.94 382.979 392.94 366.41C392.94 349.842 379.509 336.41 362.94 336.41C346.372 336.41 332.94 349.842 332.94 366.41C332.94 382.979 346.372 396.41 362.94 396.41Z" fill="black"/>
</g>
<path d="M605.94 352.41H379.94V372.41H605.94V352.41Z" fill="#535461"/>
<path d="M362.649 352.075L220.447 277.607L211.169 295.325L353.37 369.792L362.649 352.075Z" fill="#535461"/>
<path d="M362.94 392.41C379.508 392.41 392.94 378.978 392.94 362.41C392.94 345.841 379.508 332.41 362.94 332.41C346.371 332.41 332.94 345.841 332.94 362.41C332.94 378.978 346.371 392.41 362.94 392.41Z" fill="#535461"/>
<g opacity="0.1">
<path opacity="0.1" d="M101.92 396.41C101.92 240.11 228.62 113.41 384.92 113.41C428.79 113.371 472.066 123.548 511.32 143.133C550.575 162.719 584.73 191.176 611.08 226.25C562.92 138.73 469.92 79.4099 362.92 79.4099C206.62 79.4099 79.9202 206.11 79.9202 362.41C79.8283 423.812 99.7979 483.562 136.79 532.57C113.849 490.858 101.853 444.014 101.92 396.41V396.41Z" fill="black"/>
</g>
<path d="M624.42 154.23C621.06 151 592.78 172.23 592.78 172.23C592.78 172.23 582.71 174.07 585.11 180.98C587.51 187.89 574.56 226.59 574.56 226.59L569.29 219.22C569.8 210.57 567.42 204.44 565.1 200.62C564.91 200.31 564.72 200.01 564.53 199.73L565.45 199.41C565.1 194.69 557.55 187.5 553.54 183.98C553.54 183.47 553.54 182.98 553.54 182.46C553.79 176.82 556.05 170.87 553.54 165.76C550.7 159.93 542.39 157 541.69 150.6C541.27 146.78 543.85 143.33 544.99 139.65C547.71 130.85 542.06 121.87 536.66 114.29C534.831 111.448 532.605 108.882 530.05 106.67C527.616 104.891 524.943 103.463 522.11 102.43C514.2 99.2301 506.11 97.6201 497.95 95.4301C490.12 93.3501 482.9 92.3601 474.95 94.9701C473.063 95.4788 471.341 96.4676 469.95 97.8401C468.06 99.9601 467.81 102.98 466.57 105.51C464.57 109.58 460.26 112.01 456.45 114.62C452.64 117.23 448.82 120.81 448.8 125.31C448.8 131.7 456.1 135.72 458.54 141.67C460.82 147.21 458.54 153.38 457.27 159.22C456.739 161.108 456.688 163.098 457.12 165.01C457.624 166.435 458.383 167.757 459.36 168.91C460.87 170.91 462.49 172.77 464.1 174.67L463.36 174.96C449.94 173.58 441.31 190.62 441.31 190.62C441.93 190.75 442.52 190.9 443.1 191.07L442.53 191.81C438.475 197.076 435.161 202.874 432.68 209.04L421.68 223.78C421.68 223.78 419.28 186.92 425.04 178.63C430.8 170.34 419.77 165.27 419.77 165.27C419.77 165.27 395.77 138.55 392.44 140.85C389.11 143.15 400.59 172.18 410.66 176.79C410.66 176.79 411.66 186 409.66 191.99C408.45 195.78 401.99 235.76 401.99 235.76C401.99 235.76 396.24 269.39 422.61 252.76C439.74 241.98 450.81 223.42 456.45 211.76C456.843 210.94 457.213 210.157 457.56 209.41C457.821 210.647 457.998 211.9 458.09 213.16L459.09 251.69C459.343 261.22 457.263 270.668 453.03 279.21L441.28 303.04L442.59 303.44L441.8 304.58C434.06 315.97 420.9 341.58 447.99 354.63L483.99 359.24L482.07 368.45C482.07 368.45 467.21 396.55 462.89 415.9C460.207 427.75 456.016 439.206 450.42 449.99L451.53 450.58C451.3 450.84 451.06 451.11 450.83 451.39C448.647 453.845 447.205 456.869 446.67 460.11L441.79 467.03C441.79 467.03 439.87 495.59 443.71 502.51C445.81 506.29 452.78 508.69 458.71 510.09C467.51 512.18 474.61 503.09 469.94 495.6L469.88 495.5H469.79C468.79 490.85 465.73 476.42 466.73 470.94C467.01 469.38 467.27 467.83 467.4 466.25C467.641 464.174 468.272 462.162 469.26 460.32C469.42 460.01 469.59 459.71 469.76 459.41L470.28 459.63C471.89 460.32 473.48 460.97 474.99 461.54C472.65 463.67 470.99 468.08 472.99 477.15C472.99 477.15 473.18 499.84 474.91 503.41C476.64 506.98 496 511.7 499.36 508.02C502.72 504.34 497.2 491.66 497.2 491.66L497.03 491.78C495.92 484.43 494.55 471.27 497.92 466.09C499.28 464 500.6 461.84 501.78 459.82L502.51 458.57C508.77 461.69 515.39 464.04 519.01 462.41C519.01 462.41 534.83 425.55 533.87 420.95C532.91 416.35 558.32 364.28 558.32 364.28C558.32 364.28 579.89 340.28 553.53 323.74C545.16 318.47 539.06 314.93 534.63 312.54L530.92 293.14C529.013 282.97 529.354 272.505 531.92 262.48L535.92 247.22L536.25 245.92C536.25 245.92 546.32 225.19 545.84 215.51C545.803 214.758 545.887 214.005 546.09 213.28C546.2 213.74 546.32 214.22 546.45 214.72C549.096 224.781 552.581 234.602 556.87 244.08C564.52 261.34 575.87 259.97 582.09 257.52C583.421 257.005 584.604 256.167 585.531 255.081C586.458 253.995 587.1 252.696 587.4 251.3C589.64 240.56 595.79 210.47 596.18 202.16C596.529 195.662 597.331 189.196 598.58 182.81C614.36 173.58 627.78 157.46 624.42 154.23Z" fill="url(#paint1_linear_400_767)"/>
<path d="M507.03 449.45C507.03 449.45 504.92 453.68 502.03 458.76C500.9 460.76 499.64 462.91 498.35 464.98C493.78 472.29 498.35 495.58 498.35 495.58L488.35 496.95L478.35 491.95L476.52 475.05V462.69L487.92 449.94L492.92 444.42L507.03 449.45Z" fill="#F8BDC5"/>
<g opacity="0.1">
<path opacity="0.1" d="M507.03 449.45C507.03 449.45 504.92 453.68 502.03 458.76C497.615 456.401 493.347 453.776 489.25 450.9L488.37 450.28L487.9 449.94L492.9 444.42L507.03 449.45Z" fill="black"/>
</g>
<path d="M555.92 364.03C555.92 364.03 531.71 415.64 532.63 420.21C533.55 424.78 518.47 461.32 518.47 461.32C515.03 462.94 508.71 460.61 502.75 457.52C498.256 455.125 493.914 452.453 489.75 449.52L488.87 448.9L488.34 448.52L528.08 338.44L492.92 312.65L490.32 310.74L474.6 299.14L522.6 307.82C522.6 307.82 524.27 307.61 533.1 312.55C537.34 314.92 543.23 318.47 551.37 323.81C576.46 340.28 555.92 364.03 555.92 364.03Z" fill="#5E52AD"/>
<g opacity="0.03">
<path opacity="0.03" d="M555.92 364.03C555.92 364.03 531.71 415.64 532.63 420.21C533.55 424.78 518.47 461.32 518.47 461.32C515.03 462.94 508.71 460.61 502.75 457.52C498.256 455.125 493.914 452.453 489.75 449.52L488.87 448.9L488.34 448.52L528.08 338.44L492.92 312.65L490.32 310.74L474.6 299.14L522.6 307.82C522.6 307.82 524.27 307.61 533.1 312.55C537.34 314.92 543.23 318.47 551.37 323.81C576.46 340.28 555.92 364.03 555.92 364.03Z" fill="black"/>
</g>
<path d="M482.37 458.58C482.37 458.58 470.49 456.75 474.61 475.94C474.61 475.94 474.79 498.44 476.44 501.94C478.09 505.44 496.54 510.16 499.73 506.51C502.92 502.86 497.67 490.3 497.67 490.3C497.67 490.3 484.2 500.12 480.54 489.61C476.88 479.1 482.37 458.58 482.37 458.58Z" fill="#5D3E53"/>
<path d="M474.14 454.93C472.844 456.164 471.789 457.629 471.03 459.25C470.087 461.086 469.487 463.079 469.26 465.13C469.14 466.69 468.89 468.24 468.63 469.78C467.49 476.29 471.86 495.58 471.86 495.58L454.5 498.32L448.11 491.47L446.74 476.4C448.446 471.233 449.369 465.84 449.48 460.4C449.48 456.47 451.48 452.96 453.48 450.4C454.836 448.692 456.39 447.151 458.11 445.81C458.11 445.81 477.8 451.73 474.14 454.93Z" fill="#F8BDC5"/>
<g opacity="0.1">
<path opacity="0.1" d="M474.14 454.93C472.844 456.164 471.789 457.629 471.03 459.25C463.92 456.04 456.45 451.99 453.73 450.49L453.52 450.38C454.876 448.672 456.43 447.131 458.15 445.79C458.15 445.79 477.8 451.73 474.14 454.93Z" fill="black"/>
</g>
<path d="M530.33 350.33C530.33 350.33 518.92 371.8 511.6 389.61C506.8 401.31 496.88 429.17 490.6 446.91L489.68 449.53C486.92 457.38 485.08 462.69 485.08 462.69C483.863 462.698 482.652 462.519 481.49 462.16C480.41 461.87 479.2 461.48 477.91 461L476.46 460.45C475.02 459.89 473.46 459.24 471.97 458.56C464.71 455.32 456.97 451.1 454.16 449.56L453.1 448.97C458.46 438.232 462.46 426.868 465.01 415.14C469.12 395.96 483.28 368.14 483.28 368.14L485.11 359L450.85 354.43C425.04 341.53 437.58 316.1 444.95 304.81C446.207 302.85 447.565 300.958 449.02 299.14L476.43 305.14C476.43 305.14 480.75 306.52 490.35 310.77L494.76 312.77C500.14 315.24 506.76 318.42 514.76 322.5C541.74 336.14 530.33 350.33 530.33 350.33Z" fill="#5E52AD"/>
<path d="M471.69 494.21C472.668 495.857 473.136 497.756 473.036 499.669C472.935 501.581 472.271 503.421 471.127 504.957C469.983 506.493 468.409 507.655 466.606 508.298C464.802 508.941 462.848 509.036 460.99 508.57C455.38 507.18 448.73 504.8 446.73 501.05C443.08 494.2 444.9 465.88 444.9 465.88L449.7 458.8C449.7 458.8 447.19 490.09 453.13 492.8C459.07 495.51 471.63 494.07 471.63 494.07L471.69 494.21Z" fill="#5D3E53"/>
<path d="M476.55 96.9999C474.726 97.5076 473.069 98.4912 471.75 99.8499C469.95 101.95 469.75 104.95 468.53 107.46C466.63 111.46 462.53 113.91 458.89 116.46C455.25 119.01 451.62 122.6 451.6 127.06C451.6 133.4 458.6 137.38 460.88 143.27C463.05 148.77 460.88 154.88 459.67 160.67C459.166 162.545 459.118 164.513 459.53 166.41C460.007 167.817 460.732 169.128 461.67 170.28C466.08 176.28 471.56 181.6 474.51 188.43C476.75 193.62 477.37 199.35 477.96 204.98C478.81 213.08 479.66 221.33 478.12 229.33C477.97 229.808 477.97 230.321 478.12 230.8C478.382 231.259 478.796 231.612 479.29 231.8C482.2 233.214 485.366 234.025 488.597 234.184C491.828 234.343 495.058 233.847 498.093 232.726C501.128 231.605 503.905 229.883 506.257 227.661C508.609 225.44 510.488 222.766 511.78 219.8C513.78 215.27 514.55 209.8 518.51 206.86C518.972 206.478 519.528 206.226 520.12 206.13C521.054 206.156 521.959 206.458 522.72 207C527.86 209.78 534.09 209.86 539.82 208.72C543.28 208.03 546.82 206.8 549.11 204.1C553.62 198.74 551.11 190.73 551.41 183.74C551.65 178.15 553.8 172.25 551.41 167.19C548.71 161.41 540.78 158.51 540.12 152.19C539.72 148.41 542.18 144.98 543.27 141.34C545.86 132.61 540.48 123.71 535.34 116.2C533.611 113.398 531.493 110.856 529.05 108.65C526.745 106.894 524.199 105.48 521.49 104.45C513.96 101.28 506.28 99.6799 498.49 97.5199C491.03 95.3899 484.16 94.3999 476.55 96.9999Z" fill="#85555C"/>
<path d="M514.8 227.46H488.3V184.52C489.087 180.396 489.549 176.216 489.68 172.02C489.68 170.61 489.68 169.17 489.68 167.72C489.43 162.6 488.37 157.49 485.59 154.37C478.28 146.15 509.34 147.52 509.34 147.52C510.293 151.295 511.53 154.992 513.04 158.58C515.29 164.179 518.284 169.45 521.94 174.25C525.157 178.521 529.279 182.028 534.01 184.52C552.25 193.66 514.8 227.46 514.8 227.46Z" fill="#F8BDC5"/>
<g opacity="0.1">
<path opacity="0.1" d="M513.01 158.58C510.32 162.088 506.721 164.794 502.604 166.405C498.487 168.016 494.007 168.471 489.65 167.72C489.4 162.6 488.34 157.49 485.56 154.37C478.25 146.15 509.31 147.52 509.31 147.52C510.263 151.295 511.5 154.992 513.01 158.58V158.58Z" fill="black"/>
</g>
<path d="M493.78 166.72C507.151 166.72 517.99 155.881 517.99 142.51C517.99 129.139 507.151 118.3 493.78 118.3C480.409 118.3 469.57 129.139 469.57 142.51C469.57 155.881 480.409 166.72 493.78 166.72Z" fill="#F8BDC5"/>
<path d="M594.27 184.07C593.081 190.405 592.319 196.813 591.99 203.25C591.62 211.48 585.76 241.32 583.62 251.97C583.35 253.336 582.747 254.613 581.864 255.69C580.981 256.766 579.846 257.608 578.56 258.14C572.62 260.57 561.82 261.93 554.56 244.82C550.467 235.405 547.146 225.673 544.63 215.72C543.74 212.374 543.072 208.974 542.63 205.54L558.63 196.86C560.136 198.269 561.411 199.906 562.41 201.71C564.62 205.5 566.89 211.58 566.41 220.15L571.41 227.46C571.41 227.46 583.74 189.09 581.41 182.24C579.08 175.39 588.72 173.56 588.72 173.56C588.72 173.56 615.67 152.56 618.87 155.75C622.07 158.94 609.34 174.93 594.27 184.07Z" fill="#F8BDC5"/>
<path d="M463.18 202.34C461.931 205.913 460.496 209.418 458.88 212.84C453.5 224.41 442.96 242.84 426.64 253.5C401.52 269.94 407 236.6 407 236.6C407 236.6 413.15 196.96 414.31 193.21C416.14 187.27 415.22 178.14 415.22 178.14C405.63 173.57 394.67 144.8 397.86 142.51C401.05 140.22 423.86 166.72 423.86 166.72C423.86 166.72 434.37 171.72 428.86 179.97C423.35 188.22 425.66 224.73 425.66 224.73L436.23 210.14C438.581 204.052 441.739 198.307 445.62 193.06C447.62 190.33 449.02 188.68 449.02 188.68L463.18 202.34Z" fill="#F8BDC5"/>
<g opacity="0.1">
<path opacity="0.1" d="M562.42 201.71C559.06 202.95 546.05 208.2 544.61 215.71C543.72 212.364 543.052 208.964 542.61 205.53L558.61 196.85C560.127 198.26 561.413 199.9 562.42 201.71Z" fill="black"/>
</g>
<g opacity="0.1">
<path opacity="0.1" d="M463.18 202.34C461.932 205.913 460.496 209.418 458.88 212.84C458.26 208.32 455.71 196.76 445.62 193.03C447.62 190.3 449.02 188.65 449.02 188.65L463.18 202.34Z" fill="black"/>
</g>
<g opacity="0.1">
<path opacity="0.1" d="M514.8 227.46H488.3V184.52C489.087 180.396 489.549 176.216 489.68 172.02C495.13 177.28 493.78 185.43 493.78 185.43L507.94 217.43L514.8 189.14L512.52 185.49L521.92 174.31C525.137 178.581 529.258 182.089 533.99 184.58C552.25 193.66 514.8 227.46 514.8 227.46Z" fill="black"/>
</g>
<g opacity="0.1">
<path opacity="0.1" d="M533.52 315.14C533.52 315.14 512.76 313.49 494.75 312.71L492.94 312.63C490.38 312.53 487.94 312.45 485.55 312.39C468.07 311.97 448.3 305.86 444.94 304.79C446.2 302.837 447.562 300.951 449.02 299.14L476.43 305.14C476.43 305.14 480.75 306.52 490.35 310.77L474.6 299.14L522.6 307.82C522.6 307.82 524.27 307.61 533.1 312.55L533.52 315.14Z" fill="black"/>
</g>
<path d="M514.8 190.92L512.52 187.27L522.66 175.14C522.66 175.14 543.57 185.39 549.05 183.14C549.05 183.14 562.3 194.14 562.75 200.5C562.75 200.5 543.57 206.89 544.02 216.5C544.47 226.11 534.92 246.64 534.92 246.64L530.92 263.06C528.459 273.011 528.118 283.369 529.92 293.46L533.57 313.79C533.57 313.79 504.79 311.51 485.57 311.05C466.35 310.59 444.46 303.29 444.46 303.29L455.67 279.7C459.713 271.187 461.693 261.841 461.45 252.42L460.45 214.23C460.45 214.23 459.54 195.05 444.45 191.85C444.45 191.85 452.67 174.95 465.45 176.32C465.45 176.32 484.07 168.55 489.6 173.8C495.13 179.05 493.77 187.28 493.77 187.28L507.93 219.28L514.8 190.92Z" fill="#ED677B"/>
<g opacity="0.1">
<path opacity="0.1" d="M476.31 137.52C479.98 137.52 482.86 133.63 486.53 133.83C488.43 133.93 490.06 135.14 491.63 136.23C497.563 140.338 504.164 143.383 511.14 145.23C513.85 145.95 516.72 146.49 519.44 145.83C522.16 145.17 524.71 143.03 525.02 140.24C525.096 139.01 524.933 137.778 524.54 136.61C521.461 125.882 514.494 116.687 505 110.82C501.2 108.49 496.56 106.71 492.35 108.17C488.55 109.48 486.1 113.04 483.35 115.97C481.278 118.164 478.924 120.074 476.35 121.65C474.35 122.86 471.35 123.65 470.2 125.87C468.03 130.01 471.44 137.48 476.31 137.52Z" fill="black"/>
</g>
<path d="M476.31 136.61C479.98 136.61 482.86 132.72 486.53 132.92C488.43 133.02 490.06 134.23 491.63 135.32C497.563 139.428 504.164 142.473 511.14 144.32C513.85 145.04 516.72 145.58 519.44 144.92C522.16 144.26 524.71 142.12 525.02 139.33C525.096 138.1 524.933 136.868 524.54 135.7C521.461 124.972 514.494 115.777 505 109.91C501.2 107.58 496.56 105.8 492.35 107.26C488.55 108.57 486.1 112.13 483.35 115.06C481.278 117.254 478.924 119.164 476.35 120.74C474.35 121.95 471.35 122.74 470.2 124.96C468.03 129.14 471.44 136.56 476.31 136.61Z" fill="#85555C"/>
<path opacity="0.05" d="M465.24 240.93C465.24 240.93 487.62 249.15 502.24 242.76L509.55 243.22C509.55 243.22 521.7 251.74 534.55 247.93" fill="black"/>
<path opacity="0.05" d="M571.21 227.23C571.21 227.23 567.56 235.91 569.38 238.65Z" fill="black"/>
<path opacity="0.05" d="M425.5 224.49C425.5 224.49 427.33 233.17 425.5 235.91Z" fill="black"/>
<defs>
<linearGradient id="paint0_linear_400_767" x1="362.94" y1="724.41" x2="362.94" y2="0.409912" gradientUnits="userSpaceOnUse">
<stop stop-color="#808080" stop-opacity="0.25"/>
<stop offset="0.54" stop-color="#808080" stop-opacity="0.12"/>
<stop offset="1" stop-color="#808080" stop-opacity="0.1"/>
</linearGradient>
<linearGradient id="paint1_linear_400_767" x1="174844" y1="248739" x2="174844" y2="74843.8" gradientUnits="userSpaceOnUse">
<stop stop-color="#808080" stop-opacity="0.25"/>
<stop offset="0.54" stop-color="#808080" stop-opacity="0.12"/>
<stop offset="1" stop-color="#808080" stop-opacity="0.1"/>
</linearGradient>
</defs>
</svg>
