<svg width="1790" height="552" viewBox="0 0 1790 552" fill="none" xmlns="http://www.w3.org/2000/svg">
<g filter="url(#filter0_d_304_2993)">
<path d="M122.962 149.253L90.5725 167.875L90.5 178.744V189.614L114.485 195.99L138.397 202.367L143.976 198.816C147.02 196.86 152.237 193.889 155.497 192.295C158.758 190.628 161.584 188.744 161.802 188.019C162.888 184.324 173.758 143.021 173.975 141.862C174.12 140.775 172.381 139.398 165.859 135.558C161.294 132.877 157.019 130.63 156.439 130.63C155.86 130.558 140.788 138.963 122.962 149.253Z" fill="#FF1457"/>
<path d="M386.14 135.558C379.619 139.398 377.88 140.775 378.025 141.862C378.242 143.021 389.111 184.324 390.198 188.019C390.416 188.744 393.242 190.628 396.502 192.295C399.763 193.889 404.98 196.86 408.024 198.816L413.603 202.367L437.515 195.99L461.5 189.614V178.744L461.427 167.875L428.965 149.18C411.139 138.963 396.068 130.558 395.488 130.63C394.908 130.63 390.705 132.877 386.14 135.558Z" fill="#FF3D70"/>
<path d="M192.598 189.976C122.021 202.729 79.9208 274.103 102.456 342.506C105.282 350.984 112.311 364.679 117.89 372.577C123.977 381.2 136.73 394.026 145.063 399.895C175.062 420.981 213.684 426.995 248.465 415.909C255.131 413.807 265.856 409.242 265.856 408.59C265.856 408.373 263.827 406.634 261.29 404.677C254.044 398.953 247.885 392.939 242.233 386.2C239.335 382.722 236.726 379.461 236.364 378.881C235.857 377.939 235.06 378.012 230.35 379.316C226.002 380.475 222.669 380.765 213.321 380.838C199.989 380.91 193.829 379.678 182.743 374.896C152.672 361.925 133.614 330.043 136.875 298.015C140.281 265.045 162.381 239.466 195.351 230.409C203.394 228.163 222.307 228.163 230.35 230.409C253.899 236.785 271.58 250.988 281.435 271.349C291.144 291.566 291.869 313.014 283.536 333.956C281.869 338.086 281.797 338.593 282.811 340.477C284.623 344.028 292.159 352.506 296.941 356.346C302.376 360.694 311.144 365.621 312.52 365.114C313.97 364.534 321.071 349.535 323.679 341.636C331.578 317.869 331.505 290.696 323.39 267.291C309.694 227.728 278.246 199.903 236.726 190.628C226.727 188.382 203.322 188.019 192.598 189.976ZM166.222 214.975C169.7 218.38 168.758 220.047 159.773 226.206C132.382 244.829 116.803 275.987 118.253 309.174C118.905 323.521 122.673 337.723 128.977 349.317C131.368 353.81 131.585 356.273 129.846 358.23C128.325 359.897 124.412 359.897 122.89 358.23C121.223 356.346 115.572 344.173 113.398 337.796C108.978 324.463 107.094 308.015 108.543 295.044C112.166 262.437 128.615 235.119 155.28 217.438C158.831 215.12 162.381 213.163 163.106 213.163C163.831 213.163 165.28 213.96 166.222 214.975Z" fill="#FF1457"/>
<path d="M324.911 188.961C311.941 190.918 300.854 194.033 291.289 198.453L285.782 200.99L288.608 203.236C299.405 211.859 308.535 221.134 314.042 228.887C315.491 230.916 316.578 231.858 317.303 231.568C324.259 229.032 339.476 227.8 348.751 229.032C379.039 233.09 404.111 254.828 412.516 284.32C422.226 318.231 406.575 354.969 375.272 372.07C369.04 375.548 356.794 379.533 349.258 380.62C326.36 383.881 301.869 375.476 284.985 358.52C263.392 336.781 256.943 305.768 268.102 276.784C269.841 272.436 270.131 270.914 269.551 269.755C267.522 266.06 259.624 257.074 255.204 253.524C249.624 249.031 240.929 244.031 239.552 244.539C239.045 244.684 237.016 248.234 234.915 252.364C199.916 323.014 242.161 406.561 319.549 419.749C327.302 421.053 330.418 421.271 342.302 420.909C357.808 420.474 365.127 419.242 377.518 414.894C417.299 401.054 446.211 367.143 453.964 325.115C455.776 315.333 455.848 294.682 454.037 285.117C450.196 264.828 442.153 247.075 429.762 231.568C413.241 210.989 389.474 196.352 363.098 190.628C357.591 189.468 352.881 189.106 341.577 188.889C333.606 188.744 326.143 188.816 324.911 188.961ZM398.169 217.511C433.168 241.133 450.921 284.102 442.588 325.115C440.704 334.535 438.313 341.491 433.965 350.621C430.197 358.52 428.023 360.766 424.907 359.969C423.965 359.752 422.588 358.52 422.009 357.36C420.922 355.259 420.994 354.969 424.472 347.795C430.922 334.463 433.675 323.666 434.4 309.536C436.139 275.697 419.763 243.379 391.648 224.974C388.822 223.163 386.068 221.134 385.633 220.554C384.329 218.887 384.474 215.772 385.996 214.467C388.894 211.931 390.343 212.221 398.169 217.511Z" fill="#FF3D70"/>
<path d="M637.492 317.719C638.008 313.995 639.096 308.867 640.758 302.336C642.477 295.747 644.654 288.729 647.289 281.281C653.305 264.208 660.438 248.997 668.688 235.648C669.833 233.815 671.294 232.755 673.07 232.469C675.591 232.125 677.797 231.953 679.688 231.953C681.635 231.953 683.354 232.182 684.844 232.641C686.391 233.042 687.594 233.586 688.453 234.273C690.172 235.706 690.458 237.224 689.312 238.828C678.943 254.469 669.891 273.547 662.156 296.062C659.234 304.656 657.487 310.643 656.914 314.023C656.341 317.346 655.911 319.638 655.625 320.898C655.396 322.102 655.281 323.161 655.281 324.078C655.281 325.969 656.484 326.914 658.891 326.914C661.297 326.914 663.99 326.37 666.969 325.281C669.948 324.135 673.156 322.56 676.594 320.555C680.031 318.492 683.583 316 687.25 313.078C690.974 310.156 694.612 306.891 698.164 303.281C701.716 299.615 705.068 295.661 708.219 291.422C711.37 287.182 714.12 282.714 716.469 278.016C721.682 267.703 724.289 257.534 724.289 247.508C724.289 233.758 718.703 224.62 707.531 220.094C703.635 218.547 699.568 217.773 695.328 217.773C691.146 217.773 687.594 218.06 684.672 218.633C681.75 219.148 678.943 219.893 676.25 220.867C670.807 222.815 666.224 225.422 662.5 228.688C661.526 229.26 660.352 229.547 658.977 229.547C657.602 229.547 656.112 229.146 654.508 228.344C652.961 227.542 651.557 226.539 650.297 225.336C647.432 222.529 646.286 219.836 646.859 217.258C647.49 213.591 652.99 210.411 663.359 207.719C672.068 205.484 680.833 204.367 689.656 204.367C698.479 204.367 706.414 205.57 713.461 207.977C720.565 210.383 726.323 213.62 730.734 217.688C738.984 225.365 743.109 235.648 743.109 248.539C743.109 265.612 737.208 282.083 725.406 297.953C714.578 312.677 701.688 323.849 686.734 331.469C677.052 336.396 668.143 338.859 660.008 338.859C653.648 338.859 648.177 336.997 643.594 333.273C638.667 329.32 636.633 324.135 637.492 317.719ZM754.281 332.156C751.875 329.865 749.984 326.971 748.609 323.477C747.234 319.924 746.518 315.742 746.461 310.93C746.404 306.117 746.977 301.247 748.18 296.32C749.44 291.393 751.188 286.638 753.422 282.055C755.714 277.471 758.435 273.174 761.586 269.164C764.794 265.154 768.318 261.659 772.156 258.68C780.521 252.263 789.201 249.055 798.195 249.055C809.997 249.055 817.99 254.24 822.172 264.609C825.151 272.115 825.323 281.195 822.688 291.852C820.281 301.648 815.87 310.643 809.453 318.836C803.094 327.029 795.589 332.844 786.938 336.281C782.583 338 778.286 338.859 774.047 338.859C769.865 338.859 766.112 338.315 762.789 337.227C759.523 336.138 756.688 334.448 754.281 332.156ZM770.695 290.477C768.977 294.716 767.602 299.07 766.57 303.539C765.596 308.008 765.138 312.247 765.195 316.258C765.253 320.211 765.854 323.333 767 325.625C768.203 327.859 770.122 328.977 772.758 328.977C775.393 328.977 777.971 328.089 780.492 326.312C783.07 324.479 785.562 322.073 787.969 319.094C790.375 316.115 792.638 312.677 794.758 308.781C796.878 304.885 798.74 300.818 800.344 296.578C803.839 287.354 805.529 279.161 805.414 272C805.414 265.698 804.125 261.688 801.547 259.969C800.516 259.281 799.055 258.938 797.164 258.938C795.331 258.938 793.211 259.797 790.805 261.516C788.398 263.177 785.992 265.44 783.586 268.305C781.18 271.169 778.859 274.521 776.625 278.359C774.391 282.198 772.414 286.237 770.695 290.477ZM865.312 328.203C857.521 335.078 851.391 338.516 846.922 338.516C842.51 338.516 839.445 336.224 837.727 331.641C837.096 330.036 836.781 328.547 836.781 327.172C836.781 323.448 837.354 319.839 838.5 316.344C839.703 312.849 840.878 309.583 842.023 306.547L849.586 287.039C852.508 279.076 854.284 273.518 854.914 270.367C855.544 267.216 855.458 265.096 854.656 264.008C853.854 262.862 852.909 261.888 851.82 261.086C850.789 260.227 849.786 259.482 848.812 258.852C847.896 258.164 847.438 257.333 847.438 256.359C847.438 255.328 847.839 254.354 848.641 253.438C849.5 252.521 850.617 251.719 851.992 251.031C854.742 249.714 857.578 249.055 860.5 249.055C863.479 249.055 865.799 249.37 867.461 250C869.18 250.573 870.583 251.318 871.672 252.234C873.792 254.125 874.852 256.417 874.852 259.109C874.852 261.745 874.393 264.724 873.477 268.047C872.617 271.37 871.5 274.893 870.125 278.617C868.807 282.341 867.318 286.208 865.656 290.219L860.93 302.078C857.206 311.646 854.943 318.807 854.141 323.562C859.526 321.729 866.659 315.141 875.539 303.797C885.221 291.365 893.786 277.185 901.234 261.258C902.094 259.253 903.154 257.964 904.414 257.391C906.477 256.417 909.083 255.987 912.234 256.102C917.219 256.273 919.797 257.82 919.969 260.742C920.083 262.518 919.596 264.495 918.508 266.672C917.477 268.792 916.617 270.568 915.93 272L912.578 278.875C905.875 292.453 902.523 303.482 902.523 311.961C902.523 317.862 904.128 321.901 907.336 324.078C908.253 324.766 909.656 325.109 911.547 325.109C913.438 325.109 915.672 324.451 918.25 323.133C920.828 321.758 923.292 319.896 925.641 317.547C927.99 315.198 930.167 312.477 932.172 309.383C934.234 306.232 936.01 302.88 937.5 299.328C940.651 291.823 942.227 285.177 942.227 279.391C942.227 269.479 940.365 262.174 936.641 257.477C935.38 255.987 935.753 254.24 937.758 252.234C939.878 250.115 943.201 249.055 947.727 249.055C953.284 249.055 957.065 252.177 959.07 258.422C959.872 260.771 960.273 264.294 960.273 268.992C960.273 273.69 959.443 278.932 957.781 284.719C956.12 290.448 953.857 295.977 950.992 301.305C948.185 306.576 944.919 311.503 941.195 316.086C937.529 320.669 933.661 324.651 929.594 328.031C920.885 335.25 912.807 338.859 905.359 338.859C892.583 338.859 886.195 330.609 886.195 314.109C886.195 310.328 886.539 306.633 887.227 303.023C880.466 312.878 873.161 321.271 865.312 328.203ZM1031 265.297C1029.22 265.297 1026.7 267.016 1023.44 270.453C1020.17 273.833 1017.34 276.927 1014.93 279.734L1007.62 288.5L993.531 306.461C990.208 312.763 987.602 318.005 985.711 322.188L981.07 332.156C979.867 334.62 978.807 336.367 977.891 337.398C977.031 338.372 975.828 338.859 974.281 338.859C972.792 338.859 971.331 338.573 969.898 338C968.523 337.484 967.32 336.797 966.289 335.938C964.112 334.104 963.023 332.099 963.023 329.922C963.023 329.062 963.654 327.372 964.914 324.852L968.18 317.891C969.211 315.828 970.414 313.193 971.789 309.984L976.602 298.211C983.362 281.31 986.742 270.396 986.742 265.469C986.742 262.833 985.883 260.885 984.164 259.625L982.445 258.422C981.872 258.021 981.586 257.333 981.586 256.359C981.586 255.328 981.958 254.354 982.703 253.438C983.505 252.521 984.536 251.719 985.797 251.031C988.375 249.714 990.953 249.055 993.531 249.055C996.167 249.055 998.201 249.341 999.633 249.914C1001.07 250.487 1002.27 251.26 1003.24 252.234C1005.36 254.24 1006.42 256.331 1006.42 258.508C1006.42 260.685 1006.14 262.891 1005.56 265.125C1005.05 267.302 1004.36 269.536 1003.5 271.828C1002.7 274.062 1001.84 276.268 1000.92 278.445C1000.01 280.622 999.174 282.513 998.43 284.117L996.711 287.812C996.253 288.729 996.138 289.016 996.367 288.672C1002.73 279.849 1006.91 274.177 1008.91 271.656L1014.93 264.438C1019.34 259.281 1022.81 255.872 1025.33 254.211C1030.43 250.773 1034.44 249.055 1037.36 249.055C1040.28 249.055 1042.74 249.427 1044.75 250.172C1046.76 250.917 1048.5 251.977 1049.99 253.352C1053.14 256.273 1054.72 259.997 1054.72 264.523C1054.72 269.049 1053.69 273.776 1051.62 278.703C1049.56 283.63 1047.76 287.641 1046.21 290.734C1044.72 293.771 1043.29 296.865 1041.91 300.016C1037.62 309.583 1035.47 316.544 1035.47 320.898C1035.47 322.846 1037.02 323.82 1040.11 323.82C1042.52 323.82 1044.69 323.305 1046.64 322.273C1048.65 321.242 1049.93 320.727 1050.51 320.727C1051.71 320.727 1052.31 321.328 1052.31 322.531C1052.31 327.63 1049.71 331.898 1044.49 335.336C1041 337.685 1037.79 338.859 1034.87 338.859C1031.95 338.859 1029.51 338.544 1027.56 337.914C1025.67 337.284 1023.98 336.281 1022.49 334.906C1019.11 331.87 1017.42 327.63 1017.42 322.188C1017.42 315.542 1019.51 307.234 1023.7 297.266C1026.73 290.448 1028.88 285.779 1030.14 283.258L1033.06 277.156C1034.84 273.49 1035.73 270.596 1035.73 268.477C1035.73 266.357 1034.15 265.297 1031 265.297ZM1172.02 315.484C1173.68 315.484 1174.52 316.602 1174.52 318.836C1174.52 320.727 1173.94 322.56 1172.8 324.336C1171.25 327.659 1168.16 330.81 1163.52 333.789C1158.24 337.169 1152.95 338.859 1147.62 338.859C1138.39 338.859 1132.55 334.734 1130.09 326.484C1127.16 316.688 1131.55 295.919 1143.23 264.18C1136.65 263.607 1133.07 262.461 1132.49 260.742C1132.32 260.227 1132.23 259.682 1132.23 259.109C1132.23 258.479 1132.49 257.763 1133.01 256.961C1133.58 256.159 1134.3 255.385 1135.16 254.641C1137.16 252.979 1139.2 252.148 1141.26 252.148H1148.05C1154.23 237.654 1158.65 229.404 1161.28 227.398C1162.54 226.482 1163.95 226.023 1165.49 226.023C1167.04 226.023 1168.33 226.224 1169.36 226.625C1170.39 227.026 1171.31 227.599 1172.11 228.344C1173.94 230.062 1174.86 231.982 1174.86 234.102C1174.86 235.247 1174.52 236.565 1173.83 238.055L1167.47 251.891H1169.53C1173.08 251.891 1175.95 251.862 1178.12 251.805C1178.12 251.805 1179.76 251.776 1183.02 251.719C1184.11 251.661 1185.46 251.633 1187.06 251.633C1188.72 251.633 1189.55 252.234 1189.55 253.438C1189.55 261 1180.62 264.781 1162.74 264.781H1162.05L1156.21 279.906C1149.62 297.781 1146.33 310.299 1146.33 317.461C1146.33 319.466 1146.79 321.042 1147.7 322.188C1148.62 323.276 1150.34 323.82 1152.86 323.82C1155.38 323.82 1157.67 323.391 1159.73 322.531C1161.8 321.672 1163.6 320.727 1165.15 319.695C1166.7 318.607 1168.01 317.633 1169.1 316.773C1170.25 315.914 1171.22 315.484 1172.02 315.484ZM1193.25 332.156C1190.84 329.865 1188.95 326.971 1187.58 323.477C1186.2 319.924 1185.49 315.742 1185.43 310.93C1185.37 306.117 1185.95 301.247 1187.15 296.32C1188.41 291.393 1190.16 286.638 1192.39 282.055C1194.68 277.471 1197.4 273.174 1200.55 269.164C1203.76 265.154 1207.29 261.659 1211.12 258.68C1219.49 252.263 1228.17 249.055 1237.16 249.055C1248.97 249.055 1256.96 254.24 1261.14 264.609C1264.12 272.115 1264.29 281.195 1261.66 291.852C1259.25 301.648 1254.84 310.643 1248.42 318.836C1242.06 327.029 1234.56 332.844 1225.91 336.281C1221.55 338 1217.26 338.859 1213.02 338.859C1208.83 338.859 1205.08 338.315 1201.76 337.227C1198.49 336.138 1195.66 334.448 1193.25 332.156ZM1209.66 290.477C1207.95 294.716 1206.57 299.07 1205.54 303.539C1204.57 308.008 1204.11 312.247 1204.16 316.258C1204.22 320.211 1204.82 323.333 1205.97 325.625C1207.17 327.859 1209.09 328.977 1211.73 328.977C1214.36 328.977 1216.94 328.089 1219.46 326.312C1222.04 324.479 1224.53 322.073 1226.94 319.094C1229.34 316.115 1231.61 312.677 1233.73 308.781C1235.85 304.885 1237.71 300.818 1239.31 296.578C1242.81 287.354 1244.5 279.161 1244.38 272C1244.38 265.698 1243.09 261.688 1240.52 259.969C1239.48 259.281 1238.02 258.938 1236.13 258.938C1234.3 258.938 1232.18 259.797 1229.77 261.516C1227.37 263.177 1224.96 265.44 1222.55 268.305C1220.15 271.169 1217.83 274.521 1215.59 278.359C1213.36 282.198 1211.38 286.237 1209.66 290.477ZM1387.9 318.492C1387.9 310.758 1390.1 298.898 1394.52 282.914C1380.71 283.258 1370.14 283.659 1362.8 284.117C1360.57 288.185 1358.54 292.052 1356.7 295.719L1351.38 306.289C1344.33 320.154 1338 329.292 1332.38 333.703C1328.09 337.141 1323.53 338.859 1318.72 338.859C1315.05 338.859 1312.27 337.656 1310.38 335.25C1309.7 334.276 1309.29 333.359 1309.18 332.5C1309.07 331.583 1309.27 330.982 1309.78 330.695C1316.37 328.232 1321.73 324.479 1325.85 319.438C1329.46 314.911 1333.07 309.383 1336.68 302.852L1346.39 285.492L1340.98 286.266C1337.54 286.896 1335.82 286.352 1335.82 284.633C1335.82 282.914 1336.85 281.281 1338.91 279.734C1342.52 277.042 1346.05 275.266 1349.48 274.406L1353.18 273.547C1362.58 258.021 1369.74 247.164 1374.66 240.977C1379.65 234.789 1384.17 229.633 1388.24 225.508C1392.37 221.383 1396.69 217.745 1401.22 214.594C1411.13 207.776 1420.9 204.367 1430.52 204.367C1433.45 204.367 1435.42 204.969 1436.45 206.172C1438.17 208.062 1438.72 210.096 1438.09 212.273C1437.46 214.393 1436.42 217.458 1434.99 221.469C1425.83 246.448 1420.24 261.917 1418.23 267.875C1419.15 267.818 1419.98 267.789 1420.73 267.789H1422.62C1429.03 267.789 1432.47 268.419 1432.93 269.68C1433.04 270.081 1433.1 270.826 1433.1 271.914C1433.1 272.945 1432.76 274.148 1432.07 275.523C1431.44 276.898 1430.38 278.073 1428.89 279.047C1425.85 281.109 1420.76 282.312 1413.59 282.656C1409.7 296.12 1407.46 305.43 1406.89 310.586C1406.38 315.742 1406.55 319.237 1407.41 321.07C1408.32 322.846 1409.58 323.734 1411.19 323.734C1412.85 323.734 1414.2 323.591 1415.23 323.305C1416.26 322.961 1417.17 322.589 1417.98 322.188L1420.21 321.156C1420.78 320.812 1421.36 320.641 1421.93 320.641C1422.56 320.641 1423.08 321.042 1423.48 321.844C1423.88 322.589 1424.08 323.591 1424.08 324.852C1424.08 326.112 1423.53 327.63 1422.45 329.406C1421.41 331.125 1420.04 332.672 1418.32 334.047C1414.31 337.255 1409.78 338.859 1404.74 338.859C1397.01 338.859 1391.85 335.422 1389.27 328.547C1388.36 326.141 1387.9 323.992 1387.9 322.102V318.492ZM1370.71 270.539C1380.91 269.221 1390.36 268.448 1399.07 268.219C1400.67 263.292 1402.39 258.422 1404.23 253.609L1409.55 239.859C1411.39 235.505 1413.19 231.38 1414.97 227.484L1419.95 216.914C1408.04 220.008 1396.26 230.292 1384.63 247.766C1382.17 251.432 1379.76 255.214 1377.41 259.109L1370.71 270.539ZM1484.84 228.945C1483.58 230.263 1482.14 231.352 1480.54 232.211C1478.93 233.013 1477.24 233.529 1475.47 233.758C1473.69 233.93 1472 233.643 1470.4 232.898C1468.85 232.154 1467.51 231.094 1466.36 229.719C1463.9 226.854 1462.66 223.961 1462.66 221.039C1462.66 218.117 1463.12 215.94 1464.04 214.508C1465.01 213.018 1466.22 211.815 1467.65 210.898C1470.4 209.122 1472.98 208.234 1475.38 208.234C1477.85 208.234 1479.74 208.406 1481.05 208.75C1482.43 209.094 1483.69 209.667 1484.84 210.469C1487.64 212.359 1489.05 214.68 1489.05 217.43C1489.05 220.122 1488.65 222.385 1487.84 224.219C1487.1 225.995 1486.1 227.57 1484.84 228.945ZM1467.22 321.93C1468.71 321.93 1469.45 322.904 1469.45 324.852C1469.45 327.43 1468.28 330.094 1465.93 332.844C1462.49 336.854 1457.88 338.859 1452.09 338.859C1445.45 338.859 1440.89 336.167 1438.43 330.781C1437.51 328.891 1437.05 326.599 1437.05 323.906C1437.05 321.214 1437.51 318.234 1438.43 314.969C1439.4 311.646 1440.58 308.18 1441.95 304.57C1443.39 300.904 1444.93 297.208 1446.59 293.484L1451.15 282.656C1454.47 274.578 1456.13 269.25 1456.13 266.672C1456.13 264.094 1455.85 262.404 1455.27 261.602C1454.76 260.742 1454.18 260.083 1453.55 259.625L1451.84 258.422C1451.26 258.021 1450.98 257.333 1450.98 256.359C1450.98 255.328 1451.35 254.354 1452.09 253.438C1452.9 252.521 1453.93 251.719 1455.19 251.031C1457.77 249.714 1460.77 249.055 1464.21 249.055C1472.63 249.055 1476.84 251.26 1476.84 255.672C1476.84 260.828 1475.5 266.729 1472.8 273.375C1470.11 279.964 1467.82 285.292 1465.93 289.359L1460.77 301.219C1456.99 309.927 1455.1 316.201 1455.1 320.039C1455.1 322.56 1456.36 323.82 1458.88 323.82C1461.35 323.82 1463.21 323.505 1464.47 322.875C1465.73 322.245 1466.65 321.93 1467.22 321.93ZM1484.66 322.875C1484.66 321.099 1485.04 319.466 1485.78 317.977C1486.58 316.43 1487.56 315.141 1488.7 314.109C1491.11 311.875 1493.63 310.758 1496.27 310.758C1498.56 310.758 1499.7 311.932 1499.7 314.281C1499.7 320.24 1501.68 324.393 1505.63 326.742C1507.07 327.602 1508.55 328.031 1510.1 328.031C1511.65 328.031 1512.97 327.859 1514.05 327.516C1515.14 327.172 1516.15 326.628 1517.06 325.883C1519.12 324.221 1520.16 322.245 1520.16 319.953C1520.16 317.661 1519.64 315.57 1518.61 313.68C1517.58 311.732 1516.29 309.698 1514.74 307.578L1509.84 300.703C1502.97 291.536 1499.53 283.086 1499.53 275.352C1499.53 268.935 1502.25 263.12 1507.7 257.906C1513.88 252.005 1521.82 249.055 1531.5 249.055C1539.98 249.055 1546.6 251.146 1551.35 255.328C1555.25 258.708 1557.2 262.576 1557.2 266.93C1557.2 271.456 1555.48 275.065 1552.04 277.758C1548.95 280.164 1545.85 281.052 1542.76 280.422C1541.38 280.135 1540.32 279.448 1539.58 278.359C1538.83 277.214 1538.69 275.924 1539.15 274.492C1539.61 273.06 1539.84 271.57 1539.84 270.023C1539.84 268.477 1539.55 267.044 1538.98 265.727C1538.4 264.409 1537.63 263.292 1536.66 262.375C1534.65 260.484 1532.53 259.539 1530.3 259.539C1528.12 259.539 1526.32 259.797 1524.88 260.312C1523.45 260.771 1522.19 261.458 1521.1 262.375C1518.87 264.438 1517.75 266.987 1517.75 270.023C1517.75 273.003 1518.27 275.581 1519.3 277.758C1520.33 279.935 1521.59 282.112 1523.08 284.289C1524.62 286.466 1526.29 288.672 1528.06 290.906C1529.84 293.141 1531.47 295.49 1532.96 297.953C1536.57 303.74 1538.38 308.839 1538.38 313.25C1538.38 317.604 1537.46 321.271 1535.62 324.25C1533.79 327.172 1531.41 329.693 1528.49 331.812C1522.25 336.453 1515.26 338.773 1507.52 338.773C1500.13 338.773 1494.29 336.997 1489.99 333.445C1486.44 330.466 1484.66 326.943 1484.66 322.875ZM1567.59 334.562C1566.16 333.073 1564.99 331.182 1564.07 328.891C1563.21 326.542 1562.78 323.849 1562.78 320.812C1562.78 317.719 1563.47 313.594 1564.84 308.438C1566.28 303.281 1568.08 297.409 1570.26 290.82L1577.48 269.422C1587.73 239.63 1593.66 216.599 1595.27 200.328C1595.78 195.516 1598.13 193.109 1602.31 193.109C1604.95 193.109 1607.12 193.74 1608.84 195C1612.17 197.521 1613.77 200.328 1613.66 203.422C1613.54 206.516 1613 210.297 1612.02 214.766C1611.05 219.177 1609.79 224.018 1608.24 229.289C1606.7 234.503 1604.92 240.031 1602.91 245.875L1591.05 280.766C1584.24 300.589 1580.83 313.393 1580.83 319.18C1580.83 322.273 1582.09 323.82 1584.61 323.82C1587.02 323.82 1589.19 323.305 1591.14 322.273C1593.15 321.242 1594.43 320.727 1595.01 320.727C1596.21 320.727 1596.81 321.328 1596.81 322.531C1596.81 327.63 1594.21 331.898 1588.99 335.336C1585.5 337.685 1582.29 338.859 1579.37 338.859C1576.5 338.859 1574.18 338.516 1572.41 337.828C1570.63 337.141 1569.03 336.052 1567.59 334.562ZM1613.4 307.922C1613.63 302.938 1614.46 298.182 1615.89 293.656C1617.32 289.073 1619.24 284.661 1621.65 280.422C1624.05 276.125 1626.86 272.086 1630.07 268.305C1633.34 264.466 1636.86 261.115 1640.64 258.25C1648.83 252.12 1657.11 249.055 1665.48 249.055C1675.27 249.055 1681.8 253.094 1685.07 261.172C1686.22 263.922 1686.76 267.188 1686.7 270.969C1686.65 274.693 1685.93 278.159 1684.55 281.367C1683.18 284.518 1681.26 287.411 1678.8 290.047C1676.39 292.625 1673.5 294.945 1670.12 297.008C1666.79 299.07 1663.16 300.818 1659.2 302.25C1651.07 305.115 1642.36 306.604 1633.08 306.719C1632.85 307.521 1632.71 308.724 1632.65 310.328C1632.59 311.932 1632.76 313.737 1633.16 315.742C1633.57 317.69 1634.25 319.438 1635.23 320.984C1637.29 324.422 1640.27 326.141 1644.16 326.141C1650.81 326.141 1657.28 324.193 1663.59 320.297C1665.82 318.979 1667.62 317.633 1669 316.258C1670.43 314.826 1671.66 314.109 1672.7 314.109C1673.73 314.109 1674.61 314.74 1675.36 316C1676.16 317.203 1676.56 318.578 1676.56 320.125C1676.56 323.161 1675.7 325.797 1673.98 328.031C1666.77 335.25 1656.02 338.859 1641.76 338.859C1633.34 338.859 1626.58 336.339 1621.48 331.297C1615.75 325.568 1613.05 317.776 1613.4 307.922ZM1663.59 260.484C1657.57 260.484 1651.78 264.609 1646.23 272.859C1641.53 279.964 1637.75 288.385 1634.88 298.125C1644.45 297.151 1652.76 293.37 1659.8 286.781C1666.28 280.594 1669.52 274.664 1669.52 268.992C1669.52 263.32 1667.54 260.484 1663.59 260.484ZM1721.77 304.828C1718.96 304.828 1717.55 300.846 1717.55 292.883C1717.55 281.883 1720.45 267.76 1726.23 250.516C1731.39 235.104 1737.23 222.901 1743.77 213.906C1747.32 209.036 1750.84 206.115 1754.34 205.141C1756.17 204.682 1757.86 204.453 1759.41 204.453C1761.01 204.453 1762.41 204.568 1763.62 204.797C1764.82 205.026 1765.88 205.37 1766.8 205.828C1768.8 206.745 1769.8 207.919 1769.8 209.352C1769.8 210.784 1769.23 212.302 1768.09 213.906C1766.94 215.51 1765.11 218.26 1762.59 222.156C1760.07 226.052 1757.11 231.151 1753.73 237.453C1745.6 252.578 1737.66 270.453 1729.93 291.078C1729.13 293.141 1728.44 295.031 1727.87 296.75C1727.35 298.411 1726.81 299.844 1726.23 301.047C1725.03 303.568 1723.54 304.828 1721.77 304.828ZM1707.41 335.078C1706.15 333.818 1705.15 332.385 1704.41 330.781C1703.66 329.12 1703.29 327.229 1703.29 325.109C1703.29 322.932 1703.69 321.013 1704.49 319.352C1705.35 317.633 1706.41 316.258 1707.67 315.227C1709.91 313.393 1712.26 312.477 1714.72 312.477C1717.24 312.477 1719.36 312.648 1721.08 312.992C1722.85 313.336 1724.49 313.88 1725.98 314.625C1729.59 316.458 1731.39 319.094 1731.39 322.531C1731.39 326.828 1729.99 330.581 1727.18 333.789C1724.54 336.768 1721.79 338.401 1718.93 338.688C1716.12 338.974 1713.83 338.745 1712.05 338C1710.28 337.312 1708.73 336.339 1707.41 335.078Z" fill="black"/>
</g>
<defs>
<filter id="filter0_d_304_2993" x="0" y="0" width="1789.8" height="552" filterUnits="userSpaceOnUse" color-interpolation-filters="sRGB">
<feFlood flood-opacity="0" result="BackgroundImageFix"/>
<feColorMatrix in="SourceAlpha" type="matrix" values="0 0 0 0 0 0 0 0 0 0 0 0 0 0 0 0 0 0 127 0" result="hardAlpha"/>
<feOffset/>
<feGaussianBlur stdDeviation="10"/>
<feComposite in2="hardAlpha" operator="out"/>
<feColorMatrix type="matrix" values="0 0 0 0 0 0 0 0 0 0 0 0 0 0 0 0 0 0 0.39 0"/>
<feBlend mode="normal" in2="BackgroundImageFix" result="effect1_dropShadow_304_2993"/>
<feBlend mode="normal" in="SourceGraphic" in2="effect1_dropShadow_304_2993" result="shape"/>
</filter>
</defs>
</svg>
